<?xml version="1.0" encoding="UTF-8" standalone="no"?>
<!DOCTYPE svg PUBLIC "-//W3C//DTD SVG 1.1//EN" "http://www.w3.org/Graphics/SVG/1.1/DTD/svg11.dtd">
<svg width="100%" height="100%" viewBox="0 0 800 800" version="1.1" xmlns="http://www.w3.org/2000/svg" xmlns:xlink="http://www.w3.org/1999/xlink" xml:space="preserve" xmlns:serif="http://www.serif.com/" style="fill-rule:evenodd;clip-rule:evenodd;stroke-linejoin:round;stroke-miterlimit:2;">
    <g transform="matrix(2.03704,0,0,2.03704,-129.63,-129.63)">
        <g id="cp-palmblue-001-bw">
            <path id="cp-palmblue-001" d="M260,80C359.345,80 440,160.655 440,260C440,359.345 359.345,440 260,440C160.655,440 80,359.345 80,260C80,160.655 160.655,80 260,80ZM260,84C357.137,84 436,162.863 436,260C436,357.137 357.137,436 260,436C162.863,436 84,357.137 84,260C84,162.863 162.863,84 260,84ZM259,204.615L259.007,410.766C176.249,410.229 109.231,342.879 109.231,260C109.231,176.788 176.788,109.231 260,109.231C343.212,109.231 410.769,176.788 410.769,260C410.769,336.031 354.369,398.992 281.161,409.293L281.161,315.385L342.084,315.385C357.368,315.385 369.777,302.976 369.777,287.692L369.777,232.308C369.777,217.024 357.368,204.615 342.084,204.615L259,204.615ZM245,204.615L175.931,204.615C160.647,204.615 148.238,217.024 148.238,232.308L148.238,287.692C148.238,302.976 160.647,315.385 175.931,315.385L245.161,315.385L245.161,293.231L175.931,293.231C172.874,293.231 170.392,290.749 170.392,287.692C170.392,287.692 170.392,232.308 170.392,232.308C170.392,229.251 172.874,226.769 175.931,226.769L245,226.769L245,204.615ZM281.161,293.231L342.084,293.231C345.141,293.231 347.623,290.749 347.623,287.692L347.623,232.308C347.623,229.251 345.141,226.769 342.084,226.769L281.161,226.769L281.161,293.231Z"/>
        </g>
    </g>
</svg>
