<?xml version="1.0" encoding="UTF-8" standalone="no"?>
<!DOCTYPE svg PUBLIC "-//W3C//DTD SVG 1.1//EN" "http://www.w3.org/Graphics/SVG/1.1/DTD/svg11.dtd">
<svg width="160px" height="30px" viewBox="0 0 480 90"  version="1.1" xmlns="http://www.w3.org/2000/svg" xmlns:xlink="http://www.w3.org/1999/xlink" xml:space="preserve" xmlns:serif="http://www.serif.com/" style="fill-rule:evenodd;clip-rule:evenodd;stroke-linejoin:round;stroke-miterlimit:2;">
    <g id="hbuttons-clie-s300" transform="matrix(1,0,0,1,180,0)">
        <g id="bg" transform="matrix(6.46904,0,0,1.25479,-5849.39,-392.78)">
            <g id="bg1" serif:id="bg" transform="matrix(1.15937,0,0,1.79312,695.533,265.009)">
                <rect x="155.994" y="26.777" width="64" height="40" style="fill:rgb(98,93,122);"/>
            </g>
            <g id="bg-upper-highlight" transform="matrix(2.47332,0,0,0.0885492,841.762,257.503)">
                <rect x="14" y="627" width="30" height="18" style="fill:rgb(159,155,179);"/>
            </g>
        </g>
        <g id="buttons">
            <g id="button" transform="matrix(1,0,0,1,120,-4.44089e-15)">
                <g id="contour" transform="matrix(0.977288,0,0,0.977288,2.57752,1.5107)">
                    <circle cx="135.5" cy="44.5" r="28.651" style="fill:url(#_Linear2);"/>
                </g>
                <g id="hole" transform="matrix(0.872578,0,0,0.872578,16.7656,6.17027)">
                    <circle cx="135.5" cy="44.5" r="28.651" style="fill:rgb(15,18,18);"/>
                </g>
                <g id="outer" transform="matrix(0.867925,0,0,0.867925,17.3962,6.37736)">
                    <circle cx="135.5" cy="44.5" r="26.5" style="fill:url(#_Linear3);"/>
                </g>
                <g id="button1" serif:id="button" transform="matrix(0.792453,0,0,0.792453,27.6226,9.73585)">
                    <circle cx="135.5" cy="44.5" r="26.5" style="fill:url(#_Linear4);"/>
                </g>
            </g>
            <g id="button2" serif:id="button" transform="matrix(1,0,0,1,30,-4.44089e-15)">
                <g id="contour1" serif:id="contour" transform="matrix(0.977288,0,0,0.977288,2.57752,1.5107)">
                    <circle cx="135.5" cy="44.5" r="28.651" style="fill:url(#_Linear5);"/>
                </g>
                <g id="hole1" serif:id="hole" transform="matrix(0.872578,0,0,0.872578,16.7656,6.17027)">
                    <circle cx="135.5" cy="44.5" r="28.651" style="fill:rgb(15,18,18);"/>
                </g>
                <g id="outer1" serif:id="outer" transform="matrix(0.867925,0,0,0.867925,17.3962,6.37736)">
                    <circle cx="135.5" cy="44.5" r="26.5" style="fill:url(#_Linear6);"/>
                </g>
                <g id="button3" serif:id="button" transform="matrix(0.792453,0,0,0.792453,27.6226,9.73585)">
                    <circle cx="135.5" cy="44.5" r="26.5" style="fill:url(#_Linear7);"/>
                </g>
            </g>
            <g id="button4" serif:id="button" transform="matrix(1,0,0,1,-180,-4.44089e-15)">
                <g id="contour2" serif:id="contour" transform="matrix(0.977288,0,0,0.977288,2.57752,1.5107)">
                    <circle cx="135.5" cy="44.5" r="28.651" style="fill:url(#_Linear8);"/>
                </g>
                <g id="hole2" serif:id="hole" transform="matrix(0.872578,0,0,0.872578,16.7656,6.17027)">
                    <circle cx="135.5" cy="44.5" r="28.651" style="fill:rgb(15,18,18);"/>
                </g>
                <g id="outer2" serif:id="outer" transform="matrix(0.867925,0,0,0.867925,17.3962,6.37736)">
                    <circle cx="135.5" cy="44.5" r="26.5" style="fill:url(#_Linear9);"/>
                </g>
                <g id="button5" serif:id="button" transform="matrix(0.792453,0,0,0.792453,27.6226,9.73585)">
                    <circle cx="135.5" cy="44.5" r="26.5" style="fill:url(#_Linear10);"/>
                </g>
            </g>
            <g id="button6" serif:id="button" transform="matrix(1,0,0,1,-270,-4.44089e-15)">
                <g id="contour3" serif:id="contour" transform="matrix(0.977288,0,0,0.977288,2.57752,1.5107)">
                    <circle cx="135.5" cy="44.5" r="28.651" style="fill:url(#_Linear11);"/>
                </g>
                <g id="hole3" serif:id="hole" transform="matrix(0.872578,0,0,0.872578,16.7656,6.17027)">
                    <circle cx="135.5" cy="44.5" r="28.651" style="fill:rgb(15,18,18);"/>
                </g>
                <g id="outer3" serif:id="outer" transform="matrix(0.867925,0,0,0.867925,17.3962,6.37736)">
                    <circle cx="135.5" cy="44.5" r="26.5" style="fill:url(#_Linear12);"/>
                </g>
                <g id="button7" serif:id="button" transform="matrix(0.792453,0,0,0.792453,27.6226,9.73585)">
                    <circle cx="135.5" cy="44.5" r="26.5" style="fill:url(#_Linear13);"/>
                </g>
            </g>
        </g>
        <g id="icons">
            <g id="icon-memo-pad" transform="matrix(1,0,0,1,-180,0)">
                <path style="fill:url(#_Linear28);" d="M444.736,43.349L442.652,42.5L443.652,40.848L434.173,36L425.152,49.816L432.816,53.07L437.652,51.071L438.794,49.44L440.794,50.62L439.652,52.533L432.26,55.5L421.848,50.814L433.305,33.199L446.652,40.037L444.736,43.349ZM450.152,44C449.987,44.741 446.625,46.133 443.11,47.295C439.595,48.458 435.928,49.392 435.152,49.219C435.483,47.736 448.601,43.654 450.152,44ZM434.202,48.572C434.399,48.158 434.223,47.662 433.809,47.465L430.432,45.859C430.018,45.662 429.522,45.839 429.325,46.253C429.128,46.667 429.304,47.163 429.718,47.36L433.095,48.966C433.509,49.163 434.005,48.987 434.202,48.572ZM436.838,45.748C437.035,45.334 436.859,44.838 436.444,44.641L432.317,42.678C431.903,42.481 431.407,42.658 431.21,43.072C431.013,43.486 431.19,43.982 431.604,44.179L435.731,46.142C436.145,46.339 436.641,46.162 436.838,45.748ZM440.015,42.706C440.212,42.292 440.035,41.796 439.621,41.599L434.369,39.101C433.955,38.904 433.458,39.081 433.262,39.495C433.065,39.909 433.241,40.405 433.655,40.602L438.907,43.1C439.322,43.297 439.818,43.12 440.015,42.706Z"/>
            </g>
            <g id="icon-todo-clie" transform="matrix(0.830886,0,0,0.830886,-121.448,7.61014)">
                <path style="fill:url(#_Linear30);" d="M334,53L330,53L330,57L334,57L334,53ZM357,54.994C357,53.886 356.101,52.987 354.994,52.987L340.006,52.987C338.899,52.987 338,53.886 338,54.994C338,56.101 338.899,57 340.006,57L354.994,57C356.101,57 357,56.101 357,54.994ZM327.5,42.148L330.5,41L331,44L335,40L337,42L329,50L327.5,42.148ZM362,44.994C362,43.89 361.104,42.994 360,42.994L342,42.994C340.896,42.994 340,43.89 340,44.994C340,46.097 340.896,46.994 342,46.994L360,46.994C361.104,46.994 362,46.097 362,44.994ZM358,35C358,33.896 357.104,33 356,33L340,33C338.896,33 338,33.896 338,35C338,36.104 338.896,37 340,37L356,37C357.104,37 358,36.104 358,35ZM334,33L330,33L330,37L334,37L334,33Z"/>
            </g>
            <g id="icon-address-book-clie" transform="matrix(0.830886,0,0,0.830886,-171.295,12.5661)">
                <path style="fill:url(#_Linear29);" d="M142.759,29.28C145.123,30.253 146.776,31.91 147.732,34.268L146,36C148,40.16 151,42.994 155,45L155.731,44.269C158.111,45.24 159.772,46.901 160.732,49.268L159,51C149,49 141,43 140,32L142.759,29.28ZM157.261,42.739L159,41C162,41 164,43 164,46L162.225,47.775C161.244,45.427 159.603,43.786 157.261,42.739ZM144.303,27.758L145,27.071C148.035,27.071 149.965,29 149.965,32.035L149.225,32.775C148.25,30.441 146.622,28.806 144.303,27.758Z"/>
            </g>
            <g id="icon-calendar-clie" transform="matrix(0.833333,0,0,0.833333,-171.667,7.5)">
                <path style="fill:url(#_Linear20);" d="M36,33C42.623,33 48,38.377 48,45C48,51.623 42.623,57 36,57C29.377,57 24,51.623 24,45C24,38.377 29.377,33 36,33ZM36,36C40.967,36 45,40.033 45,45C45,49.967 40.967,54 36,54C31.033,54 27,49.967 27,45C27,40.033 31.033,36 36,36ZM61,51.5C61,50.672 60.328,50 59.5,50L49.506,50C48.678,50 48.006,50.672 48.006,51.5C48.006,52.328 48.678,53 49.506,53L59.5,53C60.328,53 61,52.328 61,51.5ZM35.029,45L40,40L42,42L35,49L30,44L32.014,41.986L35.029,45ZM64,44.536C64,43.708 63.328,43.036 62.5,43.036L52.506,43.036C51.678,43.036 51.006,43.708 51.006,44.536C51.006,45.364 51.678,46.036 52.506,46.036L62.5,46.036C63.328,46.036 64,45.364 64,44.536ZM61.994,37.5C61.994,36.672 61.322,36 60.494,36L50.5,36C49.672,36 49,36.672 49,37.5C49,38.328 49.672,39 50.5,39L60.494,39C61.322,39 61.994,38.328 61.994,37.5Z"/>
            </g>
        </g>
        <g id="rocker" transform="matrix(1,0,0,1,-180,0)">
            <g id="rocker-recess" transform="matrix(1.05,0,0,1.02941,-12,-1.32353)">
                <path d="M260,62C260,57.164 257,53 257,45C257,37 260,33.836 260,29C260,18.314 249.934,11 240,11C230.066,11 220,18.8 220,29C220,33.836 223,37 223,45C223,53 220,57.164 220,62C220,72.686 230.066,79 240,79C249.934,79 260,72.723 260,62Z" style="fill:url(#_Linear21);"/>
            </g>
            <g id="rocker-bottom">
            </g>
            <g id="rocker-top">
            </g>
            <g id="outline" transform="matrix(1.44681,0,0,2.44444,-107.596,-32)">
                <path d="M252,24.955C252,21.116 246.735,18 240.25,18C233.765,18 228.5,21.116 228.5,24.955L228.5,38.045C228.5,41.884 233.765,45 240.25,45C246.735,45 252,41.884 252,38.045L252,24.955Z"/>
            </g>
            <g id="outline1" serif:id="outline" transform="matrix(1.2766,0,0,2.2963,-66.7021,-27.3333)">
                <path d="M252,24.532C252,20.927 246.735,18 240.25,18C233.765,18 228.5,20.927 228.5,24.532L228.5,38.468C228.5,42.073 233.765,45 240.25,45C246.735,45 252,42.073 252,38.468L252,24.532Z" style="fill:url(#_Linear22);"/>
            </g>
            <g id="body" transform="matrix(1.10638,0,0,2.14815,-25.8085,-22.6667)">
                <path d="M252,24.052C252,20.712 246.735,18 240.25,18C233.765,18 228.5,20.712 228.5,24.052L228.5,38.948C228.5,42.288 233.765,45 240.25,45C246.735,45 252,42.288 252,38.948L252,24.052Z" style="fill:url(#_Linear23);"/>
            </g>
            <g id="recess-bottom-outline" transform="matrix(1.29412,0,0,1.29412,-72.5294,21.5294)">
                <circle cx="241.5" cy="30.5" r="8.5" style="fill:url(#_Linear24);"/>
            </g>
            <g id="recess-bottom" transform="matrix(1.17647,0,0,1.17647,-44.1176,25.1176)">
                <circle cx="241.5" cy="30.5" r="8.5" style="fill:url(#_Linear25);"/>
            </g>
            <g id="recess-top-outline" transform="matrix(1.29412,0,0,1.29412,-72.5294,-10.4706)">
                <circle cx="241.5" cy="30.5" r="8.5" style="fill:url(#_Linear26);"/>
            </g>
            <g id="recess-top" transform="matrix(1.17647,0,0,1.17647,-44.1176,-6.88235)">
                <circle cx="241.5" cy="30.5" r="8.5" style="fill:url(#_Linear27);"/>
            </g>
        </g>
    </g>
    <defs>
        <linearGradient id="_Linear1" x1="0" y1="0" x2="1" y2="0" gradientUnits="userSpaceOnUse" gradientTransform="matrix(9,0,0,90,3,45)"><stop offset="0" style="stop-color:rgb(183,183,183);stop-opacity:1"/><stop offset="1" style="stop-color:rgb(154,154,154);stop-opacity:1"/></linearGradient>
        <linearGradient id="_Linear2" x1="0" y1="0" x2="1" y2="0" gradientUnits="userSpaceOnUse" gradientTransform="matrix(3.27987e-15,53.5644,-53.5644,3.27987e-15,135.5,15.8493)"><stop offset="0" style="stop-color:rgb(71,67,88);stop-opacity:1"/><stop offset="0.43" style="stop-color:rgb(90,85,112);stop-opacity:1"/><stop offset="1" style="stop-color:rgb(132,125,165);stop-opacity:1"/></linearGradient>
        <linearGradient id="_Linear3" x1="0" y1="0" x2="1" y2="0" gradientUnits="userSpaceOnUse" gradientTransform="matrix(3.03366e-15,49.5435,-49.5435,3.03366e-15,135.5,18)"><stop offset="0" style="stop-color:rgb(175,169,200);stop-opacity:1"/><stop offset="0.57" style="stop-color:rgb(103,99,123);stop-opacity:1"/><stop offset="1" style="stop-color:rgb(71,67,88);stop-opacity:1"/></linearGradient>
        <linearGradient id="_Linear4" x1="0" y1="0" x2="1" y2="0" gradientUnits="userSpaceOnUse" gradientTransform="matrix(3.03366e-15,49.5435,-49.5435,3.03366e-15,135.5,18)"><stop offset="0" style="stop-color:rgb(71,67,88);stop-opacity:1"/><stop offset="0.43" style="stop-color:rgb(103,99,123);stop-opacity:1"/><stop offset="1" style="stop-color:rgb(175,169,200);stop-opacity:1"/></linearGradient>
        <linearGradient id="_Linear5" x1="0" y1="0" x2="1" y2="0" gradientUnits="userSpaceOnUse" gradientTransform="matrix(3.27987e-15,53.5644,-53.5644,3.27987e-15,135.5,15.8493)"><stop offset="0" style="stop-color:rgb(71,67,88);stop-opacity:1"/><stop offset="0.43" style="stop-color:rgb(90,85,112);stop-opacity:1"/><stop offset="1" style="stop-color:rgb(132,125,165);stop-opacity:1"/></linearGradient>
        <linearGradient id="_Linear6" x1="0" y1="0" x2="1" y2="0" gradientUnits="userSpaceOnUse" gradientTransform="matrix(3.03366e-15,49.5435,-49.5435,3.03366e-15,135.5,18)"><stop offset="0" style="stop-color:rgb(175,169,200);stop-opacity:1"/><stop offset="0.57" style="stop-color:rgb(103,99,123);stop-opacity:1"/><stop offset="1" style="stop-color:rgb(71,67,88);stop-opacity:1"/></linearGradient>
        <linearGradient id="_Linear7" x1="0" y1="0" x2="1" y2="0" gradientUnits="userSpaceOnUse" gradientTransform="matrix(3.03366e-15,49.5435,-49.5435,3.03366e-15,135.5,18)"><stop offset="0" style="stop-color:rgb(71,67,88);stop-opacity:1"/><stop offset="0.43" style="stop-color:rgb(103,99,123);stop-opacity:1"/><stop offset="1" style="stop-color:rgb(175,169,200);stop-opacity:1"/></linearGradient>
        <linearGradient id="_Linear8" x1="0" y1="0" x2="1" y2="0" gradientUnits="userSpaceOnUse" gradientTransform="matrix(3.27987e-15,53.5644,-53.5644,3.27987e-15,135.5,15.8493)"><stop offset="0" style="stop-color:rgb(71,67,88);stop-opacity:1"/><stop offset="0.43" style="stop-color:rgb(90,85,112);stop-opacity:1"/><stop offset="1" style="stop-color:rgb(132,125,165);stop-opacity:1"/></linearGradient>
        <linearGradient id="_Linear9" x1="0" y1="0" x2="1" y2="0" gradientUnits="userSpaceOnUse" gradientTransform="matrix(3.03366e-15,49.5435,-49.5435,3.03366e-15,135.5,18)"><stop offset="0" style="stop-color:rgb(175,169,200);stop-opacity:1"/><stop offset="0.57" style="stop-color:rgb(103,99,123);stop-opacity:1"/><stop offset="1" style="stop-color:rgb(71,67,88);stop-opacity:1"/></linearGradient>
        <linearGradient id="_Linear10" x1="0" y1="0" x2="1" y2="0" gradientUnits="userSpaceOnUse" gradientTransform="matrix(3.03366e-15,49.5435,-49.5435,3.03366e-15,135.5,18)"><stop offset="0" style="stop-color:rgb(71,67,88);stop-opacity:1"/><stop offset="0.43" style="stop-color:rgb(103,99,123);stop-opacity:1"/><stop offset="1" style="stop-color:rgb(175,169,200);stop-opacity:1"/></linearGradient>
        <linearGradient id="_Linear11" x1="0" y1="0" x2="1" y2="0" gradientUnits="userSpaceOnUse" gradientTransform="matrix(3.27987e-15,53.5644,-53.5644,3.27987e-15,135.5,15.8493)"><stop offset="0" style="stop-color:rgb(71,67,88);stop-opacity:1"/><stop offset="0.43" style="stop-color:rgb(90,85,112);stop-opacity:1"/><stop offset="1" style="stop-color:rgb(132,125,165);stop-opacity:1"/></linearGradient>
        <linearGradient id="_Linear12" x1="0" y1="0" x2="1" y2="0" gradientUnits="userSpaceOnUse" gradientTransform="matrix(3.03366e-15,49.5435,-49.5435,3.03366e-15,135.5,18)"><stop offset="0" style="stop-color:rgb(175,169,200);stop-opacity:1"/><stop offset="0.57" style="stop-color:rgb(103,99,123);stop-opacity:1"/><stop offset="1" style="stop-color:rgb(71,67,88);stop-opacity:1"/></linearGradient>
        <linearGradient id="_Linear13" x1="0" y1="0" x2="1" y2="0" gradientUnits="userSpaceOnUse" gradientTransform="matrix(3.03366e-15,49.5435,-49.5435,3.03366e-15,135.5,18)"><stop offset="0" style="stop-color:rgb(71,67,88);stop-opacity:1"/><stop offset="0.43" style="stop-color:rgb(103,99,123);stop-opacity:1"/><stop offset="1" style="stop-color:rgb(175,169,200);stop-opacity:1"/></linearGradient>
        <linearGradient id="_Linear20" x1="0" y1="0" x2="1" y2="0" gradientUnits="userSpaceOnUse" gradientTransform="matrix(1.6,-24,14.4,0.959999,44.4,57)"><stop offset="0" style="stop-color:white;stop-opacity:1"/><stop offset="1" style="stop-color:rgb(170,170,170);stop-opacity:1"/></linearGradient>
        <linearGradient id="_Linear21" x1="0" y1="0" x2="1" y2="0" gradientUnits="userSpaceOnUse" gradientTransform="matrix(2.28956e-15,63.5652,-37.3913,3.89225e-15,240,11)"><stop offset="0" style="stop-color:rgb(71,67,88);stop-opacity:1"/><stop offset="0.43" style="stop-color:rgb(90,85,112);stop-opacity:1"/><stop offset="1" style="stop-color:rgb(132,125,165);stop-opacity:1"/></linearGradient>
        <linearGradient id="_Linear22" x1="0" y1="0" x2="1" y2="0" gradientUnits="userSpaceOnUse" gradientTransform="matrix(1.34511e-15,25.2391,-21.9674,1.54545e-15,240.25,18)"><stop offset="0" style="stop-color:rgb(206,198,248);stop-opacity:1"/><stop offset="0.57" style="stop-color:rgb(92,88,112);stop-opacity:1"/><stop offset="1" style="stop-color:rgb(40,38,50);stop-opacity:1"/></linearGradient>
        <linearGradient id="_Linear23" x1="0" y1="0" x2="1" y2="0" gradientUnits="userSpaceOnUse" gradientTransform="matrix(1.34511e-15,25.2391,-21.9674,1.54545e-15,240.25,18)"><stop offset="0" style="stop-color:rgb(169,160,209);stop-opacity:1"/><stop offset="0.57" style="stop-color:rgb(102,96,126);stop-opacity:1"/><stop offset="1" style="stop-color:rgb(71,67,88);stop-opacity:1"/></linearGradient>
        <linearGradient id="_Linear24" x1="0" y1="0" x2="1" y2="0" gradientUnits="userSpaceOnUse" gradientTransform="matrix(9.73062e-16,15.8913,-15.8913,9.73062e-16,241.5,22)"><stop offset="0" style="stop-color:rgb(84,80,105);stop-opacity:1"/><stop offset="0.43" style="stop-color:rgb(89,84,117);stop-opacity:1"/><stop offset="1" style="stop-color:rgb(100,92,143);stop-opacity:1"/></linearGradient>
        <linearGradient id="_Linear25" x1="0" y1="0" x2="1" y2="0" gradientUnits="userSpaceOnUse" gradientTransform="matrix(9.73062e-16,15.8913,-15.8913,9.73062e-16,241.5,22)"><stop offset="0" style="stop-color:rgb(71,67,88);stop-opacity:1"/><stop offset="0.43" style="stop-color:rgb(103,99,123);stop-opacity:1"/><stop offset="1" style="stop-color:rgb(175,169,200);stop-opacity:1"/></linearGradient>
        <linearGradient id="_Linear26" x1="0" y1="0" x2="1" y2="0" gradientUnits="userSpaceOnUse" gradientTransform="matrix(9.73062e-16,15.8913,-15.8913,9.73062e-16,241.5,22)"><stop offset="0" style="stop-color:rgb(95,90,118);stop-opacity:1"/><stop offset="0.43" style="stop-color:rgb(115,109,140);stop-opacity:1"/><stop offset="1" style="stop-color:rgb(158,151,189);stop-opacity:1"/></linearGradient>
        <linearGradient id="_Linear27" x1="0" y1="0" x2="1" y2="0" gradientUnits="userSpaceOnUse" gradientTransform="matrix(9.73062e-16,15.8913,-15.8913,9.73062e-16,241.5,22)"><stop offset="0" style="stop-color:rgb(71,67,88);stop-opacity:1"/><stop offset="0.43" style="stop-color:rgb(103,99,123);stop-opacity:1"/><stop offset="1" style="stop-color:rgb(175,169,200);stop-opacity:1"/></linearGradient>
        <linearGradient id="_Linear28" x1="0.8125" y1="0" x2="1.8125" y2="0" gradientUnits="userSpaceOnUse" gradientTransform="matrix(1.6,-24,14.4,0.959999,44.4,57)"><stop offset="0" style="stop-color:white;stop-opacity:1"/><stop offset="1" style="stop-color:rgb(170,170,170);stop-opacity:1"/></linearGradient>
        <linearGradient id="_Linear29" x1="0.1875" y1="0" x2="1.1875" y2="0" gradientUnits="userSpaceOnUse" gradientTransform="matrix(1.6,-24,14.4,0.959999,44.4,57)"><stop offset="0" style="stop-color:white;stop-opacity:1"/><stop offset="1" style="stop-color:rgb(170,170,170);stop-opacity:1"/></linearGradient>
        <linearGradient id="_Linear30" x1="0.626" y1="0" x2="1.625" y2="0" gradientUnits="userSpaceOnUse" gradientTransform="matrix(1.6,-24,14.4,0.959999,44.4,57)"><stop offset="0" style="stop-color:white;stop-opacity:1"/><stop offset="1" style="stop-color:rgb(170,170,170);stop-opacity:1"/></linearGradient>
    </defs>
</svg>
