<?xml version="1.0" encoding="UTF-8" standalone="no"?>
<!DOCTYPE svg PUBLIC "-//W3C//DTD SVG 1.1//EN" "http://www.w3.org/Graphics/SVG/1.1/DTD/svg11.dtd">
<svg width="480px" height="180px" viewBox="0 0 480 180" version="1.1" xmlns="http://www.w3.org/2000/svg" xmlns:xlink="http://www.w3.org/1999/xlink" xml:space="preserve" xmlns:serif="http://www.serif.com/" style="fill-rule:evenodd;clip-rule:evenodd;stroke-linejoin:round;stroke-miterlimit:2;">
    <g id="silkscreen_palmtw">
        <g id="bg-color" transform="matrix(5.33333,0,0,2.68657,-592,-67.1642)">
            <rect x="111" y="25" width="90" height="67" style="fill:rgb(53,64,70);"/>
        </g>
        <g id="write-area">
            <path id="border" d="M263,150L260,150L260,180L263,180L263,150ZM83,0L80,0L80,180L83,180L83,0ZM400,0L397,0L397,180L400,180L400,0ZM263,0L260,0L260,20L263,20L263,0Z" style="fill:rgb(203,209,208);"/>
            <path id="letter" d="M118.509,152.049C118.3,151.952 118.084,151.871 117.86,151.804C117.637,151.738 117.407,151.705 117.17,151.705C116.681,151.705 116.27,151.798 115.935,151.986C115.6,152.173 115.324,152.421 115.108,152.729C114.892,153.037 114.721,153.385 114.595,153.772C114.47,154.159 114.379,154.552 114.323,154.951C114.267,155.349 114.236,155.739 114.229,156.12C114.222,156.501 114.219,156.83 114.219,157.108C114.219,157.568 114.243,158.097 114.292,158.695C114.341,159.294 114.463,159.862 114.658,160.4C114.853,160.938 115.157,161.394 115.568,161.769C115.98,162.144 116.542,162.331 117.253,162.331C117.686,162.331 118.104,162.24 118.509,162.059L118.509,163.655C118.244,163.8 117.975,163.9 117.703,163.954C117.431,164.008 117.142,164.036 116.835,164.036C116.123,164.036 115.509,163.933 114.993,163.727C114.477,163.522 114.041,163.247 113.685,162.902C113.329,162.558 113.04,162.159 112.816,161.705C112.593,161.252 112.422,160.774 112.303,160.273C112.185,159.771 112.105,159.26 112.063,158.74C112.021,158.221 112,157.719 112,157.235C112,156.776 112.017,156.28 112.052,155.748C112.087,155.216 112.157,154.682 112.262,154.144C112.366,153.606 112.523,153.089 112.733,152.593C112.942,152.097 113.221,151.656 113.57,151.269C113.919,150.883 114.348,150.574 114.857,150.345C115.366,150.115 115.977,150 116.688,150C117.051,150 117.368,150.027 117.641,150.082C117.913,150.136 118.202,150.242 118.509,150.399L118.509,152.049ZM101.951,164.036L101.951,150L104.567,150C105.279,150 105.868,150.084 106.336,150.251C106.803,150.419 107.176,150.664 107.455,150.987C107.734,151.309 107.93,151.703 108.041,152.169C108.153,152.634 108.209,153.165 108.209,153.76C108.209,154.108 108.184,154.446 108.135,154.775C108.087,155.104 107.989,155.408 107.842,155.687C107.696,155.966 107.494,156.208 107.236,156.413C106.977,156.618 106.639,156.77 106.22,156.869L106.22,156.906C106.667,157.03 107.033,157.198 107.319,157.409C107.605,157.62 107.832,157.868 107.999,158.153C108.167,158.439 108.282,158.755 108.345,159.103C108.408,159.45 108.439,159.816 108.439,160.201C108.439,161.491 108.139,162.453 107.539,163.086C106.939,163.719 105.913,164.036 104.462,164.036L101.951,164.036ZM95.086,150L98.476,164.036L96.363,164.036L95.777,161.299L92.637,161.299L92.051,164.036L90,164.036L93.432,150L95.086,150ZM103.918,162.453C104.383,162.478 104.763,162.441 105.059,162.342C105.354,162.242 105.587,162.096 105.756,161.904C105.925,161.712 106.044,161.467 106.115,161.169C106.185,160.871 106.22,160.53 106.22,160.145C106.22,159.76 106.192,159.413 106.136,159.103C106.08,158.792 105.967,158.529 105.798,158.311C105.629,158.094 105.393,157.93 105.09,157.818C104.788,157.707 104.397,157.657 103.918,157.669L103.918,162.453ZM95.044,157.818L94.249,152.718L94.207,152.718L92.951,159.847L95.463,159.847L95.044,157.818ZM106.158,153.686C106.158,153.413 106.129,153.149 106.073,152.895C106.017,152.64 105.915,152.414 105.767,152.215C105.619,152.017 105.425,151.861 105.186,151.75C104.946,151.638 104.644,151.582 104.277,151.582L103.918,151.582L103.918,156.18C104.411,156.205 104.805,156.158 105.101,156.04C105.397,155.923 105.622,155.752 105.777,155.529C105.932,155.305 106.034,155.035 106.084,154.719C106.133,154.402 106.158,154.058 106.158,153.686Z" style="fill:rgb(203,209,208);"/>
            <path id="number" d="M385.395,157.563L385.395,155.927L385.647,155.927C386.093,155.927 386.456,155.891 386.735,155.818C387.014,155.745 387.234,155.624 387.394,155.454C387.555,155.285 387.663,155.069 387.719,154.809C387.774,154.548 387.802,154.224 387.802,153.836C387.802,153.654 387.795,153.436 387.781,153.182C387.768,152.927 387.722,152.688 387.645,152.463C387.569,152.239 387.45,152.045 387.29,151.882C387.129,151.718 386.895,151.636 386.588,151.636C386.309,151.636 386.09,151.694 385.929,151.809C385.769,151.924 385.647,152.073 385.563,152.254C385.479,152.436 385.423,152.63 385.395,152.836C385.368,153.042 385.354,153.236 385.354,153.418L385.354,153.836L383.344,153.836L383.344,153.709C383.344,153.188 383.379,152.703 383.449,152.254C383.519,151.806 383.662,151.415 383.878,151.082C384.094,150.748 384.412,150.485 384.83,150.291C385.249,150.097 385.814,150 386.526,150C387.181,150 387.722,150.091 388.148,150.273C388.573,150.455 388.908,150.706 389.152,151.027C389.397,151.348 389.567,151.724 389.665,152.154C389.763,152.585 389.812,153.048 389.812,153.545C389.812,153.86 389.798,154.188 389.77,154.527C389.742,154.866 389.669,155.185 389.55,155.481C389.431,155.778 389.257,156.042 389.027,156.272C388.797,156.503 388.472,156.672 388.054,156.781L388.054,156.818C388.486,156.915 388.831,157.069 389.09,157.281C389.348,157.493 389.543,157.745 389.676,158.036C389.808,158.327 389.895,158.639 389.937,158.972C389.979,159.305 390,159.642 390,159.981C390,160.527 389.944,161.045 389.833,161.536C389.721,162.027 389.529,162.457 389.257,162.826C388.985,163.196 388.615,163.49 388.148,163.708C387.68,163.926 387.091,164.036 386.379,164.036C385.179,164.036 384.325,163.76 383.815,163.208C383.306,162.657 383.051,161.872 383.051,160.854L383.051,160.436L385.061,160.436L385.061,160.872C385.061,161.066 385.082,161.254 385.123,161.436C385.165,161.617 385.239,161.781 385.343,161.927C385.448,162.072 385.584,162.187 385.751,162.272C385.919,162.357 386.128,162.399 386.379,162.399C386.756,162.399 387.042,162.308 387.237,162.127C387.433,161.945 387.579,161.724 387.677,161.463C387.774,161.202 387.83,160.924 387.844,160.627C387.858,160.33 387.865,160.066 387.865,159.836C387.865,159.545 387.844,159.26 387.802,158.981C387.761,158.703 387.673,158.457 387.541,158.245C387.408,158.033 387.22,157.863 386.976,157.736C386.731,157.609 386.407,157.551 386.002,157.563L385.395,157.563ZM372.482,154.176C372.482,153.624 372.513,153.097 372.576,152.594C372.639,152.091 372.785,151.646 373.016,151.26C373.246,150.874 373.584,150.567 374.031,150.34C374.477,150.113 375.084,150 375.852,150C377.149,150 378.06,150.3 378.583,150.901C379.106,151.502 379.368,152.342 379.368,153.422C379.368,153.937 379.277,154.495 379.096,155.095C378.914,155.696 378.688,156.297 378.415,156.898C378.143,157.499 377.85,158.085 377.536,158.655C377.222,159.225 376.926,159.737 376.647,160.191L375.307,162.435L380,162.435L380,164.036L372.273,164.036L376.103,156.917C376.382,156.352 376.64,155.767 376.877,155.16C377.114,154.553 377.233,153.937 377.233,153.311C377.233,153.127 377.212,152.937 377.17,152.741C377.128,152.545 377.052,152.367 376.94,152.207C376.828,152.048 376.682,151.916 376.5,151.812C376.319,151.708 376.096,151.656 375.831,151.656C375.468,151.656 375.203,151.766 375.035,151.987C374.868,152.207 374.753,152.465 374.69,152.759C374.627,153.054 374.599,153.348 374.606,153.642C374.613,153.937 374.617,154.157 374.617,154.304L374.617,154.672L372.482,154.672L372.482,154.176ZM368,150L368,164L365.949,164L365.949,151.615L364.4,152.115L364.4,150.5L366,150L368,150Z" style="fill:rgb(203,209,208);"/>
            <g id="brightness" transform="matrix(0.914286,0,0,0.914286,33.6571,0.342857)">
                <path d="M381,18.5C381.828,18.5 382.5,19.172 382.5,20C382.5,20.828 381.828,21.5 381,21.5C380.172,21.5 379.5,20.828 379.5,20C379.5,19.172 380.172,18.5 381,18.5ZM385.066,16.816C385.651,16.23 386.602,16.23 387.187,16.816C387.773,17.401 387.773,18.352 387.187,18.937C386.602,19.523 385.651,19.523 385.066,18.937C384.48,18.352 384.48,17.401 385.066,16.816ZM374.813,18.937C374.227,18.352 374.227,17.401 374.813,16.816C375.398,16.23 376.349,16.23 376.934,16.816C377.52,17.401 377.52,18.352 376.934,18.937C376.349,19.523 375.398,19.523 374.813,18.937ZM381,8.5C383.208,8.5 385,10.292 385,12.5C385,14.708 383.208,16.5 381,16.5C378.792,16.5 377,14.708 377,12.5C377,10.292 378.792,8.5 381,8.5ZM381,10.05C382.352,10.05 383.45,11.148 383.45,12.5C383.45,13.852 382.352,14.95 381,14.95C379.648,14.95 378.55,13.852 378.55,12.5C378.55,11.148 379.648,10.05 381,10.05ZM375.25,12.75C375.25,13.578 374.578,14.25 373.75,14.25C372.922,14.25 372.25,13.578 372.25,12.75C372.25,11.922 372.922,11.25 373.75,11.25C374.578,11.25 375.25,11.922 375.25,12.75ZM389.75,12.75C389.75,13.578 389.078,14.25 388.25,14.25C387.422,14.25 386.75,13.578 386.75,12.75C386.75,11.922 387.422,11.25 388.25,11.25C389.078,11.25 389.75,11.922 389.75,12.75ZM374.813,6.563C375.398,5.977 376.349,5.977 376.934,6.563C377.52,7.148 377.52,8.099 376.934,8.684C376.349,9.27 375.398,9.27 374.813,8.684C374.227,8.099 374.227,7.148 374.813,6.563ZM385.066,8.684C384.48,8.099 384.48,7.148 385.066,6.563C385.651,5.977 386.602,5.977 387.187,6.563C387.773,7.148 387.773,8.099 387.187,8.684C386.602,9.27 385.651,9.27 385.066,8.684ZM381,4C381.828,4 382.5,4.672 382.5,5.5C382.5,6.328 381.828,7 381,7C380.172,7 379.5,6.328 379.5,5.5C379.5,4.672 380.172,4 381,4Z" style="fill:rgb(203,209,208);"/>
            </g>
            <g id="clock" transform="matrix(0.936585,0,0,0.936585,5.78541,0.331715)">
                <path d="M98.458,3.917C103.173,3.917 107,7.744 107,12.458C107,17.173 103.173,21 98.458,21C93.744,21 89.917,17.173 89.917,12.458C89.917,7.744 93.744,3.917 98.458,3.917ZM98.425,6.45C101.759,6.45 104.466,9.158 104.466,12.492C104.466,15.827 101.759,18.534 98.425,18.534C95.09,18.534 92.383,15.827 92.383,12.492C92.383,9.158 95.09,6.45 98.425,6.45ZM99.071,12.556L100.758,14.242C101.176,14.661 101.176,15.339 100.758,15.758C100.339,16.176 99.661,16.176 99.242,15.758L97.242,13.758C97.042,13.557 96.929,13.284 96.929,13L96.929,9C96.929,8.409 97.409,7.929 98,7.929C98.591,7.929 99.071,8.409 99.071,9L99.071,12.556Z" style="fill:rgb(203,209,208);"/>
            </g>
        </g>
        <g id="icons">
            <path id="home" d="M40,14C56.557,14 70,27.443 70,44C70,60.557 56.557,74 40,74C23.443,74 10,60.557 10,44C10,27.443 23.443,14 40,14ZM54.982,56.443C54.955,57.061 54.481,57.7 53.902,57.861L48.982,59.048C48.407,59.214 47.951,58.847 47.982,58.225L47.974,50.578C48,49.96 47.546,49.539 46.972,49.652L41.096,51.255C40.504,51.364 40.008,51.969 39.982,52.591L39.982,60.09C39.955,60.713 39.481,61.365 38.907,61.531L33.482,62.86C31.937,63.33 30.856,62.951 29.982,61.959L21.982,54.027L21.982,47.57C21.986,46.718 22.734,46.578 23.126,46.931L26.982,50.191C27.869,51.053 29.075,51.15 29.859,50.027L43.004,36.027C43.982,35.049 44.982,35.027 45.982,36.027L53.982,44.027C54.982,45.027 55.003,45.073 54.982,45.691L54.982,56.443ZM58.681,43.184C58.25,43.685 57.508,43.397 56.982,43.027L45.447,32.244C44.73,31.527 43.806,31.657 43.089,32.374L29.046,47.027C28.482,47.774 27.692,47.765 26.925,47.027L20.384,41.373C19.918,40.916 19.853,40.163 20.209,39.702L34.982,26.027C35.338,25.566 36.377,24.818 36.982,24.957L42.982,26.027C43.982,26.263 44.255,26.3 44.982,27.027L49.982,31.572C50.499,31.942 50.973,31.317 50.982,30.695L50.982,26.027C50.995,25.396 51.495,24.97 52.109,25.052L53.982,25.052C54.586,25.144 55.061,25.722 55.035,26.336L54.982,35.507C54.955,36.121 54.986,36.227 55.482,36.65L58.979,40.027C59.579,40.527 60.482,41.351 59.738,42.244L58.681,43.184Z" style="fill:rgb(203,209,208);"/>
            <path id="search" d="M440,100C456.557,100 470,113.443 470,130C470,146.557 456.557,160 440,160C423.443,160 410,146.557 410,130C410,113.443 423.443,100 440,100ZM428.468,138.737L422.524,145.699C421.488,146.912 421.632,148.737 422.845,149.773C424.058,150.809 425.884,150.665 426.919,149.452L432.864,142.49C433.899,141.277 433.755,139.451 432.543,138.416C431.33,137.38 429.504,137.524 428.468,138.737ZM453.427,111.845C459.238,116.212 459.782,125.311 454.641,132.152C449.501,138.993 440.609,141.002 434.798,136.635C428.987,132.268 428.443,123.169 433.584,116.328C438.725,109.487 447.616,107.478 453.427,111.845ZM450.207,114.611C453.283,116.923 452.892,122.644 449.334,127.379C445.775,132.114 440.389,134.082 437.313,131.77C434.237,129.459 434.629,123.738 438.187,119.002C441.745,114.267 447.131,112.3 450.207,114.611ZM439.411,124.76C446.024,118.408 447.942,122.102 449.885,121.498C451.858,120.884 449.154,117.153 446.397,117.097C441.375,116.996 438.178,121.642 437.483,123.979C437.268,124.511 437.525,125.118 438.057,125.333C438.589,125.549 439.196,125.292 439.411,124.76Z" style="fill:rgb(203,209,208);"/>
            <path id="menu" d="M40,100C56.557,100 70,113.443 70,130C70,146.557 56.557,160 40,160C23.443,160 10,146.557 10,130C10,113.443 23.443,100 40,100ZM47.051,125.568C47.051,124.456 46.149,123.764 45.037,124.023L28.919,127.784C27.807,128.043 26.904,129.157 26.904,130.269L26.904,148.401C26.904,149.513 27.807,150.205 28.919,149.946L45.037,146.185C46.149,145.925 47.051,144.812 47.051,143.7L47.051,125.568ZM43.022,141.618C43.022,141.062 42.571,140.716 42.015,140.846L31.941,143.196C31.385,143.326 30.934,143.883 30.934,144.439C30.934,144.995 31.385,145.341 31.941,145.211L42.015,142.86C42.571,142.731 43.022,142.174 43.022,141.618ZM43.022,135.574C43.022,135.018 42.571,134.672 42.015,134.802L31.941,137.152C31.385,137.282 30.934,137.839 30.934,138.395C30.934,138.951 31.385,139.297 31.941,139.167L42.015,136.816C42.571,136.687 43.022,136.13 43.022,135.574ZM43.022,129.53C43.022,128.974 42.571,128.628 42.015,128.758L31.941,131.108C31.385,131.238 30.934,131.795 30.934,132.35C30.934,132.906 31.385,133.253 31.941,133.123L42.015,130.772C42.571,130.643 43.022,130.086 43.022,129.53ZM55.11,111.599C55.11,110.487 54.207,109.795 53.096,110.054L26.904,116.166C25.793,116.425 24.89,117.539 24.89,118.651L24.89,124.695C24.89,125.807 25.793,126.499 26.904,126.239L53.096,120.128C54.207,119.869 55.11,118.755 55.11,117.643L55.11,111.599ZM31.086,123.096C31.559,123.458 32.324,123.279 32.796,122.697L35.818,118.97C36.164,118.544 36.267,118 36.08,117.592C35.893,117.184 35.452,116.992 34.963,117.106L28.919,118.516C28.43,118.63 27.989,119.028 27.802,119.523C27.615,120.018 27.719,120.514 28.064,120.779L31.086,123.096Z" style="fill:rgb(203,209,208);"/>
            <path id="favorites" d="M440,14C456.557,14 470,27.443 470,44C470,60.557 456.557,74 440,74C423.443,74 410,60.557 410,44C410,27.443 423.443,14 440,14ZM434.172,38.136L437.861,26.609C438.153,25.697 438.991,25.07 439.948,25.048C440.906,25.026 441.772,25.613 442.105,26.511L445.511,35.68L456.825,33.229C457.82,33.014 458.835,33.494 459.299,34.399C459.763,35.305 459.561,36.409 458.806,37.091L449.244,45.727L452.798,55.293C453.115,56.148 452.884,57.11 452.213,57.728C451.541,58.346 450.563,58.496 449.737,58.108L440.397,53.718L430.813,62.373C430.059,63.054 428.943,63.144 428.09,62.594C427.237,62.044 426.859,60.989 427.168,60.022L430.652,49.138L421.744,44.951C420.872,44.542 420.359,43.622 420.468,42.665C420.576,41.709 421.283,40.928 422.224,40.724L434.172,38.136Z" style="fill:rgb(203,209,208);"/>
        </g>
    </g>
</svg>
