<?xml version="1.0" encoding="UTF-8" standalone="no"?>
<!DOCTYPE svg PUBLIC "-//W3C//DTD SVG 1.1//EN" "http://www.w3.org/Graphics/SVG/1.1/DTD/svg11.dtd">
<svg width="100%" height="100%" viewBox="0 0 800 800" version="1.1" xmlns="http://www.w3.org/2000/svg" xmlns:xlink="http://www.w3.org/1999/xlink" xml:space="preserve" xmlns:serif="http://www.serif.com/" style="fill-rule:evenodd;clip-rule:evenodd;stroke-linejoin:round;stroke-miterlimit:2;">
    <g id="cp-palmblue-splash-002-bw" transform="matrix(1.66667,0,0,1.66667,-925.833,-535)">
        <g id="text" transform="matrix(0.827689,0,0,0.928571,563.221,358.174)">
            <g transform="matrix(72,0,0,72,234.635,227.906)">
                <path d="M0.249,0.012C0.198,0.012 0.157,-0.001 0.126,-0.027C0.094,-0.052 0.071,-0.091 0.057,-0.144C0.043,-0.197 0.036,-0.263 0.036,-0.344C0.036,-0.466 0.055,-0.556 0.093,-0.613C0.13,-0.67 0.187,-0.699 0.263,-0.699C0.306,-0.699 0.342,-0.69 0.371,-0.671C0.4,-0.652 0.421,-0.624 0.436,-0.585C0.45,-0.546 0.457,-0.495 0.457,-0.434L0.375,-0.434C0.375,-0.475 0.371,-0.509 0.364,-0.538C0.357,-0.566 0.344,-0.587 0.327,-0.602C0.31,-0.617 0.287,-0.624 0.258,-0.624C0.229,-0.624 0.205,-0.615 0.185,-0.598C0.164,-0.58 0.149,-0.552 0.139,-0.515C0.128,-0.477 0.123,-0.428 0.123,-0.367L0.123,-0.315C0.123,-0.256 0.128,-0.207 0.138,-0.17C0.147,-0.133 0.162,-0.105 0.181,-0.088C0.2,-0.071 0.224,-0.062 0.253,-0.062C0.281,-0.062 0.304,-0.069 0.322,-0.083C0.34,-0.097 0.354,-0.118 0.363,-0.146C0.372,-0.173 0.376,-0.208 0.376,-0.251L0.456,-0.251C0.456,-0.19 0.448,-0.14 0.432,-0.101C0.416,-0.062 0.393,-0.034 0.362,-0.016C0.331,0.003 0.294,0.012 0.249,0.012Z" style="fill-rule:nonzero;"/>
            </g>
            <g transform="matrix(72,0,0,72,269.843,227.906)">
                <rect x="0.051" y="-0.724" width="0.075" height="0.724" style="fill-rule:nonzero;"/>
            </g>
            <g transform="matrix(72,0,0,72,282.587,227.906)">
                <path d="M0.194,0.012C0.159,0.012 0.13,0.003 0.107,-0.015C0.083,-0.033 0.065,-0.062 0.053,-0.102C0.041,-0.143 0.035,-0.196 0.035,-0.263C0.035,-0.33 0.041,-0.383 0.053,-0.424C0.065,-0.464 0.083,-0.493 0.107,-0.511C0.13,-0.53 0.159,-0.539 0.194,-0.539C0.229,-0.539 0.259,-0.53 0.283,-0.511C0.307,-0.493 0.325,-0.464 0.337,-0.424C0.349,-0.383 0.355,-0.33 0.355,-0.263C0.355,-0.196 0.349,-0.143 0.337,-0.102C0.325,-0.062 0.307,-0.033 0.283,-0.015C0.259,0.003 0.229,0.012 0.194,0.012ZM0.194,-0.053C0.214,-0.053 0.23,-0.059 0.242,-0.071C0.254,-0.084 0.263,-0.104 0.268,-0.133C0.273,-0.161 0.276,-0.198 0.276,-0.244L0.276,-0.282C0.276,-0.329 0.273,-0.366 0.268,-0.394C0.263,-0.422 0.254,-0.442 0.242,-0.455C0.23,-0.468 0.214,-0.474 0.194,-0.474C0.175,-0.474 0.16,-0.468 0.148,-0.455C0.135,-0.442 0.126,-0.422 0.121,-0.394C0.116,-0.366 0.113,-0.329 0.113,-0.282L0.113,-0.244C0.113,-0.198 0.116,-0.161 0.121,-0.133C0.126,-0.104 0.135,-0.084 0.148,-0.071C0.16,-0.059 0.175,-0.053 0.194,-0.053Z" style="fill-rule:nonzero;"/>
            </g>
            <g transform="matrix(72,0,0,72,310.595,227.906)">
                <path d="M0.148,0.012C0.116,0.012 0.091,0.002 0.073,-0.018C0.055,-0.038 0.046,-0.072 0.046,-0.12L0.046,-0.527L0.121,-0.527L0.121,-0.139C0.121,-0.128 0.122,-0.117 0.124,-0.107C0.125,-0.097 0.128,-0.088 0.132,-0.081C0.135,-0.074 0.141,-0.068 0.148,-0.064C0.155,-0.06 0.163,-0.058 0.174,-0.058C0.189,-0.058 0.203,-0.064 0.216,-0.076C0.228,-0.087 0.237,-0.105 0.245,-0.128C0.252,-0.151 0.255,-0.181 0.255,-0.216L0.255,-0.527L0.33,-0.527L0.33,-0L0.269,-0L0.263,-0.069L0.258,-0.069C0.25,-0.05 0.241,-0.034 0.23,-0.022C0.219,-0.01 0.206,-0.001 0.193,0.004C0.179,0.009 0.164,0.012 0.148,0.012Z" style="fill-rule:nonzero;"/>
            </g>
            <g transform="matrix(72,0,0,72,338.027,227.906)">
                <path d="M0.163,0.012C0.134,0.012 0.111,0.003 0.092,-0.015C0.073,-0.032 0.058,-0.061 0.049,-0.102C0.04,-0.143 0.035,-0.197 0.035,-0.265C0.035,-0.331 0.039,-0.384 0.048,-0.424C0.057,-0.463 0.07,-0.492 0.09,-0.511C0.109,-0.53 0.133,-0.539 0.162,-0.539C0.177,-0.539 0.191,-0.536 0.203,-0.531C0.215,-0.525 0.226,-0.517 0.234,-0.506C0.244,-0.496 0.251,-0.483 0.256,-0.467L0.261,-0.467L0.261,-0.724L0.336,-0.724L0.336,-0L0.277,-0L0.271,-0.068L0.266,-0.068C0.26,-0.047 0.248,-0.028 0.231,-0.012C0.214,0.004 0.191,0.012 0.163,0.012ZM0.185,-0.056C0.204,-0.056 0.219,-0.063 0.23,-0.078C0.241,-0.093 0.249,-0.114 0.254,-0.142C0.259,-0.17 0.261,-0.204 0.261,-0.245L0.261,-0.279C0.261,-0.312 0.259,-0.34 0.256,-0.364C0.253,-0.387 0.248,-0.407 0.241,-0.422C0.234,-0.437 0.226,-0.449 0.217,-0.457C0.207,-0.464 0.195,-0.468 0.182,-0.468C0.167,-0.468 0.154,-0.462 0.143,-0.449C0.133,-0.436 0.126,-0.415 0.121,-0.388C0.116,-0.36 0.113,-0.324 0.113,-0.279L0.113,-0.245C0.113,-0.202 0.115,-0.166 0.119,-0.138C0.124,-0.11 0.131,-0.089 0.142,-0.076C0.153,-0.063 0.167,-0.056 0.185,-0.056Z" style="fill-rule:nonzero;"/>
            </g>
            <g transform="matrix(72,0,0,72,365.891,227.906)">
                <path d="M0.058,-0L0.058,-0.687L0.243,-0.687C0.291,-0.687 0.328,-0.678 0.355,-0.66C0.382,-0.642 0.401,-0.618 0.411,-0.587C0.423,-0.556 0.428,-0.521 0.428,-0.482C0.428,-0.44 0.422,-0.403 0.408,-0.37C0.396,-0.337 0.376,-0.312 0.349,-0.294C0.323,-0.275 0.29,-0.266 0.25,-0.266L0.143,-0.266L0.143,-0L0.058,-0ZM0.143,-0.34L0.233,-0.34C0.27,-0.34 0.298,-0.353 0.316,-0.378C0.333,-0.403 0.342,-0.436 0.342,-0.478C0.342,-0.508 0.339,-0.533 0.332,-0.553C0.325,-0.573 0.313,-0.588 0.297,-0.598C0.28,-0.607 0.258,-0.612 0.229,-0.612L0.143,-0.612L0.143,-0.34Z" style="fill-rule:nonzero;"/>
            </g>
            <g transform="matrix(72,0,0,72,397.931,227.906)">
                <path d="M0.051,-0.631L0.051,-0.724L0.126,-0.724L0.126,-0.631L0.051,-0.631ZM0.051,-0L0.051,-0.527L0.126,-0.527L0.126,-0L0.051,-0Z" style="fill-rule:nonzero;"/>
            </g>
            <g transform="matrix(72,0,0,72,410.675,227.906)">
                <rect x="0.051" y="-0.724" width="0.075" height="0.724" style="fill-rule:nonzero;"/>
            </g>
            <g transform="matrix(72,0,0,72,423.419,227.906)">
                <path d="M0.194,0.012C0.159,0.012 0.13,0.003 0.107,-0.015C0.083,-0.033 0.065,-0.062 0.053,-0.102C0.041,-0.143 0.035,-0.196 0.035,-0.263C0.035,-0.33 0.041,-0.383 0.053,-0.424C0.065,-0.464 0.083,-0.493 0.107,-0.511C0.13,-0.53 0.159,-0.539 0.194,-0.539C0.229,-0.539 0.259,-0.53 0.283,-0.511C0.307,-0.493 0.325,-0.464 0.337,-0.424C0.349,-0.383 0.355,-0.33 0.355,-0.263C0.355,-0.196 0.349,-0.143 0.337,-0.102C0.325,-0.062 0.307,-0.033 0.283,-0.015C0.259,0.003 0.229,0.012 0.194,0.012ZM0.194,-0.053C0.214,-0.053 0.23,-0.059 0.242,-0.071C0.254,-0.084 0.263,-0.104 0.268,-0.133C0.273,-0.161 0.276,-0.198 0.276,-0.244L0.276,-0.282C0.276,-0.329 0.273,-0.366 0.268,-0.394C0.263,-0.422 0.254,-0.442 0.242,-0.455C0.23,-0.468 0.214,-0.474 0.194,-0.474C0.175,-0.474 0.16,-0.468 0.148,-0.455C0.135,-0.442 0.126,-0.422 0.121,-0.394C0.116,-0.366 0.113,-0.329 0.113,-0.282L0.113,-0.244C0.113,-0.198 0.116,-0.161 0.121,-0.133C0.126,-0.104 0.135,-0.084 0.148,-0.071C0.16,-0.059 0.175,-0.053 0.194,-0.053Z" style="fill-rule:nonzero;"/>
            </g>
            <g transform="matrix(72,0,0,72,451.427,227.906)">
                <path d="M0.13,0.012C0.108,0.012 0.092,0.007 0.081,-0.003C0.07,-0.012 0.062,-0.026 0.059,-0.043C0.056,-0.061 0.054,-0.081 0.054,-0.103L0.054,-0.462L0.017,-0.462L0.017,-0.527L0.055,-0.527L0.068,-0.676L0.129,-0.676L0.129,-0.527L0.188,-0.527L0.188,-0.462L0.129,-0.462L0.129,-0.097C0.129,-0.082 0.131,-0.07 0.135,-0.064C0.138,-0.057 0.145,-0.053 0.154,-0.053L0.188,-0.053L0.188,-0.002C0.182,-0 0.175,0.002 0.169,0.004C0.162,0.007 0.155,0.009 0.149,0.01C0.142,0.011 0.136,0.012 0.13,0.012Z" style="fill-rule:nonzero;"/>
            </g>
        </g>
        <g id="text-border" transform="matrix(0.6,0,0,0.6,555.5,321)">
            <path d="M92.5,375.001C92.5,434.791 141.043,483.333 200.833,483.333L200.833,483.333C141.043,483.333 92.5,434.791 92.5,375.001ZM200.833,266.667L600.833,266.667C660.624,266.667 709.167,315.209 709.167,375C709.167,434.791 660.624,483.333 600.833,483.333L200.833,483.333C213.509,483.333 225.679,481.152 236.989,477.143L600.833,477.143C657.208,477.143 702.976,431.374 702.976,375C702.976,318.626 657.208,272.857 600.833,272.857L236.989,272.857C225.679,268.848 213.509,266.667 200.833,266.667ZM200.833,266.667C141.043,266.667 92.5,315.209 92.5,375C92.5,315.209 141.043,266.667 200.833,266.667L200.833,266.667Z"/>
        </g>
        <g id="cp-palmblue-001" transform="matrix(0.361111,0,0,0.361111,582.111,452.111)">
            <path d="M260,80C359.345,80 440,160.655 440,260C440,359.345 359.345,440 260,440C160.655,440 80,359.345 80,260C80,160.655 160.655,80 260,80ZM260,84C357.137,84 436,162.863 436,260C436,357.137 357.137,436 260,436C162.863,436 84,357.137 84,260C84,162.863 162.863,84 260,84ZM259,204.615L259.007,410.766C176.249,410.229 109.231,342.879 109.231,260C109.231,176.788 176.788,109.231 260,109.231C343.212,109.231 410.769,176.788 410.769,260C410.769,336.031 354.369,398.992 281.161,409.293L281.161,315.385L342.084,315.385C357.368,315.385 369.777,302.976 369.777,287.692L369.777,232.308C369.777,217.024 357.368,204.615 342.084,204.615L259,204.615ZM245,204.615L175.931,204.615C160.647,204.615 148.238,217.024 148.238,232.308L148.238,287.692C148.238,302.976 160.647,315.385 175.931,315.385L245.161,315.385L245.161,293.231L175.931,293.231C172.874,293.231 170.392,290.749 170.392,287.692C170.392,287.692 170.392,232.308 170.392,232.308C170.392,229.251 172.874,226.769 175.931,226.769L245,226.769L245,204.615ZM281.161,293.231L342.084,293.231C345.141,293.231 347.623,290.749 347.623,287.692L347.623,232.308C347.623,229.251 345.141,226.769 342.084,226.769L281.161,226.769L281.161,293.231Z"/>
        </g>
    </g>
</svg>
