<?xml version="1.0" ?><!DOCTYPE svg  PUBLIC '-//W3C//DTD SVG 1.1//EN'  'http://www.w3.org/Graphics/SVG/1.1/DTD/svg11.dtd'><svg enable-background="new 0 0 100 100" height="100px" id="Layer_1" version="1.1" viewBox="0 0 100 100" width="100px" xml:space="preserve" xmlns="http://www.w3.org/2000/svg" xmlns:xlink="http://www.w3.org/1999/xlink"><g><path d="M51.4,74.7H48.6c-1.119,0-1.9,0.781-1.9,1.9s0.781,1.9,1.9,1.9H51.4c1.118,0,1.899-0.781,1.899-1.9S52.519,74.7,51.4,74.7z   "/><path d="M51.4,80.3H48.6c-1.119,0-1.9,0.781-1.9,1.9s0.781,1.9,1.9,1.9H51.4c1.118,0,1.899-0.781,1.899-1.9S52.519,80.3,51.4,80.3z   "/><path d="M40.2,76.101c-1.819,0-3.3,1.48-3.3,3.3s1.48,3.3,3.3,3.3c1.82,0,3.3-1.48,3.3-3.3S42.02,76.101,40.2,76.101z"/><path d="M59.8,76.101c-1.819,0-3.3,1.48-3.3,3.3s1.48,3.3,3.3,3.3s3.3-1.48,3.3-3.3S61.619,76.101,59.8,76.101z"/><path d="M30.4,82.7c1.819,0,3.3-1.48,3.3-3.3s-1.48-3.3-3.3-3.3s-3.3,1.48-3.3,3.3S28.581,82.7,30.4,82.7z"/><path d="M72.9,15.9H27.1v57h45.8V15.9z M30.9,69.101V19.7h38.2v49.4H30.9z"/><path d="M76.6,4.7H24.8c-3.363,0-6.1,2.736-6.1,6.101V79.96c0,3.405,2.334,6.619,5.6,7.781V93.4c0,1.118,0.781,1.899,1.9,1.899   h47.6c1.118,0,1.899-0.781,1.899-1.899v-5.659c3.267-1.162,5.601-4.376,5.601-7.781V10.801C81.3,6.924,79.586,4.7,76.6,4.7z    M22.5,10.801c0-1.269,1.032-2.301,2.3-2.301h51.8c0.463,0,0.598,0.137,0.643,0.183c0.27,0.271,0.265,0.993,0.26,1.758L77.5,79.96   c0,2.099-1.749,4.011-3.893,4.263C58.78,85.776,54.307,85.9,50,85.9c-4.307,0-8.78-0.124-23.602-1.678   c-2.149-0.252-3.898-2.164-3.898-4.263V10.801z M28.1,88.216C41.224,89.587,45.791,89.7,50,89.7s8.775-0.113,21.9-1.484v3.285H28.1   V88.216z"/><path d="M29,14.101h5.6c1.119,0,1.9-0.781,1.9-1.9c0-1.118-0.781-1.899-1.9-1.899H29c-1.119,0-1.9,0.781-1.9,1.899   C27.1,13.319,27.881,14.101,29,14.101z"/><path d="M69.6,76.101c-1.819,0-3.3,1.48-3.3,3.3s1.48,3.3,3.3,3.3c1.82,0,3.301-1.48,3.301-3.3S71.42,76.101,69.6,76.101z"/></g></svg>