<?xml version="1.0" encoding="UTF-8" standalone="no"?>
<!DOCTYPE svg PUBLIC "-//W3C//DTD SVG 1.1//EN" "http://www.w3.org/Graphics/SVG/1.1/DTD/svg11.dtd">
<svg width="160px" height="30px" viewBox="0 0 480 90" version="1.1" xmlns="http://www.w3.org/2000/svg" xmlns:xlink="http://www.w3.org/1999/xlink" xml:space="preserve" xmlns:serif="http://www.serif.com/" style="fill-rule:evenodd;clip-rule:evenodd;stroke-linejoin:round;stroke-miterlimit:2;">
    <g id="hbuttons-palmm130">
        <g id="bg" transform="matrix(6.46904,0,0,1.25479,-5669.39,-392.78)">
            <g id="bg1" serif:id="bg" transform="matrix(0.216958,0,0,0.391939,534.896,-87.5386)">
                <rect x="1574" y="1022" width="342" height="183" style="fill:url(#_Linear1);"/>
            </g>
            <g id="center" transform="matrix(0.154583,0,0,0.796943,876.388,313.023)">
                <path d="M463.195,-0C467.6,22.657 475,28.928 475,50C475,59.964 467.709,75.651 454.942,90L25.058,90C12.291,75.651 5,59.964 5,50C5,28.928 12.4,22.657 16.805,-0L463.195,-0Z" style="fill:url(#_Linear2);"/>
            </g>
            <g id="center-ridge-highlight" transform="matrix(0.154583,0,0,0.796943,876.388,313.023)">
                <path d="M19.079,-0C17.111,11.171 14.413,18.539 12.04,25.261C9.225,33.237 6.867,40.271 6.867,52C6.867,61.497 13.793,76.286 25.782,90L23.321,90C11.632,76.21 5,61.503 5,52C5,30.322 12.832,24.309 17.178,-0L19.079,-0ZM462.822,-0C467.168,24.309 475,30.322 475,52C475,61.503 468.368,76.21 456.679,90L454.218,90C466.207,76.286 473.133,61.497 473.133,52C473.133,40.271 470.775,33.237 467.96,25.261C465.587,18.539 462.889,11.171 460.921,-0L462.822,-0Z" style="fill:rgb(119,138,166);"/>
            </g>
            <g id="center-ridge" transform="matrix(0.154583,0,0,0.796943,876.388,313.023)">
                <path d="M463.195,-0C467.6,22.657 475,28.928 475,50C475,59.964 467.709,75.651 454.942,90L452.426,90C465.513,75.745 473.133,59.961 473.133,50C473.133,38.271 470.775,31.237 467.96,23.261C465.732,16.948 463.216,10.066 461.289,-0L463.195,-0ZM18.711,-0C16.784,10.066 14.268,16.948 12.04,23.261C9.225,31.237 6.867,38.271 6.867,50C6.867,59.961 14.487,75.745 27.574,90L25.058,90C12.291,75.651 5,59.964 5,50C5,28.928 12.4,22.657 16.805,-0L18.711,-0Z" style="fill:rgb(15,18,18);"/>
            </g>
            <g id="bg-upper-highlight" transform="matrix(2.47332,0,0,0.0885492,841.762,257.503)">
                <rect x="14" y="627" width="30" height="18" style="fill:white;fill-opacity:0.25;"/>
            </g>
        </g>
        <g id="hbutton-memo-pad-m130" transform="matrix(1.11111,0,0,1.11111,385,-5)">
            <g id="hbutton-m125" transform="matrix(0.9,0,0,0.9,-76.5,4.5)">
                <g id="recess" transform="matrix(1.13208,0,0,1.13208,-18.3962,-5.37736)">
                    <circle cx="135.5" cy="44.5" r="26.5" style="fill:url(#_Linear3);"/>
                </g>
                <g id="button" transform="matrix(0.832408,0,0,0.832408,22.2087,7.95782)">
                    <circle cx="135.5" cy="44.5" r="26.5" style="fill:url(#_Linear4);"/>
                    <path d="M135.5,15.758C119.637,15.758 106.758,28.637 106.758,44.5C106.758,60.363 119.637,73.242 135.5,73.242C151.363,73.242 164.242,60.363 164.242,44.5C164.242,28.637 151.363,15.758 135.5,15.758ZM135.5,18C150.126,18 162,29.874 162,44.5C162,59.126 150.126,71 135.5,71C120.874,71 109,59.126 109,44.5C109,29.874 120.874,18 135.5,18Z" style="fill:rgb(15,18,18);"/>
                </g>
                <g id="button-shadow" transform="matrix(0.832408,0,0,0.832408,22.2087,7.95782)">
                    <circle cx="135.5" cy="44.5" r="26.5" style="fill:url(#_Radial5);"/>
                    <path d="M135.5,18C150.126,18 162,29.874 162,44.5C162,59.126 150.126,71 135.5,71C120.874,71 109,59.126 109,44.5C109,29.874 120.874,18 135.5,18ZM135.5,19.281C149.419,19.281 160.719,30.581 160.719,44.5C160.719,58.419 149.419,69.719 135.5,69.719C121.581,69.719 110.281,58.419 110.281,44.5C110.281,30.581 121.581,19.281 135.5,19.281Z" style="fill:url(#_Linear6);"/>
                </g>
            </g>
            <g id="icon_memo-pad" transform="matrix(0.953632,0,0,1.01524,-1514.9,-817.842)">
                <path d="M1631.17,857.515C1630.53,858.272 1629.88,858.926 1629.26,859.414C1628.14,860.292 1627.05,860.638 1626.24,860.494C1624.23,860.139 1623.06,858.475 1622.61,856.166C1621.76,851.861 1623.38,845.223 1623.38,845.223C1623.54,844.58 1624.19,844.188 1624.83,844.347C1625.48,844.507 1625.87,845.158 1625.71,845.801C1625.71,845.801 1624.6,850.258 1624.77,854.01C1624.82,855.139 1624.98,856.201 1625.37,857.015C1625.64,857.587 1626.03,858.021 1626.65,858.13C1626.81,858.158 1626.97,858.047 1627.17,857.935C1627.58,857.708 1628.02,857.351 1628.47,856.914C1628.93,856.461 1629.4,855.925 1629.85,855.338C1629.17,853.813 1628.79,852.047 1628.76,850.465C1628.73,849.073 1628.98,847.821 1629.47,846.944C1630.13,845.776 1631.16,845.141 1632.59,845.321C1633.43,845.427 1634.04,845.756 1634.48,846.211C1634.92,846.665 1635.19,847.262 1635.29,847.983C1635.44,849.037 1635.17,850.428 1634.59,851.904C1634.11,853.093 1633.43,854.346 1632.66,855.511C1632.72,855.607 1632.79,855.699 1632.86,855.789C1633.41,856.511 1634.07,857.042 1634.9,857.013C1635.56,856.989 1636.12,857.507 1636.14,858.169C1636.17,858.831 1635.65,859.388 1634.99,859.411C1633.5,859.464 1632.19,858.741 1631.17,857.515ZM1646.49,839.321C1643.72,842.59 1639.71,849.576 1637.74,854.712L1637.34,858.312L1640.34,855.96C1643.76,850.602 1646.29,844.807 1649.13,841.641C1649.01,839.841 1648.2,838.987 1646.49,839.321ZM1631.5,852.815C1631.83,852.213 1632.12,851.605 1632.36,851.015C1632.69,850.166 1632.92,849.362 1632.93,848.685C1632.94,848.349 1632.93,848.053 1632.74,847.869C1632.64,847.768 1632.49,847.727 1632.29,847.703C1631.83,847.644 1631.59,847.986 1631.42,848.423C1631.22,848.972 1631.14,849.666 1631.16,850.415C1631.17,851.185 1631.29,852.012 1631.5,852.815Z" style="fill:rgb(191,193,194);"/>
            </g>
        </g>
        <g id="hbutton-todo-m130" transform="matrix(1.11111,0,0,1.11111,295,-5)">
            <g id="hbutton-m1251" serif:id="hbutton-m125" transform="matrix(0.9,0,0,0.9,-76.5,4.5)">
                <g id="recess1" serif:id="recess" transform="matrix(1.13208,0,0,1.13208,-18.3962,-5.37736)">
                    <circle cx="135.5" cy="44.5" r="26.5" style="fill:url(#_Linear7);"/>
                </g>
                <g id="button1" serif:id="button" transform="matrix(0.832408,0,0,0.832408,22.2087,7.95782)">
                    <circle cx="135.5" cy="44.5" r="26.5" style="fill:url(#_Linear8);"/>
                    <path d="M135.5,15.758C119.637,15.758 106.758,28.637 106.758,44.5C106.758,60.363 119.637,73.242 135.5,73.242C151.363,73.242 164.242,60.363 164.242,44.5C164.242,28.637 151.363,15.758 135.5,15.758ZM135.5,18C150.126,18 162,29.874 162,44.5C162,59.126 150.126,71 135.5,71C120.874,71 109,59.126 109,44.5C109,29.874 120.874,18 135.5,18Z" style="fill:rgb(15,18,18);"/>
                </g>
                <g id="button-shadow1" serif:id="button-shadow" transform="matrix(0.832408,0,0,0.832408,22.2087,7.95782)">
                    <circle cx="135.5" cy="44.5" r="26.5" style="fill:url(#_Radial9);"/>
                    <path d="M135.5,18C150.126,18 162,29.874 162,44.5C162,59.126 150.126,71 135.5,71C120.874,71 109,59.126 109,44.5C109,29.874 120.874,18 135.5,18ZM135.5,19.281C149.419,19.281 160.719,30.581 160.719,44.5C160.719,58.419 149.419,69.719 135.5,69.719C121.581,69.719 110.281,58.419 110.281,44.5C110.281,30.581 121.581,19.281 135.5,19.281Z" style="fill:url(#_Linear10);"/>
                </g>
            </g>
            <g id="icon-todo" transform="matrix(1.01047,0,0,1.0533,-1513.55,-863.783)">
                <path d="M1537.17,869.335C1536.62,869.641 1536.4,870.319 1536.67,870.888L1538.55,874.922C1538.69,875.227 1538.95,875.458 1539.27,875.56C1539.59,875.661 1539.94,875.623 1540.23,875.455L1544.22,873.162C1544.79,872.834 1544.99,872.109 1544.66,871.535L1542.53,867.715C1542.2,867.138 1541.47,866.931 1540.89,867.255L1537.17,869.335ZM1539.32,870.886L1540.17,872.722L1541.99,871.674L1541.02,869.935L1539.32,870.886ZM1547.4,868.743L1555.08,865.045C1555.67,864.758 1555.93,864.04 1555.64,863.443C1555.35,862.846 1554.63,862.595 1554.04,862.883L1546.36,866.581C1545.76,866.868 1545.51,867.586 1545.8,868.183C1546.08,868.779 1546.8,869.03 1547.4,868.743ZM1533.05,861.894C1532.76,862.04 1532.55,862.293 1532.45,862.599C1532.35,862.904 1532.38,863.236 1532.53,863.52L1534.62,867.526C1534.92,868.105 1535.64,868.335 1536.22,868.043L1540.47,865.917C1540.76,865.773 1540.98,865.518 1541.08,865.211C1541.18,864.903 1541.15,864.569 1541,864.284L1538.87,860.258C1538.57,859.679 1537.85,859.452 1537.27,859.749L1533.05,861.894ZM1535.22,863.484L1536.2,865.369L1538.3,864.319L1537.3,862.424L1535.22,863.484ZM1543.47,861.905L1552.19,857.823C1552.79,857.543 1553.05,856.828 1552.77,856.228C1552.48,855.628 1551.77,855.369 1551.17,855.65L1542.45,859.732C1541.85,860.012 1541.59,860.727 1541.87,861.327C1542.15,861.927 1542.87,862.186 1543.47,861.905ZM1532.73,856.609L1534.36,850.854C1534.55,850.217 1535.21,849.847 1535.85,850.028C1536.48,850.209 1536.85,850.873 1536.67,851.51L1534.64,858.64C1534.55,858.981 1534.31,859.262 1533.98,859.407C1533.66,859.552 1533.29,859.547 1532.97,859.392L1529.72,857.817C1529.12,857.528 1528.87,856.81 1529.16,856.214C1529.45,855.617 1530.16,855.368 1530.76,855.657L1532.73,856.609ZM1540.51,856.477L1548.33,852.237C1548.91,851.921 1549.13,851.192 1548.81,850.61C1548.5,850.028 1547.77,849.811 1547.19,850.127L1539.36,854.367C1538.78,854.683 1538.57,855.412 1538.88,855.994C1539.2,856.576 1539.92,856.793 1540.51,856.477Z" style="fill:rgb(191,193,194);"/>
            </g>
        </g>
        <g id="hbutton-address-book-m130" transform="matrix(1.11111,0,0,1.11111,85,-5)">
            <g id="hbutton-m130" transform="matrix(0.9,0,0,0.9,-76.5,4.5)">
                <g id="recess2" serif:id="recess" transform="matrix(1.13208,0,0,1.13208,-18.3962,-5.37736)">
                    <circle cx="135.5" cy="44.5" r="26.5" style="fill:url(#_Linear11);"/>
                </g>
                <g id="button2" serif:id="button" transform="matrix(0.832408,0,0,0.832408,22.2087,7.95782)">
                    <circle cx="135.5" cy="44.5" r="26.5" style="fill:url(#_Linear12);"/>
                    <path d="M135.5,15.758C119.637,15.758 106.758,28.637 106.758,44.5C106.758,60.363 119.637,73.242 135.5,73.242C151.363,73.242 164.242,60.363 164.242,44.5C164.242,28.637 151.363,15.758 135.5,15.758ZM135.5,18C150.126,18 162,29.874 162,44.5C162,59.126 150.126,71 135.5,71C120.874,71 109,59.126 109,44.5C109,29.874 120.874,18 135.5,18Z" style="fill:rgb(15,18,18);"/>
                </g>
                <g id="button-shadow2" serif:id="button-shadow" transform="matrix(0.832408,0,0,0.832408,22.2087,7.95782)">
                    <circle cx="135.5" cy="44.5" r="26.5" style="fill:url(#_Radial13);"/>
                    <path d="M135.5,18C150.126,18 162,29.874 162,44.5C162,59.126 150.126,71 135.5,71C120.874,71 109,59.126 109,44.5C109,29.874 120.874,18 135.5,18ZM135.5,19.281C149.419,19.281 160.719,30.581 160.719,44.5C160.719,58.419 149.419,69.719 135.5,69.719C121.581,69.719 110.281,58.419 110.281,44.5C110.281,30.581 121.581,19.281 135.5,19.281Z" style="fill:url(#_Linear14);"/>
                </g>
            </g>
            <g id="icon-address-book" transform="matrix(3.25823,0,0,3.20483,-4373.27,-2683.3)">
                <path d="M1357.42,854.747C1356.96,854.71 1356.38,854.546 1355.75,854.067C1355.2,853.641 1353.44,850.575 1353.33,849.901C1353.11,848.594 1353.61,847.769 1353.85,847.463C1354.47,848.179 1354.93,848.96 1355.26,849.797C1355.05,849.846 1354.75,849.895 1354.47,849.859C1354.8,849.939 1356.43,852.629 1356.35,852.963C1356.45,852.684 1356.63,852.437 1356.78,852.262C1357.32,853.01 1357.76,853.878 1358.16,854.697L1358.14,854.7C1358.09,854.712 1358.03,854.724 1357.96,854.734C1358.03,854.824 1358.1,854.891 1358.17,854.944C1358.27,855.015 1358.4,855.042 1358.58,855.057C1358.71,855.067 1358.81,855.18 1358.8,855.308C1358.79,855.437 1358.67,855.532 1358.55,855.522C1358.26,855.499 1358.06,855.438 1357.9,855.326C1357.73,855.206 1357.57,855.036 1357.42,854.747ZM1357.12,851.945C1357.28,851.89 1357.48,851.905 1357.65,851.995C1357.97,852.157 1358.73,853.517 1358.76,853.982C1358.82,854.237 1358.74,854.404 1358.59,854.517C1358.17,853.649 1357.7,852.735 1357.12,851.945ZM1354.2,847.159C1354.38,847.072 1354.57,847.067 1354.78,847.214C1355.13,847.47 1355.89,848.768 1355.91,849.124C1355.92,849.329 1355.83,849.523 1355.7,849.636C1355.35,848.748 1354.86,847.918 1354.2,847.159Z" style="fill:rgb(191,193,194);fill-rule:nonzero;"/>
            </g>
        </g>
        <g id="hbutton-calendar-m130" transform="matrix(1.11111,0,0,1.11111,-5,-5)">
            <g id="hbutton-m1301" serif:id="hbutton-m130" transform="matrix(0.9,0,0,0.9,-76.5,4.5)">
                <g id="recess3" serif:id="recess" transform="matrix(1.13208,0,0,1.13208,-18.3962,-5.37736)">
                    <circle cx="135.5" cy="44.5" r="26.5" style="fill:url(#_Linear15);"/>
                </g>
                <g id="button3" serif:id="button" transform="matrix(0.832408,0,0,0.832408,22.2087,7.95782)">
                    <circle cx="135.5" cy="44.5" r="26.5" style="fill:url(#_Linear16);"/>
                    <path d="M135.5,15.758C119.637,15.758 106.758,28.637 106.758,44.5C106.758,60.363 119.637,73.242 135.5,73.242C151.363,73.242 164.242,60.363 164.242,44.5C164.242,28.637 151.363,15.758 135.5,15.758ZM135.5,18C150.126,18 162,29.874 162,44.5C162,59.126 150.126,71 135.5,71C120.874,71 109,59.126 109,44.5C109,29.874 120.874,18 135.5,18Z" style="fill:rgb(15,18,18);"/>
                </g>
                <g id="button-shadow3" serif:id="button-shadow" transform="matrix(0.832408,0,0,0.832408,22.2087,7.95782)">
                    <circle cx="135.5" cy="44.5" r="26.5" style="fill:url(#_Radial17);"/>
                    <path d="M135.5,18C150.126,18 162,29.874 162,44.5C162,59.126 150.126,71 135.5,71C120.874,71 109,59.126 109,44.5C109,29.874 120.874,18 135.5,18ZM135.5,19.281C149.419,19.281 160.719,30.581 160.719,44.5C160.719,58.419 149.419,69.719 135.5,69.719C121.581,69.719 110.281,58.419 110.281,44.5C110.281,30.581 121.581,19.281 135.5,19.281Z" style="fill:url(#_Linear18);"/>
                </g>
            </g>
            <g id="icon-calendar" transform="matrix(0.982439,0,0,0.982439,0.790238,0.906258)">
                <path d="M42.162,44.923C45.733,44.923 48.633,47.823 48.633,51.394C48.633,54.966 45.733,57.865 42.162,57.865C38.59,57.865 35.691,54.966 35.691,51.394C35.691,47.823 38.59,44.923 42.162,44.923ZM40.977,50.057L40.842,47.49C40.807,46.818 41.343,46.246 42.039,46.214C42.734,46.182 43.327,46.7 43.362,47.372L43.562,51.201C43.579,51.531 43.457,51.854 43.223,52.094C42.989,52.335 42.663,52.474 42.321,52.478L39.134,52.515C38.438,52.523 37.865,51.984 37.854,51.312C37.844,50.64 38.401,50.087 39.097,50.079L40.977,50.057ZM49.29,46.876L51.433,45.668L53.017,48.384L50.5,49.796C50.608,50.316 50.152,48.168 49.29,46.876ZM57.525,45.814L55.945,43.103L53.183,44.648L54.763,47.368L57.525,45.814ZM38.543,43.885C37.561,44.334 36.681,44.961 35.948,45.724L34.597,43.405L37.355,41.851L38.543,43.885ZM47.364,44.838L46.144,42.744L48.902,41.19L50.486,43.909L47.954,45.326C47.765,45.155 47.568,44.992 47.364,44.838ZM40.514,43.257L39.105,40.835L41.863,39.285L43.447,41.996L41.427,43.133C41.118,43.158 40.813,43.2 40.514,43.257ZM54.994,41.339L53.414,38.624L50.652,40.174L52.236,42.89L54.994,41.339ZM49.035,30.383L50.473,32.852L33.913,42.168L32.475,39.699L49.035,30.383ZM47.955,39.431L46.375,36.715L43.613,38.265L45.193,40.981L47.955,39.431ZM52.467,36.861L50.883,34.145L48.121,35.699L49.705,38.411L52.467,36.861Z" style="fill:rgb(191,193,194);"/>
            </g>
        </g>
        <g id="button-rocker-m130">
            <g id="rocker-recess" transform="matrix(0.8,0,0,0.921053,48,2.63158)">
                <path d="M265,29.714C265,17.771 253.798,8 240,8C226.202,8 215,18.314 215,29.714C215,35.12 218.75,40.571 218.75,46C218.75,51.429 215,56.88 215,62.286C215,74.229 226.202,84 240,84C253.798,84 265,74.27 265,62.286C265,56.88 261.25,51.429 261.25,46C261.25,40.571 265,35.12 265,29.714Z" style="fill:url(#_Linear19);"/>
            </g>
            <g id="rocker-recess1" serif:id="rocker-recess" transform="matrix(0.8,0,0,0.921053,48,2.63158)">
                <path d="M265,29.714C265,17.771 253.798,8 240,8C226.202,8 215,18.314 215,29.714C215,35.12 218.75,40.571 218.75,46C218.75,51.429 215,56.88 215,62.286C215,74.229 226.202,84 240,84C253.798,84 265,74.27 265,62.286C265,56.88 261.25,51.429 261.25,46C261.25,40.571 265,35.12 265,29.714Z" style="fill:url(#_Radial20);"/>
            </g>
            <path id="rocker-hole" d="M225.454,57.921L227.159,47.693C227.309,46.793 228.088,46.133 229,46.133L251,46.133C251.912,46.133 252.691,46.793 252.841,47.693L254.546,57.921C254.633,58.332 254.703,58.749 254.754,59.171L254.841,59.693C254.873,59.883 254.875,60.074 254.848,60.26C254.861,60.505 254.867,60.752 254.867,61C254.867,69.205 248.205,75.867 240,75.867C231.795,75.867 225.133,69.205 225.133,61C225.133,60.752 225.139,60.505 225.152,60.26C225.125,60.074 225.127,59.883 225.159,59.693L225.246,59.171C225.297,58.749 225.367,58.332 225.454,57.921ZM225.152,29.74C225.139,29.495 225.133,29.248 225.133,29C225.133,20.795 231.795,14.133 240,14.133C248.205,14.133 254.867,20.795 254.867,29C254.867,29.248 254.861,29.495 254.848,29.74C254.875,29.926 254.873,30.117 254.841,30.307L254.754,30.829C254.703,31.251 254.633,31.668 254.546,32.079L252.841,42.307C252.691,43.207 251.912,43.867 251,43.867L229,43.867C228.088,43.867 227.309,43.207 227.159,42.307L225.454,32.079C225.367,31.668 225.297,31.251 225.246,30.829L225.159,30.307C225.127,30.117 225.125,29.926 225.152,29.74Z" style="fill:rgb(15,18,18);"/>
            <g id="rocker-bottom">
                <path d="M252.71,58.257C252.794,58.649 252.86,59.046 252.908,59.45L253,60L252.962,60C252.987,60.33 253,60.663 253,61C253,68.175 247.175,74 240,74C232.825,74 227,68.175 227,61C227,60.663 227.013,60.33 227.038,60L227,60L227.092,59.45C227.14,59.046 227.206,58.648 227.29,58.257L229,48L251,48L252.71,58.257Z" style="fill:url(#_Linear21);"/>
                <path d="M252.71,58.257C252.794,58.649 252.86,59.046 252.908,59.45L253,60L252.962,60C252.987,60.33 253,60.663 253,61C253,68.175 247.175,74 240,74C232.825,74 227,68.175 227,61C227,60.663 227.013,60.33 227.038,60L227,60L227.092,59.45C227.14,59.046 227.206,58.648 227.29,58.257L229,48L251,48L252.71,58.257ZM249.87,49.333L230.13,49.333L228.606,58.476C228.602,58.497 228.598,58.517 228.594,58.538C228.518,58.889 228.459,59.245 228.416,59.607L228.367,59.901C228.373,59.967 228.373,60.034 228.367,60.101C228.345,60.398 228.333,60.698 228.333,61C228.333,67.439 233.561,72.667 240,72.667C246.439,72.667 251.667,67.439 251.667,61C251.667,60.698 251.655,60.398 251.633,60.101C251.627,60.034 251.627,59.967 251.633,59.901L251.584,59.607C251.541,59.245 251.482,58.889 251.406,58.537C251.402,58.517 251.398,58.497 251.394,58.476L249.87,49.333Z" style="fill:url(#_Linear22);"/>
                <g id="bump" transform="matrix(1.17647,0,0,1.17647,-44.1176,25.1176)">
                    <circle cx="241.5" cy="30.5" r="8.5" style="fill:url(#_Linear23);"/>
                </g>
                <g id="circle" transform="matrix(0.588235,0,0,0.588235,97.9412,43.0588)">
                    <circle cx="241.5" cy="30.5" r="8.5" style="fill:url(#_Linear24);"/>
                </g>
                <g id="bump-contour" transform="matrix(1.17647,0,0,1.17647,-44.1176,25.1176)">
                    <circle cx="241.5" cy="30.5" r="8.5" style="fill:url(#_Radial25);"/>
                </g>
            </g>
            <g id="rocker-top">
                <g id="button4" serif:id="button">
                    <path d="M227.29,31.743C227.206,31.351 227.14,30.954 227.092,30.55L227,30L227.038,30C227.013,29.67 227,29.337 227,29C227,21.825 232.825,16 240,16C247.175,16 253,21.825 253,29C253,29.337 252.987,29.67 252.962,30L253,30L252.908,30.55C252.86,30.954 252.794,31.352 252.71,31.743L251,42L229,42L227.29,31.743Z" style="fill:url(#_Linear26);"/>
                    <path d="M227.29,31.743C227.206,31.351 227.14,30.954 227.092,30.55L227,30L227.038,30C227.013,29.67 227,29.337 227,29C227,21.825 232.825,16 240,16C247.175,16 253,21.825 253,29C253,29.337 252.987,29.67 252.962,30L253,30L252.908,30.55C252.86,30.954 252.794,31.352 252.71,31.743L251,42L229,42L227.29,31.743ZM251.633,30.099C251.627,30.033 251.627,29.966 251.633,29.899C251.655,29.602 251.667,29.302 251.667,29C251.667,22.561 246.439,17.333 240,17.333C233.561,17.333 228.333,22.561 228.333,29C228.333,29.302 228.345,29.602 228.367,29.899C228.373,29.966 228.373,30.033 228.367,30.099L228.416,30.393C228.459,30.755 228.518,31.111 228.594,31.463C228.598,31.483 228.602,31.503 228.606,31.524L230.13,40.667L249.87,40.667L251.394,31.524C251.398,31.503 251.402,31.483 251.406,31.462C251.482,31.111 251.541,30.755 251.584,30.393L251.633,30.099Z" style="fill:url(#_Linear27);"/>
                </g>
                <g id="bump1" serif:id="bump" transform="matrix(1.17647,0,0,1.17647,-44.1176,-6.88235)">
                    <circle cx="241.5" cy="30.5" r="8.5" style="fill:url(#_Linear28);"/>
                </g>
                <g id="circle1" serif:id="circle" transform="matrix(0.588235,0,0,0.588235,97.9412,11.0588)">
                    <circle cx="241.5" cy="30.5" r="8.5" style="fill:url(#_Linear29);"/>
                </g>
                <g id="bump-contour1" serif:id="bump-contour" transform="matrix(1.17647,0,0,1.17647,-44.1176,-6.88235)">
                    <circle cx="241.5" cy="30.5" r="8.5" style="fill:url(#_Radial30);"/>
                </g>
            </g>
        </g>
    </g>
    <defs>
        <linearGradient id="_Linear1" x1="0" y1="0" x2="1" y2="0" gradientUnits="userSpaceOnUse" gradientTransform="matrix(3.92652e-15,183,-12.0234,2.10103e-15,1758.77,1022)"><stop offset="0" style="stop-color:rgb(74,100,137);stop-opacity:1"/><stop offset="1" style="stop-color:rgb(36,37,67);stop-opacity:1"/></linearGradient>
        <linearGradient id="_Linear2" x1="0" y1="0" x2="1" y2="0" gradientUnits="userSpaceOnUse" gradientTransform="matrix(5.91711e-15,96.6338,-20.2701,1.24119e-15,241.008,-13)"><stop offset="0" style="stop-color:rgb(218,218,219);stop-opacity:1"/><stop offset="1" style="stop-color:rgb(147,147,147);stop-opacity:1"/></linearGradient>
        <linearGradient id="_Linear3" x1="0" y1="0" x2="1" y2="0" gradientUnits="userSpaceOnUse" gradientTransform="matrix(3.24531e-15,53,-53,3.24531e-15,135.5,18)"><stop offset="0" style="stop-color:rgb(73,73,77);stop-opacity:1"/><stop offset="0.42" style="stop-color:rgb(117,118,121);stop-opacity:1"/><stop offset="1" style="stop-color:rgb(212,213,216);stop-opacity:1"/></linearGradient>
        <linearGradient id="_Linear4" x1="0" y1="0" x2="1" y2="0" gradientUnits="userSpaceOnUse" gradientTransform="matrix(3.24531e-15,53,-53,3.24531e-15,135.5,18)"><stop offset="0" style="stop-color:rgb(45,50,55);stop-opacity:1"/><stop offset="0.42" style="stop-color:rgb(66,76,83);stop-opacity:1"/><stop offset="1" style="stop-color:rgb(112,130,143);stop-opacity:1"/></linearGradient>
        <radialGradient id="_Radial5" cx="0" cy="0" r="1" gradientUnits="userSpaceOnUse" gradientTransform="matrix(26.5,0,0,26.5,135.5,44.5)"><stop offset="0" style="stop-color:black;stop-opacity:0"/><stop offset="0.5" style="stop-color:black;stop-opacity:0.13"/><stop offset="1" style="stop-color:black;stop-opacity:0.5"/></radialGradient>
        <linearGradient id="_Linear6" x1="0" y1="0" x2="1" y2="0" gradientUnits="userSpaceOnUse" gradientTransform="matrix(1.50137e-14,53,-53,1.50137e-14,135.5,18)"><stop offset="0" style="stop-color:rgb(106,112,125);stop-opacity:1"/><stop offset="1" style="stop-color:rgb(15,18,18);stop-opacity:1"/></linearGradient>
        <linearGradient id="_Linear7" x1="0" y1="0" x2="1" y2="0" gradientUnits="userSpaceOnUse" gradientTransform="matrix(3.24531e-15,53,-53,3.24531e-15,135.5,18)"><stop offset="0" style="stop-color:rgb(73,73,77);stop-opacity:1"/><stop offset="0.42" style="stop-color:rgb(117,118,121);stop-opacity:1"/><stop offset="1" style="stop-color:rgb(212,213,216);stop-opacity:1"/></linearGradient>
        <linearGradient id="_Linear8" x1="0" y1="0" x2="1" y2="0" gradientUnits="userSpaceOnUse" gradientTransform="matrix(3.24531e-15,53,-53,3.24531e-15,135.5,18)"><stop offset="0" style="stop-color:rgb(45,50,55);stop-opacity:1"/><stop offset="0.42" style="stop-color:rgb(66,76,83);stop-opacity:1"/><stop offset="1" style="stop-color:rgb(112,130,143);stop-opacity:1"/></linearGradient>
        <radialGradient id="_Radial9" cx="0" cy="0" r="1" gradientUnits="userSpaceOnUse" gradientTransform="matrix(26.5,0,0,26.5,135.5,44.5)"><stop offset="0" style="stop-color:black;stop-opacity:0"/><stop offset="0.5" style="stop-color:black;stop-opacity:0.13"/><stop offset="1" style="stop-color:black;stop-opacity:0.5"/></radialGradient>
        <linearGradient id="_Linear10" x1="0" y1="0" x2="1" y2="0" gradientUnits="userSpaceOnUse" gradientTransform="matrix(1.50137e-14,53,-53,1.50137e-14,135.5,18)"><stop offset="0" style="stop-color:rgb(106,112,125);stop-opacity:1"/><stop offset="1" style="stop-color:rgb(15,18,18);stop-opacity:1"/></linearGradient>
        <linearGradient id="_Linear11" x1="0" y1="0" x2="1" y2="0" gradientUnits="userSpaceOnUse" gradientTransform="matrix(3.24531e-15,53,-53,3.24531e-15,135.5,18)"><stop offset="0" style="stop-color:rgb(73,73,77);stop-opacity:1"/><stop offset="0.42" style="stop-color:rgb(117,118,121);stop-opacity:1"/><stop offset="1" style="stop-color:rgb(212,213,216);stop-opacity:1"/></linearGradient>
        <linearGradient id="_Linear12" x1="0" y1="0" x2="1" y2="0" gradientUnits="userSpaceOnUse" gradientTransform="matrix(3.24531e-15,53,-53,3.24531e-15,135.5,18)"><stop offset="0" style="stop-color:rgb(45,50,55);stop-opacity:1"/><stop offset="0.42" style="stop-color:rgb(66,76,83);stop-opacity:1"/><stop offset="1" style="stop-color:rgb(112,130,143);stop-opacity:1"/></linearGradient>
        <radialGradient id="_Radial13" cx="0" cy="0" r="1" gradientUnits="userSpaceOnUse" gradientTransform="matrix(26.5,0,0,26.5,135.5,44.5)"><stop offset="0" style="stop-color:black;stop-opacity:0"/><stop offset="0.5" style="stop-color:black;stop-opacity:0.13"/><stop offset="1" style="stop-color:black;stop-opacity:0.5"/></radialGradient>
        <linearGradient id="_Linear14" x1="0" y1="0" x2="1" y2="0" gradientUnits="userSpaceOnUse" gradientTransform="matrix(1.50137e-14,53,-53,1.50137e-14,135.5,18)"><stop offset="0" style="stop-color:rgb(106,112,125);stop-opacity:1"/><stop offset="1" style="stop-color:rgb(15,18,18);stop-opacity:1"/></linearGradient>
        <linearGradient id="_Linear15" x1="0" y1="0" x2="1" y2="0" gradientUnits="userSpaceOnUse" gradientTransform="matrix(3.24531e-15,53,-53,3.24531e-15,135.5,18)"><stop offset="0" style="stop-color:rgb(73,73,77);stop-opacity:1"/><stop offset="0.42" style="stop-color:rgb(117,118,121);stop-opacity:1"/><stop offset="1" style="stop-color:rgb(212,213,216);stop-opacity:1"/></linearGradient>
        <linearGradient id="_Linear16" x1="0" y1="0" x2="1" y2="0" gradientUnits="userSpaceOnUse" gradientTransform="matrix(3.24531e-15,53,-53,3.24531e-15,135.5,18)"><stop offset="0" style="stop-color:rgb(45,50,55);stop-opacity:1"/><stop offset="0.42" style="stop-color:rgb(66,76,83);stop-opacity:1"/><stop offset="1" style="stop-color:rgb(112,130,143);stop-opacity:1"/></linearGradient>
        <radialGradient id="_Radial17" cx="0" cy="0" r="1" gradientUnits="userSpaceOnUse" gradientTransform="matrix(26.5,0,0,26.5,135.5,44.5)"><stop offset="0" style="stop-color:black;stop-opacity:0"/><stop offset="0.5" style="stop-color:black;stop-opacity:0.13"/><stop offset="1" style="stop-color:black;stop-opacity:0.5"/></radialGradient>
        <linearGradient id="_Linear18" x1="0" y1="0" x2="1" y2="0" gradientUnits="userSpaceOnUse" gradientTransform="matrix(1.50137e-14,53,-53,1.50137e-14,135.5,18)"><stop offset="0" style="stop-color:rgb(106,112,125);stop-opacity:1"/><stop offset="1" style="stop-color:rgb(15,18,18);stop-opacity:1"/></linearGradient>
        <linearGradient id="_Linear19" x1="0" y1="0" x2="1" y2="0" gradientUnits="userSpaceOnUse" gradientTransform="matrix(3.06162e-15,76,-50,4.65366e-15,240,8)"><stop offset="0" style="stop-color:rgb(73,73,77);stop-opacity:1"/><stop offset="0.42" style="stop-color:rgb(131,131,134);stop-opacity:1"/><stop offset="1" style="stop-color:white;stop-opacity:1"/></linearGradient>
        <radialGradient id="_Radial20" cx="0" cy="0" r="1" gradientUnits="userSpaceOnUse" gradientTransform="matrix(-7.29048e-15,-34.4714,21.5625,-3.44038e-15,240,46)"><stop offset="0" style="stop-color:rgb(38,44,47);stop-opacity:0.09"/><stop offset="0.65" style="stop-color:rgb(36,41,44);stop-opacity:0.11"/><stop offset="0.84" style="stop-color:rgb(30,34,36);stop-opacity:0.18"/><stop offset="1" style="stop-color:rgb(22,25,27);stop-opacity:0.25"/></radialGradient>
        <linearGradient id="_Linear21" x1="0" y1="0" x2="1" y2="0" gradientUnits="userSpaceOnUse" gradientTransform="matrix(-1.12356e-13,58,-58,-1.12356e-13,240,48)"><stop offset="0" style="stop-color:rgb(47,52,56);stop-opacity:1"/><stop offset="0.58" style="stop-color:rgb(30,34,36);stop-opacity:1"/><stop offset="1" style="stop-color:rgb(22,25,27);stop-opacity:1"/></linearGradient>
        <linearGradient id="_Linear22" x1="0" y1="0" x2="1" y2="0" gradientUnits="userSpaceOnUse" gradientTransform="matrix(1.59204e-15,26,-26,1.59204e-15,240,48)"><stop offset="0" style="stop-color:rgb(56,64,70);stop-opacity:1"/><stop offset="1" style="stop-color:rgb(25,29,30);stop-opacity:1"/></linearGradient>
        <linearGradient id="_Linear23" x1="0" y1="0" x2="1" y2="0" gradientUnits="userSpaceOnUse" gradientTransform="matrix(1.04095e-15,17,-17,1.04095e-15,241.5,22)"><stop offset="0" style="stop-color:rgb(140,154,165);stop-opacity:1"/><stop offset="0.45" style="stop-color:rgb(66,74,79);stop-opacity:1"/><stop offset="1" style="stop-color:rgb(46,52,56);stop-opacity:1"/></linearGradient>
        <linearGradient id="_Linear24" x1="0" y1="0" x2="1" y2="0" gradientUnits="userSpaceOnUse" gradientTransform="matrix(1.04095e-15,17,-17,1.04095e-15,241.5,22)"><stop offset="0" style="stop-color:rgb(50,56,61);stop-opacity:1"/><stop offset="0.55" style="stop-color:rgb(58,66,72);stop-opacity:1"/><stop offset="1" style="stop-color:rgb(89,103,113);stop-opacity:1"/></linearGradient>
        <radialGradient id="_Radial25" cx="0" cy="0" r="1" gradientUnits="userSpaceOnUse" gradientTransform="matrix(8.5,0,0,8.5,241.5,30.5)"><stop offset="0" style="stop-color:black;stop-opacity:0"/><stop offset="0.5" style="stop-color:black;stop-opacity:0.13"/><stop offset="1" style="stop-color:black;stop-opacity:0.5"/></radialGradient>
        <linearGradient id="_Linear26" x1="0" y1="0" x2="1" y2="0" gradientUnits="userSpaceOnUse" gradientTransform="matrix(-1.12356e-13,58,-58,-1.12356e-13,240,16)"><stop offset="0" style="stop-color:rgb(47,52,56);stop-opacity:1"/><stop offset="0.58" style="stop-color:rgb(30,34,36);stop-opacity:1"/><stop offset="1" style="stop-color:rgb(22,25,27);stop-opacity:1"/></linearGradient>
        <linearGradient id="_Linear27" x1="0" y1="0" x2="1" y2="0" gradientUnits="userSpaceOnUse" gradientTransform="matrix(1.59204e-15,26,-26,1.59204e-15,240,16)"><stop offset="0" style="stop-color:rgb(56,64,70);stop-opacity:1"/><stop offset="1" style="stop-color:rgb(25,29,30);stop-opacity:1"/></linearGradient>
        <linearGradient id="_Linear28" x1="0" y1="0" x2="1" y2="0" gradientUnits="userSpaceOnUse" gradientTransform="matrix(1.04095e-15,17,-17,1.04095e-15,241.5,22)"><stop offset="0" style="stop-color:rgb(140,154,165);stop-opacity:1"/><stop offset="0.45" style="stop-color:rgb(66,74,79);stop-opacity:1"/><stop offset="1" style="stop-color:rgb(46,52,56);stop-opacity:1"/></linearGradient>
        <linearGradient id="_Linear29" x1="0" y1="0" x2="1" y2="0" gradientUnits="userSpaceOnUse" gradientTransform="matrix(1.04095e-15,17,-17,1.04095e-15,241.5,22)"><stop offset="0" style="stop-color:rgb(50,56,61);stop-opacity:1"/><stop offset="0.55" style="stop-color:rgb(58,66,72);stop-opacity:1"/><stop offset="1" style="stop-color:rgb(89,103,113);stop-opacity:1"/></linearGradient>
        <radialGradient id="_Radial30" cx="0" cy="0" r="1" gradientUnits="userSpaceOnUse" gradientTransform="matrix(8.5,0,0,8.5,241.5,30.5)"><stop offset="0" style="stop-color:black;stop-opacity:0"/><stop offset="0.5" style="stop-color:black;stop-opacity:0.13"/><stop offset="1" style="stop-color:black;stop-opacity:0.5"/></radialGradient>
    </defs>
</svg>
