<?xml version="1.0" encoding="UTF-8" standalone="no"?>
<!DOCTYPE svg PUBLIC "-//W3C//DTD SVG 1.1//EN" "http://www.w3.org/Graphics/SVG/1.1/DTD/svg11.dtd">
<svg width="160px" height="30px" viewBox="0 0 480 90" version="1.1" xmlns="http://www.w3.org/2000/svg" xmlns:xlink="http://www.w3.org/1999/xlink" xml:space="preserve" xmlns:serif="http://www.serif.com/" style="fill-rule:evenodd;clip-rule:evenodd;stroke-linecap:round;stroke-linejoin:round;stroke-miterlimit:1.5;">
    <g id="hard-buttons-palmv" transform="matrix(1,0,0,1,200,5)">
        <g id="bg" transform="matrix(3.11987,0,0,0.795256,-864.756,-491.208)">
            <g id="bg1" serif:id="bg" transform="matrix(0.921273,0,0,0.898183,-63.0375,71.7149)">
                <rect x="299.704" y="600.847" width="167" height="126" style="fill:url(#_Linear1);"/>
            </g>
            <g id="bg-upper-highlight" transform="matrix(5.12842,0,0,0.139717,141.274,523.783)">
                <rect x="14" y="627" width="30" height="18" style="fill:rgb(210,210,210);"/>
            </g>
        </g>
        <g id="hbutton-todo-palmv" transform="matrix(1,0,0,1,105,0)">
            <g id="hbutton-palmv" transform="matrix(0.998217,0,0,1.00264,-874.127,-658.082)">
                <g id="base-outline-outer" transform="matrix(1.04664,0,0,1.06001,517.668,1.28629)">
                    <ellipse cx="380.267" cy="655.645" rx="26.8" ry="20.7" style="fill:rgb(15,15,15);stroke:url(#_Linear2);stroke-width:2.53px;"/>
                </g>
                <g id="base" transform="matrix(1.04664,0,0,1.06001,517.668,1.28629)">
                    <ellipse cx="380.267" cy="655.645" rx="26.8" ry="20.7" style="fill:url(#_Linear3);"/>
                    <path d="M380.267,634.945C395.059,634.945 407.067,644.221 407.067,655.645C407.067,667.07 395.059,676.345 380.267,676.345C365.476,676.345 353.467,667.07 353.467,655.645C353.467,644.221 365.476,634.945 380.267,634.945ZM380.267,636.2C394.281,636.2 405.791,644.821 405.791,655.645C405.791,666.47 394.281,675.091 380.267,675.091C366.254,675.091 354.744,666.47 354.744,655.645C354.744,644.821 366.254,636.2 380.267,636.2Z"/>
                </g>
                <g id="lower-highlight" transform="matrix(0.855473,0,0,0.866395,590.363,128.226)">
                    <ellipse cx="380.267" cy="655.645" rx="26.8" ry="20.7" style="fill:url(#_Linear4);"/>
                </g>
                <g id="upper-shadow" transform="matrix(0.855473,0,0,-0.866395,590.363,1264.32)">
                    <ellipse cx="380.267" cy="655.645" rx="26.8" ry="20.7" style="fill:url(#_Linear5);"/>
                </g>
                <g id="edge-highlight" transform="matrix(0.855473,0,0,0.866395,590.363,128.226)">
                    <path d="M380.267,634.178C373.28,634.219 366.916,636.285 362.088,639.636C356.409,643.578 352.849,649.298 352.874,655.645C352.842,661.996 356.395,667.727 362.076,671.671C366.906,675.023 373.278,677.078 380.267,677.112C387.256,677.076 393.627,675.019 398.455,671.666C404.133,667.722 407.684,661.993 407.65,655.645C407.677,649.301 404.118,643.583 398.443,639.642C393.616,636.289 387.254,634.222 380.267,634.178ZM380.267,635.713C386.937,635.671 393.045,637.553 397.687,640.706C403.054,644.352 406.46,649.688 406.485,655.645C406.453,661.599 403.039,666.924 397.675,670.568C393.035,673.72 386.935,675.613 380.267,675.579C373.601,675.611 367.502,673.716 362.864,670.563C357.503,666.919 354.091,661.597 354.061,655.645C354.085,649.691 357.488,644.357 362.852,640.711C367.492,637.557 373.599,635.673 380.267,635.713Z" style="fill:url(#_Linear6);"/>
                </g>
                <g id="eyelid-shadow" transform="matrix(1.00179,0,0,0.997368,539,42)">
                    <path d="M341.59,649.677C341.438,650.576 341.314,651.496 341.218,652.438C341.174,652.589 341.13,652.741 341.087,652.894C341.219,651.794 341.387,650.722 341.59,649.677ZM410.584,649.677C410.788,650.722 410.956,651.794 411.087,652.894C411.045,652.741 411.001,652.589 410.956,652.438C410.861,651.496 410.736,650.575 410.584,649.677ZM341.396,651.853C344.741,632.003 360.414,622.077 376.087,622.077C391.76,622.077 407.434,632.003 410.778,651.853C400.993,620.678 351.179,620.678 341.396,651.853ZM367.965,621.874C370.628,621.272 373.358,620.971 376.087,620.971C378.817,620.971 381.546,621.272 384.209,621.874C378.884,620.709 373.294,620.708 367.965,621.874Z" style="fill:url(#_Linear7);"/>
                </g>
                <g id="eyelid" transform="matrix(1.00179,0,0,0.997368,539,42.9974)">
                    <path d="M341.087,653C346.107,611 406.067,611 411.087,653C408.175,609 344,609 341.087,653Z" style="fill:rgb(33,33,33);"/>
                </g>
            </g>
            <g id="icon_todo" transform="matrix(1.03378,0,0,0.985018,-345.294,-609.794)">
                <path d="M368.552,666.194C367.964,666.659 367.821,667.491 368.219,668.125C368.911,669.227 369.326,670.422 369.56,671.677C369.656,672.195 370.023,672.621 370.521,672.794C371.019,672.966 371.571,672.859 371.968,672.511C373.266,671.374 374.489,670.472 375.626,669.9C376.247,669.587 376.564,668.881 376.382,668.209C375.951,666.607 375.32,664.782 374.487,663.784C374.054,663.265 373.323,663.109 372.717,663.406C371.532,663.984 370.109,664.963 368.552,666.194ZM372.832,666.71C372.365,667.007 371.87,667.354 371.352,667.741C371.527,668.105 371.684,668.476 371.821,668.852C372.306,668.491 372.78,668.165 373.243,667.879C373.121,667.473 372.986,667.073 372.832,666.71ZM379.078,666.781C380.728,665.041 382.322,663.957 384.399,663.054C385.141,662.731 385.481,661.866 385.159,661.124C384.836,660.381 383.971,660.041 383.229,660.364C380.778,661.43 378.897,662.709 376.95,664.763C376.393,665.35 376.417,666.279 377.005,666.836C377.592,667.393 378.521,667.369 379.078,666.781ZM365.292,658.826C364.955,659.056 364.729,659.416 364.669,659.82C364.608,660.223 364.718,660.634 364.973,660.953C365.707,661.872 366.215,663.05 366.635,664.048C366.814,664.472 367.181,664.787 367.627,664.9C368.074,665.013 368.547,664.91 368.906,664.621C370.062,663.692 371.026,663.114 371.941,662.666C372.506,662.389 372.832,661.783 372.751,661.159C372.53,659.468 371.635,657.751 370.567,656.677C370.069,656.176 369.284,656.101 368.7,656.5L365.292,658.826ZM369.206,659.706L368.144,660.431C368.296,660.692 368.438,660.959 368.573,661.226C368.931,660.987 369.275,660.775 369.609,660.583C369.501,660.277 369.364,659.981 369.206,659.706ZM375.074,659.586C377.726,657.97 379.597,657.383 381.735,656.916C382.526,656.743 383.027,655.96 382.854,655.17C382.682,654.379 381.899,653.877 381.108,654.05C378.682,654.581 376.558,655.247 373.548,657.081C372.856,657.503 372.637,658.406 373.059,659.097C373.48,659.788 374.383,660.007 375.074,659.586ZM364.173,653.473C364.495,650.974 365.206,648.889 365.851,647.372C366.167,646.627 367.029,646.28 367.774,646.596C368.519,646.913 368.867,647.775 368.55,648.52C367.819,650.24 366.984,652.8 366.93,655.902C366.921,656.445 366.612,656.938 366.128,657.184C365.644,657.43 365.063,657.388 364.619,657.075C363.454,656.255 362.315,655.843 361.226,655.558C360.443,655.354 359.973,654.552 360.178,653.769C360.382,652.986 361.184,652.516 361.967,652.72C362.688,652.908 363.424,653.144 364.173,653.473ZM371.449,653.719C373.343,652.672 375.696,651.74 377.59,651.349C378.383,651.185 378.893,650.408 378.729,649.615C378.565,648.823 377.789,648.312 376.996,648.476C374.849,648.92 372.177,649.965 370.03,651.152C369.321,651.543 369.064,652.436 369.456,653.145C369.847,653.853 370.74,654.111 371.449,653.719Z" style="fill:rgb(181,181,181);"/>
            </g>
        </g>
        <g id="hbutton-calendar-palmv" transform="matrix(1,0,0,1,-195,0)">
            <g id="hard-button" transform="matrix(0.998217,0,0,1.00264,-874.127,-658.082)">
                <g id="base-outline-outer1" serif:id="base-outline-outer" transform="matrix(1.04664,0,0,1.06001,517.668,1.28629)">
                    <ellipse cx="380.267" cy="655.645" rx="26.8" ry="20.7" style="fill:rgb(15,15,15);stroke:url(#_Linear8);stroke-width:2.53px;"/>
                </g>
                <g id="base1" serif:id="base" transform="matrix(1.04664,0,0,1.06001,517.668,1.28629)">
                    <ellipse cx="380.267" cy="655.645" rx="26.8" ry="20.7" style="fill:url(#_Linear9);"/>
                    <path d="M380.267,634.945C395.059,634.945 407.067,644.221 407.067,655.645C407.067,667.07 395.059,676.345 380.267,676.345C365.476,676.345 353.467,667.07 353.467,655.645C353.467,644.221 365.476,634.945 380.267,634.945ZM380.267,636.2C394.281,636.2 405.791,644.821 405.791,655.645C405.791,666.47 394.281,675.091 380.267,675.091C366.254,675.091 354.744,666.47 354.744,655.645C354.744,644.821 366.254,636.2 380.267,636.2Z"/>
                </g>
                <g id="lower-highlight1" serif:id="lower-highlight" transform="matrix(0.855473,0,0,0.866395,590.363,128.226)">
                    <ellipse cx="380.267" cy="655.645" rx="26.8" ry="20.7" style="fill:url(#_Linear10);"/>
                </g>
                <g id="upper-shadow1" serif:id="upper-shadow" transform="matrix(0.855473,0,0,-0.866395,590.363,1264.32)">
                    <ellipse cx="380.267" cy="655.645" rx="26.8" ry="20.7" style="fill:url(#_Linear11);"/>
                </g>
                <g id="edge-highlight1" serif:id="edge-highlight" transform="matrix(0.855473,0,0,0.866395,590.363,128.226)">
                    <path d="M380.267,634.178C373.28,634.219 366.916,636.285 362.088,639.636C356.409,643.578 352.849,649.298 352.874,655.645C352.842,661.996 356.395,667.727 362.076,671.671C366.906,675.023 373.278,677.078 380.267,677.112C387.256,677.076 393.627,675.019 398.455,671.666C404.133,667.722 407.684,661.993 407.65,655.645C407.677,649.301 404.118,643.583 398.443,639.642C393.616,636.289 387.254,634.222 380.267,634.178ZM380.267,635.713C386.937,635.671 393.045,637.553 397.687,640.706C403.054,644.352 406.46,649.688 406.485,655.645C406.453,661.599 403.039,666.924 397.675,670.568C393.035,673.72 386.935,675.613 380.267,675.579C373.601,675.611 367.502,673.716 362.864,670.563C357.503,666.919 354.091,661.597 354.061,655.645C354.085,649.691 357.488,644.357 362.852,640.711C367.492,637.557 373.599,635.673 380.267,635.713Z" style="fill:url(#_Linear12);"/>
                </g>
                <g id="eyelid-shadow1" serif:id="eyelid-shadow" transform="matrix(1.00179,0,0,0.997368,539,42)">
                    <path d="M341.59,649.677C341.438,650.576 341.314,651.496 341.218,652.438C341.174,652.589 341.13,652.741 341.087,652.894C341.219,651.794 341.387,650.722 341.59,649.677ZM410.584,649.677C410.788,650.722 410.956,651.794 411.087,652.894C411.045,652.741 411.001,652.589 410.956,652.438C410.861,651.496 410.736,650.575 410.584,649.677ZM341.396,651.853C344.741,632.003 360.414,622.077 376.087,622.077C391.76,622.077 407.434,632.003 410.778,651.853C400.993,620.678 351.179,620.678 341.396,651.853ZM367.965,621.874C370.628,621.272 373.358,620.971 376.087,620.971C378.817,620.971 381.546,621.272 384.209,621.874C378.884,620.709 373.294,620.708 367.965,621.874Z" style="fill:url(#_Linear13);"/>
                </g>
                <g id="eyelid1" serif:id="eyelid" transform="matrix(1.00179,0,0,0.997368,539,42.9974)">
                    <path d="M341.087,653C346.107,611 406.067,611 411.087,653C408.175,609 344,609 341.087,653Z" style="fill:rgb(33,33,33);"/>
                </g>
            </g>
            <g id="icon_calendar" transform="matrix(0.928127,0,0,0.928571,-71.3814,-557.071)">
                <path d="M118.081,637.217C117.22,635.975 116.414,634.903 115.875,634.205C116.655,633.727 117.455,633.264 118.235,632.854C118.969,632.468 119.761,632.094 120.563,631.742C120.983,632.271 121.934,633.495 122.983,634.998C121.501,635.779 120.081,636.601 118.785,637.394C119.837,637.699 120.819,638.172 121.698,638.783C122.588,638.266 123.519,637.749 124.476,637.25C124.871,637.883 125.25,638.527 125.59,639.161C125.95,639.831 126.26,640.567 126.528,641.325C125.968,641.67 125.405,642.006 124.845,642.333C125.267,643.131 125.584,643.992 125.779,644.899C126.285,644.608 126.794,644.309 127.304,644.002C127.913,646.58 128.096,648.79 128.096,648.79C128.1,648.833 128.105,648.876 128.113,648.918C127.689,649.187 127.237,649.463 126.754,649.745C126.288,650.017 125.821,650.279 125.358,650.53C123.93,654.309 120.277,657 116,657C110.481,657 106,652.519 106,647C106,643.586 107.715,640.569 110.329,638.765C110.218,638.583 110.109,638.406 110,638.234C110.187,638.091 111.606,637.014 113.48,635.75C113.745,636.089 114.102,636.555 114.513,637.11C114.999,637.038 115.495,637 116,637C116.714,637 117.41,637.075 118.081,637.217ZM116,640C119.863,640 123,643.137 123,647C123,650.863 119.863,654 116,654C112.137,654 109,650.863 109,647C109,643.137 112.137,640 116,640ZM115.075,645.493L115.851,642.222C116.053,641.369 116.91,640.841 117.763,641.043C118.616,641.246 119.144,642.102 118.942,642.955L117.797,647.779C117.699,648.19 117.442,648.546 117.082,648.767C116.721,648.988 116.288,649.056 115.877,648.956L111.845,647.978C110.993,647.771 110.469,646.912 110.676,646.06C110.883,645.208 111.742,644.684 112.594,644.891L115.075,645.493ZM133.179,640.014C133.868,642.362 134.013,643.816 134.013,643.816C134.013,643.816 133.25,645.15 130.618,647.176C130.459,646.034 130.17,644.313 129.691,642.503C130.911,641.703 132.092,640.868 133.179,640.014ZM131.023,634.422C131.508,635.436 131.916,636.398 132.259,637.294C132.231,637.314 132.204,637.335 132.177,637.357C131.154,638.203 130.024,639.033 128.844,639.832C128.585,639.151 128.294,638.494 127.967,637.885C127.642,637.278 127.283,636.663 126.909,636.057C128.225,635.452 129.561,634.912 130.873,634.482C130.925,634.465 130.975,634.445 131.023,634.422ZM127.908,629C128.495,629.854 129.121,630.85 129.768,632.006C128.326,632.493 126.859,633.103 125.419,633.781C124.545,632.513 123.717,631.409 123.156,630.68C125.616,629.734 127.642,629.111 127.642,629.111C127.736,629.082 127.824,629.045 127.908,629Z" style="fill:rgb(181,181,181);"/>
            </g>
        </g>
        <g id="hbutton-address-book-palmv" transform="matrix(1,0,0,1,-105,0)">
            <g id="hbutton-palmv1" serif:id="hbutton-palmv" transform="matrix(0.998217,0,0,1.00264,-874.127,-658.082)">
                <g id="base-outline-outer2" serif:id="base-outline-outer" transform="matrix(1.04664,0,0,1.06001,517.668,1.28629)">
                    <ellipse cx="380.267" cy="655.645" rx="26.8" ry="20.7" style="fill:rgb(15,15,15);stroke:url(#_Linear14);stroke-width:2.53px;"/>
                </g>
                <g id="base2" serif:id="base" transform="matrix(1.04664,0,0,1.06001,517.668,1.28629)">
                    <ellipse cx="380.267" cy="655.645" rx="26.8" ry="20.7" style="fill:url(#_Linear15);"/>
                    <path d="M380.267,634.945C395.059,634.945 407.067,644.221 407.067,655.645C407.067,667.07 395.059,676.345 380.267,676.345C365.476,676.345 353.467,667.07 353.467,655.645C353.467,644.221 365.476,634.945 380.267,634.945ZM380.267,636.2C394.281,636.2 405.791,644.821 405.791,655.645C405.791,666.47 394.281,675.091 380.267,675.091C366.254,675.091 354.744,666.47 354.744,655.645C354.744,644.821 366.254,636.2 380.267,636.2Z"/>
                </g>
                <g id="lower-highlight2" serif:id="lower-highlight" transform="matrix(0.855473,0,0,0.866395,590.363,128.226)">
                    <ellipse cx="380.267" cy="655.645" rx="26.8" ry="20.7" style="fill:url(#_Linear16);"/>
                </g>
                <g id="upper-shadow2" serif:id="upper-shadow" transform="matrix(0.855473,0,0,-0.866395,590.363,1264.32)">
                    <ellipse cx="380.267" cy="655.645" rx="26.8" ry="20.7" style="fill:url(#_Linear17);"/>
                </g>
                <g id="edge-highlight2" serif:id="edge-highlight" transform="matrix(0.855473,0,0,0.866395,590.363,128.226)">
                    <path d="M380.267,634.178C373.28,634.219 366.916,636.285 362.088,639.636C356.409,643.578 352.849,649.298 352.874,655.645C352.842,661.996 356.395,667.727 362.076,671.671C366.906,675.023 373.278,677.078 380.267,677.112C387.256,677.076 393.627,675.019 398.455,671.666C404.133,667.722 407.684,661.993 407.65,655.645C407.677,649.301 404.118,643.583 398.443,639.642C393.616,636.289 387.254,634.222 380.267,634.178ZM380.267,635.713C386.937,635.671 393.045,637.553 397.687,640.706C403.054,644.352 406.46,649.688 406.485,655.645C406.453,661.599 403.039,666.924 397.675,670.568C393.035,673.72 386.935,675.613 380.267,675.579C373.601,675.611 367.502,673.716 362.864,670.563C357.503,666.919 354.091,661.597 354.061,655.645C354.085,649.691 357.488,644.357 362.852,640.711C367.492,637.557 373.599,635.673 380.267,635.713Z" style="fill:url(#_Linear18);"/>
                </g>
                <g id="eyelid-shadow2" serif:id="eyelid-shadow" transform="matrix(1.00179,0,0,0.997368,539,42)">
                    <path d="M341.59,649.677C341.438,650.576 341.314,651.496 341.218,652.438C341.174,652.589 341.13,652.741 341.087,652.894C341.219,651.794 341.387,650.722 341.59,649.677ZM410.584,649.677C410.788,650.722 410.956,651.794 411.087,652.894C411.045,652.741 411.001,652.589 410.956,652.438C410.861,651.496 410.736,650.575 410.584,649.677ZM341.396,651.853C344.741,632.003 360.414,622.077 376.087,622.077C391.76,622.077 407.434,632.003 410.778,651.853C400.993,620.678 351.179,620.678 341.396,651.853ZM367.965,621.874C370.628,621.272 373.358,620.971 376.087,620.971C378.817,620.971 381.546,621.272 384.209,621.874C378.884,620.709 373.294,620.708 367.965,621.874Z" style="fill:url(#_Linear19);"/>
                </g>
                <g id="eyelid2" serif:id="eyelid" transform="matrix(1.00179,0,0,0.997368,539,42.9974)">
                    <path d="M341.087,653C346.107,611 406.067,611 411.087,653C408.175,609 344,609 341.087,653Z" style="fill:rgb(33,33,33);"/>
                </g>
            </g>
            <g id="icon_address-book" transform="matrix(1.06213,0,0,0.955694,-181.306,-589.229)">
                <path d="M199.636,646.893C201.412,648.52 202.961,650.57 204.048,653.196C204.123,654.038 204.419,655.371 205.408,656.907C206.286,658.268 207.223,659.162 207.873,659.683C209.783,661.473 211.687,664.013 212.899,666.54C216.479,664.542 217.149,667.218 216.174,668.885C216.575,668.777 216.952,668.723 217.261,668.76C217.781,668.822 218.194,669.057 218.489,669.472C218.882,670.023 218.835,670.989 218.201,671.184C216.853,671.597 216.632,671.127 215.274,671.984C214.23,672.642 211.886,671.808 213.123,669.41C213.123,669.41 211.9,669.654 211.507,669.201L210.248,667.718C210.025,667.826 209.891,667.884 209.891,667.884C209.708,667.965 209.508,667.92 209.336,667.822C201.744,663.474 198.77,659.244 198.006,649.12C197.995,648.973 198.021,648.826 198.108,648.708C198.108,648.708 198.777,647.799 199.636,646.893ZM209.53,658.996C209.641,658.915 209.753,658.839 209.865,658.77C210.367,658.46 211.387,658.145 211.795,658.246C213.499,658.671 215.327,661.311 215.327,663.068C215.327,663.647 214.103,664.844 214.035,664.731C214.035,664.731 211.935,661.204 209.548,659.012L209.53,658.996ZM201.118,645.584C202.871,647.289 204.325,649.406 205.477,651.941C205.97,651.637 206.351,651.346 206.615,651.071C207.355,649.15 204.234,644.255 202.138,645.09C201.724,645.225 201.389,645.392 201.118,645.584Z" style="fill:rgb(181,181,181);"/>
            </g>
        </g>
        <g id="hbutton-memo-pad-palmv" transform="matrix(1,0,0,1,195,0)">
            <g id="hbutton-palmv2" serif:id="hbutton-palmv" transform="matrix(0.998217,0,0,1.00264,-874.127,-658.082)">
                <g id="base-outline-outer3" serif:id="base-outline-outer" transform="matrix(1.04664,0,0,1.06001,517.668,1.28629)">
                    <ellipse cx="380.267" cy="655.645" rx="26.8" ry="20.7" style="fill:rgb(15,15,15);stroke:url(#_Linear20);stroke-width:2.53px;"/>
                </g>
                <g id="base3" serif:id="base" transform="matrix(1.04664,0,0,1.06001,517.668,1.28629)">
                    <ellipse cx="380.267" cy="655.645" rx="26.8" ry="20.7" style="fill:url(#_Linear21);"/>
                    <path d="M380.267,634.945C395.059,634.945 407.067,644.221 407.067,655.645C407.067,667.07 395.059,676.345 380.267,676.345C365.476,676.345 353.467,667.07 353.467,655.645C353.467,644.221 365.476,634.945 380.267,634.945ZM380.267,636.2C394.281,636.2 405.791,644.821 405.791,655.645C405.791,666.47 394.281,675.091 380.267,675.091C366.254,675.091 354.744,666.47 354.744,655.645C354.744,644.821 366.254,636.2 380.267,636.2Z"/>
                </g>
                <g id="lower-highlight3" serif:id="lower-highlight" transform="matrix(0.855473,0,0,0.866395,590.363,128.226)">
                    <ellipse cx="380.267" cy="655.645" rx="26.8" ry="20.7" style="fill:url(#_Linear22);"/>
                </g>
                <g id="upper-shadow3" serif:id="upper-shadow" transform="matrix(0.855473,0,0,-0.866395,590.363,1264.32)">
                    <ellipse cx="380.267" cy="655.645" rx="26.8" ry="20.7" style="fill:url(#_Linear23);"/>
                </g>
                <g id="edge-highlight3" serif:id="edge-highlight" transform="matrix(0.855473,0,0,0.866395,590.363,128.226)">
                    <path d="M380.267,634.178C373.28,634.219 366.916,636.285 362.088,639.636C356.409,643.578 352.849,649.298 352.874,655.645C352.842,661.996 356.395,667.727 362.076,671.671C366.906,675.023 373.278,677.078 380.267,677.112C387.256,677.076 393.627,675.019 398.455,671.666C404.133,667.722 407.684,661.993 407.65,655.645C407.677,649.301 404.118,643.583 398.443,639.642C393.616,636.289 387.254,634.222 380.267,634.178ZM380.267,635.713C386.937,635.671 393.045,637.553 397.687,640.706C403.054,644.352 406.46,649.688 406.485,655.645C406.453,661.599 403.039,666.924 397.675,670.568C393.035,673.72 386.935,675.613 380.267,675.579C373.601,675.611 367.502,673.716 362.864,670.563C357.503,666.919 354.091,661.597 354.061,655.645C354.085,649.691 357.488,644.357 362.852,640.711C367.492,637.557 373.599,635.673 380.267,635.713Z" style="fill:url(#_Linear24);"/>
                </g>
                <g id="eyelid-shadow3" serif:id="eyelid-shadow" transform="matrix(1.00179,0,0,0.997368,539,42)">
                    <path d="M341.59,649.677C341.438,650.576 341.314,651.496 341.218,652.438C341.174,652.589 341.13,652.741 341.087,652.894C341.219,651.794 341.387,650.722 341.59,649.677ZM410.584,649.677C410.788,650.722 410.956,651.794 411.087,652.894C411.045,652.741 411.001,652.589 410.956,652.438C410.861,651.496 410.736,650.575 410.584,649.677ZM341.396,651.853C344.741,632.003 360.414,622.077 376.087,622.077C391.76,622.077 407.434,632.003 410.778,651.853C400.993,620.678 351.179,620.678 341.396,651.853ZM367.965,621.874C370.628,621.272 373.358,620.971 376.087,620.971C378.817,620.971 381.546,621.272 384.209,621.874C378.884,620.709 373.294,620.708 367.965,621.874Z" style="fill:url(#_Linear25);"/>
                </g>
                <g id="eyelid3" serif:id="eyelid" transform="matrix(1.00179,0,0,0.997368,539,42.9974)">
                    <path d="M341.087,653C346.107,611 406.067,611 411.087,653C408.175,609 344,609 341.087,653Z" style="fill:rgb(33,33,33);"/>
                </g>
            </g>
            <g id="icon_memo-pad" transform="matrix(0.923455,0,0,0.952388,-389.539,-570.497)">
                <path d="M469.327,639.364C470.455,637.09 471.668,635.077 472.937,633.472C473.117,633.245 473.36,633.076 473.635,632.987C474.73,632.632 475.772,632.586 476.703,632.97C477.608,633.343 478.482,634.136 479.116,635.728C479.305,636.201 479.235,636.738 478.93,637.147C475.94,641.163 473.577,645.196 471.452,650.587C471.376,650.78 471.259,650.955 471.111,651.1L467.67,654.45C467.227,654.881 466.562,654.988 466.007,654.719C465.451,654.449 465.124,653.861 465.188,653.247L465.51,650.157C464.767,650.894 464.024,651.675 463.28,652.491C462.734,653.089 461.806,653.132 461.208,652.586C460.61,652.04 460.567,651.112 461.113,650.514C463.04,648.402 464.971,646.514 466.902,644.98C467.105,644.444 467.312,643.914 467.524,643.392C465.141,644.853 462.851,646.637 460.661,648.776C460.082,649.341 459.153,649.33 458.587,648.751C458.022,648.172 458.032,647.243 458.611,646.677C461.705,643.656 464.987,641.295 468.435,639.512C468.72,639.364 469.032,639.32 469.327,639.364ZM476.051,636.112C475.915,635.902 475.767,635.757 475.584,635.681C475.387,635.6 475.176,635.61 474.956,635.658C472.5,638.915 470.313,643.794 468.577,649.034L468.526,649.522L468.841,649.216C470.915,644.018 473.21,640.023 476.051,636.112ZM458.56,645.117C461.331,642.355 464.465,640.434 467.236,639.29C467.984,638.981 468.341,638.123 468.032,637.375C467.723,636.627 466.865,636.27 466.117,636.579C463.043,637.848 459.563,639.976 456.489,643.04C455.916,643.611 455.914,644.541 456.486,645.114C457.057,645.687 457.986,645.689 458.56,645.117ZM460.362,630.195C461.233,627.56 464.493,626.848 466.527,628.32C467.869,629.291 468.871,631.288 467.665,634.484C467.379,635.242 466.532,635.625 465.775,635.339C465.017,635.053 464.634,634.206 464.92,633.449C465.347,632.317 465.391,631.495 465.053,630.96C464.546,630.159 463.168,630.375 463.082,631.458C463.07,631.62 463.031,631.773 462.971,631.914C463.708,633.037 463.996,634.725 463.121,637.044C462.835,637.802 461.988,638.185 461.231,637.899C460.473,637.613 460.09,636.766 460.376,636.009C460.803,634.877 460.847,634.055 460.509,633.52C460.045,632.785 458.848,632.906 458.586,633.766C459.634,634.93 460.125,636.835 459.153,639.412C458.867,640.17 458.02,640.553 457.263,640.267C456.505,639.981 456.122,639.134 456.408,638.377C457.041,636.699 456.694,635.555 455.79,635.375C454.883,635.193 454.082,636.108 453.997,637.877C453.958,638.685 453.271,639.31 452.462,639.271C451.653,639.233 451.029,638.545 451.067,637.736C451.26,633.726 453.812,632.249 455.939,632.437C456.703,630.656 458.626,629.877 460.362,630.195Z" style="fill:rgb(181,181,181);"/>
            </g>
        </g>
        <g id="hbutton-rocker-palmv" transform="matrix(0.779967,0,0,0.795256,-186.189,-491.208)">
            <g id="base4" serif:id="base" transform="matrix(0.994692,0,0,0.875,1.53739,83.4964)">
                <g id="base-outline-outer21" serif:id="base-outline-outer2" transform="matrix(1.04762,0,0,0.944588,-13.8095,37.9314)">
                    <path d="M261.702,695.029C261.702,711.594 275.705,720.249 290,720.249C304.295,720.249 318.298,711.594 318.298,695.029C318.298,692.393 317.639,689.27 316.8,685.555C315.696,680.67 314.298,674.604 314.298,667C314.298,655.838 318.298,645 318.298,638.971C318.298,622.406 304.295,613.751 290,613.751C275.705,613.751 261.702,622.406 261.702,638.971C261.702,645 265.704,655.837 265.702,666.999C265.7,674.604 264.303,680.67 263.199,685.556C262.36,689.271 261.702,692.393 261.702,695.029Z" style="fill:url(#_Linear26);"/>
                </g>
                <g id="base-outline-outer11" serif:id="base-outline-outer1" transform="matrix(1.04762,0,0,0.944588,-13.8095,37.9314)">
                    <path d="M263.351,695.029C263.351,710.554 276.603,718.503 290,718.503C303.397,718.503 316.649,710.554 316.649,695.029C316.649,692.505 316,689.518 315.196,685.961C314.068,680.969 312.649,674.77 312.649,667C312.649,655.838 316.649,645 316.649,638.971C316.649,623.446 303.397,615.497 290,615.497C276.603,615.497 263.351,623.446 263.351,638.971C263.351,645 267.353,655.837 267.351,667C267.349,674.77 265.931,680.969 264.803,685.962C264,689.519 263.351,692.505 263.351,695.029Z"/>
                </g>
                <g id="base5" serif:id="base" transform="matrix(1.04762,0,0,0.944588,-13.8095,37.9314)">
                    <path d="M265,695.029C265,689 268.997,680.227 269,667C269.003,655.838 265,645 265,638.971C265,610 315,610 315,638.971C315,645 311,655.838 311,667C311,680.227 315,689 315,695.029C315,724 265,724 265,695.029Z" style="fill:url(#_Linear27);"/>
                </g>
            </g>
            <g id="contour-top" transform="matrix(1.09524,0,0,0.914773,-27.619,58.6385)">
                <g id="contour-top1" serif:id="contour-top" transform="matrix(1.15789,0,0,0.789474,-45.7895,131.275)">
                    <circle cx="290" cy="644" r="19" style="fill:url(#_Linear28);"/>
                </g>
                <g id="contour-top-outline" transform="matrix(1.15789,0,0,0.789474,-45.7895,131.275)">
                    <path d="M290,624.043C284.173,624.105 278.958,626.739 275.402,630.829C272.333,634.359 270.488,638.972 270.503,644C270.484,649.031 272.323,653.655 275.393,657.187C278.95,661.28 284.171,663.902 290,663.956C295.828,663.898 301.047,661.273 304.603,657.179C307.67,653.648 309.508,649.028 309.487,644C309.504,638.975 307.661,634.364 304.595,630.836C301.04,626.744 295.827,624.108 290,624.043ZM290,625.957C295.537,625.895 300.528,628.252 303.939,632.078C306.763,635.246 308.498,639.415 308.513,644C308.494,648.583 306.754,652.741 303.931,655.907C300.521,659.731 295.535,662.099 290,662.044C284.466,662.095 279.482,659.724 276.073,655.899C273.253,652.734 271.515,648.579 271.497,644C271.51,639.418 273.243,635.252 276.065,632.084C279.474,628.257 284.464,625.898 290,625.957Z" style="fill:url(#_Linear29);"/>
                </g>
            </g>
            <g id="contour-bottom" transform="matrix(1.09524,0,0,0.914773,-27.619,105.888)">
                <g id="contour-bottom1" serif:id="contour-bottom" transform="matrix(1.15789,0,0,0.789474,-45.7895,131.579)">
                    <circle cx="290" cy="644" r="19" style="fill:url(#_Linear30);"/>
                </g>
                <g id="contour-bottom-outline" transform="matrix(1.15789,0,0,0.789474,-45.7895,131.579)">
                    <path d="M290,624.001C284.166,624.067 278.947,626.706 275.387,630.802C272.313,634.34 270.466,638.962 270.482,644C270.461,649.041 272.303,653.674 275.378,657.215C278.938,661.314 284.164,663.941 290,663.998C295.835,663.937 301.059,661.307 304.617,657.207C307.689,653.667 309.53,649.037 309.509,644C309.526,638.965 307.68,634.345 304.609,630.809C301.051,626.711 295.833,624.07 290,624.001ZM290,625.999C295.53,625.934 300.517,628.285 303.924,632.105C306.743,635.266 308.476,639.425 308.491,644C308.472,648.573 306.734,652.721 303.916,655.879C300.509,659.698 295.529,662.06 290,662.002C284.472,662.056 279.494,659.69 276.088,655.871C273.273,652.714 271.537,648.569 271.518,644C271.532,639.428 273.263,635.271 276.079,632.112C279.485,628.29 284.471,625.937 290,625.999Z" style="fill:url(#_Linear31);"/>
                </g>
            </g>
        </g>
    </g>
    <defs>
        <linearGradient id="_Linear1" x1="0" y1="0" x2="1" y2="0" gradientUnits="userSpaceOnUse" gradientTransform="matrix(7.71389e-15,126.732,-125.977,7.76008e-15,384.596,600.116)"><stop offset="0" style="stop-color:rgb(160,161,169);stop-opacity:1"/><stop offset="1" style="stop-color:rgb(121,123,134);stop-opacity:1"/></linearGradient>
        <linearGradient id="_Linear2" x1="0" y1="0" x2="1" y2="0" gradientUnits="userSpaceOnUse" gradientTransform="matrix(2.5641e-15,41.1648,-41.875,2.52062e-15,381.344,634.592)"><stop offset="0" style="stop-color:rgb(15,15,15);stop-opacity:1"/><stop offset="1" style="stop-color:rgb(207,207,207);stop-opacity:1"/></linearGradient>
        <linearGradient id="_Linear3" x1="0" y1="0" x2="1" y2="0" gradientUnits="userSpaceOnUse" gradientTransform="matrix(1.27263e-15,-20.4312,20.7837,1.25105e-15,380.267,655.645)"><stop offset="0" style="stop-color:rgb(33,33,33);stop-opacity:1"/><stop offset="1" style="stop-color:rgb(69,69,69);stop-opacity:1"/></linearGradient>
        <linearGradient id="_Linear4" x1="0" y1="0" x2="1" y2="0" gradientUnits="userSpaceOnUse" gradientTransform="matrix(1.23691e-15,19.8577,-15.8717,9.55375e-16,380.267,655.645)"><stop offset="0" style="stop-color:white;stop-opacity:0"/><stop offset="1" style="stop-color:white;stop-opacity:0.15"/></linearGradient>
        <linearGradient id="_Linear5" x1="0" y1="0" x2="1" y2="0" gradientUnits="userSpaceOnUse" gradientTransform="matrix(1.23691e-15,19.8577,-15.8717,9.55375e-16,380.267,655.645)"><stop offset="0" style="stop-color:black;stop-opacity:0"/><stop offset="1" style="stop-color:rgb(38,38,38);stop-opacity:1"/></linearGradient>
        <linearGradient id="_Linear6" x1="0" y1="0" x2="1" y2="0" gradientUnits="userSpaceOnUse" gradientTransform="matrix(2.57341e-15,41.3142,-42.027,2.52977e-15,379.41,634.534)"><stop offset="0" style="stop-color:rgb(94,94,94);stop-opacity:1"/><stop offset="0.5" style="stop-color:rgb(38,38,38);stop-opacity:1"/><stop offset="1" style="stop-color:rgb(78,78,78);stop-opacity:1"/></linearGradient>
        <linearGradient id="_Linear7" x1="0" y1="0" x2="1" y2="0" gradientUnits="userSpaceOnUse" gradientTransform="matrix(1.76927e-15,-28.8944,28.8944,1.76927e-15,341.087,652.894)"><stop offset="0" style="stop-color:rgb(101,101,101);stop-opacity:0"/><stop offset="1" style="stop-color:rgb(53,53,53);stop-opacity:1"/></linearGradient>
        <linearGradient id="_Linear8" x1="0" y1="0" x2="1" y2="0" gradientUnits="userSpaceOnUse" gradientTransform="matrix(2.5641e-15,41.1648,-41.875,2.52062e-15,381.344,634.592)"><stop offset="0" style="stop-color:rgb(15,15,15);stop-opacity:1"/><stop offset="1" style="stop-color:rgb(207,207,207);stop-opacity:1"/></linearGradient>
        <linearGradient id="_Linear9" x1="0" y1="0" x2="1" y2="0" gradientUnits="userSpaceOnUse" gradientTransform="matrix(1.27263e-15,-20.4312,20.7837,1.25105e-15,380.267,655.645)"><stop offset="0" style="stop-color:rgb(33,33,33);stop-opacity:1"/><stop offset="1" style="stop-color:rgb(69,69,69);stop-opacity:1"/></linearGradient>
        <linearGradient id="_Linear10" x1="0" y1="0" x2="1" y2="0" gradientUnits="userSpaceOnUse" gradientTransform="matrix(1.23691e-15,19.8577,-15.8717,9.55375e-16,380.267,655.645)"><stop offset="0" style="stop-color:white;stop-opacity:0"/><stop offset="1" style="stop-color:white;stop-opacity:0.15"/></linearGradient>
        <linearGradient id="_Linear11" x1="0" y1="0" x2="1" y2="0" gradientUnits="userSpaceOnUse" gradientTransform="matrix(1.23691e-15,19.8577,-15.8717,9.55375e-16,380.267,655.645)"><stop offset="0" style="stop-color:black;stop-opacity:0"/><stop offset="1" style="stop-color:rgb(38,38,38);stop-opacity:1"/></linearGradient>
        <linearGradient id="_Linear12" x1="0" y1="0" x2="1" y2="0" gradientUnits="userSpaceOnUse" gradientTransform="matrix(2.57341e-15,41.3142,-42.027,2.52977e-15,379.41,634.534)"><stop offset="0" style="stop-color:rgb(94,94,94);stop-opacity:1"/><stop offset="0.5" style="stop-color:rgb(38,38,38);stop-opacity:1"/><stop offset="1" style="stop-color:rgb(78,78,78);stop-opacity:1"/></linearGradient>
        <linearGradient id="_Linear13" x1="0" y1="0" x2="1" y2="0" gradientUnits="userSpaceOnUse" gradientTransform="matrix(1.76927e-15,-28.8944,28.8944,1.76927e-15,341.087,652.894)"><stop offset="0" style="stop-color:rgb(101,101,101);stop-opacity:0"/><stop offset="1" style="stop-color:rgb(53,53,53);stop-opacity:1"/></linearGradient>
        <linearGradient id="_Linear14" x1="0" y1="0" x2="1" y2="0" gradientUnits="userSpaceOnUse" gradientTransform="matrix(2.5641e-15,41.1648,-41.875,2.52062e-15,381.344,634.592)"><stop offset="0" style="stop-color:rgb(15,15,15);stop-opacity:1"/><stop offset="1" style="stop-color:rgb(207,207,207);stop-opacity:1"/></linearGradient>
        <linearGradient id="_Linear15" x1="0" y1="0" x2="1" y2="0" gradientUnits="userSpaceOnUse" gradientTransform="matrix(1.27263e-15,-20.4312,20.7837,1.25105e-15,380.267,655.645)"><stop offset="0" style="stop-color:rgb(33,33,33);stop-opacity:1"/><stop offset="1" style="stop-color:rgb(69,69,69);stop-opacity:1"/></linearGradient>
        <linearGradient id="_Linear16" x1="0" y1="0" x2="1" y2="0" gradientUnits="userSpaceOnUse" gradientTransform="matrix(1.23691e-15,19.8577,-15.8717,9.55375e-16,380.267,655.645)"><stop offset="0" style="stop-color:white;stop-opacity:0"/><stop offset="1" style="stop-color:white;stop-opacity:0.15"/></linearGradient>
        <linearGradient id="_Linear17" x1="0" y1="0" x2="1" y2="0" gradientUnits="userSpaceOnUse" gradientTransform="matrix(1.23691e-15,19.8577,-15.8717,9.55375e-16,380.267,655.645)"><stop offset="0" style="stop-color:black;stop-opacity:0"/><stop offset="1" style="stop-color:rgb(38,38,38);stop-opacity:1"/></linearGradient>
        <linearGradient id="_Linear18" x1="0" y1="0" x2="1" y2="0" gradientUnits="userSpaceOnUse" gradientTransform="matrix(2.57341e-15,41.3142,-42.027,2.52977e-15,379.41,634.534)"><stop offset="0" style="stop-color:rgb(94,94,94);stop-opacity:1"/><stop offset="0.5" style="stop-color:rgb(38,38,38);stop-opacity:1"/><stop offset="1" style="stop-color:rgb(78,78,78);stop-opacity:1"/></linearGradient>
        <linearGradient id="_Linear19" x1="0" y1="0" x2="1" y2="0" gradientUnits="userSpaceOnUse" gradientTransform="matrix(1.76927e-15,-28.8944,28.8944,1.76927e-15,341.087,652.894)"><stop offset="0" style="stop-color:rgb(101,101,101);stop-opacity:0"/><stop offset="1" style="stop-color:rgb(53,53,53);stop-opacity:1"/></linearGradient>
        <linearGradient id="_Linear20" x1="0" y1="0" x2="1" y2="0" gradientUnits="userSpaceOnUse" gradientTransform="matrix(2.5641e-15,41.1648,-41.875,2.52062e-15,381.344,634.592)"><stop offset="0" style="stop-color:rgb(15,15,15);stop-opacity:1"/><stop offset="1" style="stop-color:rgb(207,207,207);stop-opacity:1"/></linearGradient>
        <linearGradient id="_Linear21" x1="0" y1="0" x2="1" y2="0" gradientUnits="userSpaceOnUse" gradientTransform="matrix(1.27263e-15,-20.4312,20.7837,1.25105e-15,380.267,655.645)"><stop offset="0" style="stop-color:rgb(33,33,33);stop-opacity:1"/><stop offset="1" style="stop-color:rgb(69,69,69);stop-opacity:1"/></linearGradient>
        <linearGradient id="_Linear22" x1="0" y1="0" x2="1" y2="0" gradientUnits="userSpaceOnUse" gradientTransform="matrix(1.23691e-15,19.8577,-15.8717,9.55375e-16,380.267,655.645)"><stop offset="0" style="stop-color:white;stop-opacity:0"/><stop offset="1" style="stop-color:white;stop-opacity:0.15"/></linearGradient>
        <linearGradient id="_Linear23" x1="0" y1="0" x2="1" y2="0" gradientUnits="userSpaceOnUse" gradientTransform="matrix(1.23691e-15,19.8577,-15.8717,9.55375e-16,380.267,655.645)"><stop offset="0" style="stop-color:black;stop-opacity:0"/><stop offset="1" style="stop-color:rgb(38,38,38);stop-opacity:1"/></linearGradient>
        <linearGradient id="_Linear24" x1="0" y1="0" x2="1" y2="0" gradientUnits="userSpaceOnUse" gradientTransform="matrix(2.57341e-15,41.3142,-42.027,2.52977e-15,379.41,634.534)"><stop offset="0" style="stop-color:rgb(94,94,94);stop-opacity:1"/><stop offset="0.5" style="stop-color:rgb(38,38,38);stop-opacity:1"/><stop offset="1" style="stop-color:rgb(78,78,78);stop-opacity:1"/></linearGradient>
        <linearGradient id="_Linear25" x1="0" y1="0" x2="1" y2="0" gradientUnits="userSpaceOnUse" gradientTransform="matrix(1.76927e-15,-28.8944,28.8944,1.76927e-15,341.087,652.894)"><stop offset="0" style="stop-color:rgb(101,101,101);stop-opacity:0"/><stop offset="1" style="stop-color:rgb(53,53,53);stop-opacity:1"/></linearGradient>
        <linearGradient id="_Linear26" x1="0" y1="0" x2="1" y2="0" gradientUnits="userSpaceOnUse" gradientTransform="matrix(5.75584e-15,99.5143,-94,6.0935e-15,290,617.243)"><stop offset="0" style="stop-color:black;stop-opacity:1"/><stop offset="1" style="stop-color:rgb(205,205,205);stop-opacity:1"/></linearGradient>
        <linearGradient id="_Linear27" x1="0" y1="0" x2="1" y2="0" gradientUnits="userSpaceOnUse" gradientTransform="matrix(6.0935e-15,99.5143,-194.614,1.19167e-14,290,617.243)"><stop offset="0" style="stop-color:rgb(69,69,69);stop-opacity:1"/><stop offset="1" style="stop-color:rgb(33,33,33);stop-opacity:1"/></linearGradient>
        <linearGradient id="_Linear28" x1="0" y1="0" x2="1" y2="0" gradientUnits="userSpaceOnUse" gradientTransform="matrix(1.58647e-15,-38,25.9091,2.32683e-15,290,663)"><stop offset="0" style="stop-color:rgb(114,114,114);stop-opacity:1"/><stop offset="1" style="stop-color:black;stop-opacity:1"/></linearGradient>
        <linearGradient id="_Linear29" x1="0" y1="0" x2="1" y2="0" gradientUnits="userSpaceOnUse" gradientTransform="matrix(1.58647e-15,38,-25.9091,2.32683e-15,290,625)"><stop offset="0" style="stop-color:rgb(101,101,101);stop-opacity:1"/><stop offset="0.48" style="stop-color:rgb(60,60,60);stop-opacity:1"/><stop offset="1" style="stop-color:rgb(107,107,107);stop-opacity:1"/></linearGradient>
        <linearGradient id="_Linear30" x1="0" y1="0" x2="1" y2="0" gradientUnits="userSpaceOnUse" gradientTransform="matrix(1.63314e-15,-38,-52.1593,-4.55044e-15,287.069,663)"><stop offset="0" style="stop-color:rgb(97,97,97);stop-opacity:1"/><stop offset="1" style="stop-color:rgb(22,22,22);stop-opacity:1"/></linearGradient>
        <linearGradient id="_Linear31" x1="0" y1="0" x2="1" y2="0" gradientUnits="userSpaceOnUse" gradientTransform="matrix(1.82443e-15,37.9213,-29.7953,2.32201e-15,289.392,624.622)"><stop offset="0" style="stop-color:rgb(44,44,44);stop-opacity:1"/><stop offset="0.6" style="stop-color:rgb(58,58,58);stop-opacity:1"/><stop offset="0.81" style="stop-color:rgb(90,90,90);stop-opacity:1"/><stop offset="1" style="stop-color:rgb(122,122,122);stop-opacity:1"/></linearGradient>
    </defs>
</svg>
