<?xml version="1.0" encoding="UTF-8" standalone="no"?>
<!DOCTYPE svg PUBLIC "-//W3C//DTD SVG 1.1//EN" "http://www.w3.org/Graphics/SVG/1.1/DTD/svg11.dtd">
<svg width="480px" height="210px" viewBox="0 0 480 210" version="1.1" xmlns="http://www.w3.org/2000/svg" xmlns:xlink="http://www.w3.org/1999/xlink" xml:space="preserve" xmlns:serif="http://www.serif.com/" style="fill-rule:evenodd;clip-rule:evenodd;stroke-linejoin:round;stroke-miterlimit:2;">
     <g id="silkscreen_clie_n610c_n710c_n760c_s500_sj20_sl10_t415">
         <rect id="bg" x="0" y="0" width="480" height="210" style="fill:rgb(69,73,76);"/>
         <g transform="translate(0 15)">
            <g id="graffiti-pad">
                <g id="letter" transform="matrix(5.14365,0,0,5.14365,-702.914,-708.606)">
                    <path d="M158.626,168.675C158.626,167.217 156.99,167.849 156.876,167.898L156.876,168.286C156.983,168.196 158.042,167.8 158.042,168.763C157.999,168.719 157.608,168.61 157.514,168.61C157.201,168.61 156.951,168.69 156.764,168.847C156.39,169.161 156.39,169.889 156.695,170.21C156.833,170.355 157.04,170.425 157.312,170.425C157.476,170.425 157.621,170.39 157.745,170.322C157.869,170.253 157.988,170.166 158.042,170.057L158.042,170.425L158.626,170.425L158.626,168.675ZM157.879,169.864C157.794,169.936 157.701,169.971 157.595,169.971C157.471,169.971 157.37,169.943 157.292,169.883C157.212,169.825 157.174,169.709 157.174,169.534L157.174,169.464C157.174,169.299 157.21,169.175 157.286,169.099C157.359,169.022 157.462,168.983 157.589,168.983C157.727,168.983 157.829,169.024 157.9,169.104C157.97,169.187 158.004,169.304 158.004,169.461L158.004,169.531C158.004,169.682 157.961,169.794 157.879,169.864" style="fill:rgb(150,150,150);fill-rule:nonzero;"/>
                </g>
                <g id="number" transform="matrix(5.2573,0,0,5.2573,-771.282,-560.704)">
                    <path d="M217.656,136.135C217.846,136.135 218.228,135.945 218.228,135.755L218.607,135.755L218.607,138.608L218.029,138.608L218.029,136.516L217.656,136.516L217.656,136.135Z" style="fill:rgb(150,150,150);fill-rule:nonzero;"/>
                </g>
                <path id="graffiti-area" d="M260,168.5C262.76,168.5 265,170.74 265,173.5C265,176.26 262.76,178.5 260,178.5C257.24,178.5 255,176.26 255,173.5C255,170.74 257.24,168.5 260,168.5ZM250,5L250,8.088L100.2,8.088C96.275,8.088 93.088,11.275 93.088,15.2L93.088,164.8C93.088,168.725 96.275,171.912 100.2,171.912L250,171.912L250,175L100.2,175C94.57,175 90,170.43 90,164.8L90,15.2C90,9.57 94.57,5 100.2,5L250,5ZM270,5L379.8,5C385.43,5 390,9.57 390,15.2L390,164.8C390,170.43 385.43,175 379.8,175L270,175L270,171.912L379.8,171.912C383.725,171.912 386.912,168.725 386.912,164.8L386.912,15.2C386.912,11.275 383.725,8.088 379.8,8.088L270,8.088L270,5ZM260,1.5C262.76,1.5 265,3.74 265,6.5C265,9.26 262.76,11.5 260,11.5C257.24,11.5 255,9.26 255,6.5C255,3.74 257.24,1.5 260,1.5Z" style="fill:rgb(150,150,150);"/>
            </g>
            <g id="icons">
                <g id="search" transform="matrix(1,0,0,1,-2,5.00352) translate(10 0)">
                    <path d="M462,89.856C462,87.174 459.822,84.996 457.14,84.996L412.86,84.996C410.178,84.996 408,87.174 408,89.856L408,134.136C408,136.819 410.178,138.996 412.86,138.996L457.14,138.996C459.822,138.996 462,136.819 462,134.136L462,89.856ZM425.465,108.13L425.617,108.329L420.36,110.938C423.306,111.62 426.827,113.451 430.122,116.216C433.074,118.693 435.318,121.477 436.605,124.03L437.835,116.305L438.816,116.465L439.771,116.446L437.826,128.664C437.78,129.555 437.512,130.33 437,130.94C434.567,133.84 427.534,131.951 421.305,126.724C415.076,121.497 411.995,114.9 414.428,112C414.831,111.52 415.36,111.171 415.991,110.946L424.655,106.647L425.465,108.13ZM436.143,126.933C435.758,124.401 433.172,120.687 429.284,117.424C424.037,113.021 418.392,111.097 416.686,113.13C414.98,115.163 417.855,120.388 423.102,124.791C428.35,129.194 433.995,131.118 435.701,129.085C435.746,129.031 435.788,128.975 435.827,128.917L436.143,126.933ZM444.022,111.96C443.741,112.231 443.512,112.453 443.437,112.543C440.765,115.727 434.919,115.227 430.391,111.427C425.862,107.627 424.354,101.957 427.026,98.773C427.44,98.279 428.822,97.017 429.03,96.769C431.702,93.585 437.547,94.085 442.076,97.885C445.531,100.784 447.228,104.773 446.651,107.915L458,117.437L454.922,121.106L444.022,111.96ZM430.106,98.337C431.979,96.105 436.46,96.776 440.106,99.835C443.752,102.894 445.191,107.191 443.318,109.423C441.444,111.656 436.963,110.984 433.318,107.925C429.672,104.866 428.233,100.57 430.106,98.337Z" style="fill:rgb(150,150,150);"/>
                </g>
                <path transform="translate(10 0)" id="calculator" d="M431,39L431,64L410.86,64C408.178,64 406,61.822 406,59.14L406,39L431,39ZM460,39L460,59.14C460,61.822 457.822,64 455.14,64L435,64L435,39L460,39ZM420.621,51.425L425.925,56.728L423.803,58.849L418.5,53.546L413.197,58.849L411.075,56.728L416.379,51.425L411.075,46.121L413.197,44L418.5,49.303L423.803,44L425.925,46.121L420.621,51.425ZM456,57L456,54L439,54L439,57L456,57ZM456,49.5L456,46L439,46L439,49.5L456,49.5ZM435,10L455.14,10C457.822,10 460,12.178 460,14.86L460,35L435,35L435,10ZM431,35L406,35L406,14.86C406,12.178 408.178,10 410.86,10L431,10L431,35ZM420,21L427.5,21L427.5,24L420,24L420,31.5L417,31.5L417,24L409.5,24L409.5,21L417,21L417,13.5L420,13.5L420,21ZM447.5,26.4C448.604,26.4 449.5,27.296 449.5,28.4C449.5,29.504 448.604,30.4 447.5,30.4C446.396,30.4 445.5,29.504 445.5,28.4C445.5,27.296 446.396,26.4 447.5,26.4ZM456,24L456,21L439,21L439,24L456,24ZM447.5,14.6C448.604,14.6 449.5,15.496 449.5,16.6C449.5,17.704 448.604,18.6 447.5,18.6C446.396,18.6 445.5,17.704 445.5,16.6C445.5,15.496 446.396,14.6 447.5,14.6Z" style="fill:rgb(150,150,150);"/>
                <path transform="translate(-10 0)" id="menu" d="M74,94.86C74,92.178 71.822,90 69.14,90L24.86,90C22.178,90 20,92.178 20,94.86L20,139.14C20,141.822 22.178,144 24.86,144L69.14,144C71.822,144 74,141.822 74,139.14L74,94.86ZM46,102L25,102L25,96L69,96L69,102L49,102L49,135.076C49,137.24 47.244,138.996 45.08,138.996L25,138.996L25,136L45,136C45.534,136 46,135.567 46,135.033L46,102ZM63,129L68,129L61,138L54,129L59,129L59,113.469L63,113.469L63,129ZM39.199,128.164C38.858,128.753 38.663,129.436 38.663,130.164C38.663,130.9 38.862,131.59 39.209,132.182L28,132.182L28,128.164L39.199,128.164ZM42,128.164C43.104,128.164 44,129.06 44,130.164C44,131.268 43.104,132.164 42,132.164C40.896,132.164 40,131.268 40,130.164C40,129.06 40.896,128.164 42,128.164ZM36.623,117.582C36.283,118.171 36.088,118.854 36.088,119.582C36.088,120.318 36.287,121.008 36.634,121.6L28,121.6L28,117.582L36.623,117.582ZM42,117.582C43.104,117.582 44,118.478 44,119.582C44,120.686 43.104,121.582 42,121.582C40.896,121.582 40,120.686 40,119.582C40,118.478 40.896,117.582 42,117.582ZM38.536,107C38.195,107.589 38,108.272 38,109C38,109.736 38.199,110.425 38.546,111.018L28,111.018L28,107L38.536,107ZM42,107C43.104,107 44,107.896 44,109C44,110.104 43.104,111 42,111C40.896,111 40,110.104 40,109C40,107.896 40.896,107 42,107ZM67,98L49,98L49,100L67,100L67,98Z" style="fill:rgb(150,150,150);"/>
                <g id="applications" transform="matrix(0.9,0,0,0.9,2,1) translate(-10 0)">
                    <path d="M80,15.4C80,12.42 77.58,10 74.6,10L25.4,10C22.42,10 20,12.42 20,15.4L20,64.6C20,67.58 22.42,70 25.4,70L74.6,70C77.58,70 80,67.58 80,64.6L80,15.4ZM50,64.321L45,62.059L45,47L38,44L38,58.892L33.819,57L33.819,43L39.5,27L54.5,53L73,44L73,53.5L53,64.198L53,55L50,50L50,64.321ZM36,20L37.806,21.806L29.776,44L27,44L36,20ZM60.699,27.5L57,29.444L57,18.16L60.699,16.025L60.699,27.5ZM55,18.16L55,29.444L52,24.5L52.071,16.469L55,18.16ZM58.778,14.825L56,16.428L53.893,15.212L56.573,14.05L58.778,14.825Z" style="fill:rgb(150,150,150);"/>
                </g>
            </g>
            <g id="brightness" transform="matrix(4.05405,0,0,4.05405,-540.547,-378.259) translate(-4 0)">
                <path d="M138.885,134.374C138.885,133.352 139.714,132.524 140.736,132.524C141.758,132.524 142.585,133.352 142.585,134.374C142.585,135.395 141.758,136.223 140.736,136.223C139.714,136.223 138.885,135.395 138.885,134.374ZM139.228,134.374C139.228,135.207 139.903,135.882 140.736,135.881L140.736,132.866C139.903,132.866 139.228,133.541 139.228,134.374" style="fill:rgb(150,150,150);fill-rule:nonzero;"/>
            </g>
        </g>
    </g>
</svg>
