<?xml version="1.0" encoding="UTF-8" standalone="no"?>
<!DOCTYPE svg PUBLIC "-//W3C//DTD SVG 1.1//EN" "http://www.w3.org/Graphics/SVG/1.1/DTD/svg11.dtd">
<svg width="480px" height="180px" viewBox="0 0 480 180" version="1.1" xmlns="http://www.w3.org/2000/svg" xmlns:xlink="http://www.w3.org/1999/xlink" xml:space="preserve" xmlns:serif="http://www.serif.com/" style="fill-rule:evenodd;clip-rule:evenodd;stroke-linejoin:round;stroke-miterlimit:2;">
    <g id="silkscreen-m515">
        <g id="bg-color" transform="matrix(5.33333,0,0,2.68657,-592,-67.1642)">
            <rect x="111" y="25" width="90" height="67" style="fill:rgb(81,95,95);"/>
        </g>
        <g id="write-area">
            <path id="border" d="M98.845,7C100.792,8.906 102,11.563 102,14.5C102,20.295 97.295,25 91.5,25C88.563,25 85.906,23.792 84,21.845L84,180L81,180L81,14L81.012,14C81.273,8.437 85.872,4 91.5,4L399,4L399,180L396,180L396,21.234C395.763,21.249 395.525,21.256 395.284,21.256C388.866,21.256 383.656,16.045 383.656,9.627C383.656,8.724 383.759,7.844 383.954,7L275,7L270,15L265,7L98.845,7ZM270,163L265,171L275,171L270,163ZM389.279,23.101L388.2,26.064C387.952,26.746 388.304,27.5 388.985,27.748C389.667,27.996 390.422,27.644 390.67,26.963L391.748,24C391.996,23.318 391.644,22.563 390.963,22.315C390.281,22.067 389.527,22.419 389.279,23.101ZM383.574,18.581L381.23,20.691C380.691,21.177 380.647,22.008 381.133,22.547C381.618,23.086 382.449,23.13 382.988,22.644L385.332,20.534C385.871,20.049 385.914,19.217 385.429,18.679C384.944,18.14 384.112,18.096 383.574,18.581ZM91.5,7.043C95.615,7.043 98.957,10.385 98.957,14.5C98.957,18.615 95.615,21.957 91.5,21.957C87.385,21.957 84.043,18.615 84.043,14.5C84.043,10.385 87.385,7.043 91.5,7.043ZM386.674,7C386.42,7.831 386.284,8.713 386.284,9.627C386.284,14.595 390.317,18.628 395.284,18.628C395.525,18.628 395.764,18.618 396,18.6L396,7L386.674,7ZM90.927,14.018L94.399,9.775C94.739,9.359 95.353,9.298 95.769,9.638C96.184,9.978 96.246,10.592 95.905,11.008L91.797,16.029C91.63,16.233 91.387,16.361 91.124,16.383C90.861,16.405 90.601,16.319 90.403,16.146L86.75,12.95C86.346,12.596 86.305,11.981 86.659,11.576C87.013,11.172 87.628,11.131 88.032,11.485L90.927,14.018ZM381.021,12.27L377.975,13.085C377.274,13.273 376.857,13.994 377.045,14.694C377.232,15.395 377.953,15.811 378.654,15.624L381.7,14.809C382.401,14.622 382.817,13.901 382.63,13.2C382.443,12.5 381.722,12.083 381.021,12.27Z" style="fill:rgb(183,207,215);"/>
            <g id="abc-board" transform="matrix(1,0,0,1,0.107304,-3.05658)">
                <g transform="matrix(1,0,0,1,-0.107304,3.05658)">
                    <path d="M116.515,163.272C116.295,163.399 116.074,163.432 115.851,163.37C115.628,163.309 115.454,163.17 115.329,162.954C115.178,162.692 115.152,162.369 115.252,161.985C115.352,161.6 115.45,161.216 115.545,160.83C115.64,160.445 115.614,160.124 115.466,159.868C115.154,159.327 114.588,159.053 113.77,159.047C112.952,159.041 112.097,159.296 111.205,159.811C110.228,160.375 109.55,161.028 109.172,161.77C108.794,162.513 108.789,163.203 109.157,163.841C109.322,164.125 109.527,164.371 109.773,164.579C110.019,164.786 110.316,164.954 110.663,165.084C111.011,165.214 111.443,165.323 111.959,165.412L111.84,165.925C109.95,165.756 108.628,165.019 107.875,163.715C107.323,162.758 107.215,161.786 107.553,160.797C107.891,159.809 108.606,158.999 109.7,158.367C110.329,158.004 110.97,157.777 111.621,157.685C112.273,157.594 112.9,157.632 113.503,157.801C114.105,157.969 114.664,158.264 115.179,158.684C115.695,159.104 116.133,159.627 116.495,160.253C116.758,160.709 116.937,161.139 117.032,161.544C117.127,161.948 117.132,162.298 117.046,162.595C116.961,162.891 116.784,163.117 116.515,163.272ZM107.782,155.103C107.229,155.762 106.56,156.258 105.775,156.589C104.991,156.921 104.141,157.007 103.227,156.848C102.313,156.689 101.401,156.227 100.489,155.462C100.358,155.352 100.005,155.015 99.432,154.451C99.142,154.161 98.781,153.758 98.35,153.239L106.016,144.103C106.26,143.811 106.364,143.539 106.327,143.286C106.29,143.034 106.075,142.743 105.682,142.413L106.029,142L108.661,143.021L109.107,143.395L104.57,148.802C105.557,148.875 106.287,148.979 106.761,149.114C107.236,149.25 107.637,149.455 107.964,149.73C108.317,150.026 108.579,150.389 108.751,150.818C108.922,151.248 108.999,151.704 108.981,152.186C108.963,152.668 108.854,153.161 108.654,153.665C108.454,154.17 108.163,154.649 107.782,155.103ZM105.696,154.444C106.122,153.936 106.447,153.4 106.67,152.837C106.894,152.274 106.974,151.747 106.909,151.255C106.845,150.764 106.624,150.36 106.246,150.043C106.02,149.853 105.74,149.705 105.407,149.601C105.074,149.496 104.636,149.419 104.094,149.37L102.033,151.826C101.616,152.323 101.306,152.775 101.103,153.18C100.9,153.585 100.828,153.983 100.887,154.373C100.946,154.764 101.185,155.134 101.603,155.485C102.187,155.975 102.85,156.122 103.591,155.924C104.332,155.726 105.034,155.233 105.696,154.444ZM95.912,151.982C94.728,152.505 93.827,152.654 93.209,152.429C92.504,152.172 92.298,151.643 92.59,150.841L92.612,150.781C92.548,150.803 92.349,150.883 92.016,151.02C91.682,151.158 91.417,151.257 91.22,151.317C91.024,151.376 90.825,151.402 90.626,151.393C90.426,151.384 90.187,151.329 89.909,151.228C89.334,151.019 88.928,150.664 88.69,150.165C88.452,149.665 88.438,149.127 88.648,148.55C88.865,147.954 89.199,147.546 89.649,147.327C89.89,147.204 90.153,147.129 90.44,147.102C90.726,147.075 91.099,147.074 91.559,147.099C92.229,147.102 92.718,147.092 93.024,147.069C93.33,147.045 93.668,146.976 94.038,146.863L94.273,146.217C94.534,145.501 94.622,144.942 94.537,144.539C94.453,144.137 94.182,143.853 93.725,143.686C93.44,143.583 93.162,143.577 92.891,143.67C92.619,143.762 92.441,143.925 92.357,144.157C92.296,144.323 92.284,144.547 92.321,144.831L90.322,144.959C90.245,144.691 90.243,144.454 90.318,144.248C90.439,143.917 90.74,143.628 91.221,143.383C91.702,143.138 92.256,142.99 92.883,142.941C93.51,142.891 94.086,142.962 94.611,143.153C95.396,143.439 95.935,143.858 96.227,144.411C96.519,144.964 96.531,145.609 96.263,146.344L94.606,150.899C94.437,151.363 94.485,151.643 94.751,151.74C94.992,151.828 95.368,151.766 95.879,151.554L95.912,151.982ZM92.814,150.224L93.821,147.46C92.787,147.684 92.113,147.841 91.797,147.929C91.482,148.016 91.239,148.135 91.07,148.283C90.9,148.432 90.752,148.682 90.624,149.033C90.496,149.384 90.474,149.703 90.559,149.989C90.644,150.275 90.816,150.466 91.076,150.56C91.286,150.637 91.548,150.627 91.863,150.531C92.053,150.45 92.371,150.348 92.814,150.224Z" style="fill:rgb(183,207,215);fill-rule:nonzero;"/>
                </g>
                <g transform="matrix(1,0,0,1,-296.107,3.05658)">
                    <circle cx="388" cy="163" r="4" style="fill:rgb(183,207,215);"/>
                </g>
            </g>
            <g id="number-board" transform="matrix(6.12323e-17,-1,1,6.12323e-17,222.693,255.051)">
                <g transform="matrix(6.12323e-17,1,-1,6.12323e-17,255.051,-222.693)">
                    <path d="M376.103,160.664L374.602,166.267L374.039,166.116L374.292,165.173C374.37,164.881 374.405,164.67 374.395,164.542C374.386,164.413 374.322,164.311 374.204,164.235C374.085,164.159 373.873,164.08 373.566,163.998L364.009,161.437C364.348,162.27 364.575,163.182 364.689,164.172L364.142,164.25C363.91,163.426 363.608,162.626 363.235,161.852C362.861,161.078 362.45,160.413 362,159.857L362.237,158.971L374.064,162.14C374.323,162.209 374.529,162.237 374.682,162.224C374.836,162.21 374.957,162.148 375.045,162.035C375.134,161.923 375.212,161.739 375.28,161.485L375.541,160.513L376.103,160.664ZM380.36,150.478L382.771,153.004L377.629,159.132L377.167,158.745L376.256,153.048C376.089,151.973 375.828,151.063 375.473,150.318C375.117,149.573 374.661,148.967 374.104,148.5C373.699,148.16 373.272,147.93 372.824,147.812C372.375,147.693 371.945,147.699 371.532,147.828C371.119,147.958 370.771,148.192 370.487,148.53C370.065,149.033 369.882,149.614 369.938,150.271C369.995,150.928 370.285,151.613 370.809,152.328L370.448,152.759C370.014,152.266 369.675,151.767 369.431,151.262C369.187,150.757 369.036,150.243 368.976,149.721C368.917,149.199 368.957,148.705 369.096,148.237C369.234,147.77 369.473,147.335 369.811,146.932C370.229,146.433 370.751,146.079 371.374,145.868C371.998,145.657 372.637,145.619 373.294,145.753C373.95,145.887 374.54,146.174 375.065,146.614C375.545,147.018 375.931,147.505 376.222,148.075C376.513,148.645 376.713,149.38 376.824,150.28C376.834,150.366 376.876,150.929 376.948,151.968C377.02,153.007 377.105,153.924 377.202,154.718C377.311,155.565 377.413,156.174 377.507,156.545L380.208,153.326C380.496,152.983 380.674,152.697 380.742,152.467C380.811,152.237 380.791,152.003 380.682,151.765C380.572,151.528 380.357,151.227 380.036,150.863L380.36,150.478ZM389.952,144.253C390.345,145.097 390.503,145.965 390.426,146.857C390.349,147.749 390.055,148.562 389.544,149.294C389.033,150.027 388.363,150.586 387.534,150.973C386.795,151.317 386.085,151.466 385.402,151.418C384.72,151.371 384.283,151.142 384.092,150.733C383.982,150.496 383.972,150.258 384.063,150.017C384.154,149.776 384.315,149.601 384.548,149.493C384.792,149.379 385.028,149.349 385.256,149.402C385.484,149.455 385.793,149.568 386.182,149.741C386.571,149.914 386.889,150.024 387.136,150.072C387.384,150.12 387.639,150.083 387.901,149.961C388.64,149.616 389.001,149.014 388.985,148.154C388.968,147.294 388.782,146.483 388.428,145.722C388.046,144.904 387.594,144.344 387.073,144.042C386.551,143.74 386.01,143.72 385.45,143.981C385.17,144.112 384.851,144.354 384.493,144.708L384.158,144.409C384.617,143.276 384.899,142.403 385.005,141.79C385.11,141.176 385.062,140.652 384.859,140.217C384.638,139.744 384.299,139.41 383.842,139.214C383.384,139.019 382.944,139.02 382.521,139.217C382.116,139.406 381.812,139.709 381.611,140.126C381.41,140.543 381.28,141.131 381.22,141.89L380.697,141.912C380.617,140.852 380.751,139.949 381.099,139.203C381.448,138.457 381.998,137.908 382.748,137.558C383.434,137.239 384.101,137.186 384.749,137.402C385.397,137.617 385.872,138.048 386.173,138.693C386.334,139.039 386.421,139.411 386.433,139.81C386.445,140.209 386.381,140.625 386.241,141.056C386.101,141.487 385.895,141.902 385.624,142.301L385.642,142.339C386.268,142.109 386.853,142.031 387.399,142.104C387.944,142.176 388.431,142.391 388.858,142.748C389.286,143.105 389.651,143.607 389.952,144.253Z" style="fill:rgb(183,207,215);fill-rule:nonzero;"/>
                </g>
                <g transform="matrix(6.12323e-17,1,-1,6.12323e-17,255.051,-222.693)">
                    <circle cx="388" cy="163" r="4" style="fill:rgb(183,207,215);"/>
                </g>
            </g>
        </g>
        <g id="icons">
            <g id="search" transform="matrix(1,0,0,1,-5,-13)">
                <path d="M445,113C461.557,113 475,126.443 475,143C475,159.557 461.557,173 445,173C428.443,173 415,159.557 415,143C415,126.443 428.443,113 445,113ZM439.5,142.5C434.452,147.099 430.353,152.389 426.5,157.5C424,160.684 426.663,163.62 430,161C434.339,157.593 438.844,153.101 442.5,148.5C454,156 471,140 465,130.5C465,142 449,153 439.5,142.5ZM460.585,123.314C464.487,127.217 463.562,134.479 458.52,139.52C453.479,144.562 446.217,145.487 442.314,141.585C438.411,137.682 439.336,130.42 444.378,125.378C449.42,120.336 456.682,119.411 460.585,123.314ZM456,127.5C450,127.5 447,130.5 444.5,136C443.844,137.5 441.773,137 442.5,135C443.955,131 448,125 456,125C458,125 458,127.5 456,127.5Z" style="fill:rgb(183,207,215);"/>
            </g>
            <g id="calculator" transform="matrix(1,0,0,1,-5,7)">
                <path d="M445,7C461.557,7 475,20.443 475,37C475,53.557 461.557,67 445,67C428.443,67 415,53.557 415,37C415,20.443 428.443,7 445,7ZM431,39.5C429,39.5 428,40.5 428,42.5L428,51.5C428,53.5 429,54.5 431,54.5L440,54.5C442,54.5 443,53.5 443,51.5L443,42.5C443,40.5 442,39.5 440,39.5L431,39.5ZM450,39.5C448,39.5 447,40.5 447,42.5L447,51.5C447,53.5 448,54.5 450,54.5L459,54.5C461,54.5 462,53.5 462,51.5L462,42.5C462,40.5 461,39.5 459,39.5L450,39.5ZM435.493,45.586L437.615,43.464C437.986,43.093 438.658,43.093 439.029,43.464C439.4,43.836 439.4,44.508 439.029,44.879L436.908,47L439.029,49.121C439.4,49.492 439.4,50.164 439.029,50.536C438.658,50.907 437.986,50.907 437.615,50.536L435.493,48.414L433.372,50.536C433.019,50.889 432.311,50.889 431.958,50.536C431.604,50.182 431.615,49.485 431.958,49.121L434.079,47L431.958,44.879C431.604,44.525 431.604,43.818 431.958,43.464C432.311,43.111 433.008,43.121 433.372,43.464L435.493,45.586ZM458,48.5C450,48.5 451,48.5 451,48.5C450.5,48.514 450,49 450,49.5C450,50 450.5,50.5 451,50.5C459,50.5 450,50.5 458,50.5C458.525,50.5 459,50.025 459,49.5C459,48.975 458.525,48.5 458,48.5ZM458,43.5C450,43.5 451,43.5 451,43.5C450.5,43.514 450,44 450,44.5C450,45 450.5,45.5 451,45.5C459,45.5 450,45.5 458,45.5C458.525,45.5 459,45.025 459,44.5C459,43.975 458.525,43.5 458,43.5ZM450,19.5C448,19.5 447,20.5 447,22.5L447,31.5C447,33.5 448,34.5 450,34.5L459,34.5C461,34.5 462,33.5 462,31.5L462,22.5C462,20.5 461,19.5 459,19.5L450,19.5ZM431,19.5C429,19.5 428,20.5 428,22.5L428,31.5C428,33.5 429,34.5 431,34.5L440,34.5C442,34.5 443,33.5 443,31.5L443,22.5C443,20.5 442,19.5 440,19.5L431,19.5ZM454.5,30C455.328,30 456,30.672 456,31.5C456,32.328 455.328,33 454.5,33C453.672,33 453,32.328 453,31.5C453,30.672 453.672,30 454.5,30ZM434.5,26L434.5,23C434.5,22.475 434.975,22 435.5,22C436.025,22 436.5,22.475 436.5,23L436.5,26L439.5,26C440.025,26 440.5,26.475 440.5,27C440.5,27.525 440.025,28 439.5,28L436.5,28L436.5,31C436.5,31.5 436,32 435.5,32C435,32 434.514,31.5 434.5,31L434.5,28L431.5,28C431,28 430.5,27.5 430.5,27C430.5,26.5 431,26.014 431.5,26L434.5,26ZM458,26C450,26 451,26 451,26C450.5,26.014 450,26.5 450,27C450,27.5 450.5,28 451,28C459,28 450,28 458,28C458.525,28 459,27.525 459,27C459,26.475 458.525,26 458,26ZM454.5,21C455.328,21 456,21.672 456,22.5C456,23.328 455.328,24 454.5,24C453.672,24 453,23.328 453,22.5C453,21.672 453.672,21 454.5,21Z" style="fill:rgb(183,207,215);"/>
            </g>
            <g id="home" transform="matrix(1,0,0,1,5.50064,7.08893)">
                <path d="M34.499,6.911C51.057,6.911 64.499,20.354 64.499,36.911C64.499,53.469 51.057,66.911 34.499,66.911C17.942,66.911 4.499,53.469 4.499,36.911C4.499,20.354 17.942,6.911 34.499,6.911ZM40.382,58C39.439,58 38.439,57 38.439,55.993L38.439,49.5C38.439,48.5 37.53,47.5 36.439,47.5L32.499,47.5C31.408,47.5 30.499,48.5 30.499,49.5L30.499,55.993C30.499,57 29.499,58 28.556,58L19.439,58C18.439,58 17.544,56.986 17.424,55.993C16.796,50.814 16.939,47 17.424,43C17.664,41.015 27.439,29.5 31.439,25.5C32.449,24.49 33.459,23.99 34.469,24C35.479,23.99 36.489,24.49 37.499,25.5C41.499,29.5 51.274,41.015 51.514,43C51.999,47 52.142,50.814 51.514,55.993C51.394,56.986 50.499,58 49.499,58L40.382,58ZM43.499,23.477L43.499,16C43.499,15 44.499,14 45.499,14L47.499,14C48.499,14 49.499,15 49.499,16L49.499,29.832C51.454,32.031 53.372,34.305 55.186,36.542C56.368,37.999 53.906,39.941 52.724,38.484C47.306,31.773 41.143,25.375 36.47,21.006C34.992,19.549 34.007,19.549 32.529,21.006C27.856,25.375 21.693,31.773 16.275,38.484C15.093,39.941 12.63,37.999 13.812,36.542C19.395,29.659 25.962,22.428 31.544,18.092C33.42,16.636 35.579,16.636 37.455,18.092C39.379,19.587 41.421,21.426 43.499,23.477Z" style="fill:rgb(183,207,215);"/>
            </g>
            <g id="menu" transform="matrix(1,0,0,1,5.50064,-14)">
                <path d="M34.499,114C51.057,114 64.499,127.443 64.499,144C64.499,160.557 51.057,174 34.499,174C17.942,174 4.499,160.557 4.499,144C4.499,127.443 17.942,114 34.499,114ZM18,140C16.5,140 15,141.5 15,143L15,160.038C15,161.538 16.5,163.038 18,163.038L32,163.038C33.5,163.038 35,161.538 35,160.038L35,143C35,141.5 33.5,140 32,140L18,140ZM43,150C43,150 43.5,150 39.5,150C38.5,150 37,151 39,153L45,159C46.453,160.343 47.577,160.423 49,159C52,156 55,153 55,153C57,151 55.5,150 54.5,150L51,150L51,142C51,141 50,140 49,140L45,140C44,140 43,141 43,142L43,150ZM20,155.994C19,155.994 18,155.994 18,157.494C18,158.994 19,159.025 20,158.994L30,158.994C31,158.994 32,158.994 32,157.494C32,155.994 31,155.994 30,155.994L20,155.994ZM20,150C19,150 18,150 18,151.5C18,153 19,153.031 20,153L30,153C31,153 32,153 32,151.5C32,150 31,150 30,150L20,150ZM20,144C19,144 18,144 18,145.5C18,147 19,147.031 20,147L30,147C31,147 32,147 32,145.5C32,144 31,144 30,144L20,144ZM14,130C13,130 12,131 12,132L12,135C12,136 13,137 14,137L56,137C57,137 57.975,136 58,135L58,132C58,131 57,130 56,130L14,130ZM17.5,131C16,131 15.5,132 15.5,133C15.5,134 16,135 17.5,135L31.5,135C33,135 33.5,134 33.5,133C33.5,132 33,131 31.5,131C16.5,131 17.5,131 17.5,131Z" style="fill:rgb(183,207,215);"/>
            </g>
        </g>
    </g>
</svg>
