<?xml version="1.0" encoding="UTF-8" standalone="no"?>
<!DOCTYPE svg PUBLIC "-//W3C//DTD SVG 1.1//EN" "http://www.w3.org/Graphics/SVG/1.1/DTD/svg11.dtd">
<svg width="480px" height="180px" viewBox="0 0 480 180" version="1.1" xmlns="http://www.w3.org/2000/svg" xmlns:xlink="http://www.w3.org/1999/xlink" xml:space="preserve" xmlns:serif="http://www.serif.com/" style="fill-rule:evenodd;clip-rule:evenodd;stroke-linejoin:round;stroke-miterlimit:2;">
    <g id="silkscreen_acer_s10">
        <g id="bg" transform="matrix(4.44444,0,0,2.16867,-472.998,-106.091)">
            <rect x="106.424" y="48.92" width="108" height="83" style="fill:rgb(150,160,130);"/>
        </g>
        <g id="write-area">
            <g id="cn-buttons">
                <path id="button-dictionary" d="M106,149.329C106,144.279 101.9,140.179 96.85,140.179L69.15,140.179C64.1,140.179 60,144.279 60,149.329L60,167.629C60,172.679 64.1,176.779 69.15,176.779L96.85,176.779C101.9,176.779 106,172.679 106,167.629L106,149.329ZM102.9,149.329L102.9,167.629C102.9,170.967 100.189,173.678 96.85,173.678L69.15,173.678C65.811,173.678 63.1,170.967 63.1,167.629C63.1,167.629 63.1,149.329 63.1,149.329C63.1,145.99 65.811,143.279 69.15,143.279L96.85,143.279C100.189,143.279 102.9,145.99 102.9,149.329ZM84.305,165.194C85.797,164.863 87.225,164.284 88.589,163.458C88.918,163.231 89.216,162.98 89.484,162.707C90.136,163.021 90.638,163.3 90.991,163.545C91.156,163.655 91.238,163.769 91.238,163.885C91.238,163.996 91.137,164.08 90.936,164.138C90.723,164.214 90.425,164.394 90.041,164.679C88.829,165.523 87.508,166.166 86.077,166.608C85.845,166.666 85.702,166.695 85.647,166.695C85.532,166.695 85.389,166.559 85.218,166.285C84.95,165.849 84.646,165.485 84.305,165.194ZM100.692,165.029C100.375,165.331 100.074,165.733 99.788,166.233C99.629,166.53 99.499,166.678 99.395,166.678C99.31,166.678 99.173,166.643 98.984,166.573C97.029,165.997 95.358,165.133 93.969,163.981C93.914,163.929 93.887,163.885 93.887,163.85C93.887,163.804 93.948,163.74 94.07,163.658L95.129,162.89C95.245,162.815 95.315,162.777 95.339,162.777C95.37,162.777 95.424,162.806 95.504,162.864C96.849,163.859 98.579,164.58 100.692,165.029ZM67.826,161.511L65.469,161.546C65.366,161.546 65.305,161.535 65.287,161.511C65.268,161.488 65.259,161.433 65.259,161.346L65.259,159.993C65.259,159.888 65.271,159.824 65.296,159.801C65.32,159.783 65.378,159.775 65.469,159.775L67.826,159.81L72.54,159.81C72.515,159.158 72.476,158.663 72.421,158.326C73.011,158.378 73.432,158.419 73.681,158.448C74.144,158.14 74.793,157.622 75.627,156.895L71.078,156.895L68.612,156.929C68.508,156.929 68.447,156.918 68.429,156.895C68.411,156.871 68.402,156.819 68.402,156.737L68.402,155.402C68.402,155.303 68.414,155.245 68.438,155.228C68.462,155.21 68.52,155.201 68.612,155.201L71.078,155.236L76.577,155.236C76.839,155.236 77.034,155.213 77.162,155.167C77.253,155.132 77.332,155.114 77.399,155.114C77.539,155.114 77.795,155.297 78.166,155.664C78.544,156.054 78.733,156.327 78.733,156.484C78.733,156.63 78.632,156.749 78.431,156.842C78.267,156.924 78.011,157.104 77.664,157.383C76.355,158.413 75.301,159.169 74.503,159.652L74.503,159.81L79.235,159.81L81.574,159.775C81.683,159.775 81.747,159.789 81.766,159.818C81.784,159.842 81.793,159.9 81.793,159.993L81.793,161.346C81.793,161.439 81.782,161.495 81.761,161.516C81.74,161.536 81.677,161.546 81.574,161.546L79.235,161.511L74.503,161.511L74.503,162.428L74.558,164.906C74.558,165.488 74.37,165.913 73.992,166.181C73.633,166.431 72.68,166.556 71.133,166.556C70.834,166.556 70.655,166.527 70.594,166.469C70.539,166.416 70.475,166.259 70.402,165.997C70.292,165.555 70.094,165.11 69.808,164.662C70.533,164.732 71.2,164.767 71.809,164.767C72.107,164.767 72.305,164.72 72.403,164.627C72.494,164.546 72.54,164.4 72.54,164.191L72.54,161.511L67.826,161.511ZM86.579,162.532L84.277,162.567C84.155,162.567 84.094,162.5 84.094,162.367L84.094,160.996C84.094,160.863 84.155,160.796 84.277,160.796L86.04,160.831L86.04,155.201L86.004,153.037C86.004,152.909 86.068,152.845 86.195,152.845L88.79,152.88L89.804,152.88L89.804,152.365C89.804,151.585 89.755,150.94 89.657,150.428C90.327,150.445 90.955,150.489 91.539,150.558C91.728,150.576 91.822,150.634 91.822,150.733C91.822,150.82 91.786,150.945 91.713,151.108C91.652,151.289 91.621,151.67 91.621,152.252L91.621,152.88L93.521,152.88L93.521,152.365C93.521,151.521 93.479,150.876 93.394,150.428C94.063,150.445 94.694,150.489 95.284,150.558C95.473,150.576 95.568,150.634 95.568,150.733C95.568,150.82 95.528,150.945 95.449,151.108C95.388,151.289 95.358,151.67 95.358,152.252L95.358,152.88L96.499,152.88L99.075,152.845C99.203,152.845 99.267,152.909 99.267,153.037L99.231,155.201L99.231,160.831L100.893,160.796C101.021,160.796 101.085,160.863 101.085,160.996L101.085,162.367C101.085,162.5 101.021,162.567 100.893,162.567L98.591,162.532L86.579,162.532ZM95.339,160.831L97.34,160.831L97.34,158.308L95.339,158.308L95.339,160.831ZM91.621,160.831L93.521,160.831L93.521,158.308L91.621,158.308L91.621,160.831ZM87.931,160.831L89.804,160.831L89.804,158.308L87.931,158.308L87.931,160.831ZM97.34,154.503L95.339,154.503L95.339,156.772L97.34,156.772L97.34,154.503ZM91.621,156.772L93.521,156.772L93.521,154.503L91.621,154.503L91.621,156.772ZM87.931,156.772L89.804,156.772L89.804,154.503L87.931,154.503L87.931,156.772ZM78.669,152.164L81.135,152.129C81.245,152.129 81.309,152.141 81.327,152.164C81.351,152.182 81.364,152.228 81.364,152.304L81.327,153.308L81.327,154.128L81.364,156.179C81.364,156.278 81.348,156.336 81.318,156.353C81.294,156.371 81.233,156.38 81.135,156.38L79.582,156.38C79.485,156.38 79.427,156.368 79.409,156.345C79.391,156.321 79.381,156.266 79.381,156.179L79.381,153.805L67.543,153.805L67.543,156.179C67.543,156.284 67.528,156.348 67.497,156.371C67.473,156.388 67.412,156.397 67.315,156.397L65.798,156.397C65.695,156.397 65.631,156.383 65.606,156.353C65.588,156.33 65.579,156.272 65.579,156.179L65.615,154.128L65.615,153.465L65.579,152.304C65.579,152.222 65.591,152.173 65.615,152.156C65.64,152.138 65.701,152.129 65.798,152.129L68.265,152.164L72.329,152.164L72.329,152.007C72.329,151.222 72.287,150.654 72.202,150.305C72.817,150.305 73.49,150.334 74.22,150.393C74.409,150.41 74.503,150.471 74.503,150.576C74.503,150.634 74.464,150.748 74.385,150.916C74.324,151.097 74.293,151.452 74.293,151.981L74.293,152.164L78.669,152.164Z"/>
                <path id="button-full-half" d="M106,103.929C106,98.882 101.903,94.786 96.857,94.786L69.143,94.786C64.097,94.786 60,98.882 60,103.929L60,122.214C60,127.26 64.097,131.357 69.143,131.357L96.857,131.357C101.903,131.357 106,127.26 106,122.214L106,103.929ZM102.9,103.929L102.9,122.214C102.9,125.549 100.192,128.257 96.857,128.257C96.857,128.257 69.143,128.257 69.143,128.257C65.808,128.257 63.1,125.549 63.1,122.214C63.1,122.214 63.1,103.929 63.1,103.929C63.1,100.594 65.808,97.886 69.143,97.886C69.143,97.886 96.857,97.886 96.857,97.886C100.192,97.886 102.9,100.594 102.9,103.929ZM79.742,120.224L77.813,120.194L67.721,120.194L65.424,120.229C65.332,120.229 65.275,120.218 65.252,120.194C65.234,120.171 65.226,120.119 65.226,120.037L65.226,118.641C65.226,118.542 65.24,118.484 65.269,118.466C65.286,118.449 65.338,118.44 65.424,118.44L67.721,118.475L71.718,118.475L71.718,116.293L69.931,116.293L67.531,116.327C67.433,116.327 67.375,116.316 67.358,116.293C67.341,116.269 67.332,116.217 67.332,116.135L67.332,114.765C67.332,114.672 67.344,114.617 67.367,114.599C67.39,114.582 67.445,114.573 67.531,114.573L69.931,114.608L71.718,114.608L71.718,112.609L70.587,112.609L68.308,112.644C68.216,112.644 68.158,112.632 68.135,112.609C68.118,112.586 68.109,112.533 68.109,112.452L68.109,111.291C67.378,111.762 66.659,112.172 65.951,112.521C65.698,112.626 65.551,112.679 65.511,112.679C65.419,112.679 65.306,112.53 65.174,112.233C64.972,111.768 64.702,111.375 64.362,111.055C66.106,110.258 67.545,109.388 68.679,108.445C69.652,107.642 70.495,106.714 71.209,105.66C71.52,105.195 71.741,104.764 71.874,104.368C72.61,104.467 73.229,104.592 73.73,104.744C73.943,104.796 74.049,104.886 74.049,105.014C74.049,105.107 73.992,105.198 73.877,105.285L73.695,105.425C74.749,106.798 75.963,107.936 77.339,108.838C78.444,109.565 79.753,110.202 81.267,110.749C80.95,111.139 80.697,111.593 80.507,112.111C80.386,112.42 80.28,112.574 80.188,112.574C80.159,112.574 80.018,112.521 79.765,112.417C78.924,112.044 78.116,111.622 77.339,111.151L77.339,112.452C77.339,112.58 77.281,112.644 77.166,112.644L74.861,112.609L73.609,112.609L73.609,114.608L75.621,114.608L78.029,114.573C78.133,114.573 78.193,114.584 78.211,114.608C78.234,114.631 78.245,114.683 78.245,114.765L78.245,116.135C78.245,116.223 78.234,116.277 78.211,116.297C78.188,116.317 78.127,116.327 78.029,116.327L75.621,116.293L73.609,116.293L73.609,118.475L77.813,118.475L80.101,118.44C80.193,118.44 80.248,118.452 80.265,118.475C80.283,118.498 80.291,118.553 80.291,118.641L80.291,118.878L85.12,107.048L86.967,107.048L80.984,121.644L79.162,121.644L79.742,120.224ZM89.292,112.233L86.926,112.268C86.828,112.268 86.771,112.254 86.753,112.225C86.736,112.201 86.727,112.146 86.727,112.059L86.727,110.732C86.727,110.639 86.739,110.584 86.762,110.566C86.785,110.549 86.84,110.54 86.926,110.54L89.292,110.575L92.46,110.575L92.46,107.319C92.46,106.149 92.411,105.25 92.313,104.622C93.131,104.645 93.798,104.686 94.316,104.744C94.495,104.767 94.584,104.834 94.584,104.945C94.584,105.003 94.547,105.128 94.472,105.32C94.391,105.57 94.351,106.225 94.351,107.284L94.351,110.575L97.796,110.575L100.161,110.54C100.265,110.54 100.328,110.552 100.351,110.575C100.369,110.598 100.377,110.651 100.377,110.732L100.377,112.059C100.377,112.158 100.363,112.219 100.334,112.242C100.311,112.26 100.253,112.268 100.161,112.268L97.796,112.233L94.351,112.233L94.351,114.538L99.099,114.538L101.292,114.503C101.413,114.503 101.474,114.57 101.474,114.704L101.474,116.057C101.474,116.191 101.413,116.258 101.292,116.258L99.099,116.223L94.351,116.223L94.351,117.654L94.385,120.779C94.385,120.872 94.371,120.931 94.342,120.954C94.319,120.971 94.262,120.98 94.17,120.98L92.616,120.98C92.523,120.98 92.469,120.968 92.452,120.945C92.434,120.922 92.426,120.867 92.426,120.779L92.46,117.654L92.46,116.223L87.979,116.223L85.786,116.258C85.671,116.258 85.614,116.191 85.614,116.057L85.614,114.704C85.614,114.57 85.671,114.503 85.786,114.503L87.979,114.538L92.46,114.538L92.46,112.233L89.292,112.233ZM68.662,110.915C68.875,110.927 69.517,110.933 70.587,110.933L74.861,110.933L76.967,110.915C75.2,109.746 73.787,108.404 72.728,106.891C71.629,108.439 70.273,109.781 68.662,110.915ZM95.706,109.501C96.426,108.541 97.045,107.557 97.563,106.551C97.689,106.306 97.793,106.015 97.873,105.678C98.455,105.911 98.976,106.161 99.436,106.428C99.591,106.504 99.669,106.589 99.669,106.682C99.669,106.786 99.597,106.885 99.453,106.978C99.344,107.072 99.243,107.208 99.151,107.389C98.743,108.104 98.219,108.934 97.58,109.877C97.407,110.103 97.283,110.217 97.209,110.217C97.145,110.217 96.999,110.144 96.768,109.999C96.434,109.801 96.081,109.635 95.706,109.501ZM88.877,105.852C89.625,106.842 90.282,107.875 90.846,108.951C90.874,109.015 90.889,109.059 90.889,109.082C90.889,109.135 90.82,109.204 90.682,109.292L89.602,109.946C89.493,110.022 89.421,110.06 89.387,110.06C89.346,110.06 89.306,110.013 89.266,109.92C88.823,108.902 88.201,107.857 87.401,106.786C87.355,106.722 87.332,106.676 87.332,106.647C87.332,106.606 87.381,106.551 87.479,106.481L88.489,105.835C88.592,105.765 88.67,105.73 88.722,105.73C88.774,105.73 88.825,105.771 88.877,105.852Z"/>
                <path id="button-handwriting" d="M106,58.536C106,53.49 101.903,49.393 96.857,49.393L69.143,49.393C64.097,49.393 60,53.49 60,58.536L60,76.821C60,81.868 64.097,85.964 69.143,85.964L96.857,85.964C101.903,85.964 106,81.868 106,76.821L106,58.536ZM102.9,58.536L102.9,76.821C102.9,80.156 100.192,82.864 96.857,82.864C96.857,82.864 69.143,82.864 69.143,82.864C65.808,82.864 63.1,80.156 63.1,76.821C63.1,76.821 63.1,58.536 63.1,58.536C63.1,55.201 65.808,52.493 69.143,52.493L96.857,52.493C100.192,52.493 102.9,55.201 102.9,58.536ZM86.876,63.406C87.314,63.47 87.748,63.571 88.18,63.711C88.876,63.612 89.527,63.452 90.131,63.231C90.442,63.115 90.718,62.972 90.96,62.803C91.3,63.182 91.564,63.525 91.754,63.833C91.823,63.95 91.858,64.046 91.858,64.121C91.858,64.255 91.786,64.322 91.642,64.322C91.435,64.322 91.236,64.351 91.046,64.409C90.281,64.642 89.492,64.826 88.681,64.959L88.681,65.605L90.131,65.605L91.435,65.57C91.527,65.57 91.584,65.582 91.608,65.605C91.625,65.629 91.633,65.681 91.633,65.763L91.633,66.662C91.633,66.778 91.567,66.836 91.435,66.836L90.131,66.801L88.681,66.801L88.681,67.639L95.803,67.639L95.803,66.801L94.232,66.801L92.868,66.836C92.77,66.836 92.71,66.825 92.687,66.801C92.669,66.784 92.661,66.737 92.661,66.662L92.661,65.763C92.661,65.669 92.672,65.614 92.695,65.597C92.718,65.579 92.776,65.57 92.868,65.57L94.232,65.605L95.803,65.605L95.803,64.82L94.284,64.82L92.764,64.855C92.672,64.855 92.615,64.84 92.592,64.811C92.574,64.788 92.566,64.732 92.566,64.645L92.566,63.624C92.566,63.519 92.58,63.455 92.609,63.432C92.626,63.414 92.678,63.406 92.764,63.406L94.284,63.441L95.803,63.441L97.34,63.406C97.444,63.406 97.507,63.42 97.53,63.449C97.547,63.473 97.556,63.531 97.556,63.624L97.522,65.143L97.522,67.264L97.556,68.818C97.556,68.922 97.542,68.987 97.513,69.01C97.49,69.027 97.432,69.036 97.34,69.036L94.923,69.001L89.337,69.001C89.642,69.117 89.823,69.184 89.881,69.202C90.025,69.254 90.097,69.336 90.097,69.446C90.097,69.545 90.007,69.641 89.829,69.734L89.691,69.822L96.762,69.822L99.205,69.787C99.36,69.787 99.438,69.839 99.438,69.944L99.438,70.005C99.432,70.057 99.395,70.581 99.326,71.576C99.251,72.63 99.156,73.421 99.041,73.951C98.874,74.701 98.601,75.21 98.221,75.478C97.887,75.711 97.383,75.827 96.71,75.827C96.342,75.827 96.045,75.822 95.821,75.81C95.648,75.798 95.536,75.755 95.484,75.679C95.444,75.615 95.398,75.464 95.346,75.225C95.242,74.707 95.107,74.326 94.94,74.081C95.539,74.163 96.051,74.204 96.477,74.204C96.742,74.204 96.934,74.151 97.055,74.047C97.188,73.936 97.283,73.738 97.34,73.453C97.455,72.958 97.539,72.213 97.591,71.218L88.215,71.218C88.019,71.387 87.696,71.614 87.248,71.899L88.163,72.205C88.301,72.251 88.37,72.312 88.37,72.388C88.37,72.405 88.364,72.437 88.353,72.484C87.979,73.788 87.515,74.844 86.963,75.653C86.911,75.723 86.859,75.757 86.807,75.757C86.761,75.757 86.689,75.728 86.591,75.67L85.529,75.024C85.409,74.954 85.348,74.887 85.348,74.823C85.348,74.783 85.374,74.73 85.426,74.666C86.024,73.916 86.453,73.101 86.712,72.222C86.344,72.42 86.01,72.574 85.711,72.685C85.481,72.766 85.342,72.807 85.296,72.807C85.193,72.807 85.101,72.699 85.02,72.484C84.79,71.972 84.577,71.597 84.381,71.358C85.791,70.956 86.905,70.36 87.722,69.568C87.93,69.365 88.082,69.181 88.18,69.019L87.144,69.036C87.04,69.036 86.977,69.021 86.954,68.992C86.937,68.969 86.928,68.911 86.928,68.818L86.963,67.142L86.963,65.143C86.963,64.345 86.934,63.766 86.876,63.406ZM68.789,70.599L66.562,70.633C66.464,70.633 66.406,70.622 66.389,70.599C66.372,70.575 66.363,70.52 66.363,70.433L66.363,69.01C66.363,68.911 66.375,68.853 66.398,68.835C66.421,68.818 66.476,68.809 66.562,68.809L68.789,68.844L73.279,68.844L73.279,66.697L70.343,66.697L67.917,66.731C67.825,66.731 67.771,66.717 67.753,66.688C67.736,66.665 67.727,66.606 67.727,66.513L67.727,65.082C67.727,64.965 67.791,64.907 67.917,64.907L70.343,64.942L73.279,64.942L73.279,62.821C72.001,62.972 70.49,63.106 68.746,63.222C68.631,63.228 68.559,63.231 68.53,63.231C68.352,63.231 68.237,63.196 68.185,63.126C68.145,63.074 68.093,62.934 68.03,62.707C67.891,62.253 67.713,61.849 67.494,61.494C69.745,61.424 71.719,61.27 73.417,61.031C74.913,60.822 76.197,60.577 77.267,60.298C77.745,60.176 78.272,59.99 78.847,59.739C79.354,60.199 79.771,60.641 80.099,61.066C80.209,61.188 80.263,61.302 80.263,61.407C80.263,61.523 80.163,61.581 79.961,61.581C79.673,61.604 79.397,61.654 79.132,61.73C77.912,62.061 76.597,62.335 75.187,62.55L75.187,64.942L78.191,64.942L80.6,64.907C80.727,64.907 80.79,64.965 80.79,65.082L80.79,66.513C80.79,66.618 80.778,66.682 80.755,66.705C80.732,66.723 80.681,66.731 80.6,66.731L78.191,66.697L75.187,66.697L75.187,68.844L79.59,68.844L81.817,68.809C81.909,68.809 81.964,68.821 81.981,68.844C81.999,68.867 82.007,68.922 82.007,69.01L82.007,70.433C82.007,70.526 81.997,70.582 81.977,70.603C81.957,70.623 81.904,70.633 81.817,70.633L79.59,70.599L75.187,70.599L75.187,71.192L75.239,73.619C75.239,74.055 75.193,74.387 75.1,74.614C75.02,74.823 74.876,75.016 74.669,75.19C74.295,75.487 73.287,75.635 71.647,75.635C71.543,75.641 71.474,75.644 71.44,75.644C71.267,75.644 71.155,75.606 71.103,75.531C71.063,75.467 71.023,75.318 70.982,75.085C70.861,74.474 70.7,74.003 70.499,73.671C71.04,73.747 71.719,73.785 72.536,73.785C72.841,73.785 73.046,73.724 73.149,73.601C73.236,73.502 73.279,73.342 73.279,73.121L73.279,70.599L68.789,70.599ZM89.017,72.432C89,72.379 88.992,72.341 88.992,72.318C88.992,72.254 89.075,72.211 89.242,72.187L90.235,72.056C90.292,72.045 90.335,72.039 90.364,72.039C90.445,72.039 90.502,72.097 90.537,72.213C90.813,73.22 90.989,74.122 91.064,74.919C91.069,74.966 91.072,74.995 91.072,75.007C91.072,75.1 90.986,75.161 90.813,75.19L89.717,75.365C89.642,75.376 89.587,75.382 89.553,75.382C89.478,75.382 89.435,75.324 89.423,75.208C89.389,74.294 89.253,73.369 89.017,72.432ZM93.101,71.986C93.475,72.731 93.775,73.494 93.999,74.274C94.005,74.314 94.008,74.346 94.008,74.37C94.008,74.457 93.927,74.521 93.766,74.562L92.816,74.806C92.718,74.835 92.652,74.85 92.618,74.85C92.56,74.85 92.52,74.794 92.497,74.684C92.353,73.997 92.094,73.211 91.72,72.327C91.702,72.275 91.694,72.237 91.694,72.213C91.694,72.155 91.766,72.109 91.91,72.074L92.782,71.864C92.845,71.847 92.897,71.838 92.937,71.838C93,71.838 93.055,71.888 93.101,71.986ZM95.484,71.541C96.008,72.234 96.356,72.816 96.529,73.287C96.557,73.357 96.572,73.409 96.572,73.444C96.572,73.508 96.517,73.564 96.408,73.61L95.588,73.968C95.472,74.026 95.401,74.055 95.372,74.055C95.331,74.055 95.291,74.012 95.251,73.924C94.946,73.203 94.609,72.58 94.241,72.056C94.212,72.01 94.198,71.966 94.198,71.925C94.198,71.856 94.261,71.797 94.388,71.751L95.095,71.471C95.182,71.437 95.248,71.419 95.294,71.419C95.363,71.419 95.426,71.46 95.484,71.541ZM97.237,61.066L99.576,61.031C99.668,61.031 99.723,61.043 99.74,61.066C99.758,61.089 99.766,61.145 99.766,61.232L99.732,62.157L99.732,62.943L99.766,64.75C99.766,64.843 99.755,64.898 99.732,64.916C99.709,64.933 99.654,64.942 99.568,64.942L98.16,64.942C98.063,64.942 98.005,64.93 97.988,64.907C97.97,64.884 97.962,64.831 97.962,64.75L97.962,62.62L86.505,62.62L86.505,64.75C86.505,64.843 86.491,64.898 86.462,64.916C86.439,64.933 86.381,64.942 86.289,64.942L84.899,64.942C84.801,64.942 84.744,64.93 84.727,64.907C84.709,64.884 84.701,64.831 84.701,64.75L84.735,62.943L84.735,62.28L84.701,61.232C84.701,61.133 84.712,61.075 84.735,61.057C84.758,61.04 84.813,61.031 84.899,61.031L87.23,61.066L91.176,61.066L91.176,60.883C91.176,60.4 91.127,59.96 91.029,59.565C91.616,59.565 92.252,59.594 92.937,59.652C93.116,59.669 93.205,59.728 93.205,59.827C93.205,59.862 93.164,59.975 93.084,60.167C93.026,60.347 92.998,60.595 92.998,60.909L92.998,61.066L97.237,61.066Z"/>
                <path id="button-chinese" d="M106,13.143C106,8.097 101.903,4 96.857,4L69.143,4C64.097,4 60,8.097 60,13.143L60,31.429C60,36.475 64.097,40.571 69.143,40.571L96.857,40.571C101.903,40.571 106,36.475 106,31.429L106,13.143ZM102.9,13.143L102.9,31.429C102.9,34.763 100.192,37.471 96.857,37.471L69.143,37.471C65.808,37.471 63.1,34.763 63.1,31.429C63.1,31.429 63.1,13.143 63.1,13.143C63.1,9.808 65.808,7.1 69.143,7.1C69.143,7.1 96.857,7.1 96.857,7.1C100.192,7.1 102.9,9.808 102.9,13.143ZM72.083,14.098C72.872,14.115 73.525,14.156 74.043,14.22C74.244,14.243 74.345,14.316 74.345,14.438C74.345,14.555 74.316,14.674 74.259,14.796C74.161,15.023 74.112,15.503 74.112,16.236L74.112,17.581L77.539,17.581L79.94,17.546C80.037,17.546 80.095,17.557 80.112,17.581C80.13,17.604 80.138,17.659 80.138,17.747L80.104,19.964L80.104,22.033L80.138,25.524C80.138,25.612 80.128,25.667 80.108,25.69C80.088,25.713 80.035,25.725 79.948,25.725L78.446,25.725C78.348,25.725 78.291,25.71 78.273,25.681C78.256,25.664 78.247,25.612 78.247,25.524L78.247,24.774L74.112,24.774L74.112,26.973L74.146,30.282C74.146,30.375 74.135,30.43 74.112,30.448C74.089,30.465 74.037,30.474 73.956,30.474L72.377,30.474C72.284,30.474 72.23,30.462 72.213,30.439C72.195,30.416 72.187,30.363 72.187,30.282L72.221,27.008L72.221,24.774L68.31,24.774L68.31,25.594C68.31,25.699 68.299,25.763 68.276,25.786C68.253,25.804 68.198,25.812 68.112,25.812L66.609,25.812C66.517,25.812 66.463,25.798 66.445,25.769C66.428,25.745 66.419,25.687 66.419,25.594L66.454,22.094L66.454,20.252L66.419,17.747C66.419,17.648 66.431,17.589 66.454,17.572C66.477,17.554 66.532,17.546 66.618,17.546L69.018,17.581L72.221,17.581L72.221,16.385C72.221,15.43 72.175,14.668 72.083,14.098ZM99.244,28.361C98.887,28.763 98.611,29.255 98.415,29.837C98.3,30.145 98.182,30.299 98.061,30.299C97.986,30.299 97.848,30.27 97.647,30.212C95.218,29.356 93.114,28.175 91.336,26.668C89.592,28.14 87.488,29.31 85.024,30.177C84.765,30.247 84.624,30.282 84.601,30.282C84.492,30.282 84.38,30.133 84.265,29.837C84.086,29.33 83.821,28.888 83.47,28.51C86.199,27.666 88.357,26.61 89.946,25.341C88.495,23.758 87.35,21.596 86.509,18.855L86.173,18.855L83.928,18.89C83.836,18.89 83.781,18.878 83.764,18.855C83.747,18.832 83.738,18.779 83.738,18.698L83.738,17.24C83.738,17.147 83.75,17.092 83.773,17.074C83.796,17.057 83.847,17.048 83.928,17.048L86.173,17.083L90.239,17.083L90.239,16.228C90.239,15.349 90.193,14.662 90.101,14.168C90.987,14.191 91.641,14.234 92.061,14.298C92.251,14.298 92.346,14.362 92.346,14.49C92.346,14.56 92.311,14.68 92.242,14.848C92.173,14.971 92.138,15.419 92.138,16.193L92.138,17.083L96.498,17.083L98.743,17.048C98.847,17.048 98.91,17.06 98.933,17.083C98.95,17.106 98.959,17.159 98.959,17.24L98.959,18.698C98.959,18.791 98.947,18.846 98.924,18.864C98.896,18.881 98.835,18.89 98.743,18.89L96.498,18.855L96.093,18.855C95.362,21.538 94.254,23.694 92.769,25.323C94.449,26.621 96.608,27.634 99.244,28.361ZM94.012,18.855L88.435,18.855C89.091,20.997 90.064,22.737 91.353,24.075C92.544,22.824 93.431,21.084 94.012,18.855ZM78.247,19.318L74.112,19.318L74.112,23.036L78.247,23.036L78.247,19.318ZM68.31,19.318L68.31,23.036L72.221,23.036L72.221,19.318L68.31,19.318Z"/>
            </g>
            <path id="border" d="M419,10.8C419,7.047 415.953,4 412.2,4L117.8,4C114.047,4 111,7.047 111,10.8L111,169.7C111,173.453 114.047,176.5 117.8,176.5L412.2,176.5C415.953,176.5 419,173.453 419,169.7L419,10.8ZM412.2,7L117.8,7C115.758,7 114,8.758 114,10.8C114,10.8 114,169.7 114,169.7C114,171.742 115.758,173.5 117.8,173.5L412.2,173.5C414.242,173.5 416,171.742 416,169.7L416,10.8C416,8.758 414.242,7 412.2,7Z"/>
            <g id="arrows" transform="matrix(1,0,0,1,40,0)">
                <path d="M265,10L275,10L270,18L265,10ZM270,160L265,168L275,168L270,160Z"/>
            </g>
            <g id="abc-board" transform="matrix(1,0,0,1,30.1073,-3.05658)">
                <g id="dot" transform="matrix(1,0,0,1,-296.107,3.05658)">
                    <circle cx="388" cy="163" r="4"/>
                </g>
                <g id="abc" transform="matrix(1,0,0,1,-30.1073,3.05658)">
                    <path d="M143.541,163.025C143.944,162.618 144.173,162.183 144.226,161.721C144.278,161.258 144.116,160.767 143.74,160.249C143.464,159.87 143.158,159.608 142.822,159.464C142.486,159.319 142.137,159.258 141.777,159.279C141.417,159.301 141.062,159.389 140.713,159.544C140.363,159.699 140.038,159.886 139.736,160.106C139.442,160.32 139.161,160.563 138.891,160.837C138.622,161.111 138.412,161.412 138.261,161.74C138.111,162.069 138.05,162.421 138.079,162.796C138.108,163.171 138.273,163.567 138.576,163.983C138.879,164.4 139.284,164.667 139.793,164.785C140.301,164.903 140.851,164.825 141.443,164.55L142.301,165.73C142.013,165.897 141.676,166.032 141.29,166.136C140.904,166.24 140.499,166.273 140.075,166.235C139.651,166.196 139.222,166.056 138.788,165.813C138.354,165.57 137.945,165.185 137.562,164.657C137.192,164.148 136.944,163.632 136.82,163.107C136.696,162.582 136.684,162.071 136.784,161.574C136.884,161.076 137.088,160.603 137.395,160.154C137.701,159.704 138.101,159.301 138.593,158.943C139.119,158.56 139.662,158.272 140.22,158.078C140.779,157.884 141.331,157.804 141.877,157.838C142.423,157.872 142.953,158.038 143.467,158.337C143.981,158.635 144.456,159.085 144.894,159.686C145.237,160.158 145.456,160.613 145.552,161.053C145.647,161.493 145.655,161.908 145.576,162.298C145.497,162.688 145.349,163.043 145.133,163.363C144.917,163.683 144.672,163.963 144.399,164.204L143.541,163.025ZM128.669,153.654L136.024,144.819L137.184,145.785L134.511,148.996L134.537,149.018C135.079,148.886 135.582,148.881 136.046,149.003C136.509,149.126 136.947,149.351 137.358,149.679C137.815,150.06 138.154,150.48 138.373,150.941C138.593,151.401 138.704,151.88 138.708,152.376C138.712,152.872 138.615,153.368 138.418,153.864C138.221,154.359 137.935,154.833 137.56,155.284C137.239,155.67 136.854,156.033 136.405,156.375C135.957,156.717 135.47,156.968 134.943,157.126C134.416,157.285 133.864,157.319 133.286,157.226C132.708,157.134 132.124,156.843 131.535,156.352C131.245,156.111 131.022,155.865 130.864,155.616C130.707,155.367 130.594,155.131 130.527,154.908C130.459,154.686 130.427,154.478 130.431,154.287C130.434,154.095 130.442,153.928 130.456,153.787L130.43,153.765L129.764,154.565L128.669,153.654ZM136.216,154.457C136.387,154.252 136.575,153.999 136.781,153.698C136.987,153.398 137.13,153.069 137.211,152.713C137.292,152.356 137.278,151.988 137.171,151.607C137.064,151.226 136.786,150.849 136.338,150.476C135.916,150.124 135.505,149.939 135.105,149.918C134.705,149.898 134.326,149.974 133.966,150.147C133.606,150.32 133.278,150.549 132.979,150.836C132.681,151.123 132.423,151.397 132.205,151.66C131.849,152.086 131.62,152.492 131.515,152.877C131.41,153.262 131.384,153.615 131.436,153.937C131.489,154.258 131.598,154.543 131.763,154.792C131.928,155.04 132.103,155.241 132.287,155.395C132.604,155.659 132.932,155.824 133.27,155.89C133.609,155.957 133.948,155.944 134.286,155.851C134.624,155.757 134.957,155.59 135.285,155.348C135.612,155.107 135.922,154.81 136.216,154.457ZM119.773,144.942C119.942,144.469 120.168,144.095 120.453,143.818C120.738,143.541 121.067,143.347 121.442,143.235C121.816,143.123 122.234,143.09 122.695,143.136C123.155,143.182 123.646,143.291 124.168,143.464C124.276,143.5 124.428,143.559 124.624,143.64C124.82,143.722 125.029,143.828 125.251,143.958C125.473,144.088 125.688,144.24 125.895,144.416C126.102,144.591 126.275,144.795 126.415,145.027C126.555,145.259 126.648,145.517 126.692,145.801C126.736,146.086 126.703,146.395 126.592,146.73L125.076,151.304C124.972,151.618 125.077,151.827 125.392,151.932C125.457,151.953 125.532,151.973 125.617,151.99C125.702,152.006 125.791,152.019 125.885,152.028L125.562,153C125.433,152.991 125.302,152.984 125.171,152.98C125.04,152.976 124.893,152.947 124.73,152.893C124.415,152.789 124.172,152.669 124,152.533C123.828,152.397 123.709,152.257 123.643,152.111C123.576,151.965 123.546,151.812 123.551,151.651C123.556,151.489 123.579,151.331 123.618,151.175C123.43,151.27 123.221,151.364 122.992,151.457C122.762,151.549 122.502,151.618 122.21,151.661C121.918,151.705 121.599,151.715 121.252,151.69C120.904,151.665 120.524,151.584 120.112,151.447C119.721,151.317 119.381,151.143 119.092,150.923C118.803,150.704 118.573,150.453 118.401,150.172C118.23,149.89 118.125,149.588 118.087,149.266C118.049,148.944 118.087,148.611 118.201,148.267C118.255,148.105 118.349,147.903 118.484,147.66C118.618,147.418 118.814,147.199 119.072,147.004C119.33,146.808 119.663,146.665 120.072,146.576C120.481,146.487 120.996,146.506 121.617,146.633L124.069,147.142C124.16,147.16 124.252,147.172 124.348,147.175C124.443,147.178 124.539,147.16 124.637,147.119C124.735,147.078 124.825,147.007 124.907,146.905C124.989,146.803 125.064,146.65 125.131,146.448C125.416,145.587 124.891,144.935 123.556,144.492C123.143,144.355 122.798,144.297 122.52,144.318C122.242,144.338 122.009,144.404 121.821,144.516C121.634,144.628 121.483,144.764 121.37,144.923C121.257,145.082 121.165,145.235 121.092,145.379L119.773,144.942ZM124.529,148.154C124.461,148.177 124.377,148.194 124.277,148.206C124.177,148.218 124.034,148.212 123.848,148.19C123.663,148.168 123.424,148.134 123.132,148.088C122.84,148.042 122.463,147.97 122.001,147.873C121.821,147.836 121.617,147.805 121.39,147.78C121.163,147.756 120.943,147.758 120.728,147.788C120.513,147.818 120.317,147.891 120.14,148.007C119.963,148.123 119.833,148.307 119.749,148.56C119.605,148.996 119.614,149.376 119.778,149.7C119.942,150.024 120.295,150.276 120.838,150.456C121.174,150.568 121.516,150.628 121.863,150.636C122.21,150.644 122.533,150.605 122.833,150.519C123.132,150.432 123.396,150.3 123.624,150.123C123.851,149.945 124.009,149.725 124.096,149.461L124.529,148.154Z" style="fill-rule:nonzero;"/>
                </g>
            </g>
            <g id="number-board" transform="matrix(6.12323e-17,-1,1,6.12323e-17,242.693,255.051)">
                <g id="_123" serif:id="123" transform="matrix(6.12323e-17,1,-1,6.12323e-17,255.051,-242.693)">
                    <path d="M395.222,162.312L394.731,163.848L387.122,161.414L386.264,164.094L385.197,163.753C385.316,163.275 385.405,162.859 385.462,162.505C385.519,162.151 385.517,161.832 385.457,161.548C385.396,161.265 385.261,161.002 385.053,160.762C384.844,160.521 384.54,160.27 384.141,160.011L384.502,158.883L395.222,162.312ZM391.623,154.792C391.147,154.413 390.783,154.031 390.53,153.646C390.277,153.261 390.109,152.882 390.025,152.508C389.941,152.133 389.921,151.774 389.965,151.428C390.008,151.082 390.091,150.76 390.213,150.462C390.334,150.164 390.474,149.891 390.63,149.643C390.787,149.395 390.934,149.186 391.069,149.016C391.397,148.605 391.764,148.269 392.171,148.008C392.577,147.747 393,147.572 393.439,147.483C393.879,147.395 394.322,147.404 394.768,147.512C395.215,147.619 395.643,147.836 396.052,148.162C396.444,148.475 396.734,148.813 396.923,149.176C397.111,149.538 397.227,149.923 397.271,150.331C397.314,150.739 397.302,151.169 397.236,151.62C397.169,152.072 397.084,152.542 396.981,153.03L396.7,154.409C396.611,154.864 396.565,155.259 396.564,155.595C396.562,155.93 396.59,156.216 396.648,156.452C396.705,156.688 396.775,156.883 396.857,157.036C396.94,157.19 397.019,157.304 397.095,157.38L401.183,152.256L402.222,153.085L397.075,159.536C396.63,159.153 396.275,158.763 396.01,158.369C395.744,157.974 395.55,157.567 395.428,157.147C395.305,156.727 395.243,156.301 395.24,155.867C395.238,155.434 395.274,154.99 395.348,154.538L395.668,152.751C395.734,152.394 395.788,152.061 395.831,151.751C395.873,151.441 395.882,151.148 395.857,150.871C395.831,150.595 395.754,150.336 395.626,150.095C395.498,149.853 395.288,149.616 394.996,149.383C394.82,149.243 394.614,149.13 394.376,149.043C394.139,148.956 393.884,148.924 393.612,148.949C393.34,148.973 393.059,149.064 392.77,149.221C392.481,149.378 392.197,149.631 391.919,149.98C391.562,150.427 391.367,150.842 391.334,151.226C391.302,151.609 391.352,151.957 391.486,152.268C391.619,152.58 391.797,152.849 392.018,153.077C392.239,153.305 392.421,153.483 392.564,153.612L391.623,154.792ZM404.419,144.81C404.537,144.765 404.658,144.715 404.784,144.66C404.91,144.605 405.03,144.55 405.143,144.495C405.4,144.37 405.642,144.22 405.869,144.045C406.095,143.87 406.272,143.671 406.4,143.449C406.528,143.227 406.599,142.982 406.615,142.713C406.631,142.445 406.562,142.152 406.409,141.835C406.334,141.681 406.224,141.527 406.079,141.372C405.934,141.217 405.747,141.094 405.519,141.003C405.291,140.912 405.018,140.875 404.702,140.892C404.386,140.909 404.028,141.014 403.626,141.209C403.142,141.443 402.802,141.706 402.607,141.997C402.411,142.288 402.299,142.582 402.272,142.88C402.245,143.178 402.268,143.463 402.343,143.735C402.418,144.007 402.492,144.232 402.566,144.41L401.238,145.054C401.056,144.679 400.92,144.274 400.829,143.837C400.738,143.401 400.744,142.959 400.845,142.513C400.946,142.066 401.176,141.629 401.534,141.2C401.892,140.772 402.426,140.385 403.136,140.041C403.661,139.786 404.165,139.625 404.647,139.558C405.129,139.49 405.568,139.505 405.965,139.603C406.363,139.701 406.717,139.876 407.03,140.128C407.343,140.38 407.592,140.697 407.779,141.082C407.937,141.408 408.031,141.713 408.06,141.995C408.088,142.278 408.074,142.537 408.017,142.772C407.959,143.008 407.874,143.218 407.76,143.404C407.647,143.589 407.527,143.736 407.402,143.844L407.416,143.873C408.02,143.782 408.58,143.836 409.097,144.037C409.614,144.237 410.037,144.678 410.368,145.36C410.568,145.773 410.689,146.213 410.731,146.679C410.772,147.145 410.71,147.605 410.542,148.06C410.375,148.515 410.089,148.953 409.683,149.375C409.277,149.797 408.73,150.175 408.04,150.51C407.639,150.704 407.251,150.842 406.877,150.923C406.503,151.003 406.149,151.041 405.816,151.036C405.448,151.037 405.111,150.978 404.806,150.859C404.5,150.74 404.227,150.582 403.985,150.385C403.743,150.188 403.521,149.96 403.32,149.702C403.119,149.444 402.938,149.176 402.777,148.898L404.182,148.217C404.309,148.452 404.461,148.686 404.638,148.921C404.815,149.155 405.04,149.343 405.312,149.484C405.584,149.625 405.904,149.695 406.272,149.694C406.64,149.694 407.077,149.571 407.581,149.327C407.931,149.157 408.227,148.954 408.468,148.719C408.71,148.483 408.892,148.229 409.014,147.956C409.136,147.683 409.198,147.398 409.2,147.101C409.202,146.803 409.133,146.51 408.993,146.222C408.788,145.8 408.538,145.506 408.242,145.341C407.946,145.176 407.636,145.095 407.313,145.097C406.99,145.1 406.674,145.155 406.364,145.264C406.055,145.372 405.787,145.482 405.56,145.591L404.95,145.905L404.419,144.81Z" style="fill-rule:nonzero;"/>
                </g>
                <g id="dot1" serif:id="dot" transform="matrix(6.12323e-17,1,-1,6.12323e-17,255.051,-222.693)">
                    <circle cx="388" cy="163" r="4"/>
                </g>
            </g>
        </g>
        <g id="brightness" transform="matrix(4.05405,0,0,4.05405,-445.047,-527.259)">
            <path d="M138.885,134.374C138.885,133.352 139.714,132.524 140.736,132.524C141.758,132.524 142.585,133.352 142.585,134.374C142.585,135.395 141.758,136.223 140.736,136.223C139.714,136.223 138.885,135.395 138.885,134.374ZM139.228,134.374C139.228,135.207 139.903,135.882 140.736,135.881L140.736,132.866C139.903,132.866 139.228,133.541 139.228,134.374" style="fill-rule:nonzero;"/>
        </g>
        <g id="icons">
            <g id="home" transform="matrix(2.23785,0,0,2.23785,-405.507,-1400.35)">
                <path d="M205.852,643.675L196.662,635.732C196.254,635.38 195.649,635.38 195.241,635.732L186.049,643.675C185.705,643.972 185.583,644.451 185.741,644.876C185.899,645.302 186.306,645.584 186.759,645.584L188.726,645.584L188.726,654.864C188.726,655.142 188.976,655.366 189.284,655.366L193.047,655.366L193.047,655.362L198.854,655.362L198.854,655.366L202.617,655.366C202.924,655.366 203.175,655.142 203.175,654.864L203.175,645.584L205.141,645.584C205.596,645.584 206.002,645.302 206.16,644.876C206.318,644.451 206.196,643.973 205.852,643.675ZM193.047,654.543L193.047,649.72L193.057,649.72C193.057,648.719 194.653,647.937 195.951,647.937C197.248,647.937 198.843,648.719 198.843,649.72L198.854,649.72L198.854,654.543L193.047,654.543Z"/>
            </g>
            <g id="menu" transform="matrix(1.8282,0,0,1.8282,-444.347,-301.955)">
                <path d="M273.683,227.105C273.683,225.315 272.432,223.863 270.888,223.863L251.317,223.863C249.773,223.863 248.521,225.315 248.521,227.105C248.521,228.636 249.389,229.912 250.618,230.252C250.614,230.315 250.618,245.397 250.618,245.397C250.618,247.179 252.424,248.684 254.812,248.684L267.812,248.684C270.198,248.684 272.005,247.179 272.005,245.397C272.005,245.397 272.019,230.224 272.005,230.116C273.041,229.643 273.683,228.476 273.683,227.105ZM270.747,245.397C270.747,246.437 269.437,247.427 267.812,247.427L254.812,247.427C253.185,247.427 251.876,246.437 251.876,245.397C251.876,245.397 251.874,230.264 251.876,230.233L270.747,230.233C270.75,230.264 270.747,245.397 270.747,245.397ZM255.512,242.394C255.165,242.394 254.884,242.675 254.884,243.023C254.884,243.37 255.165,243.653 255.512,243.653L266.128,243.653C266.475,243.653 266.756,243.37 266.756,243.023C266.756,242.675 266.475,242.394 266.128,242.394L255.512,242.394ZM255.512,238.201C255.165,238.201 254.884,238.483 254.884,238.83C254.884,239.178 255.165,239.459 255.512,239.459L266.128,239.459C266.475,239.459 266.756,239.178 266.756,238.83C266.756,238.483 266.475,238.201 266.128,238.201L255.512,238.201ZM255.512,234.007C255.165,234.007 254.884,234.29 254.884,234.636C254.884,234.984 255.165,235.265 255.512,235.265L266.128,235.265C266.475,235.265 266.756,234.984 266.756,234.636C266.756,234.29 266.475,234.007 266.128,234.007L255.512,234.007ZM263.992,225.265C264.088,225.059 264.296,224.927 264.525,224.927L269.919,224.927C270.147,224.927 270.355,225.059 270.452,225.265C270.549,225.472 270.519,225.716 270.373,225.892L267.676,229.155C267.565,229.289 267.397,229.369 267.221,229.369C267.047,229.369 266.88,229.289 266.768,229.155L264.071,225.892C263.924,225.716 263.893,225.472 263.992,225.265Z"/>
            </g>
            <path id="search" d="M466.204,110.659L452.193,110.659C449.329,108.375 445.709,107 441.769,107C432.523,107 425.001,114.522 425.001,123.769C425.001,128.793 427.235,133.297 430.747,136.371L430.747,149.192C430.747,151.292 432.448,153 434.538,153L466.204,153C468.299,153 470,151.292 470,149.192L470,114.466C470,112.365 468.299,110.659 466.204,110.659ZM434.538,150.808C433.656,150.808 432.942,150.082 432.942,149.192L432.942,137.996C435.509,139.594 438.527,140.535 441.769,140.535C445.014,140.535 448.035,139.592 450.604,137.991C450.604,137.991 463.411,150.789 463.432,150.808L434.538,150.808ZM467.808,144.517L455.954,132.664C457.579,130.083 458.533,127.036 458.533,123.769C458.533,119.598 456.995,115.788 454.47,112.851L466.204,112.851C467.088,112.851 467.808,113.577 467.808,114.466L467.808,144.517ZM447.296,137.116C445.592,137.827 443.726,138.224 441.769,138.224C438.588,138.224 435.654,137.182 433.264,135.436C429.617,132.792 427.242,128.497 427.242,123.651C427.242,115.623 433.76,109.105 441.788,109.105C449.816,109.105 456.334,115.623 456.334,123.651C456.334,129.73 452.597,134.943 447.296,137.116ZM441.788,111.974C435.348,111.974 430.112,117.212 430.112,123.652C430.112,130.092 435.348,135.328 441.788,135.328C448.228,135.328 453.464,130.092 453.464,123.652C453.464,117.212 448.228,111.974 441.788,111.974ZM436.335,115.782L436.334,115.783C434.028,117.869 432.707,120.847 432.707,123.957C432.707,126.401 433.485,128.71 434.959,130.639C434.959,130.639 434.959,130.639 434.959,130.639C435.633,131.521 436.889,131.688 437.772,131.019C437.774,131.017 437.777,131.015 437.779,131.013C438.656,130.338 438.822,129.082 438.151,128.203L438.151,128.202C437.216,126.978 436.721,125.513 436.721,123.957C436.721,121.982 437.564,120.087 439.031,118.758L439.03,118.758C439.852,118.016 439.916,116.748 439.172,115.925L439.123,115.873C438.376,115.099 437.142,115.053 436.335,115.782Z"/>
            <g id="email" transform="matrix(2.41736,0,0,2.41736,-354.473,-1515.8)">
                <path d="M337.06,640.011L334.437,640.011L334.188,641.081C333.633,640.206 332.772,639.767 331.608,639.767C329.97,639.767 328.629,640.521 327.583,642.029C326.718,643.264 326.288,644.631 326.288,646.133C326.288,647.347 326.644,648.317 327.36,649.043C328.077,649.772 328.979,650.135 330.065,650.135C331.071,650.135 331.962,649.776 332.734,649.055C332.987,650.028 333.877,650.135 334.528,650.135C336.564,650.135 338.231,649.312 339.532,647.662C340.502,646.44 341.063,644.795 341.063,642.873L341.063,637.022C341.063,636.312 340.458,635.736 339.714,635.736L323.867,635.736C323.122,635.736 322.519,636.312 322.519,637.022L322.519,653.48C322.519,654.189 323.122,654.765 323.867,654.765L339.714,654.765C340.458,654.765 341.063,654.189 341.063,653.48L341.063,649.951L339.506,649.951C338.813,650.805 336.573,652.514 332.698,652.514C327.692,652.514 324.328,650.504 324.328,645.695C324.328,638.294 330.841,637.694 332.63,637.694C334.735,637.694 336.374,638.218 337.547,639.266C338.722,640.316 339.31,641.619 339.31,643.178C339.31,644.044 339.1,644.883 338.682,645.696C338.265,646.509 337.717,647.154 337.042,647.634C336.537,648.001 335.909,648.442 335.535,648.068C335.304,647.837 335.466,647.303 335.56,646.867L337.06,640.011ZM330.597,648.396C328.01,648.396 328.97,644.736 329.21,643.95C329.45,643.165 330.388,641.505 331.836,641.505C333.56,641.505 333.642,643.022 333.642,643.739C333.642,644.383 333.184,648.396 330.597,648.396Z"/>
            </g>
        </g>
    </g>
</svg>
