<?xml version="1.0" encoding="UTF-8" standalone="no"?>
<!DOCTYPE svg PUBLIC "-//W3C//DTD SVG 1.1//EN" "http://www.w3.org/Graphics/SVG/1.1/DTD/svg11.dtd">
<svg width="160px" height="30px" viewBox="0 0 480 90"  version="1.1" xmlns="http://www.w3.org/2000/svg" xmlns:xlink="http://www.w3.org/1999/xlink" xml:space="preserve" xmlns:serif="http://www.serif.com/" style="fill-rule:evenodd;clip-rule:evenodd;stroke-linejoin:round;stroke-miterlimit:2;">
    <g id="hbuttons-i705" transform="matrix(1,0,0,1,180,0)">
        <g id="bg" transform="matrix(6.46904,0,0,1.25479,-5849.39,-392.78)">
            <g id="bg1" serif:id="bg" transform="matrix(0.216958,0,0,0.391939,534.896,-87.5386)">
                <rect x="1574" y="1022" width="342" height="183" style="fill:url(#_Linear1);"/>
            </g>
            <g id="bg-upper-highlight" transform="matrix(2.47332,0,0,0.0885492,841.762,257.503)">
                <rect x="14" y="627" width="30" height="18" style="fill:rgb(240,240,240);"/>
            </g>
        </g>
        <g id="hbutton-email-i705" transform="matrix(1.11111,0,0,1.11111,205,-5)">
            <g id="hbutton-i705" transform="matrix(0.9,0,0,0.9,-76.5,4.5)">
                <g id="recess" transform="matrix(1.09434,0,0,1.09434,-13.283,-3.69811)">
                    <circle cx="135.5" cy="44.5" r="26.5" style="fill:url(#_Linear2);"/>
                </g>
                <g id="button" transform="matrix(0.867925,0,0,0.867925,17.3962,6.37736)">
                    <circle cx="135.5" cy="44.5" r="26.5" style="fill:url(#_Linear3);"/>
                    <path d="M135.5,15.849C119.687,15.849 106.849,28.687 106.849,44.5C106.849,60.313 119.687,73.151 135.5,73.151C151.313,73.151 164.151,60.313 164.151,44.5C164.151,28.687 151.313,15.849 135.5,15.849ZM135.5,18C150.126,18 162,29.874 162,44.5C162,59.126 150.126,71 135.5,71C120.874,71 109,59.126 109,44.5C109,29.874 120.874,18 135.5,18Z" style="fill:rgb(15,18,18);"/>
                </g>
                <g id="button-shadow" transform="matrix(0.867925,0,0,0.867925,17.3962,6.37736)">
                    <circle cx="135.5" cy="44.5" r="26.5" style="fill:url(#_Radial4);"/>
                    <path d="M135.5,18C150.126,18 162,29.874 162,44.5C162,59.126 150.126,71 135.5,71C120.874,71 109,59.126 109,44.5C109,29.874 120.874,18 135.5,18ZM135.5,19.229C149.447,19.229 160.771,30.553 160.771,44.5C160.771,58.447 149.447,69.771 135.5,69.771C121.553,69.771 110.229,58.447 110.229,44.5C110.229,30.553 121.553,19.229 135.5,19.229Z" style="fill:url(#_Linear5);"/>
                </g>
            </g>
            <g id="icon-email" transform="matrix(0.732508,-0.422914,0.422914,0.732508,-294.787,192.342)">
                <path d="M423.38,40L420,40L420,60L450,60L450,40L424.363,40C424.264,37.2 425.064,35.576 427.085,35.288C429.385,34.96 432.889,36.25 437.762,38.988C438.59,39.389 439.587,39.042 439.988,38.214C440.389,37.386 440.042,36.389 439.214,35.988C433.381,33.59 429.244,32.795 426.713,33.478C424.088,34.186 422.842,36.307 423.38,40ZM448,42L422,42L422,58L448,58L448,42ZM440,51.5L430,51.5L430,53L440,53L440,51.5ZM440,48L430,48L430,49.5L440,49.5L440,48ZM429,44L424,44L424,45.5L429,45.5L429,44Z" style="fill:rgb(227,235,235);"/>
            </g>
        </g>
        <g id="hbutton-web-i705" transform="matrix(1.11111,0,0,1.11111,115,-5)">
            <g id="hbutton-i7051" serif:id="hbutton-i705" transform="matrix(0.9,0,0,0.9,-76.5,4.5)">
                <g id="recess1" serif:id="recess" transform="matrix(1.09434,0,0,1.09434,-13.283,-3.69811)">
                    <circle cx="135.5" cy="44.5" r="26.5" style="fill:url(#_Linear6);"/>
                </g>
                <g id="button1" serif:id="button" transform="matrix(0.867925,0,0,0.867925,17.3962,6.37736)">
                    <circle cx="135.5" cy="44.5" r="26.5" style="fill:url(#_Linear7);"/>
                    <path d="M135.5,15.849C119.687,15.849 106.849,28.687 106.849,44.5C106.849,60.313 119.687,73.151 135.5,73.151C151.313,73.151 164.151,60.313 164.151,44.5C164.151,28.687 151.313,15.849 135.5,15.849ZM135.5,18C150.126,18 162,29.874 162,44.5C162,59.126 150.126,71 135.5,71C120.874,71 109,59.126 109,44.5C109,29.874 120.874,18 135.5,18Z" style="fill:rgb(15,18,18);"/>
                </g>
                <g id="button-shadow1" serif:id="button-shadow" transform="matrix(0.867925,0,0,0.867925,17.3962,6.37736)">
                    <circle cx="135.5" cy="44.5" r="26.5" style="fill:url(#_Radial8);"/>
                    <path d="M135.5,18C150.126,18 162,29.874 162,44.5C162,59.126 150.126,71 135.5,71C120.874,71 109,59.126 109,44.5C109,29.874 120.874,18 135.5,18ZM135.5,19.229C149.447,19.229 160.771,30.553 160.771,44.5C160.771,58.447 149.447,69.771 135.5,69.771C121.553,69.771 110.229,58.447 110.229,44.5C110.229,30.553 121.553,19.229 135.5,19.229Z" style="fill:url(#_Linear9);"/>
                </g>
            </g>
            <g id="icon-web-i705" transform="matrix(0.627418,0,0,0.627418,-992.05,-1208.1)">
                <path d="M1633.51,1995.19C1634.35,1987.79 1639.63,1981.28 1647.29,1979.23C1654.25,1977.36 1661.36,1979.67 1665.92,1984.61C1666.64,1985.34 1666.64,1985.69 1666.64,1985.95C1666.64,1986.83 1665.93,1987.54 1665.05,1987.54C1664.53,1987.54 1664.21,1987.34 1663.78,1986.91C1663.37,1986.45 1662.94,1986.02 1662.48,1985.62C1660.72,1986.9 1658.96,1988.02 1657.18,1988.97C1658.09,1990.66 1658.84,1992.47 1659.4,1994.34C1661.08,1993.65 1662.81,1992.89 1664.59,1992.06C1664.66,1990.11 1666.29,1988.54 1668.29,1988.54C1670.34,1988.54 1672,1990.17 1672,1992.19C1672,1994.2 1670.34,1995.83 1668.29,1995.83C1667.69,1995.83 1667.12,1995.69 1666.61,1995.44C1664.42,1996.42 1662.31,1997.3 1660.26,1998.09C1660.6,2000.2 1660.71,2002.33 1660.57,2004.42C1662.87,2003.29 1665.12,2001.9 1667.4,2000.26C1667.49,1999.82 1667.62,1998.93 1667.62,1998.93C1667.72,1998.15 1668.39,1997.55 1669.19,1997.55C1669.86,1997.55 1670.43,1997.96 1670.67,1998.54C1670.81,1998.87 1670.69,1999.48 1670.65,1999.78C1669.63,2006.98 1664.42,2013.23 1656.93,2015.24C1647.63,2017.73 1638.08,2012.78 1634.67,2004.04C1633.18,2004.09 1631.87,2004.05 1630.75,2003.93C1628.44,2003.7 1626.89,2003.11 1626.18,2002.41C1625.67,2001.91 1625.4,2001.36 1625.42,2000.75C1625.43,2000.17 1625.65,1999.48 1626.33,1998.79C1627.38,1997.73 1629.68,1996.46 1633.51,1995.19ZM1650.72,2010.73C1648.85,2010.98 1646.94,2011.09 1644.95,2011.04C1647.34,2012.26 1650.04,2012.87 1652.82,2012.74C1652.08,2012.12 1651.38,2011.45 1650.72,2010.73ZM1656.44,2009.46C1655.78,2009.66 1655.12,2009.85 1654.44,2010.02C1654.88,2010.4 1655.33,2010.76 1655.8,2011.1C1656.04,2010.56 1656.26,2010.02 1656.44,2009.46ZM1665.37,2005.35C1663.61,2006.42 1661.84,2007.34 1660.05,2008.12C1659.83,2009.12 1659.55,2010.09 1659.19,2011.04C1661.79,2009.72 1663.9,2007.73 1665.37,2005.35ZM1645.64,2002.56C1643.86,2002.95 1642.15,2003.26 1640.52,2003.5C1639.64,2003.63 1638.79,2003.74 1637.97,2003.82C1638.61,2005.19 1639.43,2006.43 1640.41,2007.52C1643.22,2007.92 1645.88,2008.01 1648.41,2007.82C1647.31,2006.19 1646.38,2004.42 1645.64,2002.56ZM1657.27,1999.2C1654.25,2000.27 1651.4,2001.14 1648.71,2001.83C1649.55,2003.83 1650.63,2005.7 1651.93,2007.35C1653.76,2007.01 1655.55,2006.5 1657.3,2005.84C1657.6,2003.68 1657.58,2001.43 1657.27,1999.2ZM1633.39,1996.8C1631.17,1997.85 1629.61,1998.8 1628.63,1999.62C1628.31,1999.9 1628.07,2000.16 1627.89,2000.4C1627.82,2000.51 1627.75,2000.71 1627.75,2000.71C1627.75,2000.71 1627.8,2000.6 1627.8,2000.6C1627.8,2000.6 1629.4,2001.12 1630.93,2001.16C1631.77,2001.18 1632.73,2001.15 1633.78,2001.07C1633.48,1999.64 1633.36,1998.21 1633.39,1996.8ZM1644.53,1999.22C1643.96,1997.1 1643.63,1994.92 1643.55,1992.75C1641.55,1992.83 1639.47,1992.72 1637.3,1992.42C1636.44,1995.02 1636.25,1997.87 1636.9,2000.71C1637.87,2000.57 1638.89,2000.4 1639.97,2000.2C1641.43,1999.92 1642.94,1999.6 1644.53,1999.22ZM1656.48,1995.49C1655.96,1993.69 1655.25,1991.94 1654.36,1990.32C1651.88,1991.37 1649.33,1992.1 1646.66,1992.47C1646.72,1994.46 1647.03,1996.47 1647.55,1998.42L1647.55,1998.43C1650.34,1997.66 1653.32,1996.69 1656.48,1995.49ZM1675.4,1996.2L1678.45,1996.88C1679.29,1997.07 1680.13,1996.54 1680.32,1995.7C1680.51,1994.86 1679.98,1994.02 1679.13,1993.83L1676.09,1993.15C1675.25,1992.96 1674.41,1993.49 1674.22,1994.33C1674.03,1995.17 1674.56,1996.01 1675.4,1996.2ZM1675.62,1991.02L1679.41,1989.39C1680.2,1989.05 1680.57,1988.13 1680.23,1987.34C1679.89,1986.55 1678.97,1986.18 1678.18,1986.52L1674.38,1988.15C1673.59,1988.49 1673.22,1989.41 1673.56,1990.2C1673.9,1990.99 1674.82,1991.36 1675.62,1991.02ZM1644.93,1983.48C1642.27,1984.86 1640.12,1986.95 1638.65,1989.44C1640.37,1989.63 1642.02,1989.68 1643.62,1989.61C1643.79,1987.49 1644.22,1985.42 1644.93,1983.48ZM1648.36,1983.32C1647.52,1985.17 1647,1987.19 1646.78,1989.27C1648.8,1988.94 1650.75,1988.39 1652.65,1987.62C1651.43,1985.96 1649.99,1984.49 1648.36,1983.32ZM1673.3,1985.87L1675.11,1983.16C1675.58,1982.44 1675.39,1981.47 1674.67,1980.99C1673.95,1980.51 1672.98,1980.71 1672.51,1981.42L1670.7,1984.13C1670.22,1984.85 1670.42,1985.82 1671.13,1986.3C1671.85,1986.78 1672.82,1986.58 1673.3,1985.87ZM1659.78,1983.7C1657.27,1982.3 1654.38,1981.58 1651.39,1981.73C1652.95,1983.04 1654.34,1984.58 1655.54,1986.29C1656.96,1985.55 1658.37,1984.68 1659.78,1983.7Z" style="fill:rgb(227,235,235);"/>
            </g>
        </g>
        <g id="hbutton-address-book-i705" transform="matrix(1.11111,0,0,1.11111,-95,-5)">
            <g id="hbutton-i7052" serif:id="hbutton-i705" transform="matrix(0.9,0,0,0.9,-76.5,4.5)">
                <g id="recess2" serif:id="recess" transform="matrix(1.09434,0,0,1.09434,-13.283,-3.69811)">
                    <circle cx="135.5" cy="44.5" r="26.5" style="fill:url(#_Linear10);"/>
                </g>
                <g id="button2" serif:id="button" transform="matrix(0.867925,0,0,0.867925,17.3962,6.37736)">
                    <circle cx="135.5" cy="44.5" r="26.5" style="fill:url(#_Linear11);"/>
                    <path d="M135.5,15.849C119.687,15.849 106.849,28.687 106.849,44.5C106.849,60.313 119.687,73.151 135.5,73.151C151.313,73.151 164.151,60.313 164.151,44.5C164.151,28.687 151.313,15.849 135.5,15.849ZM135.5,18C150.126,18 162,29.874 162,44.5C162,59.126 150.126,71 135.5,71C120.874,71 109,59.126 109,44.5C109,29.874 120.874,18 135.5,18Z" style="fill:rgb(15,18,18);"/>
                </g>
                <g id="button-shadow2" serif:id="button-shadow" transform="matrix(0.867925,0,0,0.867925,17.3962,6.37736)">
                    <circle cx="135.5" cy="44.5" r="26.5" style="fill:url(#_Radial12);"/>
                    <path d="M135.5,18C150.126,18 162,29.874 162,44.5C162,59.126 150.126,71 135.5,71C120.874,71 109,59.126 109,44.5C109,29.874 120.874,18 135.5,18ZM135.5,19.229C149.447,19.229 160.771,30.553 160.771,44.5C160.771,58.447 149.447,69.771 135.5,69.771C121.553,69.771 110.229,58.447 110.229,44.5C110.229,30.553 121.553,19.229 135.5,19.229Z" style="fill:url(#_Linear13);"/>
                </g>
            </g>
            <g id="icon-address-book" transform="matrix(3.25823,0,0,3.20483,-4373.27,-2683.3)">
                <path d="M1357.42,854.747C1356.96,854.71 1356.38,854.546 1355.75,854.067C1355.2,853.641 1353.44,850.575 1353.33,849.901C1353.11,848.594 1353.61,847.769 1353.85,847.463C1354.47,848.179 1354.93,848.96 1355.26,849.797C1355.05,849.846 1354.75,849.895 1354.47,849.859C1354.8,849.939 1356.43,852.629 1356.35,852.963C1356.45,852.684 1356.63,852.437 1356.78,852.262C1357.32,853.01 1357.76,853.878 1358.16,854.697L1358.14,854.7C1358.09,854.712 1358.03,854.724 1357.96,854.734C1358.03,854.824 1358.1,854.891 1358.17,854.944C1358.27,855.015 1358.4,855.042 1358.58,855.057C1358.71,855.067 1358.81,855.18 1358.8,855.308C1358.79,855.437 1358.67,855.532 1358.55,855.522C1358.26,855.499 1358.06,855.438 1357.9,855.326C1357.73,855.206 1357.57,855.036 1357.42,854.747ZM1357.12,851.945C1357.28,851.89 1357.48,851.905 1357.65,851.995C1357.97,852.157 1358.73,853.517 1358.76,853.982C1358.82,854.237 1358.74,854.404 1358.59,854.517C1358.17,853.649 1357.7,852.735 1357.12,851.945ZM1354.2,847.159C1354.38,847.072 1354.57,847.067 1354.78,847.214C1355.13,847.47 1355.89,848.768 1355.91,849.124C1355.92,849.329 1355.83,849.523 1355.7,849.636C1355.35,848.748 1354.86,847.918 1354.2,847.159Z" style="fill:rgb(227,235,235);fill-rule:nonzero;"/>
            </g>
        </g>
        <g id="hbutton-calendar-i705" transform="matrix(1.11111,0,0,1.11111,-185,-5)">
            <g id="hbutton-i7053" serif:id="hbutton-i705" transform="matrix(0.9,0,0,0.9,-76.5,4.5)">
                <g id="recess3" serif:id="recess" transform="matrix(1.09434,0,0,1.09434,-13.283,-3.69811)">
                    <circle cx="135.5" cy="44.5" r="26.5" style="fill:url(#_Linear14);"/>
                </g>
                <g id="button3" serif:id="button" transform="matrix(0.867925,0,0,0.867925,17.3962,6.37736)">
                    <circle cx="135.5" cy="44.5" r="26.5" style="fill:url(#_Linear15);"/>
                    <path d="M135.5,15.849C119.687,15.849 106.849,28.687 106.849,44.5C106.849,60.313 119.687,73.151 135.5,73.151C151.313,73.151 164.151,60.313 164.151,44.5C164.151,28.687 151.313,15.849 135.5,15.849ZM135.5,18C150.126,18 162,29.874 162,44.5C162,59.126 150.126,71 135.5,71C120.874,71 109,59.126 109,44.5C109,29.874 120.874,18 135.5,18Z" style="fill:rgb(15,18,18);"/>
                </g>
                <g id="button-shadow3" serif:id="button-shadow" transform="matrix(0.867925,0,0,0.867925,17.3962,6.37736)">
                    <circle cx="135.5" cy="44.5" r="26.5" style="fill:url(#_Radial16);"/>
                    <path d="M135.5,18C150.126,18 162,29.874 162,44.5C162,59.126 150.126,71 135.5,71C120.874,71 109,59.126 109,44.5C109,29.874 120.874,18 135.5,18ZM135.5,19.229C149.447,19.229 160.771,30.553 160.771,44.5C160.771,58.447 149.447,69.771 135.5,69.771C121.553,69.771 110.229,58.447 110.229,44.5C110.229,30.553 121.553,19.229 135.5,19.229Z" style="fill:url(#_Linear17);"/>
                </g>
            </g>
            <g id="icon-calendar" transform="matrix(0.982439,0,0,0.982439,0.790238,1.65088)">
                <path d="M42.162,44.923C45.733,44.923 48.633,47.823 48.633,51.394C48.633,54.966 45.733,57.865 42.162,57.865C38.59,57.865 35.691,54.966 35.691,51.394C35.691,47.823 38.59,44.923 42.162,44.923ZM40.977,50.057L40.842,47.49C40.807,46.818 41.343,46.246 42.039,46.214C42.734,46.182 43.327,46.7 43.362,47.372L43.562,51.201C43.579,51.531 43.457,51.854 43.223,52.094C42.989,52.335 42.663,52.474 42.321,52.478L39.134,52.515C38.438,52.523 37.865,51.984 37.854,51.312C37.844,50.64 38.401,50.087 39.097,50.079L40.977,50.057ZM49.29,46.876L51.433,45.668L53.017,48.384L50.5,49.796C50.608,50.316 50.152,48.168 49.29,46.876ZM57.525,45.814L55.945,43.103L53.183,44.648L54.763,47.368L57.525,45.814ZM38.543,43.885C37.561,44.334 36.681,44.961 35.948,45.724L34.597,43.405L37.355,41.851L38.543,43.885ZM47.364,44.838L46.144,42.744L48.902,41.19L50.486,43.909L47.954,45.326C47.765,45.155 47.568,44.992 47.364,44.838ZM40.514,43.257L39.105,40.835L41.863,39.285L43.447,41.996L41.427,43.133C41.118,43.158 40.813,43.2 40.514,43.257ZM54.994,41.339L53.414,38.624L50.652,40.174L52.236,42.89L54.994,41.339ZM49.035,30.383L50.473,32.852L33.913,42.168L32.475,39.699L49.035,30.383ZM47.955,39.431L46.375,36.715L43.613,38.265L45.193,40.981L47.955,39.431ZM52.467,36.861L50.883,34.145L48.121,35.699L49.705,38.411L52.467,36.861Z" style="fill:rgb(227,235,235);"/>
            </g>
        </g>
        <g id="button-rocker-i705" transform="matrix(1,0,0,1,-180,0)">
            <path id="rocker-recess" d="M258,30.429C258,19.743 249.934,11 240,11C230.066,11 222,20.229 222,30.429L222,59.571C222,70.257 230.066,79 240,79C249.934,79 258,70.294 258,59.571L258,30.429ZM255,31.714C255,21.971 248.279,14 240,14C231.721,14 225,22.414 225,31.714L225,58.286C225,68.029 231.721,76 240,76C248.279,76 255,68.062 255,58.286L255,31.714Z" style="fill:url(#_Linear18);"/>
            <g id="rocker-bottom" transform="matrix(1.2,0,0,1.2,-48,25.2)">
                <g id="hole" transform="matrix(1.07843,0,0,1.07843,-20.4412,-3.05882)">
                    <circle cx="241.5" cy="30.5" r="9.736" style="fill:rgb(15,18,18);"/>
                </g>
                <g id="button4" serif:id="button" transform="matrix(1.07843,0,0,1.07843,-20.4412,-3.05882)">
                    <circle cx="241.5" cy="30.5" r="8.5" style="fill:url(#_Linear19);"/>
                </g>
                <g id="inner-outline" transform="matrix(0.588235,0,0,0.588235,97.9412,11.8922)">
                    <circle cx="241.5" cy="30.5" r="8.5" style="fill:url(#_Linear20);"/>
                </g>
                <g id="inner" transform="matrix(0.490196,0,0,0.490196,121.618,14.8824)">
                    <circle cx="241.5" cy="30.5" r="8.5" style="fill:url(#_Linear21);"/>
                </g>
            </g>
            <g id="rocker-top" transform="matrix(1.2,0,0,1.2,-48,-6.8)">
                <g id="hole1" serif:id="hole" transform="matrix(1.07843,0,0,1.07843,-20.4412,-3.05882)">
                    <circle cx="241.5" cy="30.5" r="9.736" style="fill:rgb(15,18,18);"/>
                </g>
                <g id="button5" serif:id="button" transform="matrix(1.07843,0,0,1.07843,-20.4412,-3.05882)">
                    <circle cx="241.5" cy="30.5" r="8.5" style="fill:url(#_Linear22);"/>
                </g>
                <g id="inner-outline1" serif:id="inner-outline" transform="matrix(0.588235,0,0,0.588235,97.9412,11.8922)">
                    <circle cx="241.5" cy="30.5" r="8.5" style="fill:url(#_Linear23);"/>
                </g>
                <g id="inner1" serif:id="inner" transform="matrix(0.490196,0,0,0.490196,121.618,14.8824)">
                    <circle cx="241.5" cy="30.5" r="8.5" style="fill:url(#_Linear24);"/>
                </g>
            </g>
        </g>
    </g>
    <defs>
        <linearGradient id="_Linear1" x1="0" y1="0" x2="1" y2="0" gradientUnits="userSpaceOnUse" gradientTransform="matrix(6.53876e-15,183,-106.786,1.12055e-14,1745.56,1022)"><stop offset="0" style="stop-color:rgb(194,190,187);stop-opacity:1"/><stop offset="1" style="stop-color:rgb(93,99,104);stop-opacity:1"/></linearGradient>
        <linearGradient id="_Linear2" x1="0" y1="0" x2="1" y2="0" gradientUnits="userSpaceOnUse" gradientTransform="matrix(3.24531e-15,53,-53,3.24531e-15,135.5,18)"><stop offset="0" style="stop-color:rgb(73,73,77);stop-opacity:1"/><stop offset="0.42" style="stop-color:rgb(117,118,121);stop-opacity:1"/><stop offset="1" style="stop-color:rgb(212,213,216);stop-opacity:1"/></linearGradient>
        <linearGradient id="_Linear3" x1="0" y1="0" x2="1" y2="0" gradientUnits="userSpaceOnUse" gradientTransform="matrix(3.03366e-15,49.5435,-49.5435,3.03366e-15,135.5,18)"><stop offset="0" style="stop-color:rgb(92,78,75);stop-opacity:1"/><stop offset="0.43" style="stop-color:rgb(143,133,131);stop-opacity:1"/><stop offset="1" style="stop-color:white;stop-opacity:1"/></linearGradient>
        <radialGradient id="_Radial4" cx="0" cy="0" r="1" gradientUnits="userSpaceOnUse" gradientTransform="matrix(26.5,0,0,26.5,135.5,44.5)"><stop offset="0" style="stop-color:black;stop-opacity:0"/><stop offset="0.61" style="stop-color:black;stop-opacity:0.09"/><stop offset="0.82" style="stop-color:black;stop-opacity:0.29"/><stop offset="1" style="stop-color:black;stop-opacity:0.5"/></radialGradient>
        <linearGradient id="_Linear5" x1="0" y1="0" x2="1" y2="0" gradientUnits="userSpaceOnUse" gradientTransform="matrix(1.50137e-14,53,-53,1.50137e-14,135.5,18)"><stop offset="0" style="stop-color:rgb(207,209,215);stop-opacity:1"/><stop offset="1" style="stop-color:rgb(62,54,52);stop-opacity:1"/></linearGradient>
        <linearGradient id="_Linear6" x1="0" y1="0" x2="1" y2="0" gradientUnits="userSpaceOnUse" gradientTransform="matrix(3.24531e-15,53,-53,3.24531e-15,135.5,18)"><stop offset="0" style="stop-color:rgb(73,73,77);stop-opacity:1"/><stop offset="0.42" style="stop-color:rgb(117,118,121);stop-opacity:1"/><stop offset="1" style="stop-color:rgb(212,213,216);stop-opacity:1"/></linearGradient>
        <linearGradient id="_Linear7" x1="0" y1="0" x2="1" y2="0" gradientUnits="userSpaceOnUse" gradientTransform="matrix(3.03366e-15,49.5435,-49.5435,3.03366e-15,135.5,18)"><stop offset="0" style="stop-color:rgb(92,78,75);stop-opacity:1"/><stop offset="0.43" style="stop-color:rgb(143,133,131);stop-opacity:1"/><stop offset="1" style="stop-color:white;stop-opacity:1"/></linearGradient>
        <radialGradient id="_Radial8" cx="0" cy="0" r="1" gradientUnits="userSpaceOnUse" gradientTransform="matrix(26.5,0,0,26.5,135.5,44.5)"><stop offset="0" style="stop-color:black;stop-opacity:0"/><stop offset="0.61" style="stop-color:black;stop-opacity:0.09"/><stop offset="0.82" style="stop-color:black;stop-opacity:0.29"/><stop offset="1" style="stop-color:black;stop-opacity:0.5"/></radialGradient>
        <linearGradient id="_Linear9" x1="0" y1="0" x2="1" y2="0" gradientUnits="userSpaceOnUse" gradientTransform="matrix(1.50137e-14,53,-53,1.50137e-14,135.5,18)"><stop offset="0" style="stop-color:rgb(207,209,215);stop-opacity:1"/><stop offset="1" style="stop-color:rgb(62,54,52);stop-opacity:1"/></linearGradient>
        <linearGradient id="_Linear10" x1="0" y1="0" x2="1" y2="0" gradientUnits="userSpaceOnUse" gradientTransform="matrix(3.24531e-15,53,-53,3.24531e-15,135.5,18)"><stop offset="0" style="stop-color:rgb(73,73,77);stop-opacity:1"/><stop offset="0.42" style="stop-color:rgb(117,118,121);stop-opacity:1"/><stop offset="1" style="stop-color:rgb(212,213,216);stop-opacity:1"/></linearGradient>
        <linearGradient id="_Linear11" x1="0" y1="0" x2="1" y2="0" gradientUnits="userSpaceOnUse" gradientTransform="matrix(3.03366e-15,49.5435,-49.5435,3.03366e-15,135.5,18)"><stop offset="0" style="stop-color:rgb(92,78,75);stop-opacity:1"/><stop offset="0.43" style="stop-color:rgb(143,133,131);stop-opacity:1"/><stop offset="1" style="stop-color:white;stop-opacity:1"/></linearGradient>
        <radialGradient id="_Radial12" cx="0" cy="0" r="1" gradientUnits="userSpaceOnUse" gradientTransform="matrix(26.5,0,0,26.5,135.5,44.5)"><stop offset="0" style="stop-color:black;stop-opacity:0"/><stop offset="0.61" style="stop-color:black;stop-opacity:0.09"/><stop offset="0.82" style="stop-color:black;stop-opacity:0.29"/><stop offset="1" style="stop-color:black;stop-opacity:0.5"/></radialGradient>
        <linearGradient id="_Linear13" x1="0" y1="0" x2="1" y2="0" gradientUnits="userSpaceOnUse" gradientTransform="matrix(1.50137e-14,53,-53,1.50137e-14,135.5,18)"><stop offset="0" style="stop-color:rgb(207,209,215);stop-opacity:1"/><stop offset="1" style="stop-color:rgb(62,54,52);stop-opacity:1"/></linearGradient>
        <linearGradient id="_Linear14" x1="0" y1="0" x2="1" y2="0" gradientUnits="userSpaceOnUse" gradientTransform="matrix(3.24531e-15,53,-53,3.24531e-15,135.5,18)"><stop offset="0" style="stop-color:rgb(73,73,77);stop-opacity:1"/><stop offset="0.42" style="stop-color:rgb(117,118,121);stop-opacity:1"/><stop offset="1" style="stop-color:rgb(212,213,216);stop-opacity:1"/></linearGradient>
        <linearGradient id="_Linear15" x1="0" y1="0" x2="1" y2="0" gradientUnits="userSpaceOnUse" gradientTransform="matrix(3.03366e-15,49.5435,-49.5435,3.03366e-15,135.5,18)"><stop offset="0" style="stop-color:rgb(92,78,75);stop-opacity:1"/><stop offset="0.43" style="stop-color:rgb(143,133,131);stop-opacity:1"/><stop offset="1" style="stop-color:white;stop-opacity:1"/></linearGradient>
        <radialGradient id="_Radial16" cx="0" cy="0" r="1" gradientUnits="userSpaceOnUse" gradientTransform="matrix(26.5,0,0,26.5,135.5,44.5)"><stop offset="0" style="stop-color:black;stop-opacity:0"/><stop offset="0.61" style="stop-color:black;stop-opacity:0.09"/><stop offset="0.82" style="stop-color:black;stop-opacity:0.29"/><stop offset="1" style="stop-color:black;stop-opacity:0.5"/></radialGradient>
        <linearGradient id="_Linear17" x1="0" y1="0" x2="1" y2="0" gradientUnits="userSpaceOnUse" gradientTransform="matrix(1.50137e-14,53,-53,1.50137e-14,135.5,18)"><stop offset="0" style="stop-color:rgb(207,209,215);stop-opacity:1"/><stop offset="1" style="stop-color:rgb(62,54,52);stop-opacity:1"/></linearGradient>
        <linearGradient id="_Linear18" x1="0" y1="0" x2="1" y2="0" gradientUnits="userSpaceOnUse" gradientTransform="matrix(3.06162e-15,76,-50,4.65366e-15,240,8)"><stop offset="0" style="stop-color:rgb(73,73,77);stop-opacity:1"/><stop offset="0.51" style="stop-color:rgb(117,117,120);stop-opacity:1"/><stop offset="1" style="stop-color:white;stop-opacity:1"/></linearGradient>
        <linearGradient id="_Linear19" x1="0" y1="0" x2="1" y2="0" gradientUnits="userSpaceOnUse" gradientTransform="matrix(1.04095e-15,17,-17,1.04095e-15,241.5,22)"><stop offset="0" style="stop-color:white;stop-opacity:1"/><stop offset="0.58" style="stop-color:rgb(144,134,132);stop-opacity:1"/><stop offset="1" style="stop-color:rgb(92,78,75);stop-opacity:1"/></linearGradient>
        <linearGradient id="_Linear20" x1="0" y1="0" x2="1" y2="0" gradientUnits="userSpaceOnUse" gradientTransform="matrix(1.04095e-15,17,-17,1.04095e-15,241.5,22)"><stop offset="0" style="stop-color:rgb(157,140,136);stop-opacity:1"/><stop offset="0.42" style="stop-color:rgb(147,136,133);stop-opacity:1"/><stop offset="1" style="stop-color:rgb(126,126,126);stop-opacity:1"/></linearGradient>
        <linearGradient id="_Linear21" x1="0" y1="0" x2="1" y2="0" gradientUnits="userSpaceOnUse" gradientTransform="matrix(1.04095e-15,17,-17,1.04095e-15,241.5,22)"><stop offset="0" style="stop-color:rgb(92,78,75);stop-opacity:1"/><stop offset="0.42" style="stop-color:rgb(136,126,124);stop-opacity:1"/><stop offset="1" style="stop-color:rgb(231,229,229);stop-opacity:1"/></linearGradient>
        <linearGradient id="_Linear22" x1="0" y1="0" x2="1" y2="0" gradientUnits="userSpaceOnUse" gradientTransform="matrix(1.04095e-15,17,-17,1.04095e-15,241.5,22)"><stop offset="0" style="stop-color:white;stop-opacity:1"/><stop offset="0.58" style="stop-color:rgb(144,134,132);stop-opacity:1"/><stop offset="1" style="stop-color:rgb(92,78,75);stop-opacity:1"/></linearGradient>
        <linearGradient id="_Linear23" x1="0" y1="0" x2="1" y2="0" gradientUnits="userSpaceOnUse" gradientTransform="matrix(1.04095e-15,17,-17,1.04095e-15,241.5,22)"><stop offset="0" style="stop-color:rgb(157,140,136);stop-opacity:1"/><stop offset="0.42" style="stop-color:rgb(147,136,133);stop-opacity:1"/><stop offset="1" style="stop-color:rgb(126,126,126);stop-opacity:1"/></linearGradient>
        <linearGradient id="_Linear24" x1="0" y1="0" x2="1" y2="0" gradientUnits="userSpaceOnUse" gradientTransform="matrix(1.04095e-15,17,-17,1.04095e-15,241.5,22)"><stop offset="0" style="stop-color:rgb(92,78,75);stop-opacity:1"/><stop offset="0.42" style="stop-color:rgb(136,126,124);stop-opacity:1"/><stop offset="1" style="stop-color:rgb(231,229,229);stop-opacity:1"/></linearGradient>
    </defs>
</svg>
