<?xml version="1.0" encoding="UTF-8" standalone="no"?>
<!DOCTYPE svg PUBLIC "-//W3C//DTD SVG 1.1//EN" "http://www.w3.org/Graphics/SVG/1.1/DTD/svg11.dtd">
<svg width="160px" height="30px" viewBox="0 0 480 90" version="1.1" xmlns="http://www.w3.org/2000/svg" xmlns:xlink="http://www.w3.org/1999/xlink" xml:space="preserve" xmlns:serif="http://www.serif.com/" style="fill-rule:evenodd;clip-rule:evenodd;stroke-linejoin:round;stroke-miterlimit:2;">
    <g id="hbuttons-palmiii_iiix_iiixe">
        <g id="bg" transform="matrix(6.46904,0,0,1.25479,-5669.39,-392.78)">
            <g id="bg1" serif:id="bg" transform="matrix(0.216958,0,0,0.391939,534.896,-87.5386)">
                <rect x="1574" y="1022" width="342" height="183" style="fill:url(#_Linear1);"/>
            </g>
            <g id="bg-upper-highlight" transform="matrix(2.47332,0,0,0.0885492,841.762,257.503)">
                <rect x="14" y="627" width="30" height="18" style="fill:rgb(187,187,187);"/>
            </g>
        </g>
        <g id="hbutton-memo-pad-palmiii" transform="matrix(1,0,0,1,390,4.54747e-13)">
            <g id="hbutton-palmiii" transform="matrix(1,0,0,1,0,3.5)">
                <g id="recess" transform="matrix(1.20833,0,0,1.26415,-10.5833,-10.9623)">
                    <ellipse cx="46" cy="41.5" rx="24" ry="26.5" style="fill:url(#_Linear2);"/>
                </g>
                <g id="recess-outline" transform="matrix(1.20833,0,0,1.26415,-10.5833,-10.9623)">
                    <ellipse cx="46" cy="41.5" rx="24" ry="26.5" style="fill:url(#_Radial3);"/>
                    <path d="M46,15C59.246,15 70,26.874 70,41.5C70,56.126 59.246,68 46,68C32.754,68 22,56.126 22,41.5C22,26.874 32.754,15 46,15ZM46,15.827C58.805,15.827 69.135,27.361 69.135,41.5C69.135,55.639 58.805,67.173 46,67.173C33.195,67.173 22.865,55.639 22.865,41.5C22.865,27.361 33.195,15.827 46,15.827Z" style="fill:url(#_Linear4);"/>
                </g>
                <g id="outer" transform="matrix(0.811198,0,0,0.839623,7.6849,6.65566)">
                    <ellipse cx="46" cy="41.5" rx="24" ry="26.5" style="fill:url(#_Linear5);"/>
                    <path d="M46,13.094C31.742,13.094 20.028,25.757 20.028,41.5C20.028,57.243 31.742,69.906 46,69.906C60.258,69.906 71.972,57.243 71.972,41.5C71.972,25.757 60.258,13.094 46,13.094ZM46,15C59.246,15 70,26.874 70,41.5C70,56.126 59.246,68 46,68C32.754,68 22,56.126 22,41.5C22,26.874 32.754,15 46,15Z"/>
                </g>
                <g id="inner" transform="matrix(0.811198,0,0,0.839623,7.6849,6.65566)">
                    <path d="M46,15C59.246,15 70,26.874 70,41.5C70,56.126 59.246,68 46,68C32.754,68 22,56.126 22,41.5C22,26.874 32.754,15 46,15ZM46,16.27C58.572,16.27 68.685,27.619 68.685,41.5C68.685,55.381 58.572,66.73 46,66.73C33.428,66.73 23.315,55.381 23.315,41.5C23.315,27.619 33.428,16.27 46,16.27Z" style="fill:url(#_Linear6);"/>
                </g>
                <g id="soft-highlight" transform="matrix(1.22222,0,0,0.925926,-12.3333,-8.27778)">
                    <circle cx="46.5" cy="43.5" r="13.5" style="fill:url(#_Radial7);"/>
                </g>
            </g>
            <g id="icon_memo-pad-palmiii" transform="matrix(3.85342,0,0,3.85342,-1056.35,-129.656)">
                <path d="M288.584,46.226C288.808,46.89 288.882,47.303 288.882,47.303C287.917,48.258 286.722,48.915 285.482,49.439C285.552,48.56 284.21,45.541 282.936,44.381C282.631,43.935 282.651,43.257 283.096,42.954C283.3,42.814 283.532,42.777 283.752,42.82C283.8,42.627 283.907,42.458 284.081,42.34C284.274,42.208 284.509,42.172 284.743,42.218C284.778,42.225 284.814,42.234 284.849,42.245C284.903,42.059 285.011,41.898 285.176,41.786C285.377,41.649 285.619,41.623 285.861,41.688C286.151,41.766 286.441,41.983 286.605,42.224L286.062,42.596C286.115,42.733 286.067,42.91 285.941,42.996L286.317,43.546C286.559,43.38 286.705,43.127 286.74,42.858C286.96,43.105 287.267,43.506 287.627,44.126C287.7,43.979 287.774,43.834 287.848,43.695C288.131,43.16 288.415,42.706 288.633,42.493C288.718,42.409 288.842,42.377 288.957,42.41C289.522,42.57 289.936,43.108 289.936,43.108C290.012,43.209 290.025,43.345 289.968,43.459L288.584,46.226ZM286.713,46.13C286.32,46.357 285.963,46.638 285.549,46.941C285.401,47.049 285.361,47.276 285.472,47.422C285.584,47.568 285.778,47.55 285.925,47.439C286.117,47.302 286.299,47.191 286.484,47.069L286.562,46.518C286.566,46.491 286.631,46.323 286.713,46.13ZM288.963,43.129C288.702,43.268 287.318,46.328 287.216,46.654L287.134,47.232L287.485,46.931L289.271,43.362C289.195,43.286 289.089,43.197 288.963,43.129ZM287.303,44.802C287.221,44.774 287.126,44.777 287.038,44.812C286.332,45.095 285.72,45.487 285.085,45.982C284.94,46.095 284.883,46.31 284.994,46.456C285.106,46.602 285.288,46.61 285.434,46.499C285.944,46.088 286.452,45.782 286.96,45.558C287.062,45.329 287.178,45.07 287.303,44.802ZM284.924,45.616C285.533,45.152 286.207,44.843 286.869,44.573C287.039,44.503 287.12,44.331 287.038,44.166C286.956,44.002 286.797,43.933 286.625,43.997C285.909,44.261 285.216,44.541 284.588,45.052C284.446,45.168 284.346,45.407 284.457,45.553C284.569,45.7 284.778,45.728 284.924,45.616ZM284.506,43.394L283.944,43.777C283.983,43.908 283.928,44.036 283.809,44.117L284.185,44.667C284.604,44.381 284.734,43.831 284.506,43.394ZM285.582,42.849C285.582,42.849 285.001,43.191 285.003,43.194C285.04,43.324 284.992,43.469 284.874,43.55L285.25,44.1C285.662,43.819 285.795,43.283 285.582,42.849ZM283.876,43.654C283.765,43.491 283.604,43.415 283.471,43.505C283.311,43.614 283.409,43.859 283.446,43.936L283.876,43.654ZM283.876,43.654L283.875,43.651L283.876,43.654ZM284.458,43.315L284.936,43.072C284.856,42.955 284.63,42.772 284.456,42.89C284.3,42.997 284.391,43.202 284.458,43.315ZM285.553,42.8C285.553,42.8 285.92,42.644 286.053,42.598C285.983,42.495 285.772,42.186 285.551,42.337C285.405,42.437 285.486,42.676 285.553,42.8Z" style="fill:rgb(220,220,222);"/>
            </g>
        </g>
        <g id="hbutton-todo-palmiii" transform="matrix(1,0,0,1,300,0)">
            <g id="hbutton-palmiii1" serif:id="hbutton-palmiii" transform="matrix(1,0,0,1,0,3.5)">
                <g id="recess1" serif:id="recess" transform="matrix(1.20833,0,0,1.26415,-10.5833,-10.9623)">
                    <ellipse cx="46" cy="41.5" rx="24" ry="26.5" style="fill:url(#_Linear8);"/>
                </g>
                <g id="recess-outline1" serif:id="recess-outline" transform="matrix(1.20833,0,0,1.26415,-10.5833,-10.9623)">
                    <ellipse cx="46" cy="41.5" rx="24" ry="26.5" style="fill:url(#_Radial9);"/>
                    <path d="M46,15C59.246,15 70,26.874 70,41.5C70,56.126 59.246,68 46,68C32.754,68 22,56.126 22,41.5C22,26.874 32.754,15 46,15ZM46,15.827C58.805,15.827 69.135,27.361 69.135,41.5C69.135,55.639 58.805,67.173 46,67.173C33.195,67.173 22.865,55.639 22.865,41.5C22.865,27.361 33.195,15.827 46,15.827Z" style="fill:url(#_Linear10);"/>
                </g>
                <g id="outer1" serif:id="outer" transform="matrix(0.811198,0,0,0.839623,7.6849,6.65566)">
                    <ellipse cx="46" cy="41.5" rx="24" ry="26.5" style="fill:url(#_Linear11);"/>
                    <path d="M46,13.094C31.742,13.094 20.028,25.757 20.028,41.5C20.028,57.243 31.742,69.906 46,69.906C60.258,69.906 71.972,57.243 71.972,41.5C71.972,25.757 60.258,13.094 46,13.094ZM46,15C59.246,15 70,26.874 70,41.5C70,56.126 59.246,68 46,68C32.754,68 22,56.126 22,41.5C22,26.874 32.754,15 46,15Z"/>
                </g>
                <g id="inner1" serif:id="inner" transform="matrix(0.811198,0,0,0.839623,7.6849,6.65566)">
                    <path d="M46,15C59.246,15 70,26.874 70,41.5C70,56.126 59.246,68 46,68C32.754,68 22,56.126 22,41.5C22,26.874 32.754,15 46,15ZM46,16.27C58.572,16.27 68.685,27.619 68.685,41.5C68.685,55.381 58.572,66.73 46,66.73C33.428,66.73 23.315,55.381 23.315,41.5C23.315,27.619 33.428,16.27 46,16.27Z" style="fill:url(#_Linear12);"/>
                </g>
                <g id="soft-highlight1" serif:id="soft-highlight" transform="matrix(1.22222,0,0,0.925926,-12.3333,-8.27778)">
                    <circle cx="46.5" cy="43.5" r="13.5" style="fill:url(#_Radial13);"/>
                </g>
            </g>
            <g id="icon-todo-palmiii" transform="matrix(0.961955,0,0,0.961955,-286.422,2.09464)">
                <path d="M337.78,60.195C340,52 337.911,45.183 330,37.677C336.375,32.268 342.75,29.298 349.125,29.009C354.367,33.656 357.87,39.95 359.059,48.437C353.712,54.935 345.792,58.205 337.78,60.195ZM342.393,49.854C341.962,50.106 341.79,50.661 341.998,51.127L343.474,54.432C343.585,54.682 343.792,54.871 344.044,54.954C344.297,55.037 344.57,55.006 344.8,54.869L347.929,52.99C348.377,52.721 348.534,52.127 348.282,51.657L346.6,48.528C346.345,48.055 345.771,47.886 345.317,48.15L342.393,49.854ZM344.078,51.125L344.75,52.63L346.181,51.771L345.415,50.346L344.078,51.125ZM350.43,49.37L356.466,46.34C356.935,46.105 357.132,45.517 356.907,45.028C356.681,44.539 356.117,44.333 355.648,44.569L349.612,47.598C349.143,47.834 348.945,48.422 349.171,48.911C349.397,49.4 349.961,49.605 350.43,49.37ZM339.151,43.759C338.926,43.878 338.756,44.086 338.68,44.336C338.603,44.587 338.625,44.858 338.742,45.091L340.389,48.373C340.627,48.847 341.186,49.036 341.646,48.796L344.987,47.055C345.213,46.936 345.385,46.728 345.463,46.476C345.54,46.224 345.517,45.95 345.399,45.717L343.729,42.419C343.488,41.944 342.926,41.758 342.467,42.001L339.151,43.759ZM340.856,45.061L341.631,46.606L343.281,45.746L342.494,44.193L340.856,45.061ZM347.34,43.768L354.193,40.424C354.665,40.194 354.868,39.608 354.648,39.117C354.427,38.626 353.865,38.413 353.394,38.643L346.54,41.987C346.069,42.217 345.865,42.803 346.086,43.295C346.307,43.786 346.869,43.998 347.34,43.768ZM338.9,39.429L340.186,34.714C340.328,34.192 340.85,33.889 341.351,34.038C341.851,34.186 342.142,34.73 342,35.252L340.407,41.093C340.33,41.373 340.139,41.603 339.885,41.721C339.631,41.84 339.339,41.836 339.088,41.709L336.532,40.419C336.064,40.182 335.868,39.594 336.094,39.105C336.321,38.617 336.886,38.413 337.354,38.649L338.9,39.429ZM345.014,39.321L351.162,35.848C351.62,35.589 351.79,34.992 351.542,34.515C351.294,34.038 350.721,33.86 350.263,34.119L344.115,37.593C343.658,37.851 343.487,38.448 343.736,38.925C343.984,39.402 344.556,39.58 345.014,39.321Z" style="fill:rgb(220,220,222);"/>
            </g>
        </g>
        <g id="hbutton-address-book-palmiii" transform="matrix(1,0,0,1,90,4.54747e-13)">
            <g id="hbutton-palmiii2" serif:id="hbutton-palmiii" transform="matrix(1,0,0,1,0,3.5)">
                <g id="recess2" serif:id="recess" transform="matrix(1.20833,0,0,1.26415,-10.5833,-10.9623)">
                    <ellipse cx="46" cy="41.5" rx="24" ry="26.5" style="fill:url(#_Linear14);"/>
                </g>
                <g id="recess-outline2" serif:id="recess-outline" transform="matrix(1.20833,0,0,1.26415,-10.5833,-10.9623)">
                    <ellipse cx="46" cy="41.5" rx="24" ry="26.5" style="fill:url(#_Radial15);"/>
                    <path d="M46,15C59.246,15 70,26.874 70,41.5C70,56.126 59.246,68 46,68C32.754,68 22,56.126 22,41.5C22,26.874 32.754,15 46,15ZM46,15.827C58.805,15.827 69.135,27.361 69.135,41.5C69.135,55.639 58.805,67.173 46,67.173C33.195,67.173 22.865,55.639 22.865,41.5C22.865,27.361 33.195,15.827 46,15.827Z" style="fill:url(#_Linear16);"/>
                </g>
                <g id="outer2" serif:id="outer" transform="matrix(0.811198,0,0,0.839623,7.6849,6.65566)">
                    <ellipse cx="46" cy="41.5" rx="24" ry="26.5" style="fill:url(#_Linear17);"/>
                    <path d="M46,13.094C31.742,13.094 20.028,25.757 20.028,41.5C20.028,57.243 31.742,69.906 46,69.906C60.258,69.906 71.972,57.243 71.972,41.5C71.972,25.757 60.258,13.094 46,13.094ZM46,15C59.246,15 70,26.874 70,41.5C70,56.126 59.246,68 46,68C32.754,68 22,56.126 22,41.5C22,26.874 32.754,15 46,15Z"/>
                </g>
                <g id="inner2" serif:id="inner" transform="matrix(0.811198,0,0,0.839623,7.6849,6.65566)">
                    <path d="M46,15C59.246,15 70,26.874 70,41.5C70,56.126 59.246,68 46,68C32.754,68 22,56.126 22,41.5C22,26.874 32.754,15 46,15ZM46,16.27C58.572,16.27 68.685,27.619 68.685,41.5C68.685,55.381 58.572,66.73 46,66.73C33.428,66.73 23.315,55.381 23.315,41.5C23.315,27.619 33.428,16.27 46,16.27Z" style="fill:url(#_Linear18);"/>
                </g>
                <g id="soft-highlight2" serif:id="soft-highlight" transform="matrix(1.22222,0,0,0.925926,-12.3333,-8.27778)">
                    <circle cx="46.5" cy="43.5" r="13.5" style="fill:url(#_Radial19);"/>
                </g>
            </g>
            <g id="icon-address-book-palmiii" transform="matrix(3.62026,0,0,3.56092,-4864.19,-2986.45)">
                <path d="M1357.42,854.747C1356.96,854.71 1356.38,854.546 1355.75,854.067C1355.2,853.641 1353.44,850.575 1353.33,849.901C1353.11,848.594 1353.61,847.769 1353.85,847.463C1354.47,848.179 1354.93,848.96 1355.26,849.797C1355.05,849.846 1354.75,849.895 1354.47,849.859C1354.8,849.939 1356.43,852.629 1356.35,852.963C1356.45,852.684 1356.63,852.437 1356.78,852.262C1357.32,853.01 1357.76,853.878 1358.16,854.697L1358.14,854.7C1358.09,854.712 1358.03,854.724 1357.96,854.734C1358.03,854.824 1358.1,854.891 1358.17,854.944C1358.27,855.015 1358.4,855.042 1358.58,855.057C1358.71,855.067 1358.81,855.18 1358.8,855.308C1358.79,855.437 1358.67,855.532 1358.55,855.522C1358.26,855.499 1358.06,855.438 1357.9,855.326C1357.73,855.206 1357.57,855.036 1357.42,854.747ZM1357.12,851.945C1357.28,851.89 1357.48,851.905 1357.65,851.995C1357.97,852.157 1358.73,853.517 1358.76,853.982C1358.82,854.237 1358.74,854.404 1358.59,854.517C1358.17,853.649 1357.7,852.735 1357.12,851.945ZM1354.2,847.159C1354.38,847.072 1354.57,847.067 1354.78,847.214C1355.13,847.47 1355.89,848.768 1355.91,849.124C1355.92,849.329 1355.83,849.523 1355.7,849.636C1355.35,848.748 1354.86,847.918 1354.2,847.159Z" style="fill:rgb(220,220,222);fill-rule:nonzero;"/>
            </g>
        </g>
        <g id="hbutton-calendar-palmiii">
            <g id="hbutton-palmiii3" serif:id="hbutton-palmiii" transform="matrix(1,0,0,1,0,3.5)">
                <g id="recess3" serif:id="recess" transform="matrix(1.20833,0,0,1.26415,-10.5833,-10.9623)">
                    <ellipse cx="46" cy="41.5" rx="24" ry="26.5" style="fill:url(#_Linear20);"/>
                </g>
                <g id="recess-outline3" serif:id="recess-outline" transform="matrix(1.20833,0,0,1.26415,-10.5833,-10.9623)">
                    <ellipse cx="46" cy="41.5" rx="24" ry="26.5" style="fill:url(#_Radial21);"/>
                    <path d="M46,15C59.246,15 70,26.874 70,41.5C70,56.126 59.246,68 46,68C32.754,68 22,56.126 22,41.5C22,26.874 32.754,15 46,15ZM46,15.827C58.805,15.827 69.135,27.361 69.135,41.5C69.135,55.639 58.805,67.173 46,67.173C33.195,67.173 22.865,55.639 22.865,41.5C22.865,27.361 33.195,15.827 46,15.827Z" style="fill:url(#_Linear22);"/>
                </g>
                <g id="outer3" serif:id="outer" transform="matrix(0.811198,0,0,0.839623,7.6849,6.65566)">
                    <ellipse cx="46" cy="41.5" rx="24" ry="26.5" style="fill:url(#_Linear23);"/>
                    <path d="M46,13.094C31.742,13.094 20.028,25.757 20.028,41.5C20.028,57.243 31.742,69.906 46,69.906C60.258,69.906 71.972,57.243 71.972,41.5C71.972,25.757 60.258,13.094 46,13.094ZM46,15C59.246,15 70,26.874 70,41.5C70,56.126 59.246,68 46,68C32.754,68 22,56.126 22,41.5C22,26.874 32.754,15 46,15Z"/>
                </g>
                <g id="inner3" serif:id="inner" transform="matrix(0.811198,0,0,0.839623,7.6849,6.65566)">
                    <path d="M46,15C59.246,15 70,26.874 70,41.5C70,56.126 59.246,68 46,68C32.754,68 22,56.126 22,41.5C22,26.874 32.754,15 46,15ZM46,16.27C58.572,16.27 68.685,27.619 68.685,41.5C68.685,55.381 58.572,66.73 46,66.73C33.428,66.73 23.315,55.381 23.315,41.5C23.315,27.619 33.428,16.27 46,16.27Z" style="fill:url(#_Linear24);"/>
                </g>
                <g id="soft-highlight3" serif:id="soft-highlight" transform="matrix(1.22222,0,0,0.925926,-12.3333,-8.27778)">
                    <circle cx="46.5" cy="43.5" r="13.5" style="fill:url(#_Radial25);"/>
                </g>
            </g>
            <g id="icon-calendar-palmiii" transform="matrix(3.84858,0,0,3.84858,-632.293,-128.45)">
                <path d="M175.124,44.646C176.316,44.646 177.284,45.614 177.284,46.806C177.284,47.998 176.316,48.966 175.124,48.966C173.932,48.966 172.964,47.998 172.964,46.806C172.964,45.614 173.932,44.646 175.124,44.646ZM177.729,46.121C177.811,46.074 177.894,46.025 177.976,45.975C178.126,46.609 178.171,47.152 178.171,47.152C178.172,47.163 178.173,47.173 178.175,47.183L177.741,47.444C177.791,47.239 177.817,47.026 177.817,46.806C177.817,46.569 177.787,46.34 177.729,46.121ZM174.874,46.363L175.07,45.536C175.121,45.321 175.337,45.188 175.553,45.239C175.768,45.29 175.901,45.506 175.85,45.722L175.561,46.94C175.537,47.043 175.472,47.133 175.381,47.189C175.29,47.245 175.18,47.262 175.077,47.237L174.059,46.991C173.844,46.939 173.711,46.722 173.763,46.507C173.815,46.292 174.032,46.159 174.247,46.211L174.874,46.363ZM179.36,45.029C179.53,45.606 179.565,45.963 179.565,45.963C179.565,45.963 179.437,46.257 178.79,46.755C178.751,46.474 178.68,46.052 178.563,45.607C178.863,45.41 179.093,45.239 179.36,45.029ZM176.709,44.629C176.894,44.523 177.085,44.418 177.281,44.316C177.378,44.471 177.471,44.63 177.555,44.786C177.643,44.95 177.72,45.131 177.785,45.317C177.684,45.38 177.582,45.441 177.48,45.501C177.289,45.157 177.025,44.86 176.709,44.629ZM178.831,43.655C178.95,43.904 179.05,44.141 179.134,44.361C179.128,44.366 179.121,44.371 179.114,44.377C178.863,44.584 178.645,44.754 178.355,44.95C178.291,44.783 178.219,44.622 178.139,44.472C178.059,44.323 177.971,44.172 177.879,44.023C178.203,43.874 178.819,43.661 178.831,43.655ZM174.015,44.416C174.015,44.416 173.976,44.341 173.98,44.335C174.117,44.232 174.381,44.065 174.572,43.936C174.614,43.989 174.671,44.066 174.728,44.142C174.464,44.181 174.248,44.305 174.015,44.416ZM175.603,44.155C175.432,43.915 175.277,43.71 175.167,43.568C175.359,43.451 175.556,43.337 175.747,43.236C175.928,43.141 176.122,43.049 176.319,42.962C176.422,43.092 176.656,43.393 176.914,43.763C176.603,43.927 176.302,44.098 176.022,44.266C175.887,44.218 175.747,44.181 175.603,44.155ZM173.302,43.947C172.89,43.406 172.607,43.193 172.607,43.193C172.607,43.193 173.78,42.328 174.986,41.766C176.304,41.151 177.127,41.171 177.127,41.171C177.127,41.171 177.331,41.307 177.647,41.669C177.223,41.809 176.185,42.168 175.402,42.58C174.5,43.055 173.499,43.799 173.302,43.947ZM178.065,42.322C178.209,42.532 178.363,42.777 178.523,43.062C178.168,43.181 177.867,43.297 177.513,43.464C177.298,43.152 177.094,42.88 176.956,42.701C177.561,42.468 178.044,42.333 178.065,42.322Z" style="fill:rgb(220,220,222);"/>
            </g>
        </g>
        <g id="hbutton-rocker-palmiii" transform="matrix(1.61726,0,0,1.25479,-1237.35,-392.78)">
            <g transform="matrix(0.61833,0,0,0.796943,765.089,313.023)">
                <g id="base">
                    <g id="base1" serif:id="base">
                        <path d="M239.2,80C238.441,80 237.693,79.956 236.957,79.87C236.887,79.862 236.817,79.853 236.747,79.844L236.715,79.84C236.084,79.759 235.461,79.646 234.85,79.504C234.591,79.444 234.334,79.379 234.08,79.308C234.08,79.308 233.985,79.285 233.985,79.285L233.957,79.278C225.869,77.292 220,71.423 220,64.5C220,59 225,54 225,45C225,36.07 220.078,33.047 220.001,25.675L220,25.5C220,18.577 225.869,12.708 233.957,10.722L233.985,10.715L234.08,10.692C235.71,10.241 237.427,10 239.2,10L240.8,10C242.573,10 244.29,10.241 245.92,10.692C245.92,10.692 246.015,10.715 246.015,10.715L246.043,10.722C254.131,12.708 260,18.577 260,25.5L259.999,25.675C259.922,33.047 255,36.07 255,45C255,53.93 259.922,58.922 259.999,64.371L260,64.5C260,71.423 254.131,77.292 246.043,79.278L246.015,79.285L245.92,79.308C245.666,79.379 245.409,79.444 245.15,79.504C244.58,79.636 244.001,79.743 243.414,79.823L243.253,79.844C243.183,79.853 243.113,79.862 243.043,79.87C242.307,79.956 241.559,80 240.8,80L239.2,80ZM220,64.5C220,64.5 220,64.5 220,64.5ZM260,64.5C260,64.5 260,64.5 260,64.5Z" style="fill:url(#_Radial26);"/>
                        <path d="M233.406,8.253L233.405,8.252C234.334,7.966 235.289,7.745 236.268,7.59C237.225,7.438 238.205,7.366 239.2,7.348C239.2,7.348 240.8,7.335 240.8,7.335C241.796,7.341 242.778,7.405 243.737,7.547C244.72,7.692 245.68,7.909 246.613,8.187L246.613,8.187L246.643,8.195C246.643,8.195 246.67,8.203 246.662,8.201C250.864,9.399 254.502,11.491 257.12,14.226C260.147,17.389 261.9,21.305 261.72,25.5L261.711,25.693C261.428,31.327 258.541,34.395 256.936,39.359C256.417,40.965 256.075,42.79 256.031,45C256.053,47.117 256.347,49.004 256.818,50.713C258.353,56.284 261.333,60.142 261.52,64.35L261.526,64.5C261.675,68.632 259.917,72.469 256.933,75.58C254.339,78.285 250.763,80.382 246.618,81.586L246.555,81.604L246.555,81.605C246.555,81.605 245.696,81.858 245.696,81.858L243.75,82.29L243.58,82.32L243.253,79.844L243.57,82.321C243.57,82.321 243.327,82.359 243.333,82.359L240.8,82.599L239.2,82.667C239.2,82.667 236.66,82.42 236.661,82.42L236.412,82.38C236.412,82.38 236.381,82.375 236.387,82.376C236.387,82.376 234.291,81.914 234.291,81.914L233.43,81.659L233.43,81.657L233.396,81.647C233.396,81.647 233.369,81.639 233.376,81.641C229.218,80.424 225.637,78.321 223.045,75.603C220.068,72.48 218.318,68.635 218.483,64.5C218.483,64.5 220,64.5 220,64.5L218.483,64.5C218.618,60.244 221.626,56.367 223.199,50.755C223.681,49.035 223.991,47.136 224.022,45C223.993,42.782 223.668,40.946 223.153,39.333C221.57,34.373 218.671,31.315 218.392,25.692L218.384,25.5C218.202,21.332 219.945,17.443 222.948,14.296C225.552,11.566 229.17,9.473 233.346,8.269L233.406,8.253ZM245.357,77.271L245.357,76.993C245.357,76.993 245.453,76.974 245.44,76.977C245.44,76.977 245.468,76.971 245.476,76.969C248.926,76.273 251.988,74.845 254.264,72.814C256.764,70.584 258.358,67.71 258.474,64.511C258.474,64.511 258.478,64.382 258.478,64.393C258.543,60.4 255.939,56.587 254.699,51.251C254.261,49.366 253.945,47.31 253.969,45C253.92,42.552 254.257,40.526 254.725,38.716C255.946,33.994 258.442,30.929 258.287,25.666C258.287,25.666 258.28,25.491 258.28,25.5C258.145,22.35 256.533,19.566 254.078,17.38C251.83,15.379 248.824,13.945 245.424,13.242C245.421,13.241 245.419,13.241 245.416,13.24C245.416,13.24 245.388,13.234 245.402,13.237L245.306,13.217C245.306,13.217 245.92,10.692 245.92,10.692L245.228,13.196C244.512,13.014 243.777,12.889 243.03,12.798C242.3,12.709 241.556,12.66 240.8,12.665C240.8,12.665 239.2,12.652 239.2,12.652C238.443,12.639 237.697,12.674 236.965,12.756C236.213,12.839 235.474,12.954 234.754,13.131L234.673,13.131L234.678,13.151C234.678,13.151 234.582,13.171 234.596,13.168C234.596,13.168 234.568,13.174 234.56,13.176C231.141,13.873 228.116,15.303 225.855,17.31C223.375,19.511 221.755,22.323 221.616,25.492C221.616,25.492 221.61,25.667 221.61,25.658C221.458,30.941 223.944,34.015 225.185,38.742C225.658,40.544 226.01,42.56 225.978,45C226.012,47.323 225.702,49.39 225.265,51.283C224.025,56.652 221.389,60.477 221.517,64.5C221.517,64.5 220,64.5 220,64.5L221.517,64.5C221.645,67.708 223.253,70.57 225.757,72.791C228.035,74.811 231.093,76.228 234.537,76.916C234.54,76.916 234.542,76.917 234.545,76.918C234.545,76.918 234.573,76.923 234.56,76.92L234.656,76.939L234.08,76.939C234.08,76.939 234.08,76.939 234.08,79.308L234.73,76.958C234.73,76.958 235.409,77.095 235.409,77.095L237.05,77.306C237.05,77.306 237.082,77.309 237.067,77.307C237.067,77.307 237.254,77.32 237.255,77.32L239.2,77.333C239.2,77.333 240.8,77.401 240.8,77.401L242.752,77.382L242.937,77.368L242.937,77.368L243.077,77.356C243.077,77.356 244.604,77.151 244.604,77.151L245.285,77.012L245.357,77.271Z" style="fill:url(#_Linear27);"/>
                    </g>
                </g>
            </g>
            <g id="base2" serif:id="base" transform="matrix(0.587414,0,0,0.774173,772.509,314.048)">
                <path d="M239.2,80C238.441,80 237.693,79.956 236.957,79.87C236.887,79.862 236.817,79.853 236.747,79.844L236.715,79.84C236.084,79.759 235.461,79.646 234.85,79.504C234.591,79.444 234.334,79.379 234.08,79.308C234.08,79.308 233.985,79.285 233.985,79.285L233.957,79.278C225.869,77.292 220,71.423 220,64.5C220,59 225,54 225,45C225,36.07 220.078,33.047 220.001,25.675L220,25.5C220,18.577 225.869,12.708 233.957,10.722L233.985,10.715L234.08,10.692C235.71,10.241 237.427,10 239.2,10L240.8,10C242.573,10 244.29,10.241 245.92,10.692C245.92,10.692 246.015,10.715 246.015,10.715L246.043,10.722C254.131,12.708 260,18.577 260,25.5L259.999,25.675C259.922,33.047 255,36.07 255,45C255,53.93 259.922,58.922 259.999,64.371L260,64.5C260,71.423 254.131,77.292 246.043,79.278L246.015,79.285L245.92,79.308C245.666,79.379 245.409,79.444 245.15,79.504C244.58,79.636 244.001,79.743 243.414,79.823L243.253,79.844C243.183,79.853 243.113,79.862 243.043,79.87C242.307,79.956 241.559,80 240.8,80L239.2,80ZM220,64.5C220,64.5 220,64.5 220,64.5ZM260,64.5C260,64.5 260,64.5 260,64.5Z" style="fill:url(#_Linear28);"/>
            </g>
            <g id="base3" serif:id="base" transform="matrix(0.587414,0,0,0.774173,772.509,314.048)">
                <path d="M239.2,80C238.441,80 237.693,79.956 236.957,79.87C236.887,79.862 236.817,79.853 236.747,79.844L236.715,79.84C236.084,79.759 235.461,79.646 234.85,79.504C234.591,79.444 234.334,79.379 234.08,79.308C234.08,79.308 233.985,79.285 233.985,79.285L233.957,79.278C225.869,77.292 220,71.423 220,64.5C220,59 225,54 225,45C225,36.07 220.078,33.047 220.001,25.675L220,25.5C220,18.577 225.869,12.708 233.957,10.722L233.985,10.715L234.08,10.692C235.71,10.241 237.427,10 239.2,10L240.8,10C242.573,10 244.29,10.241 245.92,10.692C245.92,10.692 246.015,10.715 246.015,10.715L246.043,10.722C254.131,12.708 260,18.577 260,25.5L259.999,25.675C259.922,33.047 255,36.07 255,45C255,53.93 259.922,58.922 259.999,64.371L260,64.5C260,71.423 254.131,77.292 246.043,79.278L246.015,79.285L245.92,79.308C245.666,79.379 245.409,79.444 245.15,79.504C244.58,79.636 244.001,79.743 243.414,79.823L243.253,79.844C243.183,79.853 243.113,79.862 243.043,79.87C242.307,79.956 241.559,80 240.8,80L239.2,80ZM220,64.5C220,64.5 220,64.5 220,64.5ZM260,64.5C260,64.5 260,64.5 260,64.5Z" style="fill:url(#_Radial29);"/>
                <path d="" style="fill:rgb(16,16,16);"/>
            </g>
            <g id="rocker-bottom" transform="matrix(1.24224,0,0,-1.11645,-221.28,738.575)">
                <g id="base4" serif:id="base" transform="matrix(0.363745,0,0,0.51752,448.986,-104.767)">
                    <ellipse cx="1277" cy="850" rx="26" ry="20" style="fill:url(#_Radial30);"/>
                </g>
                <g id="arrow">
                    <g transform="matrix(7.29134,0,0,7.5991,-834.017,134.033)">
                        <path d="M239.668,25.57L240.488,26.979L238.849,26.979L239.668,25.57Z" style="fill:url(#_Radial31);"/>
                    </g>
                    <g transform="matrix(7.29134,0,0,7.5991,-834.017,134.033)">
                        <path d="M239.668,25.57L240.488,26.979L238.849,26.979L239.668,25.57ZM239.001,26.879L240.336,26.879L239.668,25.731L239.001,26.879Z" style="fill:url(#_Linear32);"/>
                    </g>
                    <g transform="matrix(0.497756,0,0,0.713821,794.027,316.923)">
                        <path d="M249.781,29.933L252,31L228,31L230.219,29.933L249.781,29.933Z" style="fill:rgb(41,43,46);"/>
                    </g>
                </g>
            </g>
            <g id="rocker-top" transform="matrix(1.24224,0,0,1.11645,-221.28,-40.804)">
                <g id="base5" serif:id="base" transform="matrix(0.363745,0,0,0.51752,448.986,-104.767)">
                    <ellipse cx="1277" cy="850" rx="26" ry="20" style="fill:url(#_Radial33);"/>
                </g>
                <g id="arrow1" serif:id="arrow">
                    <g transform="matrix(7.29134,0,0,7.5991,-834.017,134.033)">
                        <path d="M239.668,25.57L240.488,26.979L238.849,26.979L239.668,25.57Z" style="fill:url(#_Radial34);"/>
                    </g>
                    <g transform="matrix(7.29134,0,0,7.5991,-834.017,134.033)">
                        <path d="M239.668,25.57L240.488,26.979L238.849,26.979L239.668,25.57ZM239.001,26.879L240.336,26.879L239.668,25.731L239.001,26.879Z" style="fill:url(#_Linear35);"/>
                    </g>
                    <g transform="matrix(0.497756,0,0,0.713821,794.027,316.923)">
                        <path d="M249.781,29.933L252,31L228,31L230.219,29.933L249.781,29.933Z" style="fill:rgb(184,185,185);"/>
                    </g>
                </g>
            </g>
        </g>
    </g>
    <defs>
        <linearGradient id="_Linear1" x1="0" y1="0" x2="1" y2="0" gradientUnits="userSpaceOnUse" gradientTransform="matrix(6.53876e-15,183,-106.786,1.12055e-14,1745.56,1022)"><stop offset="0" style="stop-color:rgb(117,121,123);stop-opacity:1"/><stop offset="1" style="stop-color:rgb(52,54,55);stop-opacity:1"/></linearGradient>
        <linearGradient id="_Linear2" x1="0" y1="0" x2="1" y2="0" gradientUnits="userSpaceOnUse" gradientTransform="matrix(2.07768e-15,-32.4328,39.1962,2.2941e-15,46.8276,68)"><stop offset="0" style="stop-color:white;stop-opacity:1"/><stop offset="0.58" style="stop-color:rgb(86,87,87);stop-opacity:1"/><stop offset="1" style="stop-color:rgb(8,9,10);stop-opacity:1"/></linearGradient>
        <radialGradient id="_Radial3" cx="0" cy="0" r="1" gradientUnits="userSpaceOnUse" gradientTransform="matrix(-5.16885e-15,-26.8955,24,-4.21406e-15,46,41.8955)"><stop offset="0" style="stop-color:black;stop-opacity:0"/><stop offset="0.63" style="stop-color:rgb(3,4,5);stop-opacity:0.16"/><stop offset="0.83" style="stop-color:rgb(12,15,18);stop-opacity:0.55"/><stop offset="1" style="stop-color:rgb(22,28,33);stop-opacity:1"/></radialGradient>
        <linearGradient id="_Linear4" x1="0" y1="0" x2="1" y2="0" gradientUnits="userSpaceOnUse" gradientTransform="matrix(3.39523e-15,53,-55.4483,3.24531e-15,46,15)"><stop offset="0" style="stop-color:black;stop-opacity:1"/><stop offset="0.55" style="stop-color:rgb(37,38,40);stop-opacity:1"/><stop offset="1" style="stop-color:rgb(170,178,188);stop-opacity:1"/></linearGradient>
        <linearGradient id="_Linear5" x1="0" y1="0" x2="1" y2="0" gradientUnits="userSpaceOnUse" gradientTransform="matrix(3.39523e-15,-53,64.0523,3.7489e-15,46.8276,68)"><stop offset="0" style="stop-color:rgb(23,25,26);stop-opacity:1"/><stop offset="0.5" style="stop-color:rgb(67,69,69);stop-opacity:1"/><stop offset="1" style="stop-color:rgb(199,199,199);stop-opacity:1"/></linearGradient>
        <linearGradient id="_Linear6" x1="0" y1="0" x2="1" y2="0" gradientUnits="userSpaceOnUse" gradientTransform="matrix(0.154093,53,-62.6939,0.170144,46,15)"><stop offset="0" style="stop-color:rgb(180,180,180);stop-opacity:1"/><stop offset="0.54" style="stop-color:rgb(61,61,61);stop-opacity:1"/><stop offset="1" style="stop-color:rgb(15,15,15);stop-opacity:1"/></linearGradient>
        <radialGradient id="_Radial7" cx="0" cy="0" r="1" gradientUnits="userSpaceOnUse" gradientTransform="matrix(1.3781e-14,-14.5153,19.3696,1.83897e-14,46.5,43.5)"><stop offset="0" style="stop-color:white;stop-opacity:0.38"/><stop offset="0.37" style="stop-color:white;stop-opacity:0.12"/><stop offset="0.64" style="stop-color:white;stop-opacity:0"/><stop offset="1" style="stop-color:white;stop-opacity:0"/></radialGradient>
        <linearGradient id="_Linear8" x1="0" y1="0" x2="1" y2="0" gradientUnits="userSpaceOnUse" gradientTransform="matrix(2.07768e-15,-32.4328,39.1962,2.2941e-15,46.8276,68)"><stop offset="0" style="stop-color:white;stop-opacity:1"/><stop offset="0.58" style="stop-color:rgb(86,87,87);stop-opacity:1"/><stop offset="1" style="stop-color:rgb(8,9,10);stop-opacity:1"/></linearGradient>
        <radialGradient id="_Radial9" cx="0" cy="0" r="1" gradientUnits="userSpaceOnUse" gradientTransform="matrix(-5.16885e-15,-26.8955,24,-4.21406e-15,46,41.8955)"><stop offset="0" style="stop-color:black;stop-opacity:0"/><stop offset="0.63" style="stop-color:rgb(3,4,5);stop-opacity:0.16"/><stop offset="0.83" style="stop-color:rgb(12,15,18);stop-opacity:0.55"/><stop offset="1" style="stop-color:rgb(22,28,33);stop-opacity:1"/></radialGradient>
        <linearGradient id="_Linear10" x1="0" y1="0" x2="1" y2="0" gradientUnits="userSpaceOnUse" gradientTransform="matrix(3.39523e-15,53,-55.4483,3.24531e-15,46,15)"><stop offset="0" style="stop-color:black;stop-opacity:1"/><stop offset="0.55" style="stop-color:rgb(37,38,40);stop-opacity:1"/><stop offset="1" style="stop-color:rgb(170,178,188);stop-opacity:1"/></linearGradient>
        <linearGradient id="_Linear11" x1="0" y1="0" x2="1" y2="0" gradientUnits="userSpaceOnUse" gradientTransform="matrix(3.39523e-15,-53,64.0523,3.7489e-15,46.8276,68)"><stop offset="0" style="stop-color:rgb(23,25,26);stop-opacity:1"/><stop offset="0.5" style="stop-color:rgb(67,69,69);stop-opacity:1"/><stop offset="1" style="stop-color:rgb(199,199,199);stop-opacity:1"/></linearGradient>
        <linearGradient id="_Linear12" x1="0" y1="0" x2="1" y2="0" gradientUnits="userSpaceOnUse" gradientTransform="matrix(0.154093,53,-62.6939,0.170144,46,15)"><stop offset="0" style="stop-color:rgb(180,180,180);stop-opacity:1"/><stop offset="0.54" style="stop-color:rgb(61,61,61);stop-opacity:1"/><stop offset="1" style="stop-color:rgb(15,15,15);stop-opacity:1"/></linearGradient>
        <radialGradient id="_Radial13" cx="0" cy="0" r="1" gradientUnits="userSpaceOnUse" gradientTransform="matrix(1.3781e-14,-14.5153,19.3696,1.83897e-14,46.5,43.5)"><stop offset="0" style="stop-color:white;stop-opacity:0.38"/><stop offset="0.37" style="stop-color:white;stop-opacity:0.12"/><stop offset="0.64" style="stop-color:white;stop-opacity:0"/><stop offset="1" style="stop-color:white;stop-opacity:0"/></radialGradient>
        <linearGradient id="_Linear14" x1="0" y1="0" x2="1" y2="0" gradientUnits="userSpaceOnUse" gradientTransform="matrix(2.07768e-15,-32.4328,39.1962,2.2941e-15,46.8276,68)"><stop offset="0" style="stop-color:white;stop-opacity:1"/><stop offset="0.58" style="stop-color:rgb(86,87,87);stop-opacity:1"/><stop offset="1" style="stop-color:rgb(8,9,10);stop-opacity:1"/></linearGradient>
        <radialGradient id="_Radial15" cx="0" cy="0" r="1" gradientUnits="userSpaceOnUse" gradientTransform="matrix(-5.16885e-15,-26.8955,24,-4.21406e-15,46,41.8955)"><stop offset="0" style="stop-color:black;stop-opacity:0"/><stop offset="0.63" style="stop-color:rgb(3,4,5);stop-opacity:0.16"/><stop offset="0.83" style="stop-color:rgb(12,15,18);stop-opacity:0.55"/><stop offset="1" style="stop-color:rgb(22,28,33);stop-opacity:1"/></radialGradient>
        <linearGradient id="_Linear16" x1="0" y1="0" x2="1" y2="0" gradientUnits="userSpaceOnUse" gradientTransform="matrix(3.39523e-15,53,-55.4483,3.24531e-15,46,15)"><stop offset="0" style="stop-color:black;stop-opacity:1"/><stop offset="0.55" style="stop-color:rgb(37,38,40);stop-opacity:1"/><stop offset="1" style="stop-color:rgb(170,178,188);stop-opacity:1"/></linearGradient>
        <linearGradient id="_Linear17" x1="0" y1="0" x2="1" y2="0" gradientUnits="userSpaceOnUse" gradientTransform="matrix(3.39523e-15,-53,64.0523,3.7489e-15,46.8276,68)"><stop offset="0" style="stop-color:rgb(23,25,26);stop-opacity:1"/><stop offset="0.5" style="stop-color:rgb(67,69,69);stop-opacity:1"/><stop offset="1" style="stop-color:rgb(199,199,199);stop-opacity:1"/></linearGradient>
        <linearGradient id="_Linear18" x1="0" y1="0" x2="1" y2="0" gradientUnits="userSpaceOnUse" gradientTransform="matrix(0.154093,53,-62.6939,0.170144,46,15)"><stop offset="0" style="stop-color:rgb(180,180,180);stop-opacity:1"/><stop offset="0.54" style="stop-color:rgb(61,61,61);stop-opacity:1"/><stop offset="1" style="stop-color:rgb(15,15,15);stop-opacity:1"/></linearGradient>
        <radialGradient id="_Radial19" cx="0" cy="0" r="1" gradientUnits="userSpaceOnUse" gradientTransform="matrix(1.3781e-14,-14.5153,19.3696,1.83897e-14,46.5,43.5)"><stop offset="0" style="stop-color:white;stop-opacity:0.38"/><stop offset="0.37" style="stop-color:white;stop-opacity:0.12"/><stop offset="0.64" style="stop-color:white;stop-opacity:0"/><stop offset="1" style="stop-color:white;stop-opacity:0"/></radialGradient>
        <linearGradient id="_Linear20" x1="0" y1="0" x2="1" y2="0" gradientUnits="userSpaceOnUse" gradientTransform="matrix(2.07768e-15,-32.4328,39.1962,2.2941e-15,46.8276,68)"><stop offset="0" style="stop-color:white;stop-opacity:1"/><stop offset="0.58" style="stop-color:rgb(86,87,87);stop-opacity:1"/><stop offset="1" style="stop-color:rgb(8,9,10);stop-opacity:1"/></linearGradient>
        <radialGradient id="_Radial21" cx="0" cy="0" r="1" gradientUnits="userSpaceOnUse" gradientTransform="matrix(-5.16885e-15,-26.8955,24,-4.21406e-15,46,41.8955)"><stop offset="0" style="stop-color:black;stop-opacity:0"/><stop offset="0.63" style="stop-color:rgb(3,4,5);stop-opacity:0.16"/><stop offset="0.83" style="stop-color:rgb(12,15,18);stop-opacity:0.55"/><stop offset="1" style="stop-color:rgb(22,28,33);stop-opacity:1"/></radialGradient>
        <linearGradient id="_Linear22" x1="0" y1="0" x2="1" y2="0" gradientUnits="userSpaceOnUse" gradientTransform="matrix(3.39523e-15,53,-55.4483,3.24531e-15,46,15)"><stop offset="0" style="stop-color:black;stop-opacity:1"/><stop offset="0.55" style="stop-color:rgb(37,38,40);stop-opacity:1"/><stop offset="1" style="stop-color:rgb(170,178,188);stop-opacity:1"/></linearGradient>
        <linearGradient id="_Linear23" x1="0" y1="0" x2="1" y2="0" gradientUnits="userSpaceOnUse" gradientTransform="matrix(3.39523e-15,-53,64.0523,3.7489e-15,46.8276,68)"><stop offset="0" style="stop-color:rgb(23,25,26);stop-opacity:1"/><stop offset="0.5" style="stop-color:rgb(67,69,69);stop-opacity:1"/><stop offset="1" style="stop-color:rgb(199,199,199);stop-opacity:1"/></linearGradient>
        <linearGradient id="_Linear24" x1="0" y1="0" x2="1" y2="0" gradientUnits="userSpaceOnUse" gradientTransform="matrix(0.154093,53,-62.6939,0.170144,46,15)"><stop offset="0" style="stop-color:rgb(180,180,180);stop-opacity:1"/><stop offset="0.54" style="stop-color:rgb(61,61,61);stop-opacity:1"/><stop offset="1" style="stop-color:rgb(15,15,15);stop-opacity:1"/></linearGradient>
        <radialGradient id="_Radial25" cx="0" cy="0" r="1" gradientUnits="userSpaceOnUse" gradientTransform="matrix(1.3781e-14,-14.5153,19.3696,1.83897e-14,46.5,43.5)"><stop offset="0" style="stop-color:white;stop-opacity:0.38"/><stop offset="0.37" style="stop-color:white;stop-opacity:0.12"/><stop offset="0.64" style="stop-color:white;stop-opacity:0"/><stop offset="1" style="stop-color:white;stop-opacity:0"/></radialGradient>
        <radialGradient id="_Radial26" cx="0" cy="0" r="1" gradientUnits="userSpaceOnUse" gradientTransform="matrix(20,0,0,35,240,45)"><stop offset="0" style="stop-color:black;stop-opacity:0"/><stop offset="0.57" style="stop-color:black;stop-opacity:0.2"/><stop offset="1" style="stop-color:black;stop-opacity:1"/></radialGradient>
        <linearGradient id="_Linear27" x1="0" y1="0" x2="1" y2="0" gradientUnits="userSpaceOnUse" gradientTransform="matrix(4.28626e-15,-70,122.5,7.50096e-15,240,80)"><stop offset="0" style="stop-color:rgb(120,126,133);stop-opacity:1"/><stop offset="0.09" style="stop-color:rgb(95,99,103);stop-opacity:1"/><stop offset="0.2" style="stop-color:rgb(88,91,95);stop-opacity:1"/><stop offset="0.48" style="stop-color:rgb(32,32,32);stop-opacity:1"/><stop offset="0.57" style="stop-color:rgb(40,41,43);stop-opacity:1"/><stop offset="0.65" style="stop-color:rgb(43,45,48);stop-opacity:1"/><stop offset="1" style="stop-color:rgb(43,43,43);stop-opacity:1"/></linearGradient>
        <linearGradient id="_Linear28" x1="0" y1="0" x2="1" y2="0" gradientUnits="userSpaceOnUse" gradientTransform="matrix(1.65061e-15,70,-30.7692,4.89251e-15,240,10)"><stop offset="0" style="stop-color:rgb(193,193,193);stop-opacity:1"/><stop offset="0.17" style="stop-color:rgb(155,155,155);stop-opacity:1"/><stop offset="0.31" style="stop-color:rgb(15,17,17);stop-opacity:1"/><stop offset="0.7" style="stop-color:rgb(184,184,184);stop-opacity:1"/><stop offset="0.87" style="stop-color:rgb(61,61,61);stop-opacity:1"/><stop offset="1" style="stop-color:rgb(7,8,8);stop-opacity:1"/></linearGradient>
        <radialGradient id="_Radial29" cx="0" cy="0" r="1" gradientUnits="userSpaceOnUse" gradientTransform="matrix(1.05263,-43.2353,19.9943,0.465554,240,45)"><stop offset="0" style="stop-color:black;stop-opacity:0.07"/><stop offset="0.56" style="stop-color:black;stop-opacity:0.13"/><stop offset="1" style="stop-color:black;stop-opacity:0.38"/></radialGradient>
        <radialGradient id="_Radial30" cx="0" cy="0" r="1" gradientUnits="userSpaceOnUse" gradientTransform="matrix(3.85217e-13,-20,26,5.42401e-13,1277,850)"><stop offset="0" style="stop-color:black;stop-opacity:0.03"/><stop offset="0.63" style="stop-color:black;stop-opacity:0.04"/><stop offset="0.83" style="stop-color:black;stop-opacity:0.08"/><stop offset="1" style="stop-color:black;stop-opacity:0.12"/></radialGradient>
        <radialGradient id="_Radial31" cx="0" cy="0" r="1" gradientUnits="userSpaceOnUse" gradientTransform="matrix(6.27019e-17,1.40902,-1.26031,1.06188e-16,239.668,26.4156)"><stop offset="0" style="stop-color:black;stop-opacity:0"/><stop offset="0.52" style="stop-color:rgb(6,7,7);stop-opacity:0.23"/><stop offset="1" style="stop-color:rgb(26,30,32);stop-opacity:1"/></radialGradient>
        <linearGradient id="_Linear32" x1="0" y1="0" x2="1" y2="0" gradientUnits="userSpaceOnUse" gradientTransform="matrix(-3.10875e-14,1.40902,-0.64,-2.67352e-14,239.668,25.5702)"><stop offset="0" style="stop-color:rgb(86,87,87);stop-opacity:1"/><stop offset="1" style="stop-color:rgb(184,185,185);stop-opacity:1"/></linearGradient>
        <radialGradient id="_Radial33" cx="0" cy="0" r="1" gradientUnits="userSpaceOnUse" gradientTransform="matrix(3.85217e-13,-20,26,5.42401e-13,1277,850)"><stop offset="0" style="stop-color:black;stop-opacity:0.03"/><stop offset="0.63" style="stop-color:black;stop-opacity:0.04"/><stop offset="0.83" style="stop-color:black;stop-opacity:0.08"/><stop offset="1" style="stop-color:black;stop-opacity:0.12"/></radialGradient>
        <radialGradient id="_Radial34" cx="0" cy="0" r="1" gradientUnits="userSpaceOnUse" gradientTransform="matrix(6.27019e-17,1.40902,-1.26031,1.06188e-16,239.668,26.4156)"><stop offset="0" style="stop-color:black;stop-opacity:0"/><stop offset="0.52" style="stop-color:rgb(6,7,7);stop-opacity:0.23"/><stop offset="1" style="stop-color:rgb(26,30,32);stop-opacity:1"/></radialGradient>
        <linearGradient id="_Linear35" x1="0" y1="0" x2="1" y2="0" gradientUnits="userSpaceOnUse" gradientTransform="matrix(-3.10875e-14,-1.40902,0.64,-2.67352e-14,239.668,26.9793)"><stop offset="0" style="stop-color:rgb(54,56,60);stop-opacity:1"/><stop offset="1" style="stop-color:rgb(29,30,33);stop-opacity:1"/></linearGradient>
    </defs>
</svg>
