<?xml version="1.0" encoding="UTF-8" standalone="no"?>
<!DOCTYPE svg PUBLIC "-//W3C//DTD SVG 1.1//EN" "http://www.w3.org/Graphics/SVG/1.1/DTD/svg11.dtd">
<svg width="160px" height="30px" viewBox="0 0 480 90" version="1.1" xmlns="http://www.w3.org/2000/svg" xmlns:xlink="http://www.w3.org/1999/xlink" xml:space="preserve" xmlns:serif="http://www.serif.com/" style="fill-rule:evenodd;clip-rule:evenodd;stroke-linejoin:round;stroke-miterlimit:2;">
    <g id="hbuttons-palmtw">
        <g id="bg" transform="matrix(6.46904,0,0,1.25479,-5669.39,-392.78)">
            <g id="bg1" serif:id="bg" transform="matrix(0.216958,0,0,0.391939,534.896,-87.5386)">
                <rect x="1574" y="1022" width="342" height="183" style="fill:url(#_Linear1);"/>
            </g>
            <g id="bg-upper-highlight" transform="matrix(2.47332,0,0,0.0885492,841.762,257.503)">
                <rect x="14" y="627" width="30" height="18" style="fill:white;fill-opacity:0.25;"/>
            </g>
        </g>
        <g id="hbutton-web-palmtw" transform="matrix(1.11111,0,0,1.11111,385,-5)">
            <g id="hbutton-palmtw" transform="matrix(0.9,0,0,0.9,-76.5,4.5)">
                <g id="recess" transform="matrix(1.0566,0,0,1.0566,-8.16981,-2.01887)">
                    <circle cx="135.5" cy="44.5" r="26.5" style="fill:url(#_Linear2);"/>
                </g>
                <g id="button-hole" transform="matrix(0.759319,0,0,0.759319,32.1123,11.2103)">
                    <circle cx="135.5" cy="44.5" r="28.973" style="fill:rgb(15,18,18);"/>
                </g>
                <g id="button" transform="matrix(1.40647,0,0,1.40642,-331.882,-377.572)">
                    <path d="M346.173,300.46C346.173,292.607 339.807,286.239 331.953,286.239C324.1,286.239 317.733,292.607 317.733,300.46C317.733,308.313 324.1,314.68 331.953,314.68C339.807,314.68 346.173,308.313 346.173,300.46Z" style="fill:url(#_Linear3);"/>
                    <path d="M346.173,300.46C346.173,292.607 339.807,286.239 331.953,286.239C324.1,286.239 317.733,292.607 317.733,300.46C317.733,308.313 324.1,314.68 331.953,314.68C339.807,314.68 346.173,308.313 346.173,300.46ZM345.225,300.46C345.225,307.789 339.283,313.732 331.953,313.732C324.624,313.732 318.681,307.789 318.681,300.46C318.681,293.131 324.624,287.187 331.953,287.187C339.283,287.187 345.225,293.131 345.225,300.46Z" style="fill:url(#_Linear4);"/>
                </g>
            </g>
            <g id="icon-web-tungsten" transform="matrix(0.482629,0,0,0.482629,-752.731,-918.923)">
                <path d="M1633.51,1995.19C1634.35,1987.79 1639.63,1981.28 1647.29,1979.23C1654.25,1977.36 1661.36,1979.67 1665.92,1984.61C1666.64,1985.34 1666.64,1985.69 1666.64,1985.95C1666.64,1986.83 1665.93,1987.54 1665.05,1987.54C1664.53,1987.54 1664.21,1987.34 1663.78,1986.91C1663.37,1986.45 1662.94,1986.02 1662.48,1985.62C1660.72,1986.9 1658.96,1988.02 1657.18,1988.97C1658.09,1990.66 1658.84,1992.47 1659.4,1994.34C1661.08,1993.65 1662.81,1992.89 1664.59,1992.06C1664.66,1990.11 1666.29,1988.54 1668.29,1988.54C1670.34,1988.54 1672,1990.17 1672,1992.19C1672,1994.2 1670.34,1995.83 1668.29,1995.83C1667.69,1995.83 1667.12,1995.69 1666.61,1995.44C1664.42,1996.42 1662.31,1997.3 1660.26,1998.09C1660.6,2000.2 1660.71,2002.33 1660.57,2004.42C1662.87,2003.29 1665.12,2001.9 1667.4,2000.26C1667.49,1999.82 1667.62,1998.93 1667.62,1998.93C1667.72,1998.15 1668.39,1997.55 1669.19,1997.55C1669.86,1997.55 1670.43,1997.96 1670.67,1998.54C1670.81,1998.87 1670.69,1999.48 1670.65,1999.78C1669.63,2006.98 1664.42,2013.23 1656.93,2015.24C1647.63,2017.73 1638.08,2012.78 1634.67,2004.04C1633.18,2004.09 1631.87,2004.05 1630.75,2003.93C1628.44,2003.7 1626.89,2003.11 1626.18,2002.41C1625.67,2001.91 1625.4,2001.36 1625.42,2000.75C1625.43,2000.17 1625.65,1999.48 1626.33,1998.79C1627.38,1997.73 1629.68,1996.46 1633.51,1995.19ZM1650.72,2010.73C1648.85,2010.98 1646.94,2011.09 1644.95,2011.04C1647.34,2012.26 1650.04,2012.87 1652.82,2012.74C1652.08,2012.12 1651.38,2011.45 1650.72,2010.73ZM1656.44,2009.46C1655.78,2009.66 1655.12,2009.85 1654.44,2010.02C1654.88,2010.4 1655.33,2010.76 1655.8,2011.1C1656.04,2010.56 1656.26,2010.02 1656.44,2009.46ZM1665.37,2005.35C1663.61,2006.42 1661.84,2007.34 1660.05,2008.12C1659.83,2009.12 1659.55,2010.09 1659.19,2011.04C1661.79,2009.72 1663.9,2007.73 1665.37,2005.35ZM1645.64,2002.56C1643.86,2002.95 1642.15,2003.26 1640.52,2003.5C1639.64,2003.63 1638.79,2003.74 1637.97,2003.82C1638.61,2005.19 1639.43,2006.43 1640.41,2007.52C1643.22,2007.92 1645.88,2008.01 1648.41,2007.82C1647.31,2006.19 1646.38,2004.42 1645.64,2002.56ZM1657.27,1999.2C1654.25,2000.27 1651.4,2001.14 1648.71,2001.83C1649.55,2003.83 1650.63,2005.7 1651.93,2007.35C1653.76,2007.01 1655.55,2006.5 1657.3,2005.84C1657.6,2003.68 1657.58,2001.43 1657.27,1999.2ZM1633.39,1996.8C1631.17,1997.85 1629.61,1998.8 1628.63,1999.62C1628.31,1999.9 1628.07,2000.16 1627.89,2000.4C1627.82,2000.51 1627.75,2000.71 1627.75,2000.71C1627.75,2000.71 1627.8,2000.6 1627.8,2000.6C1627.8,2000.6 1629.4,2001.12 1630.93,2001.16C1631.77,2001.18 1632.73,2001.15 1633.78,2001.07C1633.48,1999.64 1633.36,1998.21 1633.39,1996.8ZM1644.53,1999.22C1643.96,1997.1 1643.63,1994.92 1643.55,1992.75C1641.55,1992.83 1639.47,1992.72 1637.3,1992.42C1636.44,1995.02 1636.25,1997.87 1636.9,2000.71C1637.87,2000.57 1638.89,2000.4 1639.97,2000.2C1641.43,1999.92 1642.94,1999.6 1644.53,1999.22ZM1656.48,1995.49C1655.96,1993.69 1655.25,1991.94 1654.36,1990.32C1651.88,1991.37 1649.33,1992.1 1646.66,1992.47C1646.72,1994.46 1647.03,1996.47 1647.55,1998.42L1647.55,1998.43C1650.34,1997.66 1653.32,1996.69 1656.48,1995.49ZM1675.4,1996.2L1678.45,1996.88C1679.29,1997.07 1680.13,1996.54 1680.32,1995.7C1680.51,1994.86 1679.98,1994.02 1679.13,1993.83L1676.09,1993.15C1675.25,1992.96 1674.41,1993.49 1674.22,1994.33C1674.03,1995.17 1674.56,1996.01 1675.4,1996.2ZM1675.62,1991.02L1679.41,1989.39C1680.2,1989.05 1680.57,1988.13 1680.23,1987.34C1679.89,1986.55 1678.97,1986.18 1678.18,1986.52L1674.38,1988.15C1673.59,1988.49 1673.22,1989.41 1673.56,1990.2C1673.9,1990.99 1674.82,1991.36 1675.62,1991.02ZM1644.93,1983.48C1642.27,1984.86 1640.12,1986.95 1638.65,1989.44C1640.37,1989.63 1642.02,1989.68 1643.62,1989.61C1643.79,1987.49 1644.22,1985.42 1644.93,1983.48ZM1648.36,1983.32C1647.52,1985.17 1647,1987.19 1646.78,1989.27C1648.8,1988.94 1650.75,1988.39 1652.65,1987.62C1651.43,1985.96 1649.99,1984.49 1648.36,1983.32ZM1673.3,1985.87L1675.11,1983.16C1675.58,1982.44 1675.39,1981.47 1674.67,1980.99C1673.95,1980.51 1672.98,1980.71 1672.51,1981.42L1670.7,1984.13C1670.22,1984.85 1670.42,1985.82 1671.13,1986.3C1671.85,1986.78 1672.82,1986.58 1673.3,1985.87ZM1659.78,1983.7C1657.27,1982.3 1654.38,1981.58 1651.39,1981.73C1652.95,1983.04 1654.34,1984.58 1655.54,1986.29C1656.96,1985.55 1658.37,1984.68 1659.78,1983.7Z" style="fill:rgb(36,36,36);"/>
            </g>
        </g>
        <g id="hbutton-email-palmtw" transform="matrix(1.11111,0,0,1.11111,295,-5)">
            <g id="hbutton-palmtw1" serif:id="hbutton-palmtw" transform="matrix(0.9,0,0,0.9,-76.5,4.5)">
                <g id="recess1" serif:id="recess" transform="matrix(1.0566,0,0,1.0566,-8.16981,-2.01887)">
                    <circle cx="135.5" cy="44.5" r="26.5" style="fill:url(#_Linear5);"/>
                </g>
                <g id="button-hole1" serif:id="button-hole" transform="matrix(0.759319,0,0,0.759319,32.1123,11.2103)">
                    <circle cx="135.5" cy="44.5" r="28.973" style="fill:rgb(15,18,18);"/>
                </g>
                <g id="button1" serif:id="button" transform="matrix(1.40647,0,0,1.40642,-331.882,-377.572)">
                    <path d="M346.173,300.46C346.173,292.607 339.807,286.239 331.953,286.239C324.1,286.239 317.733,292.607 317.733,300.46C317.733,308.313 324.1,314.68 331.953,314.68C339.807,314.68 346.173,308.313 346.173,300.46Z" style="fill:url(#_Linear6);"/>
                    <path d="M346.173,300.46C346.173,292.607 339.807,286.239 331.953,286.239C324.1,286.239 317.733,292.607 317.733,300.46C317.733,308.313 324.1,314.68 331.953,314.68C339.807,314.68 346.173,308.313 346.173,300.46ZM345.225,300.46C345.225,307.789 339.283,313.732 331.953,313.732C324.624,313.732 318.681,307.789 318.681,300.46C318.681,293.131 324.624,287.187 331.953,287.187C339.283,287.187 345.225,293.131 345.225,300.46Z" style="fill:url(#_Linear7);"/>
                </g>
            </g>
            <g id="icon-email-tungsten" transform="matrix(0.548065,0,0,0.548065,-833.13,-1090.94)">
                <path d="M1588.39,2084.38L1582.14,2085.99C1581.3,2086.2 1580.8,2087.05 1581.01,2087.89C1581.23,2088.72 1582.08,2089.23 1582.92,2089.01L1589.17,2087.41C1590,2087.2 1590.51,2086.34 1590.29,2085.51C1590.08,2084.67 1589.23,2084.17 1588.39,2084.38ZM1624.84,2059.1C1624.84,2058.11 1624.41,2057.32 1623.8,2056.82C1623.16,2056.31 1622.29,2056.07 1621.32,2056.32C1621.32,2056.32 1595.46,2062.95 1595.46,2062.95C1593.95,2063.34 1592.72,2064.94 1592.72,2066.54L1592.72,2084.1C1592.72,2085.09 1593.14,2085.88 1593.75,2086.38C1594.39,2086.89 1595.26,2087.13 1596.23,2086.88C1596.23,2086.88 1622.1,2080.24 1622.1,2080.24C1623.6,2079.86 1624.84,2078.26 1624.84,2076.66C1624.84,2076.66 1624.84,2059.1 1624.84,2059.1ZM1621.5,2077.12C1621.63,2077.01 1621.72,2076.83 1621.72,2076.66L1621.72,2059.44L1596.23,2065.98C1596.01,2066.04 1595.84,2066.3 1595.84,2066.54L1595.84,2083.35L1602.53,2072.58L1598.2,2068.98C1597.53,2068.43 1597.44,2067.44 1597.99,2066.78C1598.54,2066.11 1599.53,2066.02 1600.19,2066.57L1608.49,2073.46L1616.67,2062.05C1617.18,2061.35 1618.15,2061.19 1618.86,2061.7C1619.56,2062.2 1619.72,2063.18 1619.21,2063.88L1614.9,2069.88L1621.5,2077.12ZM1613.04,2072.47L1610.05,2076.64C1609.79,2077 1609.41,2077.23 1608.98,2077.28C1608.55,2077.34 1608.11,2077.21 1607.78,2076.94L1604.96,2074.59L1599.91,2082.71L1618.12,2078.04L1613.04,2072.47ZM1588.39,2076.15L1578.78,2078.62C1577.94,2078.83 1577.44,2079.68 1577.65,2080.52C1577.87,2081.35 1578.72,2081.86 1579.56,2081.64L1589.17,2079.18C1590,2078.96 1590.51,2078.11 1590.29,2077.28C1590.08,2076.44 1589.23,2075.94 1588.39,2076.15ZM1588.39,2068.93L1582.14,2070.54C1581.3,2070.75 1580.8,2071.6 1581.01,2072.44C1581.23,2073.28 1582.08,2073.78 1582.92,2073.56L1589.17,2071.96C1590,2071.75 1590.51,2070.89 1590.29,2070.06C1590.08,2069.22 1589.23,2068.72 1588.39,2068.93Z" style="fill:rgb(36,36,36);"/>
            </g>
        </g>
        <g id="hbutton-address-book-palmtw" transform="matrix(1.11111,0,0,1.11111,85,-5)">
            <g id="hbutton-palmtw2" serif:id="hbutton-palmtw" transform="matrix(0.9,0,0,0.9,-76.5,4.5)">
                <g id="recess2" serif:id="recess" transform="matrix(1.0566,0,0,1.0566,-8.16981,-2.01887)">
                    <circle cx="135.5" cy="44.5" r="26.5" style="fill:url(#_Linear8);"/>
                </g>
                <g id="button-hole2" serif:id="button-hole" transform="matrix(0.759319,0,0,0.759319,32.1123,11.2103)">
                    <circle cx="135.5" cy="44.5" r="28.973" style="fill:rgb(15,18,18);"/>
                </g>
                <g id="button2" serif:id="button" transform="matrix(1.40647,0,0,1.40642,-331.882,-377.572)">
                    <path d="M346.173,300.46C346.173,292.607 339.807,286.239 331.953,286.239C324.1,286.239 317.733,292.607 317.733,300.46C317.733,308.313 324.1,314.68 331.953,314.68C339.807,314.68 346.173,308.313 346.173,300.46Z" style="fill:url(#_Linear9);"/>
                    <path d="M346.173,300.46C346.173,292.607 339.807,286.239 331.953,286.239C324.1,286.239 317.733,292.607 317.733,300.46C317.733,308.313 324.1,314.68 331.953,314.68C339.807,314.68 346.173,308.313 346.173,300.46ZM345.225,300.46C345.225,307.789 339.283,313.732 331.953,313.732C324.624,313.732 318.681,307.789 318.681,300.46C318.681,293.131 324.624,287.187 331.953,287.187C339.283,287.187 345.225,293.131 345.225,300.46Z" style="fill:url(#_Linear10);"/>
                </g>
            </g>
            <g id="icon-address-book-tungsten" transform="matrix(0.531688,2.95146e-17,0,0.531688,-618.71,-1027.1)">
                <path d="M1232.81,2011.11L1232.81,2031.77C1232.81,2032.63 1232.11,2033.33 1231.25,2033.33C1230.39,2033.33 1229.69,2032.63 1229.69,2031.77L1229.69,2009.9C1229.69,2009.18 1230.17,2008.56 1230.86,2008.38L1265.24,1999.53C1266.07,1999.31 1266.92,1999.82 1267.14,2000.65C1267.35,2001.49 1266.85,2002.34 1266.02,2002.56L1232.81,2011.11ZM1237.55,2031.71C1237.97,2027.49 1240.82,2023.58 1244.27,2022.69C1247.72,2021.8 1250.57,2024.25 1250.99,2028.25L1237.55,2031.71ZM1256.64,2026.32L1266.02,2023.91C1266.85,2023.69 1267.35,2022.84 1267.14,2022.01C1266.92,2021.17 1266.07,2020.67 1265.24,2020.88L1255.86,2023.3C1255.03,2023.51 1254.52,2024.37 1254.74,2025.2C1254.95,2026.04 1255.81,2026.54 1256.64,2026.32ZM1244.27,2012.27C1246.57,2011.68 1248.44,2013.07 1248.44,2015.37C1248.44,2017.66 1246.57,2020.01 1244.27,2020.6C1241.97,2021.2 1240.1,2019.81 1240.1,2017.51C1240.1,2015.21 1241.97,2012.86 1244.27,2012.27ZM1256.64,2019.55L1266.02,2017.14C1266.85,2016.92 1267.35,2016.07 1267.14,2015.24C1266.92,2014.4 1266.07,2013.9 1265.24,2014.11L1255.86,2016.53C1255.03,2016.74 1254.52,2017.59 1254.74,2018.43C1254.95,2019.27 1255.81,2019.77 1256.64,2019.55ZM1256.64,2012.78L1266.02,2010.37C1266.85,2010.15 1267.35,2009.3 1267.14,2008.46C1266.92,2007.63 1266.07,2007.13 1265.24,2007.34L1255.86,2009.76C1255.03,2009.97 1254.52,2010.82 1254.74,2011.66C1254.95,2012.49 1255.81,2013 1256.64,2012.78Z" style="fill:rgb(36,36,36);"/>
            </g>
        </g>
        <g id="hbutton-calendar-palmtw" transform="matrix(1.11111,0,0,1.11111,-5,-5)">
            <g id="hbutton-palmtw3" serif:id="hbutton-palmtw" transform="matrix(0.9,0,0,0.9,-76.5,4.5)">
                <g id="recess3" serif:id="recess" transform="matrix(1.0566,0,0,1.0566,-8.16981,-2.01887)">
                    <circle cx="135.5" cy="44.5" r="26.5" style="fill:url(#_Linear11);"/>
                </g>
                <g id="button-hole3" serif:id="button-hole" transform="matrix(0.759319,0,0,0.759319,32.1123,11.2103)">
                    <circle cx="135.5" cy="44.5" r="28.973" style="fill:rgb(15,18,18);"/>
                </g>
                <g id="button3" serif:id="button" transform="matrix(1.40647,0,0,1.40642,-331.882,-377.572)">
                    <path d="M346.173,300.46C346.173,292.607 339.807,286.239 331.953,286.239C324.1,286.239 317.733,292.607 317.733,300.46C317.733,308.313 324.1,314.68 331.953,314.68C339.807,314.68 346.173,308.313 346.173,300.46Z" style="fill:url(#_Linear12);"/>
                    <path d="M346.173,300.46C346.173,292.607 339.807,286.239 331.953,286.239C324.1,286.239 317.733,292.607 317.733,300.46C317.733,308.313 324.1,314.68 331.953,314.68C339.807,314.68 346.173,308.313 346.173,300.46ZM345.225,300.46C345.225,307.789 339.283,313.732 331.953,313.732C324.624,313.732 318.681,307.789 318.681,300.46C318.681,293.131 324.624,287.187 331.953,287.187C339.283,287.187 345.225,293.131 345.225,300.46Z" style="fill:url(#_Linear13);"/>
                </g>
            </g>
            <g id="icon-calendar-tungsten" transform="matrix(0.525527,0,0,0.525527,-521.87,-1034.01)">
                <path d="M1066.07,2047.5C1072.21,2046.01 1077.9,2050.22 1078.77,2056.91C1079.64,2063.6 1075.36,2070.24 1069.22,2071.74C1063.08,2073.23 1057.38,2069.02 1056.52,2062.33C1055.65,2055.64 1059.93,2049 1066.07,2047.5ZM1067.08,2051.63C1070.76,2050.74 1074.04,2053.45 1074.56,2057.46C1075.15,2062 1072.38,2066.6 1068.21,2067.61C1064.53,2068.51 1061.25,2065.79 1060.73,2061.78C1060.14,2057.24 1062.91,2052.65 1067.08,2051.63ZM1069.1,2059.12L1071.03,2060.77C1071.62,2061.27 1071.62,2062.33 1071.03,2063.12C1070.43,2063.92 1069.47,2064.15 1068.88,2063.65L1066.52,2061.62C1066.23,2061.37 1066.07,2060.99 1066.07,2060.55L1066.07,2055.49C1066.07,2054.57 1066.75,2053.66 1067.59,2053.46C1068.42,2053.25 1069.1,2053.83 1069.1,2054.75L1069.1,2059.12ZM1087.47,2055.86C1087.47,2055 1086.84,2054.45 1086.05,2054.64L1082.27,2055.57C1081.48,2055.76 1080.85,2056.61 1080.85,2057.47L1080.85,2060.6C1080.85,2061.46 1081.48,2062.01 1082.27,2061.82L1086.05,2060.89C1086.84,2060.7 1087.47,2059.85 1087.47,2058.99L1087.47,2055.86ZM1097.89,2053.33C1097.89,2052.46 1097.25,2051.92 1096.47,2052.11L1092.68,2053.03C1091.9,2053.22 1091.26,2054.08 1091.26,2054.94L1091.26,2058.06C1091.26,2058.93 1091.9,2059.47 1092.68,2059.28L1096.47,2058.36C1097.25,2058.17 1097.89,2057.31 1097.89,2056.45L1097.89,2053.33ZM1087.55,2046.47C1087.55,2045.6 1086.91,2045.06 1086.13,2045.25L1082.27,2046.19C1081.48,2046.38 1080.85,2047.24 1080.85,2048.1L1080.85,2051.22C1080.85,2052.09 1081.48,2052.63 1082.27,2052.44L1086.13,2051.5C1086.91,2051.31 1087.55,2050.45 1087.55,2049.59L1087.55,2046.47ZM1097.89,2043.95C1097.89,2043.09 1097.25,2042.54 1096.47,2042.73L1092.68,2043.66C1091.9,2043.85 1091.26,2044.7 1091.26,2045.56L1091.26,2048.69C1091.26,2049.55 1091.9,2050.1 1092.68,2049.91L1096.47,2048.98C1097.25,2048.79 1097.89,2047.94 1097.89,2047.08L1097.89,2043.95ZM1097.89,2035.62C1097.89,2034.76 1097.25,2034.21 1096.47,2034.4L1074.69,2039.7C1073.91,2039.89 1073.27,2040.75 1073.27,2041.61L1073.27,2043.69C1073.27,2044.55 1073.91,2045.1 1074.69,2044.91L1096.47,2039.61C1097.25,2039.42 1097.89,2038.56 1097.89,2037.7L1097.89,2035.62Z" style="fill:rgb(36,36,36);"/>
            </g>
        </g>
        <g id="button-rocker-palmtw">
            <g id="recess4" serif:id="recess" transform="matrix(1.85087,0,0,1.85082,-374.403,-561.656)">
                <path d="M350.863,327.776C350.863,317.332 342.397,308.866 331.953,308.866C321.51,308.866 313.043,317.332 313.043,327.776C313.043,338.22 321.51,346.687 331.953,346.687C342.397,346.687 350.863,338.22 350.863,327.776Z" style="fill:url(#_Linear14);fill-rule:nonzero;"/>
                <path d="M350.863,327.776C350.863,317.332 342.397,308.866 331.953,308.866C321.51,308.866 313.043,317.332 313.043,327.776C313.043,338.22 321.51,346.687 331.953,346.687C342.397,346.687 350.863,338.22 350.863,327.776ZM349.235,327.776C349.235,337.321 341.498,345.059 331.953,345.059C322.409,345.059 314.671,337.321 314.671,327.776C314.671,318.231 322.409,310.494 331.953,310.494C341.498,310.494 349.235,318.231 349.235,327.776Z" style="fill:url(#_Linear15);"/>
            </g>
            <g id="rocker-body" transform="matrix(1.9492,0,0,1.94914,-406.949,-540.573)">
                <path d="M331.937,284.009C329.379,284.009 326.956,284.592 324.796,285.633L324.796,286.516C321.921,288.002 319.569,290.354 318.08,293.229L317.124,293.229C316.076,295.395 315.488,297.826 315.488,300.394C315.488,302.952 316.071,305.375 317.112,307.534L318.066,307.534C319.538,310.393 321.862,312.737 324.707,314.23L324.707,315.207C326.874,316.255 329.305,316.844 331.873,316.844C334.431,316.844 336.853,316.26 339.014,315.218L339.014,314.33C341.915,312.856 344.294,310.505 345.801,307.623L346.686,307.623C347.735,305.457 348.322,303.026 348.322,300.458C348.322,297.9 347.739,295.478 346.698,293.318L345.878,293.318C344.391,290.398 342.014,288.01 339.103,286.507L339.103,285.645C336.936,284.596 334.506,284.009 331.937,284.009Z" style="fill:url(#_Linear16);fill-rule:nonzero;"/>
                <path d="M331.937,284.009C329.379,284.009 326.956,284.592 324.796,285.633L324.796,286.516C321.921,288.002 319.569,290.354 318.08,293.229L317.124,293.229C316.076,295.395 315.488,297.826 315.488,300.394C315.488,302.952 316.071,305.375 317.112,307.534L318.066,307.534C319.538,310.393 321.862,312.737 324.707,314.23L324.707,315.207C326.874,316.255 329.305,316.844 331.873,316.844C334.431,316.844 336.853,316.26 339.014,315.218L339.014,314.33C341.915,312.856 344.294,310.505 345.801,307.623L346.686,307.623C347.735,305.457 348.322,303.026 348.322,300.458C348.322,297.9 347.739,295.478 346.698,293.318L345.878,293.318C344.391,290.398 342.014,288.01 339.103,286.507L339.103,285.645C336.936,284.596 334.506,284.009 331.937,284.009ZM338.419,286.08C336.441,285.188 334.248,284.693 331.937,284.693C329.637,284.693 327.451,285.185 325.48,286.069L325.48,286.932L325.11,287.124C322.361,288.545 320.111,290.794 318.687,293.544L318.496,293.913L317.559,293.913C316.668,295.89 316.172,298.084 316.172,300.394C316.172,302.694 316.663,304.88 317.548,306.85L318.483,306.85L318.674,307.221C320.082,309.955 322.304,312.197 325.025,313.624L325.391,313.816L325.391,314.772C327.369,315.663 329.563,316.16 331.873,316.16C334.173,316.16 336.358,315.667 338.33,314.782L338.33,313.91L338.704,313.72C341.478,312.311 343.754,310.062 345.195,307.306L345.387,306.939L346.251,306.939C347.143,304.962 347.638,302.768 347.638,300.458C347.638,298.158 347.146,295.973 346.262,294.002L345.459,294.002L345.268,293.628C343.846,290.836 341.573,288.552 338.789,287.115L338.419,286.924L338.419,286.08Z"/>
            </g>
            <g id="rocker" transform="matrix(2.03938,0,0,2.03931,-436.979,-567.73)">
                <path d="M346.173,300.46C346.173,292.607 339.807,286.239 331.953,286.239C324.1,286.239 317.733,292.607 317.733,300.46C317.733,308.313 324.1,314.68 331.953,314.68C339.807,314.68 346.173,308.313 346.173,300.46Z" style="fill:url(#_Linear17);"/>
                <path d="M346.173,300.46C346.173,292.607 339.807,286.239 331.953,286.239C324.1,286.239 317.733,292.607 317.733,300.46C317.733,308.313 324.1,314.68 331.953,314.68C339.807,314.68 346.173,308.313 346.173,300.46ZM345.127,300.46C345.127,307.735 339.229,313.634 331.953,313.634C324.678,313.634 318.779,307.735 318.779,300.46C318.779,293.185 324.678,287.285 331.953,287.285C339.229,287.285 345.127,293.185 345.127,300.46Z" style="fill:url(#_Linear18);"/>
            </g>
            <g id="center-button-hole" transform="matrix(1.74622,0,0,1.74622,-339.662,-479.668)">
                <path d="M338.825,300.46C338.825,296.665 335.748,293.588 331.953,293.588C328.158,293.588 325.081,296.665 325.081,300.46C325.081,304.255 328.158,307.332 331.953,307.332C335.748,307.332 338.825,304.255 338.825,300.46Z"/>
            </g>
            <g id="center-button" transform="matrix(1.60252,0,0,1.60252,-291.962,-436.482)">
                <path d="M338.825,300.46C338.825,296.665 335.748,293.588 331.953,293.588C328.158,293.588 325.081,296.665 325.081,300.46C325.081,304.255 328.158,307.332 331.953,307.332C335.748,307.332 338.825,304.255 338.825,300.46Z" style="fill:url(#_Radial19);"/>
                <path d="M338.825,300.46C338.825,296.665 335.748,293.588 331.953,293.588C328.158,293.588 325.081,296.665 325.081,300.46C325.081,304.255 328.158,307.332 331.953,307.332C335.748,307.332 338.825,304.255 338.825,300.46ZM338.173,300.46C338.173,303.895 335.388,306.68 331.953,306.68C328.518,306.68 325.733,303.895 325.733,300.46C325.733,297.025 328.518,294.24 331.953,294.24C335.388,294.24 338.173,297.025 338.173,300.46Z" style="fill:url(#_Linear20);"/>
            </g>
        </g>
    </g>
    <defs>
        <linearGradient id="_Linear1" x1="0" y1="0" x2="1" y2="0" gradientUnits="userSpaceOnUse" gradientTransform="matrix(3.92652e-15,183,-12.0234,2.10103e-15,1758.77,1022)"><stop offset="0" style="stop-color:rgb(156,161,177);stop-opacity:1"/><stop offset="0.49" style="stop-color:rgb(131,135,148);stop-opacity:1"/><stop offset="1" style="stop-color:rgb(57,58,63);stop-opacity:1"/></linearGradient>
        <linearGradient id="_Linear2" x1="0" y1="0" x2="1" y2="0" gradientUnits="userSpaceOnUse" gradientTransform="matrix(3.24531e-15,53,-53,3.24531e-15,135.5,18)"><stop offset="0" style="stop-color:rgb(71,73,78);stop-opacity:1"/><stop offset="0.42" style="stop-color:rgb(99,101,110);stop-opacity:1"/><stop offset="1" style="stop-color:rgb(160,161,177);stop-opacity:1"/></linearGradient>
        <linearGradient id="_Linear3" x1="0" y1="0" x2="1" y2="0" gradientUnits="userSpaceOnUse" gradientTransform="matrix(-3.46896e-14,41.9505,-41.9497,-3.46914e-14,331.953,280.551)"><stop offset="0" style="stop-color:rgb(205,205,205);stop-opacity:1"/><stop offset="1" style="stop-color:rgb(116,116,118);stop-opacity:1"/></linearGradient>
        <linearGradient id="_Linear4" x1="0" y1="0" x2="1" y2="0" gradientUnits="userSpaceOnUse" gradientTransform="matrix(6.46086e-14,28.317,-28.3165,6.46109e-14,331.953,286.239)"><stop offset="0" style="stop-color:white;stop-opacity:1"/><stop offset="1" style="stop-color:rgb(70,70,71);stop-opacity:1"/></linearGradient>
        <linearGradient id="_Linear5" x1="0" y1="0" x2="1" y2="0" gradientUnits="userSpaceOnUse" gradientTransform="matrix(3.24531e-15,53,-53,3.24531e-15,135.5,18)"><stop offset="0" style="stop-color:rgb(71,73,78);stop-opacity:1"/><stop offset="0.42" style="stop-color:rgb(99,101,110);stop-opacity:1"/><stop offset="1" style="stop-color:rgb(160,161,177);stop-opacity:1"/></linearGradient>
        <linearGradient id="_Linear6" x1="0" y1="0" x2="1" y2="0" gradientUnits="userSpaceOnUse" gradientTransform="matrix(-3.46896e-14,41.9505,-41.9497,-3.46914e-14,331.953,280.551)"><stop offset="0" style="stop-color:rgb(205,205,205);stop-opacity:1"/><stop offset="1" style="stop-color:rgb(116,116,118);stop-opacity:1"/></linearGradient>
        <linearGradient id="_Linear7" x1="0" y1="0" x2="1" y2="0" gradientUnits="userSpaceOnUse" gradientTransform="matrix(6.46086e-14,28.317,-28.3165,6.46109e-14,331.953,286.239)"><stop offset="0" style="stop-color:white;stop-opacity:1"/><stop offset="1" style="stop-color:rgb(70,70,71);stop-opacity:1"/></linearGradient>
        <linearGradient id="_Linear8" x1="0" y1="0" x2="1" y2="0" gradientUnits="userSpaceOnUse" gradientTransform="matrix(3.24531e-15,53,-53,3.24531e-15,135.5,18)"><stop offset="0" style="stop-color:rgb(71,73,78);stop-opacity:1"/><stop offset="0.42" style="stop-color:rgb(99,101,110);stop-opacity:1"/><stop offset="1" style="stop-color:rgb(160,161,177);stop-opacity:1"/></linearGradient>
        <linearGradient id="_Linear9" x1="0" y1="0" x2="1" y2="0" gradientUnits="userSpaceOnUse" gradientTransform="matrix(-3.46896e-14,41.9505,-41.9497,-3.46914e-14,331.953,280.551)"><stop offset="0" style="stop-color:rgb(205,205,205);stop-opacity:1"/><stop offset="1" style="stop-color:rgb(116,116,118);stop-opacity:1"/></linearGradient>
        <linearGradient id="_Linear10" x1="0" y1="0" x2="1" y2="0" gradientUnits="userSpaceOnUse" gradientTransform="matrix(6.46086e-14,28.317,-28.3165,6.46109e-14,331.953,286.239)"><stop offset="0" style="stop-color:white;stop-opacity:1"/><stop offset="1" style="stop-color:rgb(70,70,71);stop-opacity:1"/></linearGradient>
        <linearGradient id="_Linear11" x1="0" y1="0" x2="1" y2="0" gradientUnits="userSpaceOnUse" gradientTransform="matrix(3.24531e-15,53,-53,3.24531e-15,135.5,18)"><stop offset="0" style="stop-color:rgb(71,73,78);stop-opacity:1"/><stop offset="0.42" style="stop-color:rgb(99,101,110);stop-opacity:1"/><stop offset="1" style="stop-color:rgb(160,161,177);stop-opacity:1"/></linearGradient>
        <linearGradient id="_Linear12" x1="0" y1="0" x2="1" y2="0" gradientUnits="userSpaceOnUse" gradientTransform="matrix(-3.46896e-14,41.9505,-41.9497,-3.46914e-14,331.953,280.551)"><stop offset="0" style="stop-color:rgb(205,205,205);stop-opacity:1"/><stop offset="1" style="stop-color:rgb(116,116,118);stop-opacity:1"/></linearGradient>
        <linearGradient id="_Linear13" x1="0" y1="0" x2="1" y2="0" gradientUnits="userSpaceOnUse" gradientTransform="matrix(6.46086e-14,28.317,-28.3165,6.46109e-14,331.953,286.239)"><stop offset="0" style="stop-color:white;stop-opacity:1"/><stop offset="1" style="stop-color:rgb(70,70,71);stop-opacity:1"/></linearGradient>
        <linearGradient id="_Linear14" x1="0" y1="0" x2="1" y2="0" gradientUnits="userSpaceOnUse" gradientTransform="matrix(4.34214e-16,37.821,-1.32961,4.34225e-16,333.476,308.866)"><stop offset="0" style="stop-color:rgb(133,136,145);stop-opacity:1"/><stop offset="0.49" style="stop-color:rgb(108,110,118);stop-opacity:1"/><stop offset="1" style="stop-color:rgb(35,36,41);stop-opacity:1"/></linearGradient>
        <linearGradient id="_Linear15" x1="0" y1="0" x2="1" y2="0" gradientUnits="userSpaceOnUse" gradientTransform="matrix(2.28272e-15,-37.2807,37.2797,2.28278e-15,331.953,346.147)"><stop offset="0" style="stop-color:rgb(162,164,171);stop-opacity:1"/><stop offset="0.49" style="stop-color:rgb(135,137,144);stop-opacity:1"/><stop offset="1" style="stop-color:rgb(55,57,65);stop-opacity:1"/></linearGradient>
        <linearGradient id="_Linear16" x1="0" y1="0" x2="1" y2="0" gradientUnits="userSpaceOnUse" gradientTransform="matrix(2.00321e-15,32.7158,-32.7148,2.00327e-15,331.905,284.009)"><stop offset="0" style="stop-color:rgb(136,136,136);stop-opacity:1"/><stop offset="1" style="stop-color:rgb(38,38,38);stop-opacity:1"/></linearGradient>
        <linearGradient id="_Linear17" x1="0" y1="0" x2="1" y2="0" gradientUnits="userSpaceOnUse" gradientTransform="matrix(1.74146e-15,-28.441,28.4405,1.74152e-15,331.953,314.68)"><stop offset="0" style="stop-color:rgb(223,223,223);stop-opacity:1"/><stop offset="1" style="stop-color:rgb(75,75,77);stop-opacity:1"/></linearGradient>
        <linearGradient id="_Linear18" x1="0" y1="0" x2="1" y2="0" gradientUnits="userSpaceOnUse" gradientTransform="matrix(6.46086e-14,28.317,-28.3165,6.46109e-14,331.953,286.239)"><stop offset="0" style="stop-color:rgb(223,223,223);stop-opacity:1"/><stop offset="1" style="stop-color:rgb(104,104,107);stop-opacity:1"/></linearGradient>
        <radialGradient id="_Radial19" cx="0" cy="0" r="1" gradientUnits="userSpaceOnUse" gradientTransform="matrix(1.14494e-13,-9.16267,9.16283,1.14496e-13,331.953,297.024)"><stop offset="0" style="stop-color:rgb(223,223,223);stop-opacity:1"/><stop offset="0.45" style="stop-color:rgb(177,177,178);stop-opacity:1"/><stop offset="1" style="stop-color:rgb(68,68,70);stop-opacity:1"/></radialGradient>
        <linearGradient id="_Linear20" x1="0" y1="0" x2="1" y2="0" gradientUnits="userSpaceOnUse" gradientTransform="matrix(8.41577e-16,13.744,-13.744,8.41577e-16,331.872,293.58)"><stop offset="0" style="stop-color:rgb(241,241,242);stop-opacity:1"/><stop offset="1" style="stop-color:rgb(61,63,71);stop-opacity:1"/></linearGradient>
    </defs>
</svg>
