<?xml version="1.0" encoding="UTF-8" standalone="no"?>
<!DOCTYPE svg PUBLIC "-//W3C//DTD SVG 1.1//EN" "http://www.w3.org/Graphics/SVG/1.1/DTD/svg11.dtd">
<svg width="480px" height="180px" viewBox="0 0 480 180" version="1.1" xmlns="http://www.w3.org/2000/svg" xmlns:xlink="http://www.w3.org/1999/xlink" xml:space="preserve" xmlns:serif="http://www.serif.com/" style="fill-rule:evenodd;clip-rule:evenodd;stroke-linejoin:round;stroke-miterlimit:2;">
    <g id="silkscreen_palmv">
        <g id="bg-color" transform="matrix(5.33333,0,0,2.68657,-592,-67.1642)">
            <rect x="111" y="25" width="90" height="67" style="fill:rgb(150,160,130);"/>
        </g>
        <g id="write-area">
            <path id="border" d="M399,10.8C399,7.047 395.953,4 392.2,4L87.8,4C84.047,4 81,7.047 81,10.8L81,167.2C81,170.953 84.047,174 87.8,174L392.2,174C395.953,174 399,170.953 399,167.2L399,10.8ZM275,7L270,15L265,7L87.8,7C85.758,7 84,8.758 84,10.8C84,10.8 84,167.2 84,167.2C84,169.242 85.758,171 87.8,171L265,171L270,163L275,171L392.2,171C394.242,171 396,169.242 396,167.2L396,10.8C396,8.758 394.242,7 392.2,7L275,7Z"/>
            <g id="abc-board" transform="matrix(1,0,0,1,0.107304,-3.05658)">
                <g transform="matrix(1,0,0,1,-0.107304,3.05658)">
                    <path d="M116.515,163.272C116.295,163.399 116.074,163.432 115.851,163.37C115.628,163.309 115.454,163.17 115.329,162.954C115.178,162.692 115.152,162.369 115.252,161.985C115.352,161.6 115.45,161.216 115.545,160.83C115.64,160.445 115.614,160.124 115.466,159.868C115.154,159.327 114.588,159.053 113.77,159.047C112.952,159.041 112.097,159.296 111.205,159.811C110.228,160.375 109.55,161.028 109.172,161.77C108.794,162.513 108.789,163.203 109.157,163.841C109.322,164.125 109.527,164.371 109.773,164.579C110.019,164.786 110.316,164.954 110.663,165.084C111.011,165.214 111.443,165.323 111.959,165.412L111.84,165.925C109.95,165.756 108.628,165.019 107.875,163.715C107.323,162.758 107.215,161.786 107.553,160.797C107.891,159.809 108.606,158.999 109.7,158.367C110.329,158.004 110.97,157.777 111.621,157.685C112.273,157.594 112.9,157.632 113.503,157.801C114.105,157.969 114.664,158.264 115.179,158.684C115.695,159.104 116.133,159.627 116.495,160.253C116.758,160.709 116.937,161.139 117.032,161.544C117.127,161.948 117.132,162.298 117.046,162.595C116.961,162.891 116.784,163.117 116.515,163.272ZM107.782,155.103C107.229,155.762 106.56,156.258 105.775,156.589C104.991,156.921 104.141,157.007 103.227,156.848C102.313,156.689 101.401,156.227 100.489,155.462C100.358,155.352 100.005,155.015 99.432,154.451C99.142,154.161 98.781,153.758 98.35,153.239L106.016,144.103C106.26,143.811 106.364,143.539 106.327,143.286C106.29,143.034 106.075,142.743 105.682,142.413L106.029,142L108.661,143.021L109.107,143.395L104.57,148.802C105.557,148.875 106.287,148.979 106.761,149.114C107.236,149.25 107.637,149.455 107.964,149.73C108.317,150.026 108.579,150.389 108.751,150.818C108.922,151.248 108.999,151.704 108.981,152.186C108.963,152.668 108.854,153.161 108.654,153.665C108.454,154.17 108.163,154.649 107.782,155.103ZM105.696,154.444C106.122,153.936 106.447,153.4 106.67,152.837C106.894,152.274 106.974,151.747 106.909,151.255C106.845,150.764 106.624,150.36 106.246,150.043C106.02,149.853 105.74,149.705 105.407,149.601C105.074,149.496 104.636,149.419 104.094,149.37L102.033,151.826C101.616,152.323 101.306,152.775 101.103,153.18C100.9,153.585 100.828,153.983 100.887,154.373C100.946,154.764 101.185,155.134 101.603,155.485C102.187,155.975 102.85,156.122 103.591,155.924C104.332,155.726 105.034,155.233 105.696,154.444ZM95.912,151.982C94.728,152.505 93.827,152.654 93.209,152.429C92.504,152.172 92.298,151.643 92.59,150.841L92.612,150.781C92.548,150.803 92.349,150.883 92.016,151.02C91.682,151.158 91.417,151.257 91.22,151.317C91.024,151.376 90.825,151.402 90.626,151.393C90.426,151.384 90.187,151.329 89.909,151.228C89.334,151.019 88.928,150.664 88.69,150.165C88.452,149.665 88.438,149.127 88.648,148.55C88.865,147.954 89.199,147.546 89.649,147.327C89.89,147.204 90.153,147.129 90.44,147.102C90.726,147.075 91.099,147.074 91.559,147.099C92.229,147.102 92.718,147.092 93.024,147.069C93.33,147.045 93.668,146.976 94.038,146.863L94.273,146.217C94.534,145.501 94.622,144.942 94.537,144.539C94.453,144.137 94.182,143.853 93.725,143.686C93.44,143.583 93.162,143.577 92.891,143.67C92.619,143.762 92.441,143.925 92.357,144.157C92.296,144.323 92.284,144.547 92.321,144.831L90.322,144.959C90.245,144.691 90.243,144.454 90.318,144.248C90.439,143.917 90.74,143.628 91.221,143.383C91.702,143.138 92.256,142.99 92.883,142.941C93.51,142.891 94.086,142.962 94.611,143.153C95.396,143.439 95.935,143.858 96.227,144.411C96.519,144.964 96.531,145.609 96.263,146.344L94.606,150.899C94.437,151.363 94.485,151.643 94.751,151.74C94.992,151.828 95.368,151.766 95.879,151.554L95.912,151.982ZM92.814,150.224L93.821,147.46C92.787,147.684 92.113,147.841 91.797,147.929C91.482,148.016 91.239,148.135 91.07,148.283C90.9,148.432 90.752,148.682 90.624,149.033C90.496,149.384 90.474,149.703 90.559,149.989C90.644,150.275 90.816,150.466 91.076,150.56C91.286,150.637 91.548,150.627 91.863,150.531C92.053,150.45 92.371,150.348 92.814,150.224Z" style="fill-rule:nonzero;"/>
                </g>
                <g transform="matrix(1,0,0,1,-296.107,3.05658)">
                    <circle cx="388" cy="163" r="4"/>
                </g>
            </g>
            <g id="number-board" transform="matrix(6.12323e-17,-1,1,6.12323e-17,222.693,255.051)">
                <g transform="matrix(6.12323e-17,1,-1,6.12323e-17,255.051,-222.693)">
                    <path d="M376.103,160.664L374.602,166.267L374.039,166.116L374.292,165.173C374.37,164.881 374.405,164.67 374.395,164.542C374.386,164.413 374.322,164.311 374.204,164.235C374.085,164.159 373.873,164.08 373.566,163.998L364.009,161.437C364.348,162.27 364.575,163.182 364.689,164.172L364.142,164.25C363.91,163.426 363.608,162.626 363.235,161.852C362.861,161.078 362.45,160.413 362,159.857L362.237,158.971L374.064,162.14C374.323,162.209 374.529,162.237 374.682,162.224C374.836,162.21 374.957,162.148 375.045,162.035C375.134,161.923 375.212,161.739 375.28,161.485L375.541,160.513L376.103,160.664ZM380.36,150.478L382.771,153.004L377.629,159.132L377.167,158.745L376.256,153.048C376.089,151.973 375.828,151.063 375.473,150.318C375.117,149.573 374.661,148.967 374.104,148.5C373.699,148.16 373.272,147.93 372.824,147.812C372.375,147.693 371.945,147.699 371.532,147.828C371.119,147.958 370.771,148.192 370.487,148.53C370.065,149.033 369.882,149.614 369.938,150.271C369.995,150.928 370.285,151.613 370.809,152.328L370.448,152.759C370.014,152.266 369.675,151.767 369.431,151.262C369.187,150.757 369.036,150.243 368.976,149.721C368.917,149.199 368.957,148.705 369.096,148.237C369.234,147.77 369.473,147.335 369.811,146.932C370.229,146.433 370.751,146.079 371.374,145.868C371.998,145.657 372.637,145.619 373.294,145.753C373.95,145.887 374.54,146.174 375.065,146.614C375.545,147.018 375.931,147.505 376.222,148.075C376.513,148.645 376.713,149.38 376.824,150.28C376.834,150.366 376.876,150.929 376.948,151.968C377.02,153.007 377.105,153.924 377.202,154.718C377.311,155.565 377.413,156.174 377.507,156.545L380.208,153.326C380.496,152.983 380.674,152.697 380.742,152.467C380.811,152.237 380.791,152.003 380.682,151.765C380.572,151.528 380.357,151.227 380.036,150.863L380.36,150.478ZM389.952,144.253C390.345,145.097 390.503,145.965 390.426,146.857C390.349,147.749 390.055,148.562 389.544,149.294C389.033,150.027 388.363,150.586 387.534,150.973C386.795,151.317 386.085,151.466 385.402,151.418C384.72,151.371 384.283,151.142 384.092,150.733C383.982,150.496 383.972,150.258 384.063,150.017C384.154,149.776 384.315,149.601 384.548,149.493C384.792,149.379 385.028,149.349 385.256,149.402C385.484,149.455 385.793,149.568 386.182,149.741C386.571,149.914 386.889,150.024 387.136,150.072C387.384,150.12 387.639,150.083 387.901,149.961C388.64,149.616 389.001,149.014 388.985,148.154C388.968,147.294 388.782,146.483 388.428,145.722C388.046,144.904 387.594,144.344 387.073,144.042C386.551,143.74 386.01,143.72 385.45,143.981C385.17,144.112 384.851,144.354 384.493,144.708L384.158,144.409C384.617,143.276 384.899,142.403 385.005,141.79C385.11,141.176 385.062,140.652 384.859,140.217C384.638,139.744 384.299,139.41 383.842,139.214C383.384,139.019 382.944,139.02 382.521,139.217C382.116,139.406 381.812,139.709 381.611,140.126C381.41,140.543 381.28,141.131 381.22,141.89L380.697,141.912C380.617,140.852 380.751,139.949 381.099,139.203C381.448,138.457 381.998,137.908 382.748,137.558C383.434,137.239 384.101,137.186 384.749,137.402C385.397,137.617 385.872,138.048 386.173,138.693C386.334,139.039 386.421,139.411 386.433,139.81C386.445,140.209 386.381,140.625 386.241,141.056C386.101,141.487 385.895,141.902 385.624,142.301L385.642,142.339C386.268,142.109 386.853,142.031 387.399,142.104C387.944,142.176 388.431,142.391 388.858,142.748C389.286,143.105 389.651,143.607 389.952,144.253Z" style="fill-rule:nonzero;"/>
                </g>
                <g transform="matrix(6.12323e-17,1,-1,6.12323e-17,255.051,-222.693)">
                    <circle cx="388" cy="163" r="4"/>
                </g>
            </g>
        </g>
        <g id="icons">
            <g id="search" transform="matrix(1,0,0,1,-5,-13)">
                <path d="M445,113C461.557,113 475,126.443 475,143C475,159.557 461.557,173 445,173C428.443,173 415,159.557 415,143C415,126.443 428.443,113 445,113ZM439.5,142.5C434.452,147.099 430.353,152.389 426.5,157.5C424,160.684 426.663,163.62 430,161C434.339,157.593 438.844,153.101 442.5,148.5C454,156 471,140 465,130.5C465,142 449,153 439.5,142.5ZM460.585,123.314C464.487,127.217 463.562,134.479 458.52,139.52C453.479,144.562 446.217,145.487 442.314,141.585C438.411,137.682 439.336,130.42 444.378,125.378C449.42,120.336 456.682,119.411 460.585,123.314ZM456,127.5C450,127.5 447,130.5 444.5,136C443.844,137.5 441.773,137 442.5,135C443.955,131 448,125 456,125C458,125 458,127.5 456,127.5Z"/>
            </g>
            <g id="calculator" transform="matrix(1,0,0,1,-5,7)">
                <path d="M445,7C461.557,7 475,20.443 475,37C475,53.557 461.557,67 445,67C428.443,67 415,53.557 415,37C415,20.443 428.443,7 445,7ZM431,39.5C429,39.5 428,40.5 428,42.5L428,51.5C428,53.5 429,54.5 431,54.5L440,54.5C442,54.5 443,53.5 443,51.5L443,42.5C443,40.5 442,39.5 440,39.5L431,39.5ZM450,39.5C448,39.5 447,40.5 447,42.5L447,51.5C447,53.5 448,54.5 450,54.5L459,54.5C461,54.5 462,53.5 462,51.5L462,42.5C462,40.5 461,39.5 459,39.5L450,39.5ZM435.493,45.586L437.615,43.464C437.986,43.093 438.658,43.093 439.029,43.464C439.4,43.836 439.4,44.508 439.029,44.879L436.908,47L439.029,49.121C439.4,49.492 439.4,50.164 439.029,50.536C438.658,50.907 437.986,50.907 437.615,50.536L435.493,48.414L433.372,50.536C433.019,50.889 432.311,50.889 431.958,50.536C431.604,50.182 431.615,49.485 431.958,49.121L434.079,47L431.958,44.879C431.604,44.525 431.604,43.818 431.958,43.464C432.311,43.111 433.008,43.121 433.372,43.464L435.493,45.586ZM458,48.5C450,48.5 451,48.5 451,48.5C450.5,48.514 450,49 450,49.5C450,50 450.5,50.5 451,50.5C459,50.5 450,50.5 458,50.5C458.525,50.5 459,50.025 459,49.5C459,48.975 458.525,48.5 458,48.5ZM458,43.5C450,43.5 451,43.5 451,43.5C450.5,43.514 450,44 450,44.5C450,45 450.5,45.5 451,45.5C459,45.5 450,45.5 458,45.5C458.525,45.5 459,45.025 459,44.5C459,43.975 458.525,43.5 458,43.5ZM450,19.5C448,19.5 447,20.5 447,22.5L447,31.5C447,33.5 448,34.5 450,34.5L459,34.5C461,34.5 462,33.5 462,31.5L462,22.5C462,20.5 461,19.5 459,19.5L450,19.5ZM431,19.5C429,19.5 428,20.5 428,22.5L428,31.5C428,33.5 429,34.5 431,34.5L440,34.5C442,34.5 443,33.5 443,31.5L443,22.5C443,20.5 442,19.5 440,19.5L431,19.5ZM454.5,30C455.328,30 456,30.672 456,31.5C456,32.328 455.328,33 454.5,33C453.672,33 453,32.328 453,31.5C453,30.672 453.672,30 454.5,30ZM434.5,26L434.5,23C434.5,22.475 434.975,22 435.5,22C436.025,22 436.5,22.475 436.5,23L436.5,26L439.5,26C440.025,26 440.5,26.475 440.5,27C440.5,27.525 440.025,28 439.5,28L436.5,28L436.5,31C436.5,31.5 436,32 435.5,32C435,32 434.514,31.5 434.5,31L434.5,28L431.5,28C431,28 430.5,27.5 430.5,27C430.5,26.5 431,26.014 431.5,26L434.5,26ZM458,26C450,26 451,26 451,26C450.5,26.014 450,26.5 450,27C450,27.5 450.5,28 451,28C459,28 450,28 458,28C458.525,28 459,27.525 459,27C459,26.475 458.525,26 458,26ZM454.5,21C455.328,21 456,21.672 456,22.5C456,23.328 455.328,24 454.5,24C453.672,24 453,23.328 453,22.5C453,21.672 453.672,21 454.5,21Z"/>
            </g>
            <g id="home" transform="matrix(1,0,0,1,5.50064,7.08893)">
                <path d="M34.499,6.911C51.057,6.911 64.499,20.354 64.499,36.911C64.499,53.469 51.057,66.911 34.499,66.911C17.942,66.911 4.499,53.469 4.499,36.911C4.499,20.354 17.942,6.911 34.499,6.911ZM40.382,58C39.439,58 38.439,57 38.439,55.993L38.439,49.5C38.439,48.5 37.53,47.5 36.439,47.5L32.499,47.5C31.408,47.5 30.499,48.5 30.499,49.5L30.499,55.993C30.499,57 29.499,58 28.556,58L19.439,58C18.439,58 17.544,56.986 17.424,55.993C16.796,50.814 16.939,47 17.424,43C17.664,41.015 27.439,29.5 31.439,25.5C32.449,24.49 33.459,23.99 34.469,24C35.479,23.99 36.489,24.49 37.499,25.5C41.499,29.5 51.274,41.015 51.514,43C51.999,47 52.142,50.814 51.514,55.993C51.394,56.986 50.499,58 49.499,58L40.382,58ZM43.499,23.477L43.499,16C43.499,15 44.499,14 45.499,14L47.499,14C48.499,14 49.499,15 49.499,16L49.499,29.832C51.454,32.031 53.372,34.305 55.186,36.542C56.368,37.999 53.906,39.941 52.724,38.484C47.306,31.773 41.143,25.375 36.47,21.006C34.992,19.549 34.007,19.549 32.529,21.006C27.856,25.375 21.693,31.773 16.275,38.484C15.093,39.941 12.63,37.999 13.812,36.542C19.395,29.659 25.962,22.428 31.544,18.092C33.42,16.636 35.579,16.636 37.455,18.092C39.379,19.587 41.421,21.426 43.499,23.477Z"/>
            </g>
            <g id="menu" transform="matrix(1,0,0,1,5.50064,-14)">
                <path d="M34.499,114C51.057,114 64.499,127.443 64.499,144C64.499,160.557 51.057,174 34.499,174C17.942,174 4.499,160.557 4.499,144C4.499,127.443 17.942,114 34.499,114ZM18,140C16.5,140 15,141.5 15,143L15,160.038C15,161.538 16.5,163.038 18,163.038L32,163.038C33.5,163.038 35,161.538 35,160.038L35,143C35,141.5 33.5,140 32,140L18,140ZM43,150C43,150 43.5,150 39.5,150C38.5,150 37,151 39,153L45,159C46.453,160.343 47.577,160.423 49,159C52,156 55,153 55,153C57,151 55.5,150 54.5,150L51,150L51,142C51,141 50,140 49,140L45,140C44,140 43,141 43,142L43,150ZM20,155.994C19,155.994 18,155.994 18,157.494C18,158.994 19,159.025 20,158.994L30,158.994C31,158.994 32,158.994 32,157.494C32,155.994 31,155.994 30,155.994L20,155.994ZM20,150C19,150 18,150 18,151.5C18,153 19,153.031 20,153L30,153C31,153 32,153 32,151.5C32,150 31,150 30,150L20,150ZM20,144C19,144 18,144 18,145.5C18,147 19,147.031 20,147L30,147C31,147 32,147 32,145.5C32,144 31,144 30,144L20,144ZM14,130C13,130 12,131 12,132L12,135C12,136 13,137 14,137L56,137C57,137 57.975,136 58,135L58,132C58,131 57,130 56,130L14,130ZM17.5,131C16,131 15.5,132 15.5,133C15.5,134 16,135 17.5,135L31.5,135C33,135 33.5,134 33.5,133C33.5,132 33,131 31.5,131C16.5,131 17.5,131 17.5,131Z"/>
            </g>
        </g>
    </g>
    <g id="silkscreen_m100_m125">
        <g id="bg-color1" serif:id="bg-color" transform="matrix(5.33333,0,0,2.68657,-592,-67.1642)">
            <rect x="111" y="25" width="90" height="67" style="fill:rgb(127,152,131);"/>
        </g>
        <g id="write-area1" serif:id="write-area">
            <path id="border1" serif:id="border" d="M389,4.012C394.398,4.265 398.735,8.603 398.988,14L399,14L399,167.2C399,170.938 395.977,173.976 392.244,174L392.2,174L87.8,174C84.047,174 81,170.953 81,167.2L81,14L81.012,14C81.265,8.603 85.602,4.265 91,4.012L91,4L389,4L389,4.012ZM84,167.2C84,169.242 85.758,171 87.8,171L265,171L270,163L275,171L392.2,171L392.224,171C394.256,170.986 396,169.234 396,167.2L396,21.845C394.094,23.792 391.437,25 388.5,25C382.705,25 378,20.295 378,14.5C378,11.563 379.208,8.906 381.155,7L275,7L270,15L265,7L98.845,7C100.792,8.906 102,11.563 102,14.5C102,20.295 97.295,25 91.5,25C88.563,25 85.906,23.792 84,21.845L84,167.2ZM91.5,7.043C95.615,7.043 98.957,10.385 98.957,14.5C98.957,18.615 95.615,21.957 91.5,21.957C87.385,21.957 84.043,18.615 84.043,14.5C84.043,10.385 87.385,7.043 91.5,7.043ZM388,7.06C384.118,7.317 381.043,10.553 381.043,14.5C381.043,18.447 384.118,21.683 388,21.94L388,7.06ZM90.927,14.018L94.399,9.775C94.739,9.359 95.353,9.298 95.769,9.638C96.184,9.978 96.246,10.592 95.905,11.008L91.797,16.029C91.63,16.233 91.387,16.361 91.124,16.383C90.861,16.405 90.601,16.319 90.403,16.146L86.75,12.95C86.346,12.596 86.305,11.981 86.659,11.576C87.013,11.172 87.628,11.131 88.032,11.485L90.927,14.018Z"/>
            <g id="abc-board1" serif:id="abc-board" transform="matrix(1,0,0,1,0.107304,-3.05658)">
                <g transform="matrix(1,0,0,1,-0.107304,3.05658)">
                    <path d="M116.515,163.272C116.295,163.399 116.074,163.432 115.851,163.37C115.628,163.309 115.454,163.17 115.329,162.954C115.178,162.692 115.152,162.369 115.252,161.985C115.352,161.6 115.45,161.216 115.545,160.83C115.64,160.445 115.614,160.124 115.466,159.868C115.154,159.327 114.588,159.053 113.77,159.047C112.952,159.041 112.097,159.296 111.205,159.811C110.228,160.375 109.55,161.028 109.172,161.77C108.794,162.513 108.789,163.203 109.157,163.841C109.322,164.125 109.527,164.371 109.773,164.579C110.019,164.786 110.316,164.954 110.663,165.084C111.011,165.214 111.443,165.323 111.959,165.412L111.84,165.925C109.95,165.756 108.628,165.019 107.875,163.715C107.323,162.758 107.215,161.786 107.553,160.797C107.891,159.809 108.606,158.999 109.7,158.367C110.329,158.004 110.97,157.777 111.621,157.685C112.273,157.594 112.9,157.632 113.503,157.801C114.105,157.969 114.664,158.264 115.179,158.684C115.695,159.104 116.133,159.627 116.495,160.253C116.758,160.709 116.937,161.139 117.032,161.544C117.127,161.948 117.132,162.298 117.046,162.595C116.961,162.891 116.784,163.117 116.515,163.272ZM107.782,155.103C107.229,155.762 106.56,156.258 105.775,156.589C104.991,156.921 104.141,157.007 103.227,156.848C102.313,156.689 101.401,156.227 100.489,155.462C100.358,155.352 100.005,155.015 99.432,154.451C99.142,154.161 98.781,153.758 98.35,153.239L106.016,144.103C106.26,143.811 106.364,143.539 106.327,143.286C106.29,143.034 106.075,142.743 105.682,142.413L106.029,142L108.661,143.021L109.107,143.395L104.57,148.802C105.557,148.875 106.287,148.979 106.761,149.114C107.236,149.25 107.637,149.455 107.964,149.73C108.317,150.026 108.579,150.389 108.751,150.818C108.922,151.248 108.999,151.704 108.981,152.186C108.963,152.668 108.854,153.161 108.654,153.665C108.454,154.17 108.163,154.649 107.782,155.103ZM105.696,154.444C106.122,153.936 106.447,153.4 106.67,152.837C106.894,152.274 106.974,151.747 106.909,151.255C106.845,150.764 106.624,150.36 106.246,150.043C106.02,149.853 105.74,149.705 105.407,149.601C105.074,149.496 104.636,149.419 104.094,149.37L102.033,151.826C101.616,152.323 101.306,152.775 101.103,153.18C100.9,153.585 100.828,153.983 100.887,154.373C100.946,154.764 101.185,155.134 101.603,155.485C102.187,155.975 102.85,156.122 103.591,155.924C104.332,155.726 105.034,155.233 105.696,154.444ZM95.912,151.982C94.728,152.505 93.827,152.654 93.209,152.429C92.504,152.172 92.298,151.643 92.59,150.841L92.612,150.781C92.548,150.803 92.349,150.883 92.016,151.02C91.682,151.158 91.417,151.257 91.22,151.317C91.024,151.376 90.825,151.402 90.626,151.393C90.426,151.384 90.187,151.329 89.909,151.228C89.334,151.019 88.928,150.664 88.69,150.165C88.452,149.665 88.438,149.127 88.648,148.55C88.865,147.954 89.199,147.546 89.649,147.327C89.89,147.204 90.153,147.129 90.44,147.102C90.726,147.075 91.099,147.074 91.559,147.099C92.229,147.102 92.718,147.092 93.024,147.069C93.33,147.045 93.668,146.976 94.038,146.863L94.273,146.217C94.534,145.501 94.622,144.942 94.537,144.539C94.453,144.137 94.182,143.853 93.725,143.686C93.44,143.583 93.162,143.577 92.891,143.67C92.619,143.762 92.441,143.925 92.357,144.157C92.296,144.323 92.284,144.547 92.321,144.831L90.322,144.959C90.245,144.691 90.243,144.454 90.318,144.248C90.439,143.917 90.74,143.628 91.221,143.383C91.702,143.138 92.256,142.99 92.883,142.941C93.51,142.891 94.086,142.962 94.611,143.153C95.396,143.439 95.935,143.858 96.227,144.411C96.519,144.964 96.531,145.609 96.263,146.344L94.606,150.899C94.437,151.363 94.485,151.643 94.751,151.74C94.992,151.828 95.368,151.766 95.879,151.554L95.912,151.982ZM92.814,150.224L93.821,147.46C92.787,147.684 92.113,147.841 91.797,147.929C91.482,148.016 91.239,148.135 91.07,148.283C90.9,148.432 90.752,148.682 90.624,149.033C90.496,149.384 90.474,149.703 90.559,149.989C90.644,150.275 90.816,150.466 91.076,150.56C91.286,150.637 91.548,150.627 91.863,150.531C92.053,150.45 92.371,150.348 92.814,150.224Z" style="fill-rule:nonzero;"/>
                </g>
                <g transform="matrix(1,0,0,1,-296.107,3.05658)">
                    <circle cx="388" cy="163" r="4"/>
                </g>
            </g>
            <g id="number-board1" serif:id="number-board" transform="matrix(6.12323e-17,-1,1,6.12323e-17,222.693,255.051)">
                <g transform="matrix(6.12323e-17,1,-1,6.12323e-17,255.051,-222.693)">
                    <path d="M376.103,160.664L374.602,166.267L374.039,166.116L374.292,165.173C374.37,164.881 374.405,164.67 374.395,164.542C374.386,164.413 374.322,164.311 374.204,164.235C374.085,164.159 373.873,164.08 373.566,163.998L364.009,161.437C364.348,162.27 364.575,163.182 364.689,164.172L364.142,164.25C363.91,163.426 363.608,162.626 363.235,161.852C362.861,161.078 362.45,160.413 362,159.857L362.237,158.971L374.064,162.14C374.323,162.209 374.529,162.237 374.682,162.224C374.836,162.21 374.957,162.148 375.045,162.035C375.134,161.923 375.212,161.739 375.28,161.485L375.541,160.513L376.103,160.664ZM380.36,150.478L382.771,153.004L377.629,159.132L377.167,158.745L376.256,153.048C376.089,151.973 375.828,151.063 375.473,150.318C375.117,149.573 374.661,148.967 374.104,148.5C373.699,148.16 373.272,147.93 372.824,147.812C372.375,147.693 371.945,147.699 371.532,147.828C371.119,147.958 370.771,148.192 370.487,148.53C370.065,149.033 369.882,149.614 369.938,150.271C369.995,150.928 370.285,151.613 370.809,152.328L370.448,152.759C370.014,152.266 369.675,151.767 369.431,151.262C369.187,150.757 369.036,150.243 368.976,149.721C368.917,149.199 368.957,148.705 369.096,148.237C369.234,147.77 369.473,147.335 369.811,146.932C370.229,146.433 370.751,146.079 371.374,145.868C371.998,145.657 372.637,145.619 373.294,145.753C373.95,145.887 374.54,146.174 375.065,146.614C375.545,147.018 375.931,147.505 376.222,148.075C376.513,148.645 376.713,149.38 376.824,150.28C376.834,150.366 376.876,150.929 376.948,151.968C377.02,153.007 377.105,153.924 377.202,154.718C377.311,155.565 377.413,156.174 377.507,156.545L380.208,153.326C380.496,152.983 380.674,152.697 380.742,152.467C380.811,152.237 380.791,152.003 380.682,151.765C380.572,151.528 380.357,151.227 380.036,150.863L380.36,150.478ZM389.952,144.253C390.345,145.097 390.503,145.965 390.426,146.857C390.349,147.749 390.055,148.562 389.544,149.294C389.033,150.027 388.363,150.586 387.534,150.973C386.795,151.317 386.085,151.466 385.402,151.418C384.72,151.371 384.283,151.142 384.092,150.733C383.982,150.496 383.972,150.258 384.063,150.017C384.154,149.776 384.315,149.601 384.548,149.493C384.792,149.379 385.028,149.349 385.256,149.402C385.484,149.455 385.793,149.568 386.182,149.741C386.571,149.914 386.889,150.024 387.136,150.072C387.384,150.12 387.639,150.083 387.901,149.961C388.64,149.616 389.001,149.014 388.985,148.154C388.968,147.294 388.782,146.483 388.428,145.722C388.046,144.904 387.594,144.344 387.073,144.042C386.551,143.74 386.01,143.72 385.45,143.981C385.17,144.112 384.851,144.354 384.493,144.708L384.158,144.409C384.617,143.276 384.899,142.403 385.005,141.79C385.11,141.176 385.062,140.652 384.859,140.217C384.638,139.744 384.299,139.41 383.842,139.214C383.384,139.019 382.944,139.02 382.521,139.217C382.116,139.406 381.812,139.709 381.611,140.126C381.41,140.543 381.28,141.131 381.22,141.89L380.697,141.912C380.617,140.852 380.751,139.949 381.099,139.203C381.448,138.457 381.998,137.908 382.748,137.558C383.434,137.239 384.101,137.186 384.749,137.402C385.397,137.617 385.872,138.048 386.173,138.693C386.334,139.039 386.421,139.411 386.433,139.81C386.445,140.209 386.381,140.625 386.241,141.056C386.101,141.487 385.895,141.902 385.624,142.301L385.642,142.339C386.268,142.109 386.853,142.031 387.399,142.104C387.944,142.176 388.431,142.391 388.858,142.748C389.286,143.105 389.651,143.607 389.952,144.253Z" style="fill-rule:nonzero;"/>
                </g>
                <g transform="matrix(6.12323e-17,1,-1,6.12323e-17,255.051,-222.693)">
                    <circle cx="388" cy="163" r="4"/>
                </g>
            </g>
        </g>
        <g id="icons1" serif:id="icons">
            <g id="search1" serif:id="search" transform="matrix(1,0,0,1,-5,-13)">
                <path d="M445,113C461.557,113 475,126.443 475,143C475,159.557 461.557,173 445,173C428.443,173 415,159.557 415,143C415,126.443 428.443,113 445,113ZM439.5,142.5C434.452,147.099 430.353,152.389 426.5,157.5C424,160.684 426.663,163.62 430,161C434.339,157.593 438.844,153.101 442.5,148.5C454,156 471,140 465,130.5C465,142 449,153 439.5,142.5ZM460.585,123.314C464.487,127.217 463.562,134.479 458.52,139.52C453.479,144.562 446.217,145.487 442.314,141.585C438.411,137.682 439.336,130.42 444.378,125.378C449.42,120.336 456.682,119.411 460.585,123.314ZM456,127.5C450,127.5 447,130.5 444.5,136C443.844,137.5 441.773,137 442.5,135C443.955,131 448,125 456,125C458,125 458,127.5 456,127.5Z"/>
            </g>
            <g id="calculator1" serif:id="calculator" transform="matrix(1,0,0,1,-5,7)">
                <path d="M445,7C461.557,7 475,20.443 475,37C475,53.557 461.557,67 445,67C428.443,67 415,53.557 415,37C415,20.443 428.443,7 445,7ZM431,39.5C429,39.5 428,40.5 428,42.5L428,51.5C428,53.5 429,54.5 431,54.5L440,54.5C442,54.5 443,53.5 443,51.5L443,42.5C443,40.5 442,39.5 440,39.5L431,39.5ZM450,39.5C448,39.5 447,40.5 447,42.5L447,51.5C447,53.5 448,54.5 450,54.5L459,54.5C461,54.5 462,53.5 462,51.5L462,42.5C462,40.5 461,39.5 459,39.5L450,39.5ZM435.493,45.586L437.615,43.464C437.986,43.093 438.658,43.093 439.029,43.464C439.4,43.836 439.4,44.508 439.029,44.879L436.908,47L439.029,49.121C439.4,49.492 439.4,50.164 439.029,50.536C438.658,50.907 437.986,50.907 437.615,50.536L435.493,48.414L433.372,50.536C433.019,50.889 432.311,50.889 431.958,50.536C431.604,50.182 431.615,49.485 431.958,49.121L434.079,47L431.958,44.879C431.604,44.525 431.604,43.818 431.958,43.464C432.311,43.111 433.008,43.121 433.372,43.464L435.493,45.586ZM458,48.5C450,48.5 451,48.5 451,48.5C450.5,48.514 450,49 450,49.5C450,50 450.5,50.5 451,50.5C459,50.5 450,50.5 458,50.5C458.525,50.5 459,50.025 459,49.5C459,48.975 458.525,48.5 458,48.5ZM458,43.5C450,43.5 451,43.5 451,43.5C450.5,43.514 450,44 450,44.5C450,45 450.5,45.5 451,45.5C459,45.5 450,45.5 458,45.5C458.525,45.5 459,45.025 459,44.5C459,43.975 458.525,43.5 458,43.5ZM450,19.5C448,19.5 447,20.5 447,22.5L447,31.5C447,33.5 448,34.5 450,34.5L459,34.5C461,34.5 462,33.5 462,31.5L462,22.5C462,20.5 461,19.5 459,19.5L450,19.5ZM431,19.5C429,19.5 428,20.5 428,22.5L428,31.5C428,33.5 429,34.5 431,34.5L440,34.5C442,34.5 443,33.5 443,31.5L443,22.5C443,20.5 442,19.5 440,19.5L431,19.5ZM454.5,30C455.328,30 456,30.672 456,31.5C456,32.328 455.328,33 454.5,33C453.672,33 453,32.328 453,31.5C453,30.672 453.672,30 454.5,30ZM434.5,26L434.5,23C434.5,22.475 434.975,22 435.5,22C436.025,22 436.5,22.475 436.5,23L436.5,26L439.5,26C440.025,26 440.5,26.475 440.5,27C440.5,27.525 440.025,28 439.5,28L436.5,28L436.5,31C436.5,31.5 436,32 435.5,32C435,32 434.514,31.5 434.5,31L434.5,28L431.5,28C431,28 430.5,27.5 430.5,27C430.5,26.5 431,26.014 431.5,26L434.5,26ZM458,26C450,26 451,26 451,26C450.5,26.014 450,26.5 450,27C450,27.5 450.5,28 451,28C459,28 450,28 458,28C458.525,28 459,27.525 459,27C459,26.475 458.525,26 458,26ZM454.5,21C455.328,21 456,21.672 456,22.5C456,23.328 455.328,24 454.5,24C453.672,24 453,23.328 453,22.5C453,21.672 453.672,21 454.5,21Z"/>
            </g>
            <g id="home1" serif:id="home" transform="matrix(1,0,0,1,5.50064,7.08893)">
                <path d="M34.499,6.911C51.057,6.911 64.499,20.354 64.499,36.911C64.499,53.469 51.057,66.911 34.499,66.911C17.942,66.911 4.499,53.469 4.499,36.911C4.499,20.354 17.942,6.911 34.499,6.911ZM40.382,58C39.439,58 38.439,57 38.439,55.993L38.439,49.5C38.439,48.5 37.53,47.5 36.439,47.5L32.499,47.5C31.408,47.5 30.499,48.5 30.499,49.5L30.499,55.993C30.499,57 29.499,58 28.556,58L19.439,58C18.439,58 17.544,56.986 17.424,55.993C16.796,50.814 16.939,47 17.424,43C17.664,41.015 27.439,29.5 31.439,25.5C32.449,24.49 33.459,23.99 34.469,24C35.479,23.99 36.489,24.49 37.499,25.5C41.499,29.5 51.274,41.015 51.514,43C51.999,47 52.142,50.814 51.514,55.993C51.394,56.986 50.499,58 49.499,58L40.382,58ZM43.499,23.477L43.499,16C43.499,15 44.499,14 45.499,14L47.499,14C48.499,14 49.499,15 49.499,16L49.499,29.832C51.454,32.031 53.372,34.305 55.186,36.542C56.368,37.999 53.906,39.941 52.724,38.484C47.306,31.773 41.143,25.375 36.47,21.006C34.992,19.549 34.007,19.549 32.529,21.006C27.856,25.375 21.693,31.773 16.275,38.484C15.093,39.941 12.63,37.999 13.812,36.542C19.395,29.659 25.962,22.428 31.544,18.092C33.42,16.636 35.579,16.636 37.455,18.092C39.379,19.587 41.421,21.426 43.499,23.477Z"/>
            </g>
            <g id="menu1" serif:id="menu" transform="matrix(1,0,0,1,5.50064,-14)">
                <path d="M34.499,114C51.057,114 64.499,127.443 64.499,144C64.499,160.557 51.057,174 34.499,174C17.942,174 4.499,160.557 4.499,144C4.499,127.443 17.942,114 34.499,114ZM18,140C16.5,140 15,141.5 15,143L15,160.038C15,161.538 16.5,163.038 18,163.038L32,163.038C33.5,163.038 35,161.538 35,160.038L35,143C35,141.5 33.5,140 32,140L18,140ZM43,150C43,150 43.5,150 39.5,150C38.5,150 37,151 39,153L45,159C46.453,160.343 47.577,160.423 49,159C52,156 55,153 55,153C57,151 55.5,150 54.5,150L51,150L51,142C51,141 50,140 49,140L45,140C44,140 43,141 43,142L43,150ZM20,155.994C19,155.994 18,155.994 18,157.494C18,158.994 19,159.025 20,158.994L30,158.994C31,158.994 32,158.994 32,157.494C32,155.994 31,155.994 30,155.994L20,155.994ZM20,150C19,150 18,150 18,151.5C18,153 19,153.031 20,153L30,153C31,153 32,153 32,151.5C32,150 31,150 30,150L20,150ZM20,144C19,144 18,144 18,145.5C18,147 19,147.031 20,147L30,147C31,147 32,147 32,145.5C32,144 31,144 30,144L20,144ZM14,130C13,130 12,131 12,132L12,135C12,136 13,137 14,137L56,137C57,137 57.975,136 58,135L58,132C58,131 57,130 56,130L14,130ZM17.5,131C16,131 15.5,132 15.5,133C15.5,134 16,135 17.5,135L31.5,135C33,135 33.5,134 33.5,133C33.5,132 33,131 31.5,131C16.5,131 17.5,131 17.5,131Z"/>
            </g>
        </g>
    </g>
    <g id="silkscreen_pilot_palmiii">
        <g id="bg-color2" serif:id="bg-color" transform="matrix(5.33333,0,0,2.68657,-592,-67.1642)">
            <rect x="111" y="25" width="90" height="67" style="fill:rgb(127,152,131);"/>
        </g>
        <g id="write-area2" serif:id="write-area">
            <path id="border2" serif:id="border" d="M399,10.8C399,7.047 395.953,4 392.2,4L87.8,4C84.047,4 81,7.047 81,10.8L81,167.2C81,170.953 84.047,174 87.8,174L392.2,174C395.953,174 399,170.953 399,167.2L399,10.8ZM275,7L270,15L265,7L87.8,7C85.758,7 84,8.758 84,10.8C84,10.8 84,167.2 84,167.2C84,169.242 85.758,171 87.8,171L265,171L270,163L275,171L392.2,171C394.242,171 396,169.242 396,167.2L396,10.8C396,8.758 394.242,7 392.2,7L275,7Z"/>
            <g id="abc-board2" serif:id="abc-board" transform="matrix(1,0,0,1,0.107304,-3.05658)">
                <g transform="matrix(1,0,0,1,-0.107304,3.05658)">
                    <path d="M116.515,163.272C116.295,163.399 116.074,163.432 115.851,163.37C115.628,163.309 115.454,163.17 115.329,162.954C115.178,162.692 115.152,162.369 115.252,161.985C115.352,161.6 115.45,161.216 115.545,160.83C115.64,160.445 115.614,160.124 115.466,159.868C115.154,159.327 114.588,159.053 113.77,159.047C112.952,159.041 112.097,159.296 111.205,159.811C110.228,160.375 109.55,161.028 109.172,161.77C108.794,162.513 108.789,163.203 109.157,163.841C109.322,164.125 109.527,164.371 109.773,164.579C110.019,164.786 110.316,164.954 110.663,165.084C111.011,165.214 111.443,165.323 111.959,165.412L111.84,165.925C109.95,165.756 108.628,165.019 107.875,163.715C107.323,162.758 107.215,161.786 107.553,160.797C107.891,159.809 108.606,158.999 109.7,158.367C110.329,158.004 110.97,157.777 111.621,157.685C112.273,157.594 112.9,157.632 113.503,157.801C114.105,157.969 114.664,158.264 115.179,158.684C115.695,159.104 116.133,159.627 116.495,160.253C116.758,160.709 116.937,161.139 117.032,161.544C117.127,161.948 117.132,162.298 117.046,162.595C116.961,162.891 116.784,163.117 116.515,163.272ZM107.782,155.103C107.229,155.762 106.56,156.258 105.775,156.589C104.991,156.921 104.141,157.007 103.227,156.848C102.313,156.689 101.401,156.227 100.489,155.462C100.358,155.352 100.005,155.015 99.432,154.451C99.142,154.161 98.781,153.758 98.35,153.239L106.016,144.103C106.26,143.811 106.364,143.539 106.327,143.286C106.29,143.034 106.075,142.743 105.682,142.413L106.029,142L108.661,143.021L109.107,143.395L104.57,148.802C105.557,148.875 106.287,148.979 106.761,149.114C107.236,149.25 107.637,149.455 107.964,149.73C108.317,150.026 108.579,150.389 108.751,150.818C108.922,151.248 108.999,151.704 108.981,152.186C108.963,152.668 108.854,153.161 108.654,153.665C108.454,154.17 108.163,154.649 107.782,155.103ZM105.696,154.444C106.122,153.936 106.447,153.4 106.67,152.837C106.894,152.274 106.974,151.747 106.909,151.255C106.845,150.764 106.624,150.36 106.246,150.043C106.02,149.853 105.74,149.705 105.407,149.601C105.074,149.496 104.636,149.419 104.094,149.37L102.033,151.826C101.616,152.323 101.306,152.775 101.103,153.18C100.9,153.585 100.828,153.983 100.887,154.373C100.946,154.764 101.185,155.134 101.603,155.485C102.187,155.975 102.85,156.122 103.591,155.924C104.332,155.726 105.034,155.233 105.696,154.444ZM95.912,151.982C94.728,152.505 93.827,152.654 93.209,152.429C92.504,152.172 92.298,151.643 92.59,150.841L92.612,150.781C92.548,150.803 92.349,150.883 92.016,151.02C91.682,151.158 91.417,151.257 91.22,151.317C91.024,151.376 90.825,151.402 90.626,151.393C90.426,151.384 90.187,151.329 89.909,151.228C89.334,151.019 88.928,150.664 88.69,150.165C88.452,149.665 88.438,149.127 88.648,148.55C88.865,147.954 89.199,147.546 89.649,147.327C89.89,147.204 90.153,147.129 90.44,147.102C90.726,147.075 91.099,147.074 91.559,147.099C92.229,147.102 92.718,147.092 93.024,147.069C93.33,147.045 93.668,146.976 94.038,146.863L94.273,146.217C94.534,145.501 94.622,144.942 94.537,144.539C94.453,144.137 94.182,143.853 93.725,143.686C93.44,143.583 93.162,143.577 92.891,143.67C92.619,143.762 92.441,143.925 92.357,144.157C92.296,144.323 92.284,144.547 92.321,144.831L90.322,144.959C90.245,144.691 90.243,144.454 90.318,144.248C90.439,143.917 90.74,143.628 91.221,143.383C91.702,143.138 92.256,142.99 92.883,142.941C93.51,142.891 94.086,142.962 94.611,143.153C95.396,143.439 95.935,143.858 96.227,144.411C96.519,144.964 96.531,145.609 96.263,146.344L94.606,150.899C94.437,151.363 94.485,151.643 94.751,151.74C94.992,151.828 95.368,151.766 95.879,151.554L95.912,151.982ZM92.814,150.224L93.821,147.46C92.787,147.684 92.113,147.841 91.797,147.929C91.482,148.016 91.239,148.135 91.07,148.283C90.9,148.432 90.752,148.682 90.624,149.033C90.496,149.384 90.474,149.703 90.559,149.989C90.644,150.275 90.816,150.466 91.076,150.56C91.286,150.637 91.548,150.627 91.863,150.531C92.053,150.45 92.371,150.348 92.814,150.224Z" style="fill-rule:nonzero;"/>
                </g>
                <g transform="matrix(1,0,0,1,-296.107,3.05658)">
                    <circle cx="388" cy="163" r="4"/>
                </g>
            </g>
            <g id="number-board2" serif:id="number-board" transform="matrix(6.12323e-17,-1,1,6.12323e-17,222.693,255.051)">
                <g transform="matrix(6.12323e-17,1,-1,6.12323e-17,255.051,-222.693)">
                    <path d="M376.103,160.664L374.602,166.267L374.039,166.116L374.292,165.173C374.37,164.881 374.405,164.67 374.395,164.542C374.386,164.413 374.322,164.311 374.204,164.235C374.085,164.159 373.873,164.08 373.566,163.998L364.009,161.437C364.348,162.27 364.575,163.182 364.689,164.172L364.142,164.25C363.91,163.426 363.608,162.626 363.235,161.852C362.861,161.078 362.45,160.413 362,159.857L362.237,158.971L374.064,162.14C374.323,162.209 374.529,162.237 374.682,162.224C374.836,162.21 374.957,162.148 375.045,162.035C375.134,161.923 375.212,161.739 375.28,161.485L375.541,160.513L376.103,160.664ZM380.36,150.478L382.771,153.004L377.629,159.132L377.167,158.745L376.256,153.048C376.089,151.973 375.828,151.063 375.473,150.318C375.117,149.573 374.661,148.967 374.104,148.5C373.699,148.16 373.272,147.93 372.824,147.812C372.375,147.693 371.945,147.699 371.532,147.828C371.119,147.958 370.771,148.192 370.487,148.53C370.065,149.033 369.882,149.614 369.938,150.271C369.995,150.928 370.285,151.613 370.809,152.328L370.448,152.759C370.014,152.266 369.675,151.767 369.431,151.262C369.187,150.757 369.036,150.243 368.976,149.721C368.917,149.199 368.957,148.705 369.096,148.237C369.234,147.77 369.473,147.335 369.811,146.932C370.229,146.433 370.751,146.079 371.374,145.868C371.998,145.657 372.637,145.619 373.294,145.753C373.95,145.887 374.54,146.174 375.065,146.614C375.545,147.018 375.931,147.505 376.222,148.075C376.513,148.645 376.713,149.38 376.824,150.28C376.834,150.366 376.876,150.929 376.948,151.968C377.02,153.007 377.105,153.924 377.202,154.718C377.311,155.565 377.413,156.174 377.507,156.545L380.208,153.326C380.496,152.983 380.674,152.697 380.742,152.467C380.811,152.237 380.791,152.003 380.682,151.765C380.572,151.528 380.357,151.227 380.036,150.863L380.36,150.478ZM389.952,144.253C390.345,145.097 390.503,145.965 390.426,146.857C390.349,147.749 390.055,148.562 389.544,149.294C389.033,150.027 388.363,150.586 387.534,150.973C386.795,151.317 386.085,151.466 385.402,151.418C384.72,151.371 384.283,151.142 384.092,150.733C383.982,150.496 383.972,150.258 384.063,150.017C384.154,149.776 384.315,149.601 384.548,149.493C384.792,149.379 385.028,149.349 385.256,149.402C385.484,149.455 385.793,149.568 386.182,149.741C386.571,149.914 386.889,150.024 387.136,150.072C387.384,150.12 387.639,150.083 387.901,149.961C388.64,149.616 389.001,149.014 388.985,148.154C388.968,147.294 388.782,146.483 388.428,145.722C388.046,144.904 387.594,144.344 387.073,144.042C386.551,143.74 386.01,143.72 385.45,143.981C385.17,144.112 384.851,144.354 384.493,144.708L384.158,144.409C384.617,143.276 384.899,142.403 385.005,141.79C385.11,141.176 385.062,140.652 384.859,140.217C384.638,139.744 384.299,139.41 383.842,139.214C383.384,139.019 382.944,139.02 382.521,139.217C382.116,139.406 381.812,139.709 381.611,140.126C381.41,140.543 381.28,141.131 381.22,141.89L380.697,141.912C380.617,140.852 380.751,139.949 381.099,139.203C381.448,138.457 381.998,137.908 382.748,137.558C383.434,137.239 384.101,137.186 384.749,137.402C385.397,137.617 385.872,138.048 386.173,138.693C386.334,139.039 386.421,139.411 386.433,139.81C386.445,140.209 386.381,140.625 386.241,141.056C386.101,141.487 385.895,141.902 385.624,142.301L385.642,142.339C386.268,142.109 386.853,142.031 387.399,142.104C387.944,142.176 388.431,142.391 388.858,142.748C389.286,143.105 389.651,143.607 389.952,144.253Z" style="fill-rule:nonzero;"/>
                </g>
                <g transform="matrix(6.12323e-17,1,-1,6.12323e-17,255.051,-222.693)">
                    <circle cx="388" cy="163" r="4"/>
                </g>
            </g>
        </g>
        <g id="icons2" serif:id="icons">
            <g transform="matrix(1,0,0,1,264.84,-52.93)">
                <g id="search-label">
                    <g transform="matrix(0.963429,0.267965,-0.267965,0.963429,65.2809,-35.0768)">
                        <g transform="matrix(10.8514,0,0,10.8514,161.147,221.624)">
                            <path d="M0.068,-0L0.068,-0.686L0.505,-0.686L0.505,-0.579L0.194,-0.579L0.194,-0.389L0.47,-0.389L0.47,-0.281L0.194,-0.281L0.194,-0L0.068,-0Z" style="fill-rule:nonzero;"/>
                        </g>
                    </g>
                    <g transform="matrix(0.992745,0.120239,-0.120239,0.992745,28.0957,-18.6706)">
                        <g transform="matrix(10.8514,0,0,10.8514,168.764,223.483)">
                            <rect x="0.068" y="-0.686" width="0.126" height="0.686" style="fill-rule:nonzero;"/>
                        </g>
                    </g>
                    <g transform="matrix(0.998873,-0.0474557,0.0474557,0.998873,-10.4381,8.49035)">
                        <g transform="matrix(10.8514,0,0,10.8514,173.591,224.075)">
                            <path d="M0.068,-0L0.068,-0.686L0.188,-0.686L0.432,-0.296C0.435,-0.291 0.439,-0.285 0.443,-0.279C0.447,-0.272 0.451,-0.264 0.455,-0.257C0.458,-0.25 0.461,-0.243 0.462,-0.238L0.467,-0.238L0.467,-0.686L0.587,-0.686L0.587,-0L0.468,-0L0.222,-0.394C0.218,-0.402 0.213,-0.412 0.206,-0.424C0.2,-0.436 0.196,-0.446 0.193,-0.454L0.188,-0.454L0.188,-0L0.068,-0Z" style="fill-rule:nonzero;"/>
                        </g>
                    </g>
                    <g transform="matrix(0.963332,-0.268311,0.268311,0.963332,-53.254,57.2002)">
                        <g transform="matrix(10.8514,0,0,10.8514,182.651,223.44)">
                            <path d="M0.068,-0L0.068,-0.686L0.315,-0.686C0.379,-0.686 0.433,-0.674 0.476,-0.65C0.52,-0.625 0.553,-0.588 0.576,-0.538C0.599,-0.487 0.61,-0.423 0.61,-0.344C0.61,-0.265 0.599,-0.201 0.576,-0.15C0.553,-0.099 0.52,-0.062 0.476,-0.037C0.433,-0.012 0.379,-0 0.314,-0L0.068,-0ZM0.194,-0.107L0.31,-0.107C0.338,-0.107 0.363,-0.111 0.384,-0.119C0.405,-0.128 0.423,-0.141 0.438,-0.158C0.452,-0.174 0.463,-0.197 0.47,-0.224C0.478,-0.251 0.482,-0.284 0.482,-0.322L0.482,-0.36C0.482,-0.399 0.478,-0.432 0.47,-0.459C0.463,-0.486 0.452,-0.509 0.438,-0.527C0.423,-0.544 0.405,-0.557 0.384,-0.566C0.363,-0.575 0.338,-0.579 0.31,-0.579L0.194,-0.579L0.194,-0.107Z" style="fill-rule:nonzero;"/>
                        </g>
                    </g>
                </g>
            </g>
            <g id="search2" serif:id="search" transform="matrix(1,0,0,1,-5,-13)">
                <path d="M445,113C461.557,113 475,126.443 475,143C475,159.557 461.557,173 445,173C428.443,173 415,159.557 415,143C415,126.443 428.443,113 445,113ZM439.5,142.5C434.452,147.099 430.353,152.389 426.5,157.5C424,160.684 426.663,163.62 430,161C434.339,157.593 438.844,153.101 442.5,148.5C454,156 471,140 465,130.5C465,142 449,153 439.5,142.5ZM460.585,123.314C464.487,127.217 463.562,134.479 458.52,139.52C453.479,144.562 446.217,145.487 442.314,141.585C438.411,137.682 439.336,130.42 444.378,125.378C449.42,120.336 456.682,119.411 460.585,123.314ZM456,127.5C450,127.5 447,130.5 444.5,136C443.844,137.5 441.773,137 442.5,135C443.955,131 448,125 456,125C458,125 458,127.5 456,127.5Z"/>
            </g>
            <g transform="matrix(1,0,0,1,264.84,-138.93)">
                <g id="calculator-label">
                    <g transform="matrix(0.609059,0.793125,-0.793125,0.609059,217.571,-31.2173)">
                        <g transform="matrix(10.8514,0,0,10.8514,140.452,205.091)">
                            <path d="M0.336,0.012C0.271,0.012 0.217,-0.001 0.173,-0.025C0.13,-0.051 0.097,-0.089 0.075,-0.141C0.052,-0.194 0.041,-0.261 0.041,-0.343C0.041,-0.464 0.067,-0.554 0.118,-0.612C0.169,-0.669 0.244,-0.698 0.341,-0.698C0.394,-0.698 0.44,-0.689 0.481,-0.67C0.521,-0.651 0.553,-0.621 0.576,-0.582C0.599,-0.543 0.61,-0.492 0.61,-0.43L0.484,-0.43C0.484,-0.465 0.478,-0.494 0.467,-0.518C0.455,-0.542 0.438,-0.56 0.417,-0.573C0.396,-0.586 0.37,-0.592 0.34,-0.592C0.302,-0.592 0.27,-0.584 0.245,-0.567C0.22,-0.55 0.201,-0.524 0.189,-0.491C0.176,-0.457 0.17,-0.415 0.17,-0.364L0.17,-0.322C0.17,-0.271 0.176,-0.228 0.188,-0.195C0.2,-0.161 0.219,-0.136 0.244,-0.119C0.269,-0.103 0.3,-0.095 0.339,-0.095C0.37,-0.095 0.397,-0.101 0.419,-0.113C0.441,-0.125 0.458,-0.143 0.47,-0.167C0.482,-0.19 0.488,-0.22 0.488,-0.255L0.61,-0.255C0.61,-0.194 0.598,-0.143 0.575,-0.104C0.551,-0.065 0.519,-0.035 0.477,-0.017C0.437,0.002 0.389,0.012 0.336,0.012Z" style="fill-rule:nonzero;"/>
                        </g>
                    </g>
                    <g transform="matrix(0.76411,0.645086,-0.645086,0.76411,171.283,-44.2221)">
                        <g transform="matrix(10.8514,0,0,10.8514,146.108,212.092)">
                            <path d="M0.003,-0L0.234,-0.686L0.394,-0.686L0.625,-0L0.491,-0L0.442,-0.15L0.18,-0.15L0.132,-0L0.003,-0ZM0.213,-0.256L0.409,-0.256L0.348,-0.453C0.346,-0.459 0.344,-0.467 0.341,-0.476C0.338,-0.485 0.335,-0.496 0.332,-0.507C0.329,-0.518 0.326,-0.53 0.323,-0.541C0.32,-0.552 0.317,-0.563 0.314,-0.572L0.308,-0.572C0.305,-0.56 0.302,-0.546 0.297,-0.531C0.292,-0.515 0.288,-0.5 0.283,-0.486C0.279,-0.472 0.276,-0.461 0.273,-0.453L0.213,-0.256Z" style="fill-rule:nonzero;"/>
                        </g>
                    </g>
                    <g transform="matrix(0.879263,0.476337,-0.476337,0.879263,122.11,-46.5988)">
                        <g transform="matrix(10.8514,0,0,10.8514,152.977,217.578)">
                            <path d="M0.068,-0L0.068,-0.686L0.194,-0.686L0.194,-0.109L0.492,-0.109L0.492,-0L0.068,-0Z" style="fill-rule:nonzero;"/>
                        </g>
                    </g>
                    <g transform="matrix(0.952786,0.303643,-0.303643,0.952786,74.613,-37.9461)">
                        <g transform="matrix(10.8514,0,0,10.8514,159.325,220.952)">
                            <path d="M0.336,0.012C0.271,0.012 0.217,-0.001 0.173,-0.025C0.13,-0.051 0.097,-0.089 0.075,-0.141C0.052,-0.194 0.041,-0.261 0.041,-0.343C0.041,-0.464 0.067,-0.554 0.118,-0.612C0.169,-0.669 0.244,-0.698 0.341,-0.698C0.394,-0.698 0.44,-0.689 0.481,-0.67C0.521,-0.651 0.553,-0.621 0.576,-0.582C0.599,-0.543 0.61,-0.492 0.61,-0.43L0.484,-0.43C0.484,-0.465 0.478,-0.494 0.467,-0.518C0.455,-0.542 0.438,-0.56 0.417,-0.573C0.396,-0.586 0.37,-0.592 0.34,-0.592C0.302,-0.592 0.27,-0.584 0.245,-0.567C0.22,-0.55 0.201,-0.524 0.189,-0.491C0.176,-0.457 0.17,-0.415 0.17,-0.364L0.17,-0.322C0.17,-0.271 0.176,-0.228 0.188,-0.195C0.2,-0.161 0.219,-0.136 0.244,-0.119C0.269,-0.103 0.3,-0.095 0.339,-0.095C0.37,-0.095 0.397,-0.101 0.419,-0.113C0.441,-0.125 0.458,-0.143 0.47,-0.167C0.482,-0.19 0.488,-0.22 0.488,-0.255L0.61,-0.255C0.61,-0.194 0.598,-0.143 0.575,-0.104C0.551,-0.065 0.519,-0.035 0.477,-0.017C0.437,0.002 0.389,0.012 0.336,0.012Z" style="fill-rule:nonzero;"/>
                        </g>
                    </g>
                    <g transform="matrix(0.996009,0.089252,-0.089252,0.996009,20.6159,-14.0988)">
                        <g transform="matrix(10.8514,0,0,10.8514,167.959,223.475)">
                            <path d="M0.322,0.012C0.269,0.012 0.223,0.003 0.184,-0.014C0.145,-0.031 0.116,-0.059 0.095,-0.097C0.074,-0.134 0.064,-0.183 0.064,-0.242L0.064,-0.686L0.189,-0.686L0.189,-0.241C0.189,-0.192 0.2,-0.156 0.223,-0.132C0.246,-0.107 0.279,-0.095 0.322,-0.095C0.365,-0.095 0.399,-0.107 0.422,-0.132C0.445,-0.156 0.457,-0.192 0.457,-0.241L0.457,-0.686L0.582,-0.686L0.582,-0.242C0.582,-0.183 0.572,-0.134 0.551,-0.097C0.53,-0.059 0.5,-0.031 0.461,-0.014C0.422,0.003 0.376,0.012 0.322,0.012Z" style="fill-rule:nonzero;"/>
                        </g>
                    </g>
                    <g transform="matrix(0.993351,-0.115129,0.115129,0.993351,-24.6158,21.8582)">
                        <g transform="matrix(10.8514,0,0,10.8514,176.919,224.028)">
                            <path d="M0.068,-0L0.068,-0.686L0.194,-0.686L0.194,-0.109L0.492,-0.109L0.492,-0L0.068,-0Z" style="fill-rule:nonzero;"/>
                        </g>
                    </g>
                    <g transform="matrix(0.952794,-0.303617,0.303617,0.952794,-59.0203,66.512)">
                        <g transform="matrix(10.8514,0,0,10.8514,184.385,223.059)">
                            <path d="M0.003,-0L0.234,-0.686L0.394,-0.686L0.625,-0L0.491,-0L0.442,-0.15L0.18,-0.15L0.132,-0L0.003,-0ZM0.213,-0.256L0.409,-0.256L0.348,-0.453C0.346,-0.459 0.344,-0.467 0.341,-0.476C0.338,-0.485 0.335,-0.496 0.332,-0.507C0.329,-0.518 0.326,-0.53 0.323,-0.541C0.32,-0.552 0.317,-0.563 0.314,-0.572L0.308,-0.572C0.305,-0.56 0.302,-0.546 0.297,-0.531C0.292,-0.515 0.288,-0.5 0.283,-0.486C0.279,-0.472 0.276,-0.461 0.273,-0.453L0.213,-0.256Z" style="fill-rule:nonzero;"/>
                        </g>
                    </g>
                    <g transform="matrix(0.880166,-0.474665,0.474665,0.880166,-81.664,117.529)">
                        <g transform="matrix(10.8514,0,0,10.8514,191.937,220.502)">
                            <path d="M0.217,-0L0.217,-0.578L0.021,-0.578L0.021,-0.686L0.538,-0.686L0.538,-0.578L0.342,-0.578L0.342,-0L0.217,-0Z" style="fill-rule:nonzero;"/>
                        </g>
                    </g>
                    <g transform="matrix(0.764089,-0.645111,0.645111,0.764089,-92.941,179.322)">
                        <g transform="matrix(10.8514,0,0,10.8514,198.712,216.737)">
                            <path d="M0.35,0.012C0.285,0.012 0.23,-0.001 0.184,-0.026C0.137,-0.051 0.102,-0.09 0.078,-0.143C0.053,-0.196 0.041,-0.262 0.041,-0.343C0.041,-0.424 0.053,-0.491 0.078,-0.544C0.102,-0.596 0.137,-0.635 0.184,-0.66C0.23,-0.685 0.285,-0.698 0.35,-0.698C0.415,-0.698 0.47,-0.685 0.516,-0.66C0.562,-0.635 0.597,-0.596 0.622,-0.544C0.646,-0.491 0.658,-0.424 0.658,-0.343C0.658,-0.262 0.646,-0.196 0.622,-0.143C0.597,-0.09 0.562,-0.051 0.516,-0.026C0.47,-0.001 0.415,0.012 0.35,0.012ZM0.35,-0.095C0.379,-0.095 0.405,-0.1 0.428,-0.11C0.45,-0.119 0.469,-0.134 0.484,-0.153C0.499,-0.172 0.511,-0.195 0.519,-0.224C0.526,-0.252 0.53,-0.285 0.53,-0.322L0.53,-0.364C0.53,-0.401 0.526,-0.434 0.519,-0.463C0.511,-0.492 0.499,-0.516 0.484,-0.535C0.469,-0.554 0.45,-0.568 0.428,-0.578C0.405,-0.587 0.379,-0.592 0.35,-0.592C0.32,-0.592 0.294,-0.587 0.272,-0.578C0.249,-0.568 0.231,-0.554 0.216,-0.535C0.201,-0.516 0.189,-0.492 0.182,-0.463C0.174,-0.434 0.17,-0.401 0.17,-0.364L0.17,-0.322C0.17,-0.285 0.174,-0.252 0.182,-0.224C0.189,-0.195 0.201,-0.172 0.216,-0.153C0.231,-0.134 0.249,-0.119 0.272,-0.11C0.294,-0.1 0.32,-0.095 0.35,-0.095Z" style="fill-rule:nonzero;"/>
                        </g>
                    </g>
                    <g transform="matrix(0.597367,-0.801968,0.801968,0.597367,-85.8474,249.804)">
                        <g transform="matrix(10.8514,0,0,10.8514,205.858,210.398)">
                            <path d="M0.068,-0L0.068,-0.686L0.379,-0.686C0.429,-0.686 0.47,-0.677 0.501,-0.66C0.533,-0.643 0.556,-0.618 0.571,-0.587C0.586,-0.556 0.593,-0.52 0.593,-0.479C0.593,-0.434 0.584,-0.395 0.567,-0.361C0.55,-0.326 0.524,-0.301 0.489,-0.284L0.618,-0L0.483,-0L0.369,-0.256L0.194,-0.256L0.194,-0L0.068,-0ZM0.194,-0.362L0.366,-0.362C0.399,-0.362 0.424,-0.372 0.441,-0.392C0.458,-0.412 0.466,-0.44 0.466,-0.475C0.466,-0.498 0.462,-0.518 0.455,-0.533C0.448,-0.548 0.437,-0.56 0.422,-0.568C0.407,-0.575 0.388,-0.579 0.365,-0.579L0.194,-0.579L0.194,-0.362Z" style="fill-rule:nonzero;"/>
                        </g>
                    </g>
                </g>
            </g>
            <g id="calculator2" serif:id="calculator" transform="matrix(2.11461,0,0,2.10659,-230.727,-85.0099)">
                <path d="M317.188,75.482C325.022,75.482 331.374,69.106 331.374,61.24C331.374,53.376 325.022,47 317.188,47C309.352,47 303,53.376 303,61.24C303,69.106 309.352,75.482 317.188,75.482ZM312.27,64.472C314.191,67.131 314.966,69.791 315.19,72.45C317.867,71.902 320.431,71.059 322.84,69.812C322.589,66.35 321.703,63.413 320.291,60.912C317.848,62.053 315.159,63.243 312.27,64.472ZM318.465,65.896C318.806,64.946 319.096,63.961 319.318,62.978C319.394,62.644 319.726,62.435 320.06,62.51C320.394,62.586 320.603,62.918 320.528,63.252C320.271,64.385 319.93,65.521 319.524,66.609C320.313,67.197 321.081,67.906 321.783,68.76C322,69.025 321.962,69.416 321.697,69.633C321.433,69.85 321.042,69.812 320.824,69.548C320.268,68.87 319.666,68.294 319.044,67.804C318.53,68.997 317.943,70.103 317.315,71.044C317.125,71.329 316.74,71.406 316.455,71.216C316.171,71.026 316.094,70.641 316.284,70.356C316.915,69.409 317.502,68.285 318.009,67.072C317.056,66.471 316.091,66.045 315.203,65.744C314.879,65.634 314.705,65.282 314.815,64.958C314.924,64.634 315.277,64.46 315.601,64.57C316.509,64.877 317.489,65.305 318.465,65.896ZM322.098,60.273C324.829,58.948 326.702,57.768 327.379,56.792C328.46,59.06 328.873,61.792 328.614,64.934C327.814,66.837 326.257,68.125 324.385,69.154C323.962,65.945 323.324,63.046 322.098,60.273ZM327.008,62.878C326.724,63.463 326.054,63.902 324.693,64.606C324.389,64.764 324.27,65.138 324.427,65.442C324.585,65.746 324.959,65.865 325.263,65.708C326.955,64.832 327.77,64.147 328.123,63.42C328.273,63.112 328.144,62.741 327.837,62.591C327.529,62.442 327.157,62.57 327.008,62.878ZM326.778,60.107C325.979,60.936 325.229,61.549 323.926,62.125C323.613,62.263 323.471,62.63 323.609,62.943C323.748,63.256 324.114,63.398 324.427,63.259C325.895,62.61 326.772,61.901 327.671,60.967C327.908,60.721 327.901,60.328 327.655,60.091C327.408,59.853 327.015,59.861 326.778,60.107ZM305.825,56.265C308.14,57.839 309.964,59.982 311.296,62.692C314.106,61.564 316.718,60.28 319.081,58.802C317.443,55.799 315.416,53.26 312.974,51.218C310.591,52.519 308.208,54.177 305.825,56.265ZM311.994,56.261C311.682,55.99 311.349,55.748 310.995,55.534C310.702,55.357 310.608,54.976 310.785,54.683C310.962,54.39 311.344,54.296 311.637,54.473C312.15,54.783 312.626,55.144 313.063,55.555C313.618,55.233 314.197,54.965 314.802,54.768C315.127,54.662 315.477,54.84 315.583,55.166C315.689,55.491 315.511,55.841 315.185,55.947C314.75,56.089 314.33,56.274 313.925,56.492C314.454,57.156 314.912,57.915 315.297,58.771C315.437,59.083 315.298,59.45 314.986,59.591C314.674,59.731 314.306,59.592 314.166,59.28C313.804,58.477 313.372,57.768 312.867,57.157C312.314,57.554 311.788,58.005 311.284,58.486C311.036,58.722 310.643,58.712 310.407,58.464C310.171,58.217 310.181,57.824 310.428,57.588C310.928,57.111 311.449,56.663 311.994,56.261ZM314.693,50.496C317.249,52.818 319.657,55.278 321.141,58.037C323.159,57.361 324.938,56.419 326.331,55.044C324.861,52.173 323.147,50.014 320.962,49.24C318.955,48.784 314.693,50.496 314.693,50.496ZM323.393,55.316C323.704,55.042 323.667,54.491 323.313,54.083C322.959,53.677 322.418,53.568 322.107,53.842C321.796,54.113 321.831,54.666 322.187,55.072C322.541,55.478 323.08,55.587 323.393,55.316ZM319.89,54.042C321.039,53.033 321.922,52.786 323.233,52.647C323.574,52.611 323.821,52.306 323.785,51.965C323.749,51.625 323.443,51.378 323.103,51.414C321.52,51.581 320.459,51.892 319.072,53.11C318.814,53.336 318.789,53.728 319.015,53.985C319.24,54.242 319.632,54.268 319.89,54.042ZM320.495,51.76C320.802,51.492 320.763,50.942 320.407,50.537C320.053,50.131 319.518,50.018 319.209,50.286C318.902,50.556 318.941,51.104 319.297,51.512C319.651,51.918 320.188,52.03 320.495,51.76Z"/>
            </g>
            <g transform="matrix(1,0,0,1,-135.16,-52.93)">
                <g id="menu-label">
                    <g transform="matrix(0.949684,0.31321,-0.31321,0.949684,77.0513,-38.4804)">
                        <g transform="matrix(10.8514,0,0,10.8514,158.293,220.576)">
                            <path d="M0.069,-0L0.069,-0.686L0.261,-0.686L0.359,-0.303C0.362,-0.292 0.366,-0.278 0.37,-0.263C0.373,-0.247 0.377,-0.232 0.38,-0.217C0.383,-0.202 0.386,-0.188 0.388,-0.177L0.395,-0.177C0.396,-0.186 0.398,-0.198 0.401,-0.212C0.404,-0.226 0.407,-0.241 0.41,-0.257C0.413,-0.273 0.417,-0.288 0.42,-0.303L0.519,-0.686L0.709,-0.686L0.709,-0L0.585,-0L0.585,-0.372C0.585,-0.395 0.585,-0.419 0.586,-0.444C0.587,-0.468 0.588,-0.489 0.589,-0.507C0.59,-0.525 0.59,-0.537 0.59,-0.542L0.582,-0.542C0.581,-0.536 0.579,-0.525 0.575,-0.508C0.57,-0.491 0.566,-0.473 0.561,-0.454C0.556,-0.435 0.552,-0.418 0.548,-0.403L0.442,-0L0.331,-0L0.225,-0.403C0.222,-0.414 0.219,-0.428 0.215,-0.445C0.211,-0.461 0.207,-0.478 0.203,-0.496C0.199,-0.513 0.195,-0.529 0.192,-0.542L0.184,-0.542C0.185,-0.527 0.185,-0.51 0.186,-0.49C0.187,-0.469 0.187,-0.449 0.188,-0.428C0.189,-0.407 0.189,-0.389 0.189,-0.372L0.189,-0L0.069,-0Z" style="fill-rule:nonzero;"/>
                        </g>
                    </g>
                    <g transform="matrix(0.996354,0.0853189,-0.0853189,0.996354,19.6837,-13.5413)">
                        <g transform="matrix(10.8514,0,0,10.8514,168.266,223.516)">
                            <path d="M0.068,-0L0.068,-0.686L0.546,-0.686L0.546,-0.579L0.194,-0.579L0.194,-0.404L0.505,-0.404L0.505,-0.296L0.194,-0.296L0.194,-0.107L0.551,-0.107L0.551,-0L0.068,-0Z" style="fill-rule:nonzero;"/>
                        </g>
                    </g>
                    <g transform="matrix(0.992557,-0.121781,0.121781,0.992557,-25.9734,23.1844)">
                        <g transform="matrix(10.8514,0,0,10.8514,176.683,224.079)">
                            <path d="M0.068,-0L0.068,-0.686L0.188,-0.686L0.432,-0.296C0.435,-0.291 0.439,-0.285 0.443,-0.279C0.447,-0.272 0.451,-0.264 0.455,-0.257C0.458,-0.25 0.461,-0.243 0.462,-0.238L0.467,-0.238L0.467,-0.686L0.587,-0.686L0.587,-0L0.468,-0L0.222,-0.394C0.218,-0.402 0.213,-0.412 0.206,-0.424C0.2,-0.436 0.196,-0.446 0.193,-0.454L0.188,-0.454L0.188,-0L0.068,-0Z" style="fill-rule:nonzero;"/>
                        </g>
                    </g>
                    <g transform="matrix(0.941665,-0.336551,0.336551,0.941665,-64.136,75.4821)">
                        <g transform="matrix(10.8514,0,0,10.8514,185.671,222.751)">
                            <path d="M0.322,0.012C0.269,0.012 0.223,0.003 0.184,-0.014C0.145,-0.031 0.116,-0.059 0.095,-0.097C0.074,-0.134 0.064,-0.183 0.064,-0.242L0.064,-0.686L0.189,-0.686L0.189,-0.241C0.189,-0.192 0.2,-0.156 0.223,-0.132C0.246,-0.107 0.279,-0.095 0.322,-0.095C0.365,-0.095 0.399,-0.107 0.422,-0.132C0.445,-0.156 0.457,-0.192 0.457,-0.241L0.457,-0.686L0.582,-0.686L0.582,-0.242C0.582,-0.183 0.572,-0.134 0.551,-0.097C0.53,-0.059 0.5,-0.031 0.461,-0.014C0.422,0.003 0.376,0.012 0.322,0.012Z" style="fill-rule:nonzero;"/>
                        </g>
                    </g>
                </g>
            </g>
            <g id="menu2" serif:id="menu" transform="matrix(2.11476,0,0,2.10645,-309.329,-93.793)">
                <path d="M165.186,92C173.015,92 179.372,98.382 179.372,106.242C179.372,114.102 173.015,120.484 165.186,120.484C157.357,120.484 151,114.102 151,106.242C151,98.382 157.357,92 165.186,92ZM158.96,106.708C161.384,108.887 162.787,111.418 164.347,116.425C165.493,115.472 170.333,112.065 175.258,110.644C174.328,106.615 172.479,103.787 170.095,101.659C166.886,102.246 162.449,104.388 158.96,106.708ZM165.19,113.139C166.194,112.457 167.456,111.76 168.736,111.238C169.053,111.109 169.205,110.747 169.076,110.43C168.947,110.113 168.585,109.961 168.268,110.09C166.905,110.645 165.561,111.387 164.493,112.113C164.21,112.306 164.136,112.692 164.329,112.975C164.521,113.258 164.907,113.331 165.19,113.139ZM163.808,110.329C165.012,109.309 166.508,108.513 167.779,108.083C168.103,107.973 168.277,107.621 168.167,107.297C168.057,106.973 167.705,106.799 167.381,106.908C165.981,107.383 164.333,108.259 163.006,109.383C162.745,109.605 162.713,109.996 162.934,110.257C163.155,110.518 163.547,110.551 163.808,110.329ZM172.412,110.016C172.73,109.897 173.058,109.813 173.262,109.77C173.596,109.7 173.811,109.371 173.741,109.036C173.671,108.701 173.341,108.486 173.007,108.556C172.761,108.608 172.364,108.71 171.98,108.853C171.659,108.972 171.495,109.33 171.614,109.65C171.734,109.971 172.091,110.135 172.412,110.016ZM162.103,107.709C163.242,106.929 165.045,106.158 165.792,105.87C166.111,105.747 166.27,105.388 166.147,105.068C166.024,104.749 165.665,104.59 165.346,104.713C164.547,105.021 162.621,105.851 161.402,106.686C161.12,106.879 161.047,107.266 161.241,107.548C161.434,107.83 161.82,107.903 162.103,107.709ZM170.746,106.975C171.082,106.857 171.372,106.766 171.588,106.728C171.925,106.667 172.149,106.344 172.088,106.007C172.027,105.67 171.704,105.446 171.367,105.507C171.104,105.555 170.747,105.661 170.335,105.805C170.012,105.918 169.842,106.272 169.955,106.595C170.069,106.918 170.423,107.088 170.746,106.975ZM176.092,99.829C169.71,100.102 162.937,102.278 156.54,106.466L153.218,102.768C159.152,98.23 165.528,95.735 172.474,95.873C173.942,96.916 175.179,98.266 176.092,99.829ZM157.337,104.74L155.175,102.481C157.03,101.113 159.373,99.831 161.752,98.813L163.865,101.398C162.075,102.006 159.738,103.171 157.337,104.74ZM168.989,104.687C169.354,104.553 169.617,104.472 169.791,104.45C170.13,104.407 170.371,104.096 170.328,103.757C170.285,103.417 169.975,103.176 169.635,103.219C169.403,103.249 169.048,103.344 168.56,103.524C168.239,103.642 168.074,103.999 168.193,104.32C168.311,104.641 168.668,104.806 168.989,104.687Z"/>
            </g>
            <g transform="matrix(1,0,0,1,-135.16,-138.93)">
                <g id="applications-label">
                    <g transform="matrix(0.500795,0.865566,-0.865566,0.500795,242.391,-19.2907)">
                        <g transform="matrix(10.8514,0,0,10.8514,137.919,200.494)">
                            <path d="M0.003,-0L0.234,-0.686L0.394,-0.686L0.625,-0L0.491,-0L0.442,-0.15L0.18,-0.15L0.132,-0L0.003,-0ZM0.213,-0.256L0.409,-0.256L0.348,-0.453C0.346,-0.459 0.344,-0.467 0.341,-0.476C0.338,-0.485 0.335,-0.496 0.332,-0.507C0.329,-0.518 0.326,-0.53 0.323,-0.541C0.32,-0.552 0.317,-0.563 0.314,-0.572L0.308,-0.572C0.305,-0.56 0.302,-0.546 0.297,-0.531C0.292,-0.515 0.288,-0.5 0.283,-0.486C0.279,-0.472 0.276,-0.461 0.273,-0.453L0.213,-0.256Z" style="fill-rule:nonzero;"/>
                        </g>
                    </g>
                    <g transform="matrix(0.674539,0.738239,-0.738239,0.674539,199.933,-37.5019)">
                        <g transform="matrix(10.8514,0,0,10.8514,142.499,208.001)">
                            <path d="M0.068,-0L0.068,-0.686L0.368,-0.686C0.417,-0.686 0.457,-0.677 0.488,-0.659C0.519,-0.641 0.542,-0.616 0.557,-0.584C0.572,-0.551 0.579,-0.513 0.579,-0.469C0.579,-0.424 0.571,-0.385 0.555,-0.352C0.539,-0.319 0.515,-0.293 0.484,-0.274C0.452,-0.255 0.412,-0.246 0.364,-0.246L0.194,-0.246L0.194,-0L0.068,-0ZM0.194,-0.353L0.354,-0.353C0.386,-0.353 0.41,-0.363 0.427,-0.384C0.444,-0.404 0.452,-0.432 0.452,-0.467C0.452,-0.492 0.448,-0.513 0.441,-0.53C0.434,-0.546 0.423,-0.558 0.408,-0.567C0.393,-0.575 0.374,-0.579 0.351,-0.579L0.194,-0.579L0.194,-0.353Z" style="fill-rule:nonzero;"/>
                        </g>
                    </g>
                    <g transform="matrix(0.81103,0.585004,-0.585004,0.81103,153.322,-46.3083)">
                        <g transform="matrix(10.8514,0,0,10.8514,148.341,214.17)">
                            <path d="M0.068,-0L0.068,-0.686L0.368,-0.686C0.417,-0.686 0.457,-0.677 0.488,-0.659C0.519,-0.641 0.542,-0.616 0.557,-0.584C0.572,-0.551 0.579,-0.513 0.579,-0.469C0.579,-0.424 0.571,-0.385 0.555,-0.352C0.539,-0.319 0.515,-0.293 0.484,-0.274C0.452,-0.255 0.412,-0.246 0.364,-0.246L0.194,-0.246L0.194,-0L0.068,-0ZM0.194,-0.353L0.354,-0.353C0.386,-0.353 0.41,-0.363 0.427,-0.384C0.444,-0.404 0.452,-0.432 0.452,-0.467C0.452,-0.492 0.448,-0.513 0.441,-0.53C0.434,-0.546 0.423,-0.558 0.408,-0.567C0.393,-0.575 0.374,-0.579 0.351,-0.579L0.194,-0.579L0.194,-0.353Z" style="fill-rule:nonzero;"/>
                        </g>
                    </g>
                    <g transform="matrix(0.909303,0.416135,-0.416135,0.909303,105.218,-44.7832)">
                        <g transform="matrix(10.8514,0,0,10.8514,155.346,218.988)">
                            <path d="M0.068,-0L0.068,-0.686L0.194,-0.686L0.194,-0.109L0.492,-0.109L0.492,-0L0.068,-0Z" style="fill-rule:nonzero;"/>
                        </g>
                    </g>
                    <g transform="matrix(0.960132,0.279545,-0.279545,0.960132,68.5091,-36.5244)">
                        <g transform="matrix(10.8514,0,0,10.8514,162.307,221.926)">
                            <rect x="0.068" y="-0.686" width="0.126" height="0.686" style="fill-rule:nonzero;"/>
                        </g>
                    </g>
                    <g transform="matrix(0.993618,0.112801,-0.112801,0.993618,26.2532,-17.4094)">
                        <g transform="matrix(10.8514,0,0,10.8514,166.971,223.291)">
                            <path d="M0.336,0.012C0.271,0.012 0.217,-0.001 0.173,-0.025C0.13,-0.051 0.097,-0.089 0.075,-0.141C0.052,-0.194 0.041,-0.261 0.041,-0.343C0.041,-0.464 0.067,-0.554 0.118,-0.612C0.169,-0.669 0.244,-0.698 0.341,-0.698C0.394,-0.698 0.44,-0.689 0.481,-0.67C0.521,-0.651 0.553,-0.621 0.576,-0.582C0.599,-0.543 0.61,-0.492 0.61,-0.43L0.484,-0.43C0.484,-0.465 0.478,-0.494 0.467,-0.518C0.455,-0.542 0.438,-0.56 0.417,-0.573C0.396,-0.586 0.37,-0.592 0.34,-0.592C0.302,-0.592 0.27,-0.584 0.245,-0.567C0.22,-0.55 0.201,-0.524 0.189,-0.491C0.176,-0.457 0.17,-0.415 0.17,-0.364L0.17,-0.322C0.17,-0.271 0.176,-0.228 0.188,-0.195C0.2,-0.161 0.219,-0.136 0.244,-0.119C0.269,-0.103 0.3,-0.095 0.339,-0.095C0.37,-0.095 0.397,-0.101 0.419,-0.113C0.441,-0.125 0.458,-0.143 0.47,-0.167C0.482,-0.19 0.488,-0.22 0.488,-0.255L0.61,-0.255C0.61,-0.194 0.598,-0.143 0.575,-0.104C0.551,-0.065 0.519,-0.035 0.477,-0.017C0.437,0.002 0.389,0.012 0.336,0.012Z" style="fill-rule:nonzero;"/>
                        </g>
                    </g>
                    <g transform="matrix(0.994964,-0.100233,0.100233,0.994964,-21.5748,18.7628)">
                        <g transform="matrix(10.8514,0,0,10.8514,175.934,224.086)">
                            <path d="M0.003,-0L0.234,-0.686L0.394,-0.686L0.625,-0L0.491,-0L0.442,-0.15L0.18,-0.15L0.132,-0L0.003,-0ZM0.213,-0.256L0.409,-0.256L0.348,-0.453C0.346,-0.459 0.344,-0.467 0.341,-0.476C0.338,-0.485 0.335,-0.496 0.332,-0.507C0.329,-0.518 0.326,-0.53 0.323,-0.541C0.32,-0.552 0.317,-0.563 0.314,-0.572L0.308,-0.572C0.305,-0.56 0.302,-0.546 0.297,-0.531C0.292,-0.515 0.288,-0.5 0.283,-0.486C0.279,-0.472 0.276,-0.461 0.273,-0.453L0.213,-0.256Z" style="fill-rule:nonzero;"/>
                        </g>
                    </g>
                    <g transform="matrix(0.959378,-0.282125,0.282125,0.959378,-55.4872,60.9326)">
                        <g transform="matrix(10.8514,0,0,10.8514,183.847,223.148)">
                            <path d="M0.217,-0L0.217,-0.578L0.021,-0.578L0.021,-0.686L0.538,-0.686L0.538,-0.578L0.342,-0.578L0.342,-0L0.217,-0Z" style="fill-rule:nonzero;"/>
                        </g>
                    </g>
                    <g transform="matrix(0.902693,-0.430285,0.430285,0.902693,-76.2833,103.869)">
                        <g transform="matrix(10.8514,0,0,10.8514,191.509,220.594)">
                            <rect x="0.068" y="-0.686" width="0.126" height="0.686" style="fill-rule:nonzero;"/>
                        </g>
                    </g>
                    <g transform="matrix(0.813424,-0.581671,0.581671,0.813424,-90.5595,154.728)">
                        <g transform="matrix(10.8514,0,0,10.8514,195.912,218.529)">
                            <path d="M0.35,0.012C0.285,0.012 0.23,-0.001 0.184,-0.026C0.137,-0.051 0.102,-0.09 0.078,-0.143C0.053,-0.196 0.041,-0.262 0.041,-0.343C0.041,-0.424 0.053,-0.491 0.078,-0.544C0.102,-0.596 0.137,-0.635 0.184,-0.66C0.23,-0.685 0.285,-0.698 0.35,-0.698C0.415,-0.698 0.47,-0.685 0.516,-0.66C0.562,-0.635 0.597,-0.596 0.622,-0.544C0.646,-0.491 0.658,-0.424 0.658,-0.343C0.658,-0.262 0.646,-0.196 0.622,-0.143C0.597,-0.09 0.562,-0.051 0.516,-0.026C0.47,-0.001 0.415,0.012 0.35,0.012ZM0.35,-0.095C0.379,-0.095 0.405,-0.1 0.428,-0.11C0.45,-0.119 0.469,-0.134 0.484,-0.153C0.499,-0.172 0.511,-0.195 0.519,-0.224C0.526,-0.252 0.53,-0.285 0.53,-0.322L0.53,-0.364C0.53,-0.401 0.526,-0.434 0.519,-0.463C0.511,-0.492 0.499,-0.516 0.484,-0.535C0.469,-0.554 0.45,-0.568 0.428,-0.578C0.405,-0.587 0.379,-0.592 0.35,-0.592C0.32,-0.592 0.294,-0.587 0.272,-0.578C0.249,-0.568 0.231,-0.554 0.216,-0.535C0.201,-0.516 0.189,-0.492 0.182,-0.463C0.174,-0.434 0.17,-0.401 0.17,-0.364L0.17,-0.322C0.17,-0.285 0.174,-0.252 0.182,-0.224C0.189,-0.195 0.201,-0.172 0.216,-0.153C0.231,-0.134 0.249,-0.119 0.272,-0.11C0.294,-0.1 0.32,-0.095 0.35,-0.095Z" style="fill-rule:nonzero;"/>
                        </g>
                    </g>
                    <g transform="matrix(0.662855,-0.748748,0.748748,0.662855,-90.694,224.129)">
                        <g transform="matrix(10.8514,0,0,10.8514,203.532,212.774)">
                            <path d="M0.068,-0L0.068,-0.686L0.188,-0.686L0.432,-0.296C0.435,-0.291 0.439,-0.285 0.443,-0.279C0.447,-0.272 0.451,-0.264 0.455,-0.257C0.458,-0.25 0.461,-0.243 0.462,-0.238L0.467,-0.238L0.467,-0.686L0.587,-0.686L0.587,-0L0.468,-0L0.222,-0.394C0.218,-0.402 0.213,-0.412 0.206,-0.424C0.2,-0.436 0.196,-0.446 0.193,-0.454L0.188,-0.454L0.188,-0L0.068,-0Z" style="fill-rule:nonzero;"/>
                        </g>
                    </g>
                    <g transform="matrix(0.49022,-0.871599,0.871599,0.49022,-72.6606,287.403)">
                        <g transform="matrix(10.8514,0,0,10.8514,209.364,205.817)">
                            <path d="M0.295,0.012C0.26,0.012 0.228,0.008 0.197,0C0.166,-0.007 0.138,-0.019 0.115,-0.036C0.091,-0.053 0.072,-0.074 0.059,-0.101C0.046,-0.128 0.039,-0.16 0.039,-0.198L0.039,-0.218L0.164,-0.218L0.164,-0.2C0.164,-0.177 0.169,-0.157 0.179,-0.141C0.189,-0.126 0.204,-0.114 0.224,-0.107C0.244,-0.099 0.268,-0.095 0.296,-0.095C0.315,-0.095 0.331,-0.096 0.345,-0.099C0.359,-0.101 0.371,-0.105 0.382,-0.11C0.392,-0.115 0.401,-0.122 0.407,-0.129C0.414,-0.136 0.42,-0.144 0.423,-0.153C0.426,-0.162 0.427,-0.173 0.427,-0.184C0.427,-0.203 0.422,-0.219 0.411,-0.232C0.401,-0.245 0.387,-0.256 0.369,-0.265C0.351,-0.274 0.331,-0.281 0.309,-0.289C0.287,-0.296 0.264,-0.303 0.241,-0.31C0.217,-0.317 0.194,-0.326 0.172,-0.337C0.149,-0.347 0.129,-0.359 0.112,-0.374C0.094,-0.389 0.08,-0.407 0.069,-0.429C0.058,-0.45 0.053,-0.476 0.053,-0.507C0.053,-0.54 0.059,-0.568 0.072,-0.593C0.085,-0.617 0.102,-0.637 0.125,-0.653C0.147,-0.668 0.173,-0.68 0.203,-0.687C0.232,-0.694 0.264,-0.698 0.299,-0.698C0.332,-0.698 0.364,-0.694 0.393,-0.687C0.422,-0.68 0.447,-0.668 0.469,-0.653C0.491,-0.637 0.508,-0.617 0.521,-0.592C0.533,-0.567 0.539,-0.538 0.539,-0.503L0.539,-0.488L0.416,-0.488L0.416,-0.5C0.416,-0.519 0.411,-0.536 0.402,-0.55C0.393,-0.563 0.379,-0.574 0.362,-0.581C0.345,-0.588 0.324,-0.592 0.299,-0.592C0.274,-0.592 0.253,-0.589 0.235,-0.584C0.218,-0.578 0.204,-0.569 0.195,-0.558C0.185,-0.547 0.18,-0.532 0.18,-0.515C0.18,-0.498 0.185,-0.483 0.196,-0.471C0.206,-0.459 0.22,-0.449 0.238,-0.441C0.256,-0.432 0.276,-0.425 0.298,-0.418C0.32,-0.41 0.343,-0.403 0.367,-0.396C0.39,-0.389 0.413,-0.38 0.436,-0.37C0.458,-0.36 0.478,-0.347 0.496,-0.333C0.514,-0.318 0.528,-0.299 0.539,-0.278C0.549,-0.257 0.554,-0.231 0.554,-0.2C0.554,-0.149 0.543,-0.109 0.521,-0.078C0.499,-0.047 0.469,-0.024 0.43,-0.01C0.391,0.005 0.346,0.012 0.295,0.012Z" style="fill-rule:nonzero;"/>
                        </g>
                    </g>
                </g>
            </g>
            <g id="applications" transform="matrix(2.11476,0,0,2.10645,-271.602,-282.861)">
                <path d="M147.346,169.414C155.182,169.414 161.532,163.038 161.532,155.172C161.532,147.308 155.182,140.93 147.346,140.93C139.512,140.93 133.16,147.308 133.16,155.172C133.16,163.038 139.512,169.414 147.346,169.414ZM134.757,156.274C137.354,152.638 142.576,148.356 147.592,147.763C146.168,146.038 142.771,144.55 142.023,144.55C147.7,143.528 153.493,144.728 158.024,149.624C157.749,154.223 154.857,160 151.55,163.329C151.945,160 152.194,157.399 150.915,154.773C145.159,156.502 142.835,160.899 141.607,166.482C137.821,164.54 135.14,160.737 134.757,156.274Z" style="fill-rule:nonzero;"/>
            </g>
        </g>
    </g>
</svg>
