<?xml version="1.0" encoding="UTF-8" standalone="no"?>
<!DOCTYPE svg PUBLIC "-//W3C//DTD SVG 1.1//EN" "http://www.w3.org/Graphics/SVG/1.1/DTD/svg11.dtd">
<svg width="100%" height="100%" viewBox="0 0 800 800" version="1.1" xmlns="http://www.w3.org/2000/svg" xmlns:xlink="http://www.w3.org/1999/xlink" xml:space="preserve" xmlns:serif="http://www.serif.com/" style="fill-rule:evenodd;clip-rule:evenodd;stroke-linejoin:round;stroke-miterlimit:2;">
    <g id="cp-3com">
        <g>
            <path id="cp-3com1" serif:id="cp-3com" d="M450.455,633.333C453.764,608.935 474.7,590.104 500,590.104C525.3,590.104 546.236,608.935 549.545,633.333L666.667,633.333L666.667,650L549.019,650C544.419,672.865 524.207,690.104 500,690.104C475.793,690.104 455.581,672.865 450.981,650L432.352,650C427.753,672.865 407.54,690.104 383.333,690.104C359.126,690.104 338.914,672.865 334.314,650L133.333,650L133.333,633.333L333.789,633.333C337.097,608.935 358.034,590.104 383.333,590.104C408.633,590.104 429.569,608.935 432.878,633.333L450.455,633.333ZM217.122,516.667C220.431,492.269 241.367,473.438 266.667,473.438C291.966,473.438 312.903,492.269 316.211,516.667L666.667,516.667L666.667,533.333L315.686,533.333C311.086,556.198 290.874,573.438 266.667,573.438C242.46,573.438 222.247,556.198 217.648,533.333L133.333,533.333L133.333,516.667L217.122,516.667ZM217.122,400C220.431,375.602 241.367,356.771 266.667,356.771C291.966,356.771 312.903,375.602 316.211,400L666.667,400L666.667,416.667L315.686,416.667C311.086,439.531 290.874,456.771 266.667,456.771C242.46,456.771 222.247,439.531 217.648,416.667L133.333,416.667L133.333,400L217.122,400ZM217.122,283.333C220.431,258.935 241.367,240.104 266.667,240.104C291.966,240.104 312.903,258.935 316.211,283.333L666.667,283.333L666.667,300L315.686,300C311.086,322.865 290.874,340.104 266.667,340.104C242.46,340.104 222.247,322.865 217.648,300L133.333,300L133.333,283.333L217.122,283.333ZM450.455,166.667C453.764,142.269 474.7,123.438 500,123.438C525.3,123.438 546.236,142.269 549.545,166.667L666.667,166.667L666.667,183.333L549.019,183.333C544.419,206.198 524.207,223.438 500,223.438C475.793,223.438 455.581,206.198 450.981,183.333L432.352,183.333C427.753,206.198 407.54,223.438 383.333,223.438C359.126,223.438 338.914,206.198 334.314,183.333L133.333,183.333L133.333,166.667L333.789,166.667C337.097,142.269 358.034,123.438 383.333,123.438C408.633,123.438 429.569,142.269 432.878,166.667L450.455,166.667Z"/>
        </g>
    </g>
</svg>
